%TF.GenerationSoftware,KiCad,Pcbnew,8.0.3*%
%TF.CreationDate,2024-06-16T21:04:04+09:00*%
%TF.ProjectId,USB_power,5553425f-706f-4776-9572-2e6b69636164,rev?*%
%TF.SameCoordinates,PX79d7e50PY830c570*%
%TF.FileFunction,Paste,Top*%
%TF.FilePolarity,Positive*%
%FSLAX46Y46*%
G04 Gerber Fmt 4.6, Leading zero omitted, Abs format (unit mm)*
G04 Created by KiCad (PCBNEW 8.0.3) date 2024-06-16 21:04:04*
%MOMM*%
%LPD*%
G01*
G04 APERTURE LIST*
G04 Aperture macros list*
%AMRoundRect*
0 Rectangle with rounded corners*
0 $1 Rounding radius*
0 $2 $3 $4 $5 $6 $7 $8 $9 X,Y pos of 4 corners*
0 Add a 4 corners polygon primitive as box body*
4,1,4,$2,$3,$4,$5,$6,$7,$8,$9,$2,$3,0*
0 Add four circle primitives for the rounded corners*
1,1,$1+$1,$2,$3*
1,1,$1+$1,$4,$5*
1,1,$1+$1,$6,$7*
1,1,$1+$1,$8,$9*
0 Add four rect primitives between the rounded corners*
20,1,$1+$1,$2,$3,$4,$5,0*
20,1,$1+$1,$4,$5,$6,$7,0*
20,1,$1+$1,$6,$7,$8,$9,0*
20,1,$1+$1,$8,$9,$2,$3,0*%
G04 Aperture macros list end*
%ADD10RoundRect,0.250000X-0.450000X0.262500X-0.450000X-0.262500X0.450000X-0.262500X0.450000X0.262500X0*%
%ADD11RoundRect,0.250000X0.450000X-0.262500X0.450000X0.262500X-0.450000X0.262500X-0.450000X-0.262500X0*%
%ADD12RoundRect,0.150000X0.425000X-0.150000X0.425000X0.150000X-0.425000X0.150000X-0.425000X-0.150000X0*%
%ADD13RoundRect,0.075000X0.500000X-0.075000X0.500000X0.075000X-0.500000X0.075000X-0.500000X-0.075000X0*%
%ADD14O,2.100000X1.000000*%
%ADD15O,1.800000X1.000000*%
%ADD16RoundRect,0.250000X-0.250000X-0.475000X0.250000X-0.475000X0.250000X0.475000X-0.250000X0.475000X0*%
%ADD17RoundRect,0.250000X0.250000X0.475000X-0.250000X0.475000X-0.250000X-0.475000X0.250000X-0.475000X0*%
%ADD18RoundRect,0.218750X0.112544X-0.317568X0.331294X0.061318X-0.112544X0.317568X-0.331294X-0.061318X0*%
%ADD19R,1.143000X1.143000*%
%ADD20R,4.191000X1.905000*%
%ADD21R,1.905000X4.191000*%
%ADD22RoundRect,0.250000X-0.258461X0.452332X-0.520961X-0.002332X0.258461X-0.452332X0.520961X0.002332X0*%
%ADD23RoundRect,0.218750X-0.256250X0.218750X-0.256250X-0.218750X0.256250X-0.218750X0.256250X0.218750X0*%
G04 APERTURE END LIST*
D10*
%TO.C,R9*%
X21138318Y39767082D03*
X21138318Y37942082D03*
%TD*%
D11*
%TO.C,R2*%
X23627518Y11424482D03*
X23627518Y13249482D03*
%TD*%
%TO.C,R1*%
X21595518Y10511982D03*
X21595518Y12336982D03*
%TD*%
%TO.C,R7*%
X23373518Y30982482D03*
X23373518Y32807482D03*
%TD*%
D12*
%TO.C,J4*%
X35187518Y9494482D03*
X35187518Y10294482D03*
D13*
X35187518Y11444482D03*
X35187518Y12444482D03*
X35187518Y12944482D03*
X35187518Y13944482D03*
D12*
X35187518Y15094482D03*
X35187518Y15894482D03*
X35187518Y15894482D03*
X35187518Y15094482D03*
D13*
X35187518Y14444482D03*
X35187518Y13444482D03*
X35187518Y11944482D03*
X35187518Y10944482D03*
D12*
X35187518Y10294482D03*
X35187518Y9494482D03*
D14*
X35762518Y8374482D03*
D15*
X39942518Y8374482D03*
D14*
X35762518Y17014482D03*
D15*
X39942518Y17014482D03*
%TD*%
D16*
%TO.C,C1*%
X11247518Y24886482D03*
X13147518Y24886482D03*
%TD*%
D17*
%TO.C,C10*%
X17785518Y44444482D03*
X15885518Y44444482D03*
%TD*%
D10*
%TO.C,R10*%
X23170318Y37940182D03*
X23170318Y36115182D03*
%TD*%
D18*
%TO.C,D1*%
X30599767Y13409486D03*
X31387269Y14773478D03*
%TD*%
D19*
%TO.C,MD2*%
X8641518Y36316482D03*
D20*
X9784518Y40888482D03*
X14356518Y40888482D03*
D21*
X17785518Y39745482D03*
D19*
X17785518Y36316482D03*
X17785518Y31744482D03*
X13213518Y31744482D03*
X10927518Y31744482D03*
X8641518Y31744482D03*
X8641518Y34030482D03*
X17785518Y34030482D03*
X15499518Y31744482D03*
%TD*%
D22*
%TO.C,R11*%
X28909768Y12341730D03*
X27997268Y10761234D03*
%TD*%
D17*
%TO.C,C5*%
X17973518Y24886482D03*
X16073518Y24886482D03*
%TD*%
D19*
%TO.C,MD1*%
X8895518Y16758482D03*
D20*
X10038518Y21330482D03*
X14610518Y21330482D03*
D21*
X18039518Y20187482D03*
D19*
X18039518Y16758482D03*
X18039518Y12186482D03*
X13467518Y12186482D03*
X11181518Y12186482D03*
X8895518Y12186482D03*
X8895518Y14472482D03*
X18039518Y14472482D03*
X15753518Y12186482D03*
%TD*%
D10*
%TO.C,R4*%
X21290718Y18813982D03*
X21290718Y16988982D03*
%TD*%
%TO.C,R5*%
X23373518Y16908982D03*
X23373518Y15083982D03*
%TD*%
D23*
%TO.C,D2*%
X24897518Y45993982D03*
X24897518Y44418982D03*
%TD*%
D11*
%TO.C,R3*%
X25659518Y12035982D03*
X25659518Y13860982D03*
%TD*%
%TO.C,R6*%
X21341518Y29157482D03*
X21341518Y30982482D03*
%TD*%
%TO.C,R8*%
X25405518Y32760482D03*
X25405518Y34585482D03*
%TD*%
%TO.C,R12*%
X22357518Y45563982D03*
X22357518Y47388982D03*
%TD*%
D16*
%TO.C,C2*%
X11247518Y44444482D03*
X13147518Y44444482D03*
%TD*%
M02*
