%TF.GenerationSoftware,KiCad,Pcbnew,8.0.3*%
%TF.CreationDate,2024-06-16T21:04:04+09:00*%
%TF.ProjectId,USB_power,5553425f-706f-4776-9572-2e6b69636164,rev?*%
%TF.SameCoordinates,PX79d7e50PY830c570*%
%TF.FileFunction,Legend,Top*%
%TF.FilePolarity,Positive*%
%FSLAX46Y46*%
G04 Gerber Fmt 4.6, Leading zero omitted, Abs format (unit mm)*
G04 Created by KiCad (PCBNEW 8.0.3) date 2024-06-16 21:04:04*
%MOMM*%
%LPD*%
G01*
G04 APERTURE LIST*
%ADD10C,0.240000*%
%ADD11C,0.200000*%
%ADD12C,0.125000*%
%ADD13C,0.375000*%
%ADD14C,0.100000*%
%ADD15C,0.150000*%
%ADD16C,0.000000*%
%ADD17C,0.120000*%
%ADD18C,0.250000*%
G04 APERTURE END LIST*
D10*
G36*
X37560161Y57335343D02*
G01*
X37639831Y57257635D01*
X37685735Y57080726D01*
X37687751Y56710572D01*
X37642468Y56522333D01*
X37567537Y56445510D01*
X37494497Y56407587D01*
X37322500Y56406013D01*
X37251230Y56440299D01*
X37171562Y56518005D01*
X37125658Y56694915D01*
X37123642Y57065070D01*
X37168925Y57253307D01*
X37243856Y57330130D01*
X37316897Y57368054D01*
X37488894Y57369628D01*
X37560161Y57335343D01*
G37*
G36*
X40342439Y56034487D02*
G01*
X33667211Y56034487D01*
X33667211Y56904807D01*
X33800544Y56904807D01*
X33802289Y56899024D01*
X33802289Y56892980D01*
X33809001Y56876776D01*
X33814068Y56859982D01*
X33817894Y56855305D01*
X33820207Y56849723D01*
X33832610Y56837320D01*
X33843718Y56823744D01*
X33849042Y56820888D01*
X33853315Y56816615D01*
X33869521Y56809902D01*
X33884977Y56801611D01*
X33890988Y56801010D01*
X33896572Y56798697D01*
X33914117Y56798697D01*
X33931567Y56796952D01*
X33937351Y56798697D01*
X33943394Y56798697D01*
X33959598Y56805410D01*
X33976392Y56810476D01*
X33981069Y56814303D01*
X33986651Y56816615D01*
X34004836Y56831538D01*
X34045113Y56873640D01*
X34116813Y56910867D01*
X34345848Y56912576D01*
X34417728Y56877996D01*
X34448659Y56848403D01*
X34485886Y56776704D01*
X34487595Y56547668D01*
X34453015Y56475788D01*
X34423425Y56444858D01*
X34351723Y56407631D01*
X34122689Y56405922D01*
X34050808Y56440502D01*
X33986651Y56501881D01*
X33943394Y56519799D01*
X33896572Y56519799D01*
X33853315Y56501881D01*
X33820207Y56468773D01*
X33802289Y56425516D01*
X33802289Y56378694D01*
X33820207Y56335437D01*
X33835130Y56317252D01*
X33895251Y56259734D01*
X33903553Y56250162D01*
X33908534Y56247027D01*
X33910458Y56245186D01*
X33913381Y56243976D01*
X33923461Y56237630D01*
X34023083Y56189705D01*
X34024744Y56188044D01*
X34037637Y56182704D01*
X34059718Y56172081D01*
X34064018Y56171776D01*
X34068001Y56170126D01*
X34091412Y56167820D01*
X34358958Y56169816D01*
X34362117Y56168763D01*
X34379045Y56169966D01*
X34400537Y56170126D01*
X34404519Y56171776D01*
X34408820Y56172081D01*
X34430791Y56180488D01*
X34544829Y56239698D01*
X34558081Y56245186D01*
X34562696Y56248974D01*
X34564985Y56250162D01*
X34567060Y56252556D01*
X34576266Y56260110D01*
X34633781Y56320230D01*
X34643353Y56328531D01*
X34646488Y56333513D01*
X34648331Y56335438D01*
X34649543Y56338365D01*
X34655885Y56348439D01*
X34703811Y56448062D01*
X34705473Y56449723D01*
X34710812Y56462615D01*
X34721436Y56484696D01*
X34721741Y56488999D01*
X34723391Y56492980D01*
X34725697Y56516391D01*
X34723701Y56783938D01*
X34724754Y56787096D01*
X34723551Y56804025D01*
X34723391Y56825516D01*
X34721741Y56829498D01*
X34721436Y56833800D01*
X34713028Y56855770D01*
X34653821Y56969804D01*
X34648331Y56983058D01*
X34644541Y56987676D01*
X34643353Y56989965D01*
X34640959Y56992041D01*
X34633408Y57001243D01*
X34573284Y57058765D01*
X34564986Y57068333D01*
X34560007Y57071468D01*
X34558081Y57073310D01*
X34555153Y57074523D01*
X34545078Y57080865D01*
X34445456Y57128791D01*
X34443794Y57130453D01*
X34430890Y57135799D01*
X34408821Y57146415D01*
X34404521Y57146721D01*
X34400537Y57148371D01*
X34377126Y57150677D01*
X34109579Y57148682D01*
X34106421Y57149734D01*
X34089492Y57148532D01*
X34068001Y57148371D01*
X34064019Y57146722D01*
X34062661Y57146626D01*
X34083958Y57368235D01*
X34571965Y57370126D01*
X34615222Y57388044D01*
X34648330Y57421152D01*
X34666248Y57464409D01*
X34666248Y57472812D01*
X34829496Y57472812D01*
X34834712Y57449873D01*
X35232227Y56264404D01*
X35232816Y56256125D01*
X35239458Y56242841D01*
X35244303Y56228392D01*
X35249920Y56221915D01*
X35253755Y56214246D01*
X35265121Y56204388D01*
X35274980Y56193021D01*
X35282648Y56189187D01*
X35289126Y56183569D01*
X35303402Y56178810D01*
X35316859Y56172082D01*
X35325409Y56171475D01*
X35333546Y56168762D01*
X35348558Y56169830D01*
X35363562Y56168763D01*
X35371695Y56171474D01*
X35380249Y56172082D01*
X35393707Y56178811D01*
X35407982Y56183569D01*
X35414458Y56189187D01*
X35422128Y56193021D01*
X35431988Y56204391D01*
X35443353Y56214247D01*
X35447186Y56221914D01*
X35452805Y56228392D01*
X35462396Y56249873D01*
X35740047Y57087820D01*
X36885697Y57087820D01*
X36887834Y56695395D01*
X36885839Y56681987D01*
X36887986Y56667465D01*
X36888003Y56664409D01*
X36888679Y56662776D01*
X36889280Y56658716D01*
X36945146Y56443416D01*
X36945146Y56435837D01*
X36950410Y56423129D01*
X36954338Y56407991D01*
X36959650Y56400822D01*
X36963064Y56392580D01*
X36977987Y56374395D01*
X37093654Y56261576D01*
X37103553Y56250163D01*
X37108635Y56246964D01*
X37110458Y56245186D01*
X37113386Y56243974D01*
X37123461Y56237631D01*
X37223080Y56189707D01*
X37224743Y56188044D01*
X37237646Y56182699D01*
X37259716Y56172082D01*
X37264015Y56171777D01*
X37268000Y56170126D01*
X37291411Y56167820D01*
X37502020Y56169748D01*
X37504974Y56168763D01*
X37521315Y56169924D01*
X37543394Y56170126D01*
X37547375Y56171776D01*
X37551678Y56172081D01*
X37573648Y56180489D01*
X37687678Y56239695D01*
X37700936Y56245186D01*
X37705553Y56248976D01*
X37707841Y56250163D01*
X37709915Y56252555D01*
X37719121Y56260109D01*
X37823120Y56366735D01*
X37829182Y56370371D01*
X37837127Y56381095D01*
X37848330Y56392580D01*
X37851743Y56400822D01*
X37857056Y56407991D01*
X37864971Y56430144D01*
X37918466Y56652521D01*
X37923391Y56664409D01*
X37924822Y56678943D01*
X37925555Y56681987D01*
X37925294Y56683736D01*
X37925697Y56687820D01*
X37923559Y57080246D01*
X37925555Y57093653D01*
X37923407Y57108176D01*
X37923391Y57111231D01*
X37922714Y57112865D01*
X37922114Y57116924D01*
X37866248Y57332224D01*
X37866248Y57339802D01*
X37860983Y57352511D01*
X37857056Y57367648D01*
X37851743Y57374818D01*
X37848330Y57383059D01*
X37833407Y57401244D01*
X37744645Y57487820D01*
X38199983Y57487820D01*
X38202191Y56535195D01*
X38200926Y56531399D01*
X38202242Y56512869D01*
X38202289Y56492980D01*
X38203939Y56488996D01*
X38204245Y56484696D01*
X38212652Y56462725D01*
X38271860Y56348690D01*
X38277350Y56335437D01*
X38281138Y56330821D01*
X38282327Y56328531D01*
X38284721Y56326455D01*
X38292273Y56317252D01*
X38352396Y56259732D01*
X38360696Y56250163D01*
X38365674Y56247030D01*
X38367601Y56245186D01*
X38370528Y56243974D01*
X38380604Y56237631D01*
X38480223Y56189707D01*
X38481886Y56188044D01*
X38494789Y56182699D01*
X38516859Y56172082D01*
X38521158Y56171777D01*
X38525143Y56170126D01*
X38548554Y56167820D01*
X38759163Y56169748D01*
X38762117Y56168763D01*
X38778458Y56169924D01*
X38800537Y56170126D01*
X38804518Y56171776D01*
X38808821Y56172081D01*
X38830791Y56180489D01*
X38944821Y56239695D01*
X38958079Y56245186D01*
X38962696Y56248976D01*
X38964984Y56250163D01*
X38967058Y56252555D01*
X38976264Y56260109D01*
X39033780Y56320229D01*
X39043353Y56328531D01*
X39046488Y56333513D01*
X39048330Y56335437D01*
X39049541Y56338362D01*
X39055885Y56348439D01*
X39103811Y56448062D01*
X39105473Y56449723D01*
X39110812Y56462615D01*
X39121436Y56484696D01*
X39121741Y56488999D01*
X39123391Y56492980D01*
X39125697Y56516391D01*
X39123391Y57511231D01*
X39288003Y57511231D01*
X39288003Y57464409D01*
X39305921Y57421152D01*
X39339029Y57388044D01*
X39382286Y57370126D01*
X39405697Y57367820D01*
X39628778Y57368546D01*
X39630860Y56264409D01*
X39648778Y56221152D01*
X39681886Y56188044D01*
X39725143Y56170126D01*
X39771965Y56170126D01*
X39815222Y56188044D01*
X39848330Y56221152D01*
X39866248Y56264409D01*
X39868554Y56287820D01*
X39866515Y57369319D01*
X40114823Y57370126D01*
X40158080Y57388044D01*
X40191188Y57421152D01*
X40209106Y57464409D01*
X40209106Y57511231D01*
X40191188Y57554488D01*
X40158080Y57587596D01*
X40114823Y57605514D01*
X40091412Y57607820D01*
X39382286Y57605514D01*
X39339029Y57587596D01*
X39305921Y57554488D01*
X39288003Y57511231D01*
X39123391Y57511231D01*
X39105473Y57554488D01*
X39072365Y57587596D01*
X39029108Y57605514D01*
X38982286Y57605514D01*
X38939029Y57587596D01*
X38905921Y57554488D01*
X38888003Y57511231D01*
X38885697Y57487820D01*
X38887874Y56548250D01*
X38853016Y56475790D01*
X38823423Y56444857D01*
X38751640Y56407587D01*
X38579643Y56406013D01*
X38507951Y56440502D01*
X38477019Y56470094D01*
X38439924Y56541540D01*
X38437677Y57511231D01*
X38419759Y57554488D01*
X38386651Y57587596D01*
X38343394Y57605514D01*
X38296572Y57605514D01*
X38253315Y57587596D01*
X38220207Y57554488D01*
X38202289Y57511231D01*
X38199983Y57487820D01*
X37744645Y57487820D01*
X37717742Y57514061D01*
X37707842Y57525476D01*
X37702756Y57528678D01*
X37700936Y57530453D01*
X37698010Y57531665D01*
X37687934Y57538008D01*
X37588313Y57585934D01*
X37586651Y57587596D01*
X37573745Y57592942D01*
X37551678Y57603558D01*
X37547378Y57603864D01*
X37543394Y57605514D01*
X37519983Y57607820D01*
X37309372Y57605893D01*
X37306419Y57606877D01*
X37290083Y57605717D01*
X37268000Y57605514D01*
X37264015Y57603864D01*
X37259716Y57603558D01*
X37237745Y57595151D01*
X37123709Y57535943D01*
X37110458Y57530453D01*
X37105841Y57526665D01*
X37103552Y57525476D01*
X37101475Y57523082D01*
X37092273Y57515530D01*
X36988272Y57408904D01*
X36982213Y57405268D01*
X36974269Y57394548D01*
X36963064Y57383059D01*
X36959650Y57374818D01*
X36954338Y57367648D01*
X36946423Y57345496D01*
X36892927Y57123120D01*
X36888003Y57111231D01*
X36886571Y57096698D01*
X36885839Y57093653D01*
X36886099Y57091905D01*
X36885697Y57087820D01*
X35740047Y57087820D01*
X35867612Y57472811D01*
X35864292Y57519515D01*
X35843353Y57561393D01*
X35807982Y57592071D01*
X35763562Y57606877D01*
X35716859Y57603558D01*
X35674980Y57582619D01*
X35644303Y57547248D01*
X35634712Y57525767D01*
X35349074Y56663715D01*
X35052805Y57547248D01*
X35022128Y57582619D01*
X34980249Y57603558D01*
X34933546Y57606878D01*
X34889126Y57592071D01*
X34853755Y57561394D01*
X34832816Y57519515D01*
X34829496Y57472812D01*
X34666248Y57472812D01*
X34666248Y57511231D01*
X34648330Y57554488D01*
X34615222Y57587596D01*
X34571965Y57605514D01*
X34548554Y57607820D01*
X33981899Y57605624D01*
X33965542Y57607259D01*
X33959836Y57605538D01*
X33953715Y57605514D01*
X33937510Y57598802D01*
X33920717Y57593735D01*
X33916039Y57589909D01*
X33910458Y57587596D01*
X33898054Y57575193D01*
X33884479Y57564085D01*
X33881622Y57558761D01*
X33877350Y57554488D01*
X33870636Y57538282D01*
X33862346Y57522826D01*
X33860574Y57513990D01*
X33859432Y57511231D01*
X33859432Y57508291D01*
X33857722Y57499760D01*
X33804396Y56944889D01*
X33802289Y56939802D01*
X33802289Y56922965D01*
X33800544Y56904807D01*
X33667211Y56904807D01*
X33667211Y57741153D01*
X40342439Y57741153D01*
X40342439Y56034487D01*
G37*
D11*
G36*
X27314626Y15280594D02*
G01*
X27398197Y15233653D01*
X27435411Y15179117D01*
X27445403Y15144874D01*
X27442400Y15077741D01*
X27312996Y14851102D01*
X27030682Y15013388D01*
X27157786Y15235998D01*
X27212921Y15273620D01*
X27247164Y15283612D01*
X27314626Y15280594D01*
G37*
G36*
X26589240Y17133594D02*
G01*
X26756097Y17087466D01*
X26859692Y17029279D01*
X26984437Y16910790D01*
X27031139Y16842349D01*
X27057247Y16749555D01*
X27036567Y16642348D01*
X26974164Y16532377D01*
X26279060Y16931951D01*
X26337846Y17035550D01*
X26421735Y17111647D01*
X26512022Y17137049D01*
X26589240Y17133594D01*
G37*
G36*
X27321972Y17707227D02*
G01*
X27221995Y17532499D01*
X27010242Y17770437D01*
X27321972Y17707227D01*
G37*
G36*
X27491803Y18807360D02*
G01*
X27575375Y18760418D01*
X27612587Y18705884D01*
X27622579Y18671640D01*
X27619576Y18604507D01*
X27559947Y18500072D01*
X27557527Y18497188D01*
X27556571Y18494160D01*
X27490172Y18377869D01*
X27207858Y18540154D01*
X27334962Y18762764D01*
X27390095Y18800385D01*
X27424343Y18810378D01*
X27491803Y18807360D01*
G37*
G36*
X30476654Y18762660D02*
G01*
X27836971Y14190596D01*
X26484442Y14971479D01*
X26795551Y14971479D01*
X26805650Y14933790D01*
X26829402Y14902835D01*
X26845337Y14891416D01*
X27729218Y14383325D01*
X27767903Y14378233D01*
X27805591Y14388332D01*
X27836547Y14412084D01*
X27856056Y14445875D01*
X27861148Y14484559D01*
X27851050Y14522248D01*
X27827297Y14553203D01*
X27811362Y14564621D01*
X27484803Y14752341D01*
X27616824Y14983560D01*
X27619115Y14985591D01*
X27625612Y14998952D01*
X27634139Y15013884D01*
X27634608Y15017447D01*
X27636180Y15020679D01*
X27639266Y15040038D01*
X27644051Y15147010D01*
X27645611Y15158857D01*
X27644800Y15163765D01*
X27644897Y15165915D01*
X27644033Y15168415D01*
X27642418Y15178198D01*
X27622996Y15244760D01*
X27620993Y15255127D01*
X27618705Y15259463D01*
X27618084Y15261594D01*
X27616476Y15263690D01*
X27611847Y15272465D01*
X27559920Y15348561D01*
X27559414Y15350452D01*
X27552329Y15359686D01*
X27540824Y15376546D01*
X27537849Y15378558D01*
X27535662Y15381408D01*
X27519727Y15392826D01*
X27407982Y15455592D01*
X27406448Y15457322D01*
X27394923Y15462927D01*
X27378154Y15472346D01*
X27374591Y15472816D01*
X27371359Y15474387D01*
X27352000Y15477473D01*
X27245026Y15482260D01*
X27233179Y15483819D01*
X27228272Y15483009D01*
X27226123Y15483105D01*
X27223622Y15482241D01*
X27213838Y15480625D01*
X27147286Y15461206D01*
X27136912Y15459201D01*
X27132572Y15456912D01*
X27130442Y15456290D01*
X27128348Y15454684D01*
X27119573Y15450054D01*
X27043475Y15398128D01*
X27041584Y15397621D01*
X27032356Y15390541D01*
X27015492Y15379033D01*
X27013479Y15376056D01*
X27010629Y15373869D01*
X26999211Y15357934D01*
X26800644Y15010163D01*
X26795551Y14971479D01*
X26484442Y14971479D01*
X25171463Y15729528D01*
X25198554Y15776451D01*
X25401299Y15776451D01*
X25411398Y15738762D01*
X25435150Y15707807D01*
X25451085Y15696388D01*
X26334966Y15188297D01*
X26369150Y15183798D01*
X26373650Y15183205D01*
X26373650Y15183206D01*
X26373651Y15183205D01*
X26411339Y15193304D01*
X26442295Y15217056D01*
X26442299Y15217064D01*
X26453713Y15232991D01*
X26699898Y15663240D01*
X26704991Y15701924D01*
X26694892Y15739613D01*
X26671140Y15770568D01*
X26637349Y15790077D01*
X26598665Y15795170D01*
X26560976Y15785071D01*
X26530020Y15761318D01*
X26518602Y15745384D01*
X26331677Y15418703D01*
X25603125Y15837505D01*
X27295551Y15837505D01*
X27305650Y15799816D01*
X27329402Y15768861D01*
X27345337Y15757442D01*
X28229218Y15249351D01*
X28267903Y15244259D01*
X28305591Y15254358D01*
X28336547Y15278110D01*
X28356056Y15311901D01*
X28361148Y15350585D01*
X28351050Y15388274D01*
X28327297Y15419229D01*
X28311362Y15430647D01*
X27427481Y15938738D01*
X27388797Y15943831D01*
X27351108Y15933732D01*
X27320153Y15909980D01*
X27300644Y15876189D01*
X27295551Y15837505D01*
X25603125Y15837505D01*
X25533229Y15877684D01*
X25494545Y15882777D01*
X25456856Y15872678D01*
X25425901Y15848926D01*
X25406392Y15815135D01*
X25401299Y15776451D01*
X25198554Y15776451D01*
X25507091Y16310853D01*
X26094736Y16310853D01*
X26104835Y16273164D01*
X26128587Y16242209D01*
X26144522Y16230790D01*
X26739728Y15889367D01*
X26778412Y15884274D01*
X26816101Y15894373D01*
X26847056Y15918125D01*
X26866565Y15951916D01*
X26871658Y15990600D01*
X26861559Y16028289D01*
X26837807Y16059245D01*
X26821872Y16070663D01*
X26226666Y16412086D01*
X26187982Y16417179D01*
X26150293Y16407080D01*
X26119338Y16383328D01*
X26099829Y16349537D01*
X26094736Y16310853D01*
X25507091Y16310853D01*
X25603317Y16477521D01*
X25806061Y16477521D01*
X25809254Y16458179D01*
X25833581Y16374807D01*
X25833588Y16374782D01*
X25843967Y16361257D01*
X25857340Y16343828D01*
X25866395Y16338600D01*
X25891132Y16324318D01*
X25920814Y16320411D01*
X25929815Y16319225D01*
X25929815Y16319226D01*
X25929817Y16319225D01*
X25949158Y16322418D01*
X26032554Y16346753D01*
X26036182Y16349537D01*
X26055432Y16364308D01*
X26063510Y16370506D01*
X26083019Y16404296D01*
X26087134Y16435556D01*
X26088112Y16442982D01*
X26088108Y16442994D01*
X26084918Y16462323D01*
X26060583Y16545719D01*
X26060583Y16545720D01*
X26036829Y16576674D01*
X26003039Y16596183D01*
X25964354Y16601276D01*
X25945013Y16598082D01*
X25861636Y16573753D01*
X25861619Y16573748D01*
X25861618Y16573748D01*
X25861617Y16573747D01*
X25853377Y16567424D01*
X25842716Y16559243D01*
X25830663Y16549995D01*
X25822714Y16536227D01*
X25811154Y16516205D01*
X25806061Y16477521D01*
X25603317Y16477521D01*
X25841410Y16889911D01*
X26044156Y16889911D01*
X26054255Y16852223D01*
X26078007Y16821267D01*
X26078014Y16821263D01*
X26093942Y16809849D01*
X26977823Y16301758D01*
X27012007Y16297259D01*
X27016507Y16296666D01*
X27016507Y16296667D01*
X27016508Y16296666D01*
X27054196Y16306765D01*
X27085152Y16330517D01*
X27085156Y16330525D01*
X27096570Y16346452D01*
X27213436Y16552404D01*
X27221192Y16563873D01*
X27222686Y16568706D01*
X27223708Y16570505D01*
X27224052Y16573120D01*
X27226985Y16582601D01*
X27252713Y16715984D01*
X27253897Y16718033D01*
X27255591Y16730903D01*
X27259203Y16749626D01*
X27258521Y16753156D01*
X27258990Y16756717D01*
X27255796Y16776059D01*
X27219327Y16905682D01*
X27216941Y16918034D01*
X27214607Y16922459D01*
X27214032Y16924503D01*
X27212422Y16926601D01*
X27207795Y16935373D01*
X27151330Y17018121D01*
X27147876Y17026080D01*
X27137818Y17037923D01*
X27136774Y17039453D01*
X27136173Y17039859D01*
X27135186Y17041022D01*
X26996992Y17172285D01*
X26990463Y17180795D01*
X26980570Y17187884D01*
X26978679Y17189680D01*
X26977307Y17190222D01*
X26974528Y17192213D01*
X26854573Y17259590D01*
X26846542Y17265969D01*
X26835285Y17270423D01*
X26832954Y17271732D01*
X26831487Y17271926D01*
X26828313Y17273181D01*
X26646009Y17323581D01*
X26637393Y17327771D01*
X26621944Y17330234D01*
X26620261Y17330699D01*
X26619541Y17330617D01*
X26618034Y17330857D01*
X26511061Y17335644D01*
X26499214Y17337203D01*
X26494307Y17336393D01*
X26492158Y17336489D01*
X26489658Y17335626D01*
X26479872Y17334009D01*
X26364300Y17301494D01*
X26362059Y17301628D01*
X26350151Y17297513D01*
X26331428Y17292245D01*
X26328575Y17290057D01*
X26325181Y17288883D01*
X26309310Y17277377D01*
X26198007Y17176413D01*
X26187804Y17168583D01*
X26184883Y17164508D01*
X26183320Y17163089D01*
X26182163Y17160712D01*
X26176386Y17152648D01*
X26049248Y16928596D01*
X26044156Y16889911D01*
X25841410Y16889911D01*
X26440742Y17927985D01*
X26639181Y17927985D01*
X26640536Y17920967D01*
X26640109Y17913837D01*
X26644204Y17901987D01*
X26646583Y17889675D01*
X26650518Y17883715D01*
X26652853Y17876959D01*
X26664360Y17861088D01*
X27167892Y17295291D01*
X27172787Y17288912D01*
X27174396Y17287984D01*
X27378099Y17059091D01*
X27413188Y17042027D01*
X27452136Y17039689D01*
X27489014Y17052433D01*
X27518207Y17078321D01*
X27535271Y17113410D01*
X27537609Y17152358D01*
X27524865Y17189236D01*
X27513358Y17205107D01*
X27360951Y17376360D01*
X27526536Y17665747D01*
X27771322Y17616111D01*
X27809632Y17623513D01*
X27842193Y17645011D01*
X27864049Y17677334D01*
X27871871Y17715560D01*
X27864469Y17753870D01*
X27842971Y17786431D01*
X27810648Y17808286D01*
X27791921Y17814080D01*
X26770746Y18021145D01*
X26764530Y18024168D01*
X26752181Y18024910D01*
X26739730Y18027434D01*
X26732711Y18026079D01*
X26725582Y18026506D01*
X26713731Y18022411D01*
X26701420Y18020032D01*
X26695459Y18016097D01*
X26688704Y18013762D01*
X26679318Y18005440D01*
X26668859Y17998533D01*
X26664857Y17992616D01*
X26659511Y17987874D01*
X26654029Y17976603D01*
X26647003Y17966211D01*
X26645569Y17959207D01*
X26642447Y17952785D01*
X26641696Y17940277D01*
X26639181Y17927985D01*
X26440742Y17927985D01*
X26769982Y18498245D01*
X26972727Y18498245D01*
X26982826Y18460556D01*
X27006578Y18429601D01*
X27022513Y18418182D01*
X27906395Y17910091D01*
X27945080Y17904999D01*
X27982768Y17915097D01*
X28013724Y17938850D01*
X28033233Y17972641D01*
X28038325Y18011325D01*
X28028227Y18049014D01*
X28004474Y18079969D01*
X27988539Y18091387D01*
X27661979Y18279107D01*
X27704779Y18354065D01*
X28252223Y18403648D01*
X28286835Y18421660D01*
X28311919Y18451546D01*
X28323658Y18488757D01*
X28320263Y18527627D01*
X28302250Y18562238D01*
X28272364Y18587323D01*
X28235154Y18599062D01*
X28215551Y18599278D01*
X27815847Y18563076D01*
X27816442Y18566804D01*
X27821227Y18673776D01*
X27822787Y18685623D01*
X27821976Y18690531D01*
X27822073Y18692681D01*
X27821209Y18695181D01*
X27819594Y18704964D01*
X27800170Y18771530D01*
X27798169Y18781892D01*
X27795882Y18786227D01*
X27795260Y18788360D01*
X27793651Y18790457D01*
X27789023Y18799231D01*
X27737096Y18875329D01*
X27736590Y18877219D01*
X27729510Y18886445D01*
X27718002Y18903311D01*
X27715024Y18905324D01*
X27712838Y18908174D01*
X27696903Y18919593D01*
X27585158Y18982358D01*
X27583624Y18984088D01*
X27572094Y18989696D01*
X27555329Y18999112D01*
X27551767Y18999581D01*
X27548535Y19001153D01*
X27529176Y19004239D01*
X27422204Y19009026D01*
X27410357Y19010585D01*
X27405449Y19009775D01*
X27403300Y19009871D01*
X27400802Y19009008D01*
X27391015Y19007392D01*
X27324455Y18987970D01*
X27314088Y18985967D01*
X27309751Y18983680D01*
X27307619Y18983057D01*
X27305523Y18981449D01*
X27296749Y18976820D01*
X27220651Y18924894D01*
X27218760Y18924387D01*
X27209532Y18917307D01*
X27192668Y18905799D01*
X27190655Y18902822D01*
X27187805Y18900635D01*
X27176387Y18884700D01*
X26977820Y18536929D01*
X26972727Y18498245D01*
X26769982Y18498245D01*
X27652124Y20026159D01*
X27789259Y20026159D01*
X27791851Y19987227D01*
X27798776Y19968887D01*
X28494034Y18567086D01*
X28523396Y18541390D01*
X28560357Y18528887D01*
X28599289Y18531479D01*
X28634265Y18548773D01*
X28659961Y18578136D01*
X28672464Y18615096D01*
X28669872Y18654028D01*
X28662947Y18672368D01*
X27967689Y20074169D01*
X27938326Y20099865D01*
X27901366Y20112368D01*
X27862434Y20109776D01*
X27827458Y20092482D01*
X27801762Y20063119D01*
X27789259Y20026159D01*
X27652124Y20026159D01*
X27811145Y20301592D01*
X30476654Y18762660D01*
G37*
G36*
X15632626Y47355198D02*
G01*
X15699016Y47290442D01*
X15737270Y47143017D01*
X15738949Y46834553D01*
X15701214Y46677692D01*
X15638770Y46613672D01*
X15577902Y46582069D01*
X15434573Y46580758D01*
X15375182Y46609330D01*
X15308793Y46674086D01*
X15270539Y46821511D01*
X15268860Y47129974D01*
X15306595Y47286836D01*
X15369038Y47350855D01*
X15429906Y47382458D01*
X15573236Y47383769D01*
X15632626Y47355198D01*
G37*
G36*
X14632977Y47355029D02*
G01*
X14658754Y47330367D01*
X14689871Y47270436D01*
X14691005Y47174589D01*
X14662383Y47115094D01*
X14637725Y47089321D01*
X14578082Y47058353D01*
X14457828Y47057777D01*
X14454118Y47058431D01*
X14451014Y47057744D01*
X14317107Y47057102D01*
X14316494Y47382735D01*
X14572830Y47383965D01*
X14632977Y47355029D01*
G37*
G36*
X19394882Y47355029D02*
G01*
X19420659Y47330367D01*
X19451776Y47270436D01*
X19452910Y47174589D01*
X19424288Y47115094D01*
X19399630Y47089321D01*
X19339987Y47058353D01*
X19219733Y47057777D01*
X19216023Y47058431D01*
X19212919Y47057744D01*
X19079012Y47057102D01*
X19078399Y47382735D01*
X19334735Y47383965D01*
X19394882Y47355029D01*
G37*
G36*
X19442150Y48965142D02*
G01*
X19508540Y48900386D01*
X19546794Y48752961D01*
X19548473Y48444497D01*
X19510738Y48287636D01*
X19448294Y48223616D01*
X19387426Y48192013D01*
X19244097Y48190702D01*
X19184706Y48219274D01*
X19118317Y48284030D01*
X19080063Y48431455D01*
X19078384Y48739918D01*
X19116119Y48896780D01*
X19178562Y48960799D01*
X19239430Y48992402D01*
X19382760Y48993713D01*
X19442150Y48965142D01*
G37*
G36*
X21000730Y46271152D02*
G01*
X14007080Y46271152D01*
X14007080Y47482263D01*
X14118191Y47482263D01*
X14120112Y46462754D01*
X14135044Y46426706D01*
X14162634Y46399116D01*
X14198682Y46384184D01*
X14237700Y46384184D01*
X14273748Y46399116D01*
X14301338Y46426706D01*
X14316270Y46462754D01*
X14318191Y46482263D01*
X14317481Y46858931D01*
X14403796Y46859345D01*
X14720457Y46410036D01*
X14753362Y46389067D01*
X14791787Y46382286D01*
X14829881Y46390726D01*
X14861846Y46413101D01*
X14882815Y46446006D01*
X14889596Y46484430D01*
X14881156Y46522525D01*
X14871542Y46539609D01*
X14640339Y46867663D01*
X14643864Y46869011D01*
X14738893Y46918352D01*
X14749938Y46922926D01*
X14753784Y46926083D01*
X14755692Y46927073D01*
X14757421Y46929068D01*
X14765092Y46935362D01*
X14813025Y46985465D01*
X14821000Y46992380D01*
X14823611Y46996530D01*
X14825147Y46998134D01*
X14826157Y47000575D01*
X14831443Y47008971D01*
X14871381Y47091989D01*
X14872766Y47093373D01*
X14877218Y47104123D01*
X14886068Y47122517D01*
X14886322Y47126101D01*
X14887698Y47129421D01*
X14889619Y47148930D01*
X15070572Y47148930D01*
X15072352Y46821908D01*
X15070690Y46810736D01*
X15072479Y46798639D01*
X15072493Y46796088D01*
X15073057Y46794725D01*
X15073558Y46791343D01*
X15120112Y46611928D01*
X15120112Y46605612D01*
X15124499Y46595020D01*
X15127772Y46582407D01*
X15132197Y46576435D01*
X15135043Y46569564D01*
X15147480Y46554411D01*
X15243868Y46460394D01*
X15252117Y46450882D01*
X15256352Y46448216D01*
X15257871Y46446735D01*
X15260311Y46445725D01*
X15268708Y46440439D01*
X15351725Y46400501D01*
X15353110Y46399116D01*
X15363859Y46394664D01*
X15382254Y46385814D01*
X15385837Y46385560D01*
X15389158Y46384184D01*
X15408667Y46382263D01*
X15584174Y46383869D01*
X15586636Y46383048D01*
X15600251Y46384016D01*
X15618652Y46384184D01*
X15621972Y46385560D01*
X15625556Y46385814D01*
X15643864Y46392820D01*
X15738892Y46442160D01*
X15749939Y46446735D01*
X15753785Y46449893D01*
X15755692Y46450882D01*
X15757422Y46452877D01*
X15765092Y46459172D01*
X15851761Y46548029D01*
X15856809Y46551057D01*
X15863425Y46559988D01*
X15872767Y46569564D01*
X15875612Y46576435D01*
X15880038Y46582407D01*
X15886633Y46600867D01*
X15931212Y46786180D01*
X15935317Y46796088D01*
X15936509Y46808198D01*
X15937120Y46810736D01*
X15936902Y46812195D01*
X15937238Y46815597D01*
X15935457Y47142620D01*
X15937120Y47153791D01*
X15935330Y47165889D01*
X15935317Y47168439D01*
X15934752Y47169803D01*
X15934252Y47173184D01*
X15887698Y47352600D01*
X15887698Y47358915D01*
X15883311Y47369506D01*
X15880038Y47382120D01*
X15875611Y47388095D01*
X15872766Y47394963D01*
X15860330Y47410117D01*
X15786363Y47482263D01*
X16165810Y47482263D01*
X16167649Y46688411D01*
X16166595Y46685247D01*
X16167692Y46669803D01*
X16167731Y46653231D01*
X16169106Y46649911D01*
X16169361Y46646327D01*
X16176367Y46628019D01*
X16225704Y46532995D01*
X16230281Y46521945D01*
X16233439Y46518097D01*
X16234429Y46516191D01*
X16236423Y46514462D01*
X16242718Y46506792D01*
X16292818Y46458859D01*
X16299736Y46450882D01*
X16303885Y46448271D01*
X16305490Y46446735D01*
X16307930Y46445725D01*
X16316327Y46440439D01*
X16399344Y46400501D01*
X16400729Y46399116D01*
X16411478Y46394664D01*
X16429873Y46385814D01*
X16433456Y46385560D01*
X16436777Y46384184D01*
X16456286Y46382263D01*
X16631793Y46383869D01*
X16634255Y46383048D01*
X16647870Y46384016D01*
X16666271Y46384184D01*
X16669591Y46385560D01*
X16673175Y46385814D01*
X16691483Y46392820D01*
X16786511Y46442160D01*
X16797558Y46446735D01*
X16801404Y46449893D01*
X16803311Y46450882D01*
X16805041Y46452877D01*
X16812711Y46459172D01*
X16860644Y46509275D01*
X16868619Y46516190D01*
X16871230Y46520340D01*
X16872767Y46521945D01*
X16873778Y46524387D01*
X16879062Y46532781D01*
X16919000Y46615799D01*
X16920385Y46617183D01*
X16924837Y46627933D01*
X16933687Y46646327D01*
X16933941Y46649911D01*
X16935317Y46653231D01*
X16937238Y46672740D01*
X16935317Y47501772D01*
X17072493Y47501772D01*
X17072493Y47462754D01*
X17087425Y47426706D01*
X17115015Y47399116D01*
X17151063Y47384184D01*
X17170572Y47382263D01*
X17356473Y47382868D01*
X17358207Y46462754D01*
X17373139Y46426706D01*
X17400729Y46399116D01*
X17436777Y46384184D01*
X17475795Y46384184D01*
X17511843Y46399116D01*
X17539433Y46426706D01*
X17554365Y46462754D01*
X17556286Y46482263D01*
X17554587Y47383512D01*
X17761509Y47384184D01*
X17797557Y47399116D01*
X17825147Y47426706D01*
X17840079Y47462754D01*
X17840079Y47482263D01*
X17975334Y47482263D01*
X17977255Y46462754D01*
X17992187Y46426706D01*
X18019777Y46399116D01*
X18055825Y46384184D01*
X18075334Y46382263D01*
X18571033Y46384184D01*
X18607081Y46399116D01*
X18634671Y46426706D01*
X18649603Y46462754D01*
X18649603Y46501772D01*
X18634671Y46537820D01*
X18607081Y46565410D01*
X18571033Y46580342D01*
X18551524Y46582263D01*
X18175148Y46580805D01*
X18174534Y46906614D01*
X18428176Y46907994D01*
X18464224Y46922926D01*
X18491814Y46950516D01*
X18506746Y46986564D01*
X18506746Y47025582D01*
X18491814Y47061630D01*
X18464224Y47089220D01*
X18428176Y47104152D01*
X18408667Y47106073D01*
X18174160Y47104797D01*
X18173637Y47382644D01*
X18571033Y47384184D01*
X18607081Y47399116D01*
X18634671Y47426706D01*
X18649603Y47462754D01*
X18649603Y47482263D01*
X18880096Y47482263D01*
X18882017Y46462754D01*
X18896949Y46426706D01*
X18924539Y46399116D01*
X18960587Y46384184D01*
X18999605Y46384184D01*
X19035653Y46399116D01*
X19063243Y46426706D01*
X19078175Y46462754D01*
X19080096Y46482263D01*
X19079386Y46858931D01*
X19165701Y46859345D01*
X19482362Y46410036D01*
X19515267Y46389067D01*
X19553692Y46382286D01*
X19591786Y46390726D01*
X19623751Y46413101D01*
X19644720Y46446006D01*
X19651501Y46484430D01*
X19643061Y46522525D01*
X19633447Y46539609D01*
X19402244Y46867663D01*
X19405769Y46869011D01*
X19500798Y46918352D01*
X19511843Y46922926D01*
X19515689Y46926083D01*
X19517597Y46927073D01*
X19519326Y46929068D01*
X19526997Y46935362D01*
X19574930Y46985465D01*
X19582905Y46992380D01*
X19585516Y46996530D01*
X19587052Y46998134D01*
X19588062Y47000575D01*
X19593348Y47008971D01*
X19633286Y47091989D01*
X19634671Y47093373D01*
X19639123Y47104123D01*
X19647973Y47122517D01*
X19648227Y47126101D01*
X19649603Y47129421D01*
X19651524Y47148930D01*
X19650007Y47277087D01*
X19650739Y47279280D01*
X19649830Y47292063D01*
X19649603Y47311296D01*
X19648227Y47314617D01*
X19647973Y47318200D01*
X19640967Y47336509D01*
X19591624Y47431543D01*
X19587052Y47442583D01*
X19583896Y47446429D01*
X19582905Y47448337D01*
X19580907Y47450070D01*
X19574615Y47457736D01*
X19524514Y47505668D01*
X19517597Y47513644D01*
X19513447Y47516257D01*
X19511843Y47517791D01*
X19509403Y47518802D01*
X19501007Y47524087D01*
X19417989Y47564026D01*
X19416605Y47565410D01*
X19405855Y47569863D01*
X19387461Y47578712D01*
X19383877Y47578967D01*
X19380557Y47580342D01*
X19361048Y47582263D01*
X18960587Y47580342D01*
X18924539Y47565410D01*
X18896949Y47537820D01*
X18882017Y47501772D01*
X18880096Y47482263D01*
X18649603Y47482263D01*
X18649603Y47501772D01*
X18634671Y47537820D01*
X18607081Y47565410D01*
X18571033Y47580342D01*
X18551524Y47582263D01*
X18055825Y47580342D01*
X18019777Y47565410D01*
X17992187Y47537820D01*
X17977255Y47501772D01*
X17975334Y47482263D01*
X17840079Y47482263D01*
X17840079Y47501772D01*
X17825147Y47537820D01*
X17797557Y47565410D01*
X17761509Y47580342D01*
X17742000Y47582263D01*
X17151063Y47580342D01*
X17115015Y47565410D01*
X17087425Y47537820D01*
X17072493Y47501772D01*
X16935317Y47501772D01*
X16920385Y47537820D01*
X16892795Y47565410D01*
X16856747Y47580342D01*
X16817729Y47580342D01*
X16781681Y47565410D01*
X16754091Y47537820D01*
X16739159Y47501772D01*
X16737238Y47482263D01*
X16739052Y46699288D01*
X16710003Y46638906D01*
X16685341Y46613128D01*
X16625521Y46582069D01*
X16482192Y46580758D01*
X16422449Y46609499D01*
X16396675Y46634158D01*
X16365761Y46693700D01*
X16363889Y47501772D01*
X16348957Y47537820D01*
X16321367Y47565410D01*
X16285319Y47580342D01*
X16246301Y47580342D01*
X16210253Y47565410D01*
X16182663Y47537820D01*
X16167731Y47501772D01*
X16165810Y47482263D01*
X15786363Y47482263D01*
X15763940Y47504134D01*
X15755692Y47513644D01*
X15751455Y47516311D01*
X15749938Y47517791D01*
X15747498Y47518802D01*
X15739102Y47524087D01*
X15656084Y47564026D01*
X15654700Y47565410D01*
X15643950Y47569863D01*
X15625556Y47578712D01*
X15621972Y47578967D01*
X15618652Y47580342D01*
X15599143Y47582263D01*
X15423635Y47580658D01*
X15421174Y47581478D01*
X15407558Y47580511D01*
X15389158Y47580342D01*
X15385837Y47578967D01*
X15382254Y47578712D01*
X15363945Y47571706D01*
X15268911Y47522364D01*
X15257872Y47517791D01*
X15254027Y47514636D01*
X15252117Y47513644D01*
X15250384Y47511647D01*
X15242718Y47505355D01*
X15156050Y47416500D01*
X15151001Y47413470D01*
X15144381Y47404536D01*
X15135044Y47394963D01*
X15132198Y47388095D01*
X15127772Y47382120D01*
X15121177Y47363659D01*
X15076597Y47178349D01*
X15072493Y47168439D01*
X15071300Y47156330D01*
X15070690Y47153791D01*
X15070907Y47152333D01*
X15070572Y47148930D01*
X14889619Y47148930D01*
X14888102Y47277087D01*
X14888834Y47279280D01*
X14887925Y47292063D01*
X14887698Y47311296D01*
X14886322Y47314617D01*
X14886068Y47318200D01*
X14879062Y47336509D01*
X14829719Y47431543D01*
X14825147Y47442583D01*
X14821991Y47446429D01*
X14821000Y47448337D01*
X14819002Y47450070D01*
X14812710Y47457736D01*
X14762609Y47505668D01*
X14755692Y47513644D01*
X14751542Y47516257D01*
X14749938Y47517791D01*
X14747498Y47518802D01*
X14739102Y47524087D01*
X14656084Y47564026D01*
X14654700Y47565410D01*
X14643950Y47569863D01*
X14625556Y47578712D01*
X14621972Y47578967D01*
X14618652Y47580342D01*
X14599143Y47582263D01*
X14198682Y47580342D01*
X14162634Y47565410D01*
X14135044Y47537820D01*
X14120112Y47501772D01*
X14118191Y47482263D01*
X14007080Y47482263D01*
X14007080Y47854007D01*
X19832477Y47854007D01*
X19840129Y47815747D01*
X19861840Y47783327D01*
X19894305Y47761684D01*
X19932582Y47754112D01*
X19970842Y47761764D01*
X20003262Y47783475D01*
X20015682Y47798642D01*
X20882048Y49101654D01*
X20889619Y49139931D01*
X20881967Y49178191D01*
X20860256Y49210611D01*
X20827791Y49232255D01*
X20789515Y49239826D01*
X20751254Y49232174D01*
X20718834Y49210463D01*
X20706414Y49195296D01*
X19840049Y47892284D01*
X19832477Y47854007D01*
X14007080Y47854007D01*
X14007080Y49092207D01*
X14118191Y49092207D01*
X14120112Y48072698D01*
X14135044Y48036650D01*
X14162634Y48009060D01*
X14198682Y47994128D01*
X14237700Y47994128D01*
X14273748Y48009060D01*
X14301338Y48036650D01*
X14316270Y48072698D01*
X14318191Y48092207D01*
X14317010Y48718951D01*
X14701508Y48048633D01*
X14706472Y48036650D01*
X14710951Y48032171D01*
X14714142Y48026608D01*
X14724658Y48018464D01*
X14734062Y48009060D01*
X14739949Y48006622D01*
X14744991Y48002717D01*
X14757823Y47999218D01*
X14770110Y47994128D01*
X14776486Y47994128D01*
X14782635Y47992451D01*
X14795828Y47994128D01*
X14809128Y47994128D01*
X14815016Y47996568D01*
X14821341Y47997371D01*
X14832890Y48003972D01*
X14845176Y48009060D01*
X14849683Y48013568D01*
X14855218Y48016730D01*
X14863362Y48027247D01*
X14872766Y48036650D01*
X14875204Y48042538D01*
X14879109Y48047579D01*
X14882608Y48060412D01*
X14887698Y48072698D01*
X14888680Y48082676D01*
X14889375Y48085222D01*
X14889124Y48087190D01*
X14889619Y48092207D01*
X14887735Y49092207D01*
X15165810Y49092207D01*
X15167649Y48298355D01*
X15166595Y48295191D01*
X15167692Y48279747D01*
X15167731Y48263175D01*
X15169106Y48259855D01*
X15169361Y48256271D01*
X15176367Y48237963D01*
X15225704Y48142939D01*
X15230281Y48131889D01*
X15233439Y48128041D01*
X15234429Y48126135D01*
X15236423Y48124406D01*
X15242718Y48116736D01*
X15292818Y48068803D01*
X15299736Y48060826D01*
X15303885Y48058215D01*
X15305490Y48056679D01*
X15307930Y48055669D01*
X15316327Y48050383D01*
X15399344Y48010445D01*
X15400729Y48009060D01*
X15411478Y48004608D01*
X15429873Y47995758D01*
X15433456Y47995504D01*
X15436777Y47994128D01*
X15456286Y47992207D01*
X15631793Y47993813D01*
X15634255Y47992992D01*
X15647870Y47993960D01*
X15666271Y47994128D01*
X15669591Y47995504D01*
X15673175Y47995758D01*
X15691483Y48002764D01*
X15786511Y48052104D01*
X15797558Y48056679D01*
X15801404Y48059837D01*
X15803311Y48060826D01*
X15805041Y48062821D01*
X15812711Y48069116D01*
X15860644Y48119219D01*
X15868619Y48126134D01*
X15871230Y48130284D01*
X15872767Y48131889D01*
X15873778Y48134331D01*
X15879062Y48142725D01*
X15919000Y48225743D01*
X15920385Y48227127D01*
X15924837Y48237877D01*
X15933687Y48256271D01*
X15933941Y48259855D01*
X15935317Y48263175D01*
X15937238Y48282684D01*
X15936355Y48663636D01*
X16165810Y48663636D01*
X16167437Y48526063D01*
X16165928Y48515918D01*
X16167699Y48503940D01*
X16167731Y48501270D01*
X16168295Y48499907D01*
X16168796Y48496525D01*
X16216300Y48313446D01*
X16216980Y48303890D01*
X16222571Y48289278D01*
X16223010Y48287589D01*
X16223440Y48287009D01*
X16223986Y48285582D01*
X16273322Y48190560D01*
X16277900Y48179508D01*
X16281058Y48175660D01*
X16282048Y48173754D01*
X16284042Y48172025D01*
X16290337Y48164355D01*
X16376282Y48080524D01*
X16377287Y48078514D01*
X16386811Y48070254D01*
X16400728Y48056679D01*
X16404047Y48055304D01*
X16406763Y48052949D01*
X16424663Y48044958D01*
X16567747Y47999052D01*
X16579634Y47994128D01*
X16584626Y47993637D01*
X16586635Y47992992D01*
X16589269Y47993180D01*
X16599143Y47992207D01*
X16695285Y47993817D01*
X16706888Y47992992D01*
X16711724Y47994092D01*
X16713890Y47994128D01*
X16716332Y47995140D01*
X16726004Y47997339D01*
X16854381Y48041748D01*
X16856748Y48041748D01*
X16868740Y48046716D01*
X16886761Y48052949D01*
X16889476Y48055304D01*
X16892796Y48056679D01*
X16907949Y48069116D01*
X16968005Y48131889D01*
X16982936Y48167938D01*
X16982935Y48206956D01*
X16968004Y48243004D01*
X16940413Y48270594D01*
X16904365Y48285525D01*
X16865347Y48285524D01*
X16829299Y48270593D01*
X16814145Y48258156D01*
X16784815Y48227499D01*
X16682204Y48192004D01*
X16618717Y48190941D01*
X16511977Y48225186D01*
X16444838Y48290674D01*
X16409217Y48359281D01*
X16365738Y48526846D01*
X16364332Y48645653D01*
X16404572Y48812926D01*
X16440494Y48887596D01*
X16507801Y48956602D01*
X16611319Y48992411D01*
X16674805Y48993474D01*
X16781986Y48959087D01*
X16829299Y48913822D01*
X16865348Y48898891D01*
X16904366Y48898891D01*
X16940414Y48913822D01*
X16968004Y48941412D01*
X16982935Y48977460D01*
X16982935Y49016478D01*
X16968004Y49052527D01*
X16955567Y49067680D01*
X16929930Y49092207D01*
X17213429Y49092207D01*
X17215350Y48072698D01*
X17230282Y48036650D01*
X17257872Y48009060D01*
X17293920Y47994128D01*
X17313429Y47992207D01*
X17809128Y47994128D01*
X17845176Y48009060D01*
X17872766Y48036650D01*
X17887698Y48072698D01*
X17887698Y48111716D01*
X17872766Y48147764D01*
X17845176Y48175354D01*
X17809128Y48190286D01*
X17789619Y48192207D01*
X17413243Y48190749D01*
X17411545Y49092207D01*
X18022953Y49092207D01*
X18024874Y48072698D01*
X18039806Y48036650D01*
X18067396Y48009060D01*
X18103444Y47994128D01*
X18122953Y47992207D01*
X18618652Y47994128D01*
X18654700Y48009060D01*
X18682290Y48036650D01*
X18697222Y48072698D01*
X18697222Y48111716D01*
X18682290Y48147764D01*
X18654700Y48175354D01*
X18618652Y48190286D01*
X18599143Y48192207D01*
X18222767Y48190749D01*
X18222153Y48516558D01*
X18475795Y48517938D01*
X18511843Y48532870D01*
X18539433Y48560460D01*
X18554365Y48596508D01*
X18554365Y48635526D01*
X18539433Y48671574D01*
X18511843Y48699164D01*
X18475795Y48714096D01*
X18456286Y48716017D01*
X18221779Y48714741D01*
X18221696Y48758874D01*
X18880096Y48758874D01*
X18881876Y48431852D01*
X18880214Y48420680D01*
X18882003Y48408583D01*
X18882017Y48406032D01*
X18882581Y48404669D01*
X18883082Y48401287D01*
X18929636Y48221872D01*
X18929636Y48215556D01*
X18934023Y48204964D01*
X18937296Y48192351D01*
X18941721Y48186379D01*
X18944567Y48179508D01*
X18957004Y48164355D01*
X19053392Y48070338D01*
X19061641Y48060826D01*
X19065876Y48058160D01*
X19067395Y48056679D01*
X19069835Y48055669D01*
X19078232Y48050383D01*
X19161249Y48010445D01*
X19162634Y48009060D01*
X19173383Y48004608D01*
X19191778Y47995758D01*
X19195361Y47995504D01*
X19198682Y47994128D01*
X19218191Y47992207D01*
X19393698Y47993813D01*
X19396160Y47992992D01*
X19409775Y47993960D01*
X19428176Y47994128D01*
X19431496Y47995504D01*
X19435080Y47995758D01*
X19453388Y48002764D01*
X19548416Y48052104D01*
X19559463Y48056679D01*
X19563309Y48059837D01*
X19565216Y48060826D01*
X19566946Y48062821D01*
X19574616Y48069116D01*
X19661285Y48157973D01*
X19666333Y48161001D01*
X19672949Y48169932D01*
X19682291Y48179508D01*
X19685136Y48186379D01*
X19689562Y48192351D01*
X19696157Y48210811D01*
X19740736Y48396124D01*
X19744841Y48406032D01*
X19746033Y48418142D01*
X19746644Y48420680D01*
X19746426Y48422139D01*
X19746762Y48425541D01*
X19744981Y48752564D01*
X19746644Y48763735D01*
X19744854Y48775833D01*
X19744841Y48778383D01*
X19744276Y48779747D01*
X19743776Y48783128D01*
X19697222Y48962544D01*
X19697222Y48968859D01*
X19692835Y48979450D01*
X19689562Y48992064D01*
X19685135Y48998039D01*
X19682290Y49004907D01*
X19669854Y49020061D01*
X19573464Y49114078D01*
X19565216Y49123588D01*
X19560979Y49126255D01*
X19559462Y49127735D01*
X19557022Y49128746D01*
X19548626Y49134031D01*
X19465608Y49173970D01*
X19464224Y49175354D01*
X19453474Y49179807D01*
X19435080Y49188656D01*
X19431496Y49188911D01*
X19428176Y49190286D01*
X19408667Y49192207D01*
X19233159Y49190602D01*
X19230698Y49191422D01*
X19217082Y49190455D01*
X19198682Y49190286D01*
X19195361Y49188911D01*
X19191778Y49188656D01*
X19173469Y49181650D01*
X19078435Y49132308D01*
X19067396Y49127735D01*
X19063551Y49124580D01*
X19061641Y49123588D01*
X19059908Y49121591D01*
X19052242Y49115299D01*
X18965574Y49026444D01*
X18960525Y49023414D01*
X18953905Y49014480D01*
X18944568Y49004907D01*
X18941722Y48998039D01*
X18937296Y48992064D01*
X18930701Y48973603D01*
X18886121Y48788293D01*
X18882017Y48778383D01*
X18880824Y48766274D01*
X18880214Y48763735D01*
X18880431Y48762277D01*
X18880096Y48758874D01*
X18221696Y48758874D01*
X18221256Y48992588D01*
X18618652Y48994128D01*
X18654700Y49009060D01*
X18682290Y49036650D01*
X18697222Y49072698D01*
X18697222Y49111716D01*
X18682290Y49147764D01*
X18654700Y49175354D01*
X18618652Y49190286D01*
X18599143Y49192207D01*
X18103444Y49190286D01*
X18067396Y49175354D01*
X18039806Y49147764D01*
X18024874Y49111716D01*
X18022953Y49092207D01*
X17411545Y49092207D01*
X17411508Y49111716D01*
X17396576Y49147764D01*
X17368986Y49175354D01*
X17332938Y49190286D01*
X17293920Y49190286D01*
X17257872Y49175354D01*
X17230282Y49147764D01*
X17215350Y49111716D01*
X17213429Y49092207D01*
X16929930Y49092207D01*
X16916804Y49104765D01*
X16916237Y49105900D01*
X16909611Y49111647D01*
X16892795Y49127735D01*
X16889476Y49129110D01*
X16886761Y49131465D01*
X16868860Y49139456D01*
X16725780Y49185361D01*
X16713890Y49190286D01*
X16708896Y49190778D01*
X16706888Y49191422D01*
X16704254Y49191235D01*
X16694381Y49192207D01*
X16598237Y49190598D01*
X16586635Y49191422D01*
X16581799Y49190323D01*
X16579634Y49190286D01*
X16577192Y49189275D01*
X16567520Y49187075D01*
X16439146Y49142667D01*
X16436777Y49142667D01*
X16424780Y49137698D01*
X16406763Y49131465D01*
X16404047Y49129110D01*
X16400729Y49127735D01*
X16385575Y49115299D01*
X16291558Y49018910D01*
X16282048Y49010661D01*
X16279381Y49006425D01*
X16277901Y49004907D01*
X16276890Y49002468D01*
X16271605Y48994071D01*
X16228176Y48903800D01*
X16223010Y48896826D01*
X16217782Y48882194D01*
X16216980Y48880525D01*
X16216928Y48879803D01*
X16216415Y48878365D01*
X16171835Y48693055D01*
X16167731Y48683145D01*
X16166538Y48671036D01*
X16165928Y48668497D01*
X16166145Y48667039D01*
X16165810Y48663636D01*
X15936355Y48663636D01*
X15935317Y49111716D01*
X15920385Y49147764D01*
X15892795Y49175354D01*
X15856747Y49190286D01*
X15817729Y49190286D01*
X15781681Y49175354D01*
X15754091Y49147764D01*
X15739159Y49111716D01*
X15737238Y49092207D01*
X15739052Y48309232D01*
X15710003Y48248850D01*
X15685341Y48223072D01*
X15625521Y48192013D01*
X15482192Y48190702D01*
X15422449Y48219443D01*
X15396675Y48244102D01*
X15365761Y48303644D01*
X15363889Y49111716D01*
X15348957Y49147764D01*
X15321367Y49175354D01*
X15285319Y49190286D01*
X15246301Y49190286D01*
X15210253Y49175354D01*
X15182663Y49147764D01*
X15167731Y49111716D01*
X15165810Y49092207D01*
X14887735Y49092207D01*
X14887698Y49111716D01*
X14872766Y49147764D01*
X14845176Y49175354D01*
X14809128Y49190286D01*
X14770110Y49190286D01*
X14734062Y49175354D01*
X14706472Y49147764D01*
X14691540Y49111716D01*
X14689619Y49092207D01*
X14690799Y48465464D01*
X14306301Y49135782D01*
X14301338Y49147764D01*
X14296858Y49152244D01*
X14293668Y49157806D01*
X14283153Y49165949D01*
X14273748Y49175354D01*
X14267857Y49177794D01*
X14262819Y49181696D01*
X14249990Y49185195D01*
X14237700Y49190286D01*
X14231325Y49190286D01*
X14225176Y49191963D01*
X14211983Y49190286D01*
X14198682Y49190286D01*
X14192793Y49187847D01*
X14186469Y49187043D01*
X14174919Y49180443D01*
X14162634Y49175354D01*
X14158126Y49170847D01*
X14152592Y49167684D01*
X14144449Y49157170D01*
X14135044Y49147764D01*
X14132604Y49141874D01*
X14128702Y49136835D01*
X14125203Y49124007D01*
X14120112Y49111716D01*
X14119129Y49101739D01*
X14118435Y49099192D01*
X14118685Y49097225D01*
X14118191Y49092207D01*
X14007080Y49092207D01*
X14007080Y49350937D01*
X21000730Y49350937D01*
X21000730Y46271152D01*
G37*
D12*
X11327230Y5899013D02*
X11374849Y5946632D01*
X11374849Y5946632D02*
X11470087Y5994251D01*
X11470087Y5994251D02*
X11708182Y5994251D01*
X11708182Y5994251D02*
X11803420Y5946632D01*
X11803420Y5946632D02*
X11851039Y5899013D01*
X11851039Y5899013D02*
X11898658Y5803775D01*
X11898658Y5803775D02*
X11898658Y5708537D01*
X11898658Y5708537D02*
X11851039Y5565680D01*
X11851039Y5565680D02*
X11279611Y4994251D01*
X11279611Y4994251D02*
X11898658Y4994251D01*
X12517706Y5994251D02*
X12612944Y5994251D01*
X12612944Y5994251D02*
X12708182Y5946632D01*
X12708182Y5946632D02*
X12755801Y5899013D01*
X12755801Y5899013D02*
X12803420Y5803775D01*
X12803420Y5803775D02*
X12851039Y5613299D01*
X12851039Y5613299D02*
X12851039Y5375204D01*
X12851039Y5375204D02*
X12803420Y5184728D01*
X12803420Y5184728D02*
X12755801Y5089490D01*
X12755801Y5089490D02*
X12708182Y5041870D01*
X12708182Y5041870D02*
X12612944Y4994251D01*
X12612944Y4994251D02*
X12517706Y4994251D01*
X12517706Y4994251D02*
X12422468Y5041870D01*
X12422468Y5041870D02*
X12374849Y5089490D01*
X12374849Y5089490D02*
X12327230Y5184728D01*
X12327230Y5184728D02*
X12279611Y5375204D01*
X12279611Y5375204D02*
X12279611Y5613299D01*
X12279611Y5613299D02*
X12327230Y5803775D01*
X12327230Y5803775D02*
X12374849Y5899013D01*
X12374849Y5899013D02*
X12422468Y5946632D01*
X12422468Y5946632D02*
X12517706Y5994251D01*
X13231992Y5899013D02*
X13279611Y5946632D01*
X13279611Y5946632D02*
X13374849Y5994251D01*
X13374849Y5994251D02*
X13612944Y5994251D01*
X13612944Y5994251D02*
X13708182Y5946632D01*
X13708182Y5946632D02*
X13755801Y5899013D01*
X13755801Y5899013D02*
X13803420Y5803775D01*
X13803420Y5803775D02*
X13803420Y5708537D01*
X13803420Y5708537D02*
X13755801Y5565680D01*
X13755801Y5565680D02*
X13184373Y4994251D01*
X13184373Y4994251D02*
X13803420Y4994251D01*
X14660563Y5660918D02*
X14660563Y4994251D01*
X14422468Y6041870D02*
X14184373Y5327585D01*
X14184373Y5327585D02*
X14803420Y5327585D01*
X15946278Y4994251D02*
X15946278Y5994251D01*
X16422468Y4994251D02*
X16422468Y5994251D01*
X16422468Y5613299D02*
X16517706Y5660918D01*
X16517706Y5660918D02*
X16708182Y5660918D01*
X16708182Y5660918D02*
X16803420Y5613299D01*
X16803420Y5613299D02*
X16851039Y5565680D01*
X16851039Y5565680D02*
X16898658Y5470442D01*
X16898658Y5470442D02*
X16898658Y5184728D01*
X16898658Y5184728D02*
X16851039Y5089490D01*
X16851039Y5089490D02*
X16803420Y5041870D01*
X16803420Y5041870D02*
X16708182Y4994251D01*
X16708182Y4994251D02*
X16517706Y4994251D01*
X16517706Y4994251D02*
X16422468Y5041870D01*
X17755801Y4994251D02*
X17755801Y5518061D01*
X17755801Y5518061D02*
X17708182Y5613299D01*
X17708182Y5613299D02*
X17612944Y5660918D01*
X17612944Y5660918D02*
X17422468Y5660918D01*
X17422468Y5660918D02*
X17327230Y5613299D01*
X17755801Y5041870D02*
X17660563Y4994251D01*
X17660563Y4994251D02*
X17422468Y4994251D01*
X17422468Y4994251D02*
X17327230Y5041870D01*
X17327230Y5041870D02*
X17279611Y5137109D01*
X17279611Y5137109D02*
X17279611Y5232347D01*
X17279611Y5232347D02*
X17327230Y5327585D01*
X17327230Y5327585D02*
X17422468Y5375204D01*
X17422468Y5375204D02*
X17660563Y5375204D01*
X17660563Y5375204D02*
X17755801Y5422823D01*
X18231992Y4994251D02*
X18231992Y5660918D01*
X18231992Y5470442D02*
X18279611Y5565680D01*
X18279611Y5565680D02*
X18327230Y5613299D01*
X18327230Y5613299D02*
X18422468Y5660918D01*
X18422468Y5660918D02*
X18517706Y5660918D01*
X19279611Y4994251D02*
X19279611Y5518061D01*
X19279611Y5518061D02*
X19231992Y5613299D01*
X19231992Y5613299D02*
X19136754Y5660918D01*
X19136754Y5660918D02*
X18946278Y5660918D01*
X18946278Y5660918D02*
X18851040Y5613299D01*
X19279611Y5041870D02*
X19184373Y4994251D01*
X19184373Y4994251D02*
X18946278Y4994251D01*
X18946278Y4994251D02*
X18851040Y5041870D01*
X18851040Y5041870D02*
X18803421Y5137109D01*
X18803421Y5137109D02*
X18803421Y5232347D01*
X18803421Y5232347D02*
X18851040Y5327585D01*
X18851040Y5327585D02*
X18946278Y5375204D01*
X18946278Y5375204D02*
X19184373Y5375204D01*
X19184373Y5375204D02*
X19279611Y5422823D01*
X19755802Y4994251D02*
X19755802Y5994251D01*
X19851040Y5375204D02*
X20136754Y4994251D01*
X20136754Y5660918D02*
X19755802Y5279966D01*
X20565326Y4994251D02*
X20565326Y5660918D01*
X20565326Y5994251D02*
X20517707Y5946632D01*
X20517707Y5946632D02*
X20565326Y5899013D01*
X20565326Y5899013D02*
X20612945Y5946632D01*
X20612945Y5946632D02*
X20565326Y5994251D01*
X20565326Y5994251D02*
X20565326Y5899013D01*
X20803421Y4899013D02*
X21565325Y4899013D01*
X22136754Y5518061D02*
X22279611Y5470442D01*
X22279611Y5470442D02*
X22327230Y5422823D01*
X22327230Y5422823D02*
X22374849Y5327585D01*
X22374849Y5327585D02*
X22374849Y5184728D01*
X22374849Y5184728D02*
X22327230Y5089490D01*
X22327230Y5089490D02*
X22279611Y5041870D01*
X22279611Y5041870D02*
X22184373Y4994251D01*
X22184373Y4994251D02*
X21803421Y4994251D01*
X21803421Y4994251D02*
X21803421Y5994251D01*
X21803421Y5994251D02*
X22136754Y5994251D01*
X22136754Y5994251D02*
X22231992Y5946632D01*
X22231992Y5946632D02*
X22279611Y5899013D01*
X22279611Y5899013D02*
X22327230Y5803775D01*
X22327230Y5803775D02*
X22327230Y5708537D01*
X22327230Y5708537D02*
X22279611Y5613299D01*
X22279611Y5613299D02*
X22231992Y5565680D01*
X22231992Y5565680D02*
X22136754Y5518061D01*
X22136754Y5518061D02*
X21803421Y5518061D01*
X11374849Y3384307D02*
X11374849Y4384307D01*
X11374849Y4384307D02*
X11708182Y3670022D01*
X11708182Y3670022D02*
X12041515Y4384307D01*
X12041515Y4384307D02*
X12041515Y3384307D01*
X13089134Y3479546D02*
X13041515Y3431926D01*
X13041515Y3431926D02*
X12898658Y3384307D01*
X12898658Y3384307D02*
X12803420Y3384307D01*
X12803420Y3384307D02*
X12660563Y3431926D01*
X12660563Y3431926D02*
X12565325Y3527165D01*
X12565325Y3527165D02*
X12517706Y3622403D01*
X12517706Y3622403D02*
X12470087Y3812879D01*
X12470087Y3812879D02*
X12470087Y3955736D01*
X12470087Y3955736D02*
X12517706Y4146212D01*
X12517706Y4146212D02*
X12565325Y4241450D01*
X12565325Y4241450D02*
X12660563Y4336688D01*
X12660563Y4336688D02*
X12803420Y4384307D01*
X12803420Y4384307D02*
X12898658Y4384307D01*
X12898658Y4384307D02*
X13041515Y4336688D01*
X13041515Y4336688D02*
X13089134Y4289069D01*
X13517706Y4384307D02*
X13517706Y3574784D01*
X13517706Y3574784D02*
X13565325Y3479546D01*
X13565325Y3479546D02*
X13612944Y3431926D01*
X13612944Y3431926D02*
X13708182Y3384307D01*
X13708182Y3384307D02*
X13898658Y3384307D01*
X13898658Y3384307D02*
X13993896Y3431926D01*
X13993896Y3431926D02*
X14041515Y3479546D01*
X14041515Y3479546D02*
X14089134Y3574784D01*
X14089134Y3574784D02*
X14089134Y4384307D01*
X15327230Y3384307D02*
X15327230Y4384307D01*
X15327230Y4384307D02*
X15708182Y4384307D01*
X15708182Y4384307D02*
X15803420Y4336688D01*
X15803420Y4336688D02*
X15851039Y4289069D01*
X15851039Y4289069D02*
X15898658Y4193831D01*
X15898658Y4193831D02*
X15898658Y4050974D01*
X15898658Y4050974D02*
X15851039Y3955736D01*
X15851039Y3955736D02*
X15803420Y3908117D01*
X15803420Y3908117D02*
X15708182Y3860498D01*
X15708182Y3860498D02*
X15327230Y3860498D01*
X16470087Y3384307D02*
X16374849Y3431926D01*
X16374849Y3431926D02*
X16327230Y3479546D01*
X16327230Y3479546D02*
X16279611Y3574784D01*
X16279611Y3574784D02*
X16279611Y3860498D01*
X16279611Y3860498D02*
X16327230Y3955736D01*
X16327230Y3955736D02*
X16374849Y4003355D01*
X16374849Y4003355D02*
X16470087Y4050974D01*
X16470087Y4050974D02*
X16612944Y4050974D01*
X16612944Y4050974D02*
X16708182Y4003355D01*
X16708182Y4003355D02*
X16755801Y3955736D01*
X16755801Y3955736D02*
X16803420Y3860498D01*
X16803420Y3860498D02*
X16803420Y3574784D01*
X16803420Y3574784D02*
X16755801Y3479546D01*
X16755801Y3479546D02*
X16708182Y3431926D01*
X16708182Y3431926D02*
X16612944Y3384307D01*
X16612944Y3384307D02*
X16470087Y3384307D01*
X17136754Y4050974D02*
X17327230Y3384307D01*
X17327230Y3384307D02*
X17517706Y3860498D01*
X17517706Y3860498D02*
X17708182Y3384307D01*
X17708182Y3384307D02*
X17898658Y4050974D01*
X18660563Y3431926D02*
X18565325Y3384307D01*
X18565325Y3384307D02*
X18374849Y3384307D01*
X18374849Y3384307D02*
X18279611Y3431926D01*
X18279611Y3431926D02*
X18231992Y3527165D01*
X18231992Y3527165D02*
X18231992Y3908117D01*
X18231992Y3908117D02*
X18279611Y4003355D01*
X18279611Y4003355D02*
X18374849Y4050974D01*
X18374849Y4050974D02*
X18565325Y4050974D01*
X18565325Y4050974D02*
X18660563Y4003355D01*
X18660563Y4003355D02*
X18708182Y3908117D01*
X18708182Y3908117D02*
X18708182Y3812879D01*
X18708182Y3812879D02*
X18231992Y3717641D01*
X19136754Y3384307D02*
X19136754Y4050974D01*
X19136754Y3860498D02*
X19184373Y3955736D01*
X19184373Y3955736D02*
X19231992Y4003355D01*
X19231992Y4003355D02*
X19327230Y4050974D01*
X19327230Y4050974D02*
X19422468Y4050974D01*
X20470088Y3431926D02*
X20612945Y3384307D01*
X20612945Y3384307D02*
X20851040Y3384307D01*
X20851040Y3384307D02*
X20946278Y3431926D01*
X20946278Y3431926D02*
X20993897Y3479546D01*
X20993897Y3479546D02*
X21041516Y3574784D01*
X21041516Y3574784D02*
X21041516Y3670022D01*
X21041516Y3670022D02*
X20993897Y3765260D01*
X20993897Y3765260D02*
X20946278Y3812879D01*
X20946278Y3812879D02*
X20851040Y3860498D01*
X20851040Y3860498D02*
X20660564Y3908117D01*
X20660564Y3908117D02*
X20565326Y3955736D01*
X20565326Y3955736D02*
X20517707Y4003355D01*
X20517707Y4003355D02*
X20470088Y4098593D01*
X20470088Y4098593D02*
X20470088Y4193831D01*
X20470088Y4193831D02*
X20517707Y4289069D01*
X20517707Y4289069D02*
X20565326Y4336688D01*
X20565326Y4336688D02*
X20660564Y4384307D01*
X20660564Y4384307D02*
X20898659Y4384307D01*
X20898659Y4384307D02*
X21041516Y4336688D01*
X21898659Y4050974D02*
X21898659Y3384307D01*
X21470088Y4050974D02*
X21470088Y3527165D01*
X21470088Y3527165D02*
X21517707Y3431926D01*
X21517707Y3431926D02*
X21612945Y3384307D01*
X21612945Y3384307D02*
X21755802Y3384307D01*
X21755802Y3384307D02*
X21851040Y3431926D01*
X21851040Y3431926D02*
X21898659Y3479546D01*
X22374850Y4050974D02*
X22374850Y3050974D01*
X22374850Y4003355D02*
X22470088Y4050974D01*
X22470088Y4050974D02*
X22660564Y4050974D01*
X22660564Y4050974D02*
X22755802Y4003355D01*
X22755802Y4003355D02*
X22803421Y3955736D01*
X22803421Y3955736D02*
X22851040Y3860498D01*
X22851040Y3860498D02*
X22851040Y3574784D01*
X22851040Y3574784D02*
X22803421Y3479546D01*
X22803421Y3479546D02*
X22755802Y3431926D01*
X22755802Y3431926D02*
X22660564Y3384307D01*
X22660564Y3384307D02*
X22470088Y3384307D01*
X22470088Y3384307D02*
X22374850Y3431926D01*
X23279612Y4050974D02*
X23279612Y3050974D01*
X23279612Y4003355D02*
X23374850Y4050974D01*
X23374850Y4050974D02*
X23565326Y4050974D01*
X23565326Y4050974D02*
X23660564Y4003355D01*
X23660564Y4003355D02*
X23708183Y3955736D01*
X23708183Y3955736D02*
X23755802Y3860498D01*
X23755802Y3860498D02*
X23755802Y3574784D01*
X23755802Y3574784D02*
X23708183Y3479546D01*
X23708183Y3479546D02*
X23660564Y3431926D01*
X23660564Y3431926D02*
X23565326Y3384307D01*
X23565326Y3384307D02*
X23374850Y3384307D01*
X23374850Y3384307D02*
X23279612Y3431926D01*
X24327231Y3384307D02*
X24231993Y3431926D01*
X24231993Y3431926D02*
X24184374Y3527165D01*
X24184374Y3527165D02*
X24184374Y4384307D01*
X24612946Y4050974D02*
X24851041Y3384307D01*
X25089136Y4050974D02*
X24851041Y3384307D01*
X24851041Y3384307D02*
X24755803Y3146212D01*
X24755803Y3146212D02*
X24708184Y3098593D01*
X24708184Y3098593D02*
X24612946Y3050974D01*
X26565327Y3908117D02*
X26708184Y3860498D01*
X26708184Y3860498D02*
X26755803Y3812879D01*
X26755803Y3812879D02*
X26803422Y3717641D01*
X26803422Y3717641D02*
X26803422Y3574784D01*
X26803422Y3574784D02*
X26755803Y3479546D01*
X26755803Y3479546D02*
X26708184Y3431926D01*
X26708184Y3431926D02*
X26612946Y3384307D01*
X26612946Y3384307D02*
X26231994Y3384307D01*
X26231994Y3384307D02*
X26231994Y4384307D01*
X26231994Y4384307D02*
X26565327Y4384307D01*
X26565327Y4384307D02*
X26660565Y4336688D01*
X26660565Y4336688D02*
X26708184Y4289069D01*
X26708184Y4289069D02*
X26755803Y4193831D01*
X26755803Y4193831D02*
X26755803Y4098593D01*
X26755803Y4098593D02*
X26708184Y4003355D01*
X26708184Y4003355D02*
X26660565Y3955736D01*
X26660565Y3955736D02*
X26565327Y3908117D01*
X26565327Y3908117D02*
X26231994Y3908117D01*
X27374851Y3384307D02*
X27279613Y3431926D01*
X27279613Y3431926D02*
X27231994Y3479546D01*
X27231994Y3479546D02*
X27184375Y3574784D01*
X27184375Y3574784D02*
X27184375Y3860498D01*
X27184375Y3860498D02*
X27231994Y3955736D01*
X27231994Y3955736D02*
X27279613Y4003355D01*
X27279613Y4003355D02*
X27374851Y4050974D01*
X27374851Y4050974D02*
X27517708Y4050974D01*
X27517708Y4050974D02*
X27612946Y4003355D01*
X27612946Y4003355D02*
X27660565Y3955736D01*
X27660565Y3955736D02*
X27708184Y3860498D01*
X27708184Y3860498D02*
X27708184Y3574784D01*
X27708184Y3574784D02*
X27660565Y3479546D01*
X27660565Y3479546D02*
X27612946Y3431926D01*
X27612946Y3431926D02*
X27517708Y3384307D01*
X27517708Y3384307D02*
X27374851Y3384307D01*
X28565327Y3384307D02*
X28565327Y3908117D01*
X28565327Y3908117D02*
X28517708Y4003355D01*
X28517708Y4003355D02*
X28422470Y4050974D01*
X28422470Y4050974D02*
X28231994Y4050974D01*
X28231994Y4050974D02*
X28136756Y4003355D01*
X28565327Y3431926D02*
X28470089Y3384307D01*
X28470089Y3384307D02*
X28231994Y3384307D01*
X28231994Y3384307D02*
X28136756Y3431926D01*
X28136756Y3431926D02*
X28089137Y3527165D01*
X28089137Y3527165D02*
X28089137Y3622403D01*
X28089137Y3622403D02*
X28136756Y3717641D01*
X28136756Y3717641D02*
X28231994Y3765260D01*
X28231994Y3765260D02*
X28470089Y3765260D01*
X28470089Y3765260D02*
X28565327Y3812879D01*
X29041518Y3384307D02*
X29041518Y4050974D01*
X29041518Y3860498D02*
X29089137Y3955736D01*
X29089137Y3955736D02*
X29136756Y4003355D01*
X29136756Y4003355D02*
X29231994Y4050974D01*
X29231994Y4050974D02*
X29327232Y4050974D01*
X30089137Y3384307D02*
X30089137Y4384307D01*
X30089137Y3431926D02*
X29993899Y3384307D01*
X29993899Y3384307D02*
X29803423Y3384307D01*
X29803423Y3384307D02*
X29708185Y3431926D01*
X29708185Y3431926D02*
X29660566Y3479546D01*
X29660566Y3479546D02*
X29612947Y3574784D01*
X29612947Y3574784D02*
X29612947Y3860498D01*
X29612947Y3860498D02*
X29660566Y3955736D01*
X29660566Y3955736D02*
X29708185Y4003355D01*
X29708185Y4003355D02*
X29803423Y4050974D01*
X29803423Y4050974D02*
X29993899Y4050974D01*
X29993899Y4050974D02*
X30089137Y4003355D01*
X11374849Y1774363D02*
X11374849Y2774363D01*
X11374849Y2774363D02*
X11612944Y2774363D01*
X11612944Y2774363D02*
X11755801Y2726744D01*
X11755801Y2726744D02*
X11851039Y2631506D01*
X11851039Y2631506D02*
X11898658Y2536268D01*
X11898658Y2536268D02*
X11946277Y2345792D01*
X11946277Y2345792D02*
X11946277Y2202935D01*
X11946277Y2202935D02*
X11898658Y2012459D01*
X11898658Y2012459D02*
X11851039Y1917221D01*
X11851039Y1917221D02*
X11755801Y1821982D01*
X11755801Y1821982D02*
X11612944Y1774363D01*
X11612944Y1774363D02*
X11374849Y1774363D01*
X12755801Y1821982D02*
X12660563Y1774363D01*
X12660563Y1774363D02*
X12470087Y1774363D01*
X12470087Y1774363D02*
X12374849Y1821982D01*
X12374849Y1821982D02*
X12327230Y1917221D01*
X12327230Y1917221D02*
X12327230Y2298173D01*
X12327230Y2298173D02*
X12374849Y2393411D01*
X12374849Y2393411D02*
X12470087Y2441030D01*
X12470087Y2441030D02*
X12660563Y2441030D01*
X12660563Y2441030D02*
X12755801Y2393411D01*
X12755801Y2393411D02*
X12803420Y2298173D01*
X12803420Y2298173D02*
X12803420Y2202935D01*
X12803420Y2202935D02*
X12327230Y2107697D01*
X13184373Y1821982D02*
X13279611Y1774363D01*
X13279611Y1774363D02*
X13470087Y1774363D01*
X13470087Y1774363D02*
X13565325Y1821982D01*
X13565325Y1821982D02*
X13612944Y1917221D01*
X13612944Y1917221D02*
X13612944Y1964840D01*
X13612944Y1964840D02*
X13565325Y2060078D01*
X13565325Y2060078D02*
X13470087Y2107697D01*
X13470087Y2107697D02*
X13327230Y2107697D01*
X13327230Y2107697D02*
X13231992Y2155316D01*
X13231992Y2155316D02*
X13184373Y2250554D01*
X13184373Y2250554D02*
X13184373Y2298173D01*
X13184373Y2298173D02*
X13231992Y2393411D01*
X13231992Y2393411D02*
X13327230Y2441030D01*
X13327230Y2441030D02*
X13470087Y2441030D01*
X13470087Y2441030D02*
X13565325Y2393411D01*
X14041516Y1774363D02*
X14041516Y2441030D01*
X14041516Y2774363D02*
X13993897Y2726744D01*
X13993897Y2726744D02*
X14041516Y2679125D01*
X14041516Y2679125D02*
X14089135Y2726744D01*
X14089135Y2726744D02*
X14041516Y2774363D01*
X14041516Y2774363D02*
X14041516Y2679125D01*
X14946277Y2441030D02*
X14946277Y1631506D01*
X14946277Y1631506D02*
X14898658Y1536268D01*
X14898658Y1536268D02*
X14851039Y1488649D01*
X14851039Y1488649D02*
X14755801Y1441030D01*
X14755801Y1441030D02*
X14612944Y1441030D01*
X14612944Y1441030D02*
X14517706Y1488649D01*
X14946277Y1821982D02*
X14851039Y1774363D01*
X14851039Y1774363D02*
X14660563Y1774363D01*
X14660563Y1774363D02*
X14565325Y1821982D01*
X14565325Y1821982D02*
X14517706Y1869602D01*
X14517706Y1869602D02*
X14470087Y1964840D01*
X14470087Y1964840D02*
X14470087Y2250554D01*
X14470087Y2250554D02*
X14517706Y2345792D01*
X14517706Y2345792D02*
X14565325Y2393411D01*
X14565325Y2393411D02*
X14660563Y2441030D01*
X14660563Y2441030D02*
X14851039Y2441030D01*
X14851039Y2441030D02*
X14946277Y2393411D01*
X15422468Y2441030D02*
X15422468Y1774363D01*
X15422468Y2345792D02*
X15470087Y2393411D01*
X15470087Y2393411D02*
X15565325Y2441030D01*
X15565325Y2441030D02*
X15708182Y2441030D01*
X15708182Y2441030D02*
X15803420Y2393411D01*
X15803420Y2393411D02*
X15851039Y2298173D01*
X15851039Y2298173D02*
X15851039Y1774363D01*
X16708182Y1821982D02*
X16612944Y1774363D01*
X16612944Y1774363D02*
X16422468Y1774363D01*
X16422468Y1774363D02*
X16327230Y1821982D01*
X16327230Y1821982D02*
X16279611Y1917221D01*
X16279611Y1917221D02*
X16279611Y2298173D01*
X16279611Y2298173D02*
X16327230Y2393411D01*
X16327230Y2393411D02*
X16422468Y2441030D01*
X16422468Y2441030D02*
X16612944Y2441030D01*
X16612944Y2441030D02*
X16708182Y2393411D01*
X16708182Y2393411D02*
X16755801Y2298173D01*
X16755801Y2298173D02*
X16755801Y2202935D01*
X16755801Y2202935D02*
X16279611Y2107697D01*
X17612944Y1774363D02*
X17612944Y2774363D01*
X17612944Y1821982D02*
X17517706Y1774363D01*
X17517706Y1774363D02*
X17327230Y1774363D01*
X17327230Y1774363D02*
X17231992Y1821982D01*
X17231992Y1821982D02*
X17184373Y1869602D01*
X17184373Y1869602D02*
X17136754Y1964840D01*
X17136754Y1964840D02*
X17136754Y2250554D01*
X17136754Y2250554D02*
X17184373Y2345792D01*
X17184373Y2345792D02*
X17231992Y2393411D01*
X17231992Y2393411D02*
X17327230Y2441030D01*
X17327230Y2441030D02*
X17517706Y2441030D01*
X17517706Y2441030D02*
X17612944Y2393411D01*
X18851040Y1774363D02*
X18851040Y2774363D01*
X18851040Y2393411D02*
X18946278Y2441030D01*
X18946278Y2441030D02*
X19136754Y2441030D01*
X19136754Y2441030D02*
X19231992Y2393411D01*
X19231992Y2393411D02*
X19279611Y2345792D01*
X19279611Y2345792D02*
X19327230Y2250554D01*
X19327230Y2250554D02*
X19327230Y1964840D01*
X19327230Y1964840D02*
X19279611Y1869602D01*
X19279611Y1869602D02*
X19231992Y1821982D01*
X19231992Y1821982D02*
X19136754Y1774363D01*
X19136754Y1774363D02*
X18946278Y1774363D01*
X18946278Y1774363D02*
X18851040Y1821982D01*
X19660564Y2441030D02*
X19898659Y1774363D01*
X20136754Y2441030D02*
X19898659Y1774363D01*
X19898659Y1774363D02*
X19803421Y1536268D01*
X19803421Y1536268D02*
X19755802Y1488649D01*
X19755802Y1488649D02*
X19660564Y1441030D01*
X21898659Y2250554D02*
X21851040Y2298173D01*
X21851040Y2298173D02*
X21755802Y2345792D01*
X21755802Y2345792D02*
X21660564Y2345792D01*
X21660564Y2345792D02*
X21565326Y2298173D01*
X21565326Y2298173D02*
X21517707Y2250554D01*
X21517707Y2250554D02*
X21470088Y2155316D01*
X21470088Y2155316D02*
X21470088Y2060078D01*
X21470088Y2060078D02*
X21517707Y1964840D01*
X21517707Y1964840D02*
X21565326Y1917221D01*
X21565326Y1917221D02*
X21660564Y1869602D01*
X21660564Y1869602D02*
X21755802Y1869602D01*
X21755802Y1869602D02*
X21851040Y1917221D01*
X21851040Y1917221D02*
X21898659Y1964840D01*
X21898659Y2345792D02*
X21898659Y1964840D01*
X21898659Y1964840D02*
X21946278Y1917221D01*
X21946278Y1917221D02*
X21993897Y1917221D01*
X21993897Y1917221D02*
X22089136Y1964840D01*
X22089136Y1964840D02*
X22136755Y2060078D01*
X22136755Y2060078D02*
X22136755Y2298173D01*
X22136755Y2298173D02*
X22041517Y2441030D01*
X22041517Y2441030D02*
X21898659Y2536268D01*
X21898659Y2536268D02*
X21708183Y2583887D01*
X21708183Y2583887D02*
X21517707Y2536268D01*
X21517707Y2536268D02*
X21374850Y2441030D01*
X21374850Y2441030D02*
X21279612Y2298173D01*
X21279612Y2298173D02*
X21231993Y2107697D01*
X21231993Y2107697D02*
X21279612Y1917221D01*
X21279612Y1917221D02*
X21374850Y1774363D01*
X21374850Y1774363D02*
X21517707Y1679125D01*
X21517707Y1679125D02*
X21708183Y1631506D01*
X21708183Y1631506D02*
X21898659Y1679125D01*
X21898659Y1679125D02*
X22041517Y1774363D01*
X23136754Y1869602D02*
X23089135Y1821982D01*
X23089135Y1821982D02*
X22946278Y1774363D01*
X22946278Y1774363D02*
X22851040Y1774363D01*
X22851040Y1774363D02*
X22708183Y1821982D01*
X22708183Y1821982D02*
X22612945Y1917221D01*
X22612945Y1917221D02*
X22565326Y2012459D01*
X22565326Y2012459D02*
X22517707Y2202935D01*
X22517707Y2202935D02*
X22517707Y2345792D01*
X22517707Y2345792D02*
X22565326Y2536268D01*
X22565326Y2536268D02*
X22612945Y2631506D01*
X22612945Y2631506D02*
X22708183Y2726744D01*
X22708183Y2726744D02*
X22851040Y2774363D01*
X22851040Y2774363D02*
X22946278Y2774363D01*
X22946278Y2774363D02*
X23089135Y2726744D01*
X23089135Y2726744D02*
X23136754Y2679125D01*
X23327231Y1679125D02*
X24089135Y1679125D01*
X24184374Y2774363D02*
X24755802Y2774363D01*
X24470088Y1774363D02*
X24470088Y2774363D01*
X25517707Y1774363D02*
X25517707Y2298173D01*
X25517707Y2298173D02*
X25470088Y2393411D01*
X25470088Y2393411D02*
X25374850Y2441030D01*
X25374850Y2441030D02*
X25184374Y2441030D01*
X25184374Y2441030D02*
X25089136Y2393411D01*
X25517707Y1821982D02*
X25422469Y1774363D01*
X25422469Y1774363D02*
X25184374Y1774363D01*
X25184374Y1774363D02*
X25089136Y1821982D01*
X25089136Y1821982D02*
X25041517Y1917221D01*
X25041517Y1917221D02*
X25041517Y2012459D01*
X25041517Y2012459D02*
X25089136Y2107697D01*
X25089136Y2107697D02*
X25184374Y2155316D01*
X25184374Y2155316D02*
X25422469Y2155316D01*
X25422469Y2155316D02*
X25517707Y2202935D01*
X25993898Y1774363D02*
X25993898Y2774363D01*
X26089136Y2155316D02*
X26374850Y1774363D01*
X26374850Y2441030D02*
X25993898Y2060078D01*
X27184374Y1821982D02*
X27089136Y1774363D01*
X27089136Y1774363D02*
X26898660Y1774363D01*
X26898660Y1774363D02*
X26803422Y1821982D01*
X26803422Y1821982D02*
X26755803Y1917221D01*
X26755803Y1917221D02*
X26755803Y2298173D01*
X26755803Y2298173D02*
X26803422Y2393411D01*
X26803422Y2393411D02*
X26898660Y2441030D01*
X26898660Y2441030D02*
X27089136Y2441030D01*
X27089136Y2441030D02*
X27184374Y2393411D01*
X27184374Y2393411D02*
X27231993Y2298173D01*
X27231993Y2298173D02*
X27231993Y2202935D01*
X27231993Y2202935D02*
X26755803Y2107697D01*
X27422470Y1679125D02*
X28184374Y1679125D01*
X28803422Y1821982D02*
X28708184Y1774363D01*
X28708184Y1774363D02*
X28517708Y1774363D01*
X28517708Y1774363D02*
X28422470Y1821982D01*
X28422470Y1821982D02*
X28374851Y1917221D01*
X28374851Y1917221D02*
X28374851Y2298173D01*
X28374851Y2298173D02*
X28422470Y2393411D01*
X28422470Y2393411D02*
X28517708Y2441030D01*
X28517708Y2441030D02*
X28708184Y2441030D01*
X28708184Y2441030D02*
X28803422Y2393411D01*
X28803422Y2393411D02*
X28851041Y2298173D01*
X28851041Y2298173D02*
X28851041Y2202935D01*
X28851041Y2202935D02*
X28374851Y2107697D01*
D13*
G36*
X5130446Y49810379D02*
G01*
X2880446Y49810379D01*
X2880446Y50612282D01*
X3067946Y50612282D01*
X3071549Y50594268D01*
X3071549Y50575899D01*
X3078652Y50558749D01*
X3082294Y50540543D01*
X3092515Y50525281D01*
X3099545Y50508309D01*
X3112674Y50495180D01*
X3123003Y50479757D01*
X3151141Y50456713D01*
X3151277Y50456577D01*
X3151337Y50456552D01*
X3151440Y50456468D01*
X3340624Y50333667D01*
X3455936Y50221786D01*
X3535894Y50068948D01*
X3591162Y50021014D01*
X3660568Y49997879D01*
X3733542Y50003066D01*
X3798977Y50035784D01*
X3846911Y50091051D01*
X3870046Y50160457D01*
X3864859Y50233432D01*
X3851723Y50267760D01*
X3776594Y50411367D01*
X3770455Y50426186D01*
X4570417Y50428062D01*
X4571549Y50147328D01*
X4599545Y50079738D01*
X4651277Y50028006D01*
X4718867Y50000010D01*
X4792025Y50000010D01*
X4859615Y50028006D01*
X4911347Y50079738D01*
X4939343Y50147328D01*
X4942946Y50183907D01*
X4939343Y51077629D01*
X4911347Y51145219D01*
X4859615Y51196951D01*
X4792025Y51224947D01*
X4718867Y51224947D01*
X4651277Y51196951D01*
X4599545Y51145219D01*
X4571549Y51077629D01*
X4567946Y51041050D01*
X4568919Y50799541D01*
X3272822Y50796502D01*
X3255250Y50799978D01*
X3237453Y50796419D01*
X3218867Y50796375D01*
X3201716Y50789272D01*
X3183511Y50785630D01*
X3168248Y50775409D01*
X3151277Y50768379D01*
X3138147Y50755250D01*
X3122725Y50744921D01*
X3112536Y50729639D01*
X3099545Y50716647D01*
X3092440Y50699495D01*
X3082144Y50684050D01*
X3078578Y50666030D01*
X3071549Y50649057D01*
X3071549Y50630495D01*
X3067946Y50612282D01*
X2880446Y50612282D01*
X2880446Y52183906D01*
X3067946Y52183906D01*
X3070957Y51854832D01*
X3069418Y51850213D01*
X3071233Y51824673D01*
X3071549Y51790184D01*
X3074127Y51783960D01*
X3074605Y51777239D01*
X3087741Y51742910D01*
X3162869Y51599304D01*
X3170975Y51579736D01*
X3176855Y51572571D01*
X3178751Y51568947D01*
X3182490Y51565704D01*
X3194292Y51551323D01*
X3294133Y51456578D01*
X3361723Y51428581D01*
X3434883Y51428581D01*
X3502472Y51456578D01*
X3554203Y51508309D01*
X3582200Y51575898D01*
X3582200Y51649058D01*
X3554203Y51716648D01*
X3530885Y51745061D01*
X3482367Y51791103D01*
X3442576Y51867163D01*
X3440119Y52135607D01*
X3476794Y52212451D01*
X3505500Y52242700D01*
X3582437Y52282950D01*
X3648212Y52284271D01*
X3793414Y52238075D01*
X4651276Y51385149D01*
X4651277Y51385148D01*
X4690870Y51368749D01*
X4718866Y51357152D01*
X4718867Y51357152D01*
X4792025Y51357152D01*
X4792026Y51357152D01*
X4811822Y51365352D01*
X4859615Y51385148D01*
X4911347Y51436880D01*
X4939343Y51504470D01*
X4942946Y51541049D01*
X4939343Y52506200D01*
X4911347Y52573790D01*
X4859615Y52625522D01*
X4792025Y52653518D01*
X4718867Y52653518D01*
X4651277Y52625522D01*
X4599545Y52573790D01*
X4571549Y52506200D01*
X4567946Y52469621D01*
X4569736Y51990093D01*
X4049171Y52507663D01*
X4046427Y52513151D01*
X4024687Y52532006D01*
X4002473Y52554092D01*
X3996248Y52556671D01*
X3991158Y52561085D01*
X3957596Y52576070D01*
X3741901Y52644694D01*
X3720597Y52653518D01*
X3711280Y52654436D01*
X3707470Y52655648D01*
X3702533Y52655298D01*
X3684018Y52657121D01*
X3567229Y52654776D01*
X3564610Y52655649D01*
X3546459Y52654359D01*
X3504581Y52653518D01*
X3498356Y52650940D01*
X3491635Y52650462D01*
X3457307Y52637326D01*
X3313697Y52562196D01*
X3294132Y52554091D01*
X3286968Y52548213D01*
X3283344Y52546316D01*
X3280098Y52542575D01*
X3265719Y52530773D01*
X3192668Y52453793D01*
X3178751Y52441722D01*
X3173897Y52434012D01*
X3170974Y52430931D01*
X3169080Y52426360D01*
X3159170Y52410616D01*
X3101726Y52290257D01*
X3099545Y52288075D01*
X3092055Y52269995D01*
X3074605Y52233430D01*
X3074127Y52226710D01*
X3071549Y52220485D01*
X3067946Y52183906D01*
X2880446Y52183906D01*
X2880446Y53921643D01*
X3069419Y53921643D01*
X3074604Y53848669D01*
X3107322Y53783232D01*
X3162591Y53735299D01*
X3196153Y53720314D01*
X4168086Y53398741D01*
X3162591Y53061085D01*
X3107322Y53013152D01*
X3074604Y52947715D01*
X3069419Y52874741D01*
X3092553Y52805337D01*
X3140486Y52750068D01*
X3205923Y52717350D01*
X3278897Y52712165D01*
X3314739Y52720314D01*
X4792135Y53216439D01*
X4804969Y53217350D01*
X4825663Y53227698D01*
X4848301Y53235299D01*
X4858420Y53244076D01*
X4870406Y53250068D01*
X4885811Y53267832D01*
X4903570Y53283233D01*
X4909561Y53295217D01*
X4918339Y53305337D01*
X4925772Y53327639D01*
X4936288Y53348669D01*
X4937237Y53362034D01*
X4941473Y53374740D01*
X4939806Y53398192D01*
X4941473Y53421644D01*
X4937237Y53434351D01*
X4936288Y53447715D01*
X4925772Y53468746D01*
X4918339Y53491047D01*
X4909561Y53501168D01*
X4903570Y53513151D01*
X4885811Y53528553D01*
X4870406Y53546316D01*
X4858420Y53552309D01*
X4848301Y53561085D01*
X4814739Y53576070D01*
X3278897Y54084219D01*
X3205923Y54079034D01*
X3140486Y54046316D01*
X3092553Y53991047D01*
X3069419Y53921643D01*
X2880446Y53921643D01*
X2880446Y55577627D01*
X3071549Y55577627D01*
X3071549Y55504469D01*
X3099545Y55436879D01*
X3151277Y55385147D01*
X3218867Y55357151D01*
X3255446Y55353548D01*
X4792025Y55357151D01*
X4859615Y55385147D01*
X4911347Y55436879D01*
X4939343Y55504469D01*
X4939343Y55577627D01*
X4911347Y55645217D01*
X4859615Y55696949D01*
X4792025Y55724945D01*
X4755446Y55728548D01*
X3218867Y55724945D01*
X3151277Y55696949D01*
X3099545Y55645217D01*
X3071549Y55577627D01*
X2880446Y55577627D01*
X2880446Y56268429D01*
X3068404Y56268429D01*
X3071549Y56243690D01*
X3071549Y56218755D01*
X3076122Y56207714D01*
X3077630Y56195855D01*
X3090002Y56174204D01*
X3099545Y56151165D01*
X3107997Y56142713D01*
X3113927Y56132336D01*
X3133643Y56117067D01*
X3151277Y56099433D01*
X3162317Y56094861D01*
X3171768Y56087541D01*
X3195830Y56080979D01*
X3218867Y56071437D01*
X3237576Y56069595D01*
X3242351Y56068292D01*
X3246037Y56068761D01*
X3255446Y56067834D01*
X4792025Y56071437D01*
X4859615Y56099433D01*
X4911347Y56151165D01*
X4939343Y56218755D01*
X4939343Y56291913D01*
X4911347Y56359503D01*
X4859615Y56411235D01*
X4792025Y56439231D01*
X4755446Y56442834D01*
X3955325Y56440958D01*
X4837284Y56947327D01*
X4859615Y56956576D01*
X4868001Y56964963D01*
X4878444Y56970958D01*
X4893713Y56990675D01*
X4911347Y57008308D01*
X4915919Y57019349D01*
X4923239Y57028799D01*
X4929802Y57052864D01*
X4939343Y57075898D01*
X4939343Y57087847D01*
X4942489Y57099382D01*
X4939343Y57124127D01*
X4939343Y57149056D01*
X4934769Y57160098D01*
X4933262Y57171956D01*
X4920889Y57193608D01*
X4911347Y57216646D01*
X4902894Y57225099D01*
X4896965Y57235475D01*
X4877248Y57250745D01*
X4859615Y57268378D01*
X4848574Y57272951D01*
X4839124Y57280270D01*
X4815060Y57286833D01*
X4792025Y57296374D01*
X4773317Y57298217D01*
X4768542Y57299519D01*
X4764854Y57299051D01*
X4755446Y57299977D01*
X3218867Y57296374D01*
X3151277Y57268378D01*
X3099545Y57216646D01*
X3071549Y57149056D01*
X3071549Y57075898D01*
X3099545Y57008308D01*
X3151277Y56956576D01*
X3218867Y56928580D01*
X3255446Y56924977D01*
X4055566Y56926854D01*
X3173607Y56420485D01*
X3151277Y56411235D01*
X3142890Y56402849D01*
X3132448Y56396853D01*
X3117178Y56377137D01*
X3099545Y56359503D01*
X3094972Y56348463D01*
X3087653Y56339012D01*
X3081090Y56314950D01*
X3071549Y56291913D01*
X3071549Y56279962D01*
X3068404Y56268429D01*
X2880446Y56268429D01*
X2880446Y57487477D01*
X5130446Y57487477D01*
X5130446Y49810379D01*
G37*
D14*
X39771937Y41224081D02*
X40486222Y41224081D01*
X40486222Y41224081D02*
X40629079Y41176462D01*
X40629079Y41176462D02*
X40724318Y41081224D01*
X40724318Y41081224D02*
X40771937Y40938367D01*
X40771937Y40938367D02*
X40771937Y40843129D01*
X40771937Y42176462D02*
X40771937Y41700272D01*
X40771937Y41700272D02*
X39771937Y41700272D01*
X40676698Y43081224D02*
X40724318Y43033605D01*
X40724318Y43033605D02*
X40771937Y42890748D01*
X40771937Y42890748D02*
X40771937Y42795510D01*
X40771937Y42795510D02*
X40724318Y42652653D01*
X40724318Y42652653D02*
X40629079Y42557415D01*
X40629079Y42557415D02*
X40533841Y42509796D01*
X40533841Y42509796D02*
X40343365Y42462177D01*
X40343365Y42462177D02*
X40200508Y42462177D01*
X40200508Y42462177D02*
X40010032Y42509796D01*
X40010032Y42509796D02*
X39914794Y42557415D01*
X39914794Y42557415D02*
X39819556Y42652653D01*
X39819556Y42652653D02*
X39771937Y42795510D01*
X39771937Y42795510D02*
X39771937Y42890748D01*
X39771937Y42890748D02*
X39819556Y43033605D01*
X39819556Y43033605D02*
X39867175Y43081224D01*
X39771937Y43795510D02*
X40486222Y43795510D01*
X40486222Y43795510D02*
X40629079Y43747891D01*
X40629079Y43747891D02*
X40724318Y43652653D01*
X40724318Y43652653D02*
X40771937Y43509796D01*
X40771937Y43509796D02*
X40771937Y43414558D01*
X40771937Y44747891D02*
X40771937Y44271701D01*
X40771937Y44271701D02*
X39771937Y44271701D01*
X40676698Y45652653D02*
X40724318Y45605034D01*
X40724318Y45605034D02*
X40771937Y45462177D01*
X40771937Y45462177D02*
X40771937Y45366939D01*
X40771937Y45366939D02*
X40724318Y45224082D01*
X40724318Y45224082D02*
X40629079Y45128844D01*
X40629079Y45128844D02*
X40533841Y45081225D01*
X40533841Y45081225D02*
X40343365Y45033606D01*
X40343365Y45033606D02*
X40200508Y45033606D01*
X40200508Y45033606D02*
X40010032Y45081225D01*
X40010032Y45081225D02*
X39914794Y45128844D01*
X39914794Y45128844D02*
X39819556Y45224082D01*
X39819556Y45224082D02*
X39771937Y45366939D01*
X39771937Y45366939D02*
X39771937Y45462177D01*
X39771937Y45462177D02*
X39819556Y45605034D01*
X39819556Y45605034D02*
X39867175Y45652653D01*
X39771937Y46366939D02*
X40486222Y46366939D01*
X40486222Y46366939D02*
X40629079Y46319320D01*
X40629079Y46319320D02*
X40724318Y46224082D01*
X40724318Y46224082D02*
X40771937Y46081225D01*
X40771937Y46081225D02*
X40771937Y45985987D01*
X40771937Y47319320D02*
X40771937Y46843130D01*
X40771937Y46843130D02*
X39771937Y46843130D01*
X40676698Y48224082D02*
X40724318Y48176463D01*
X40724318Y48176463D02*
X40771937Y48033606D01*
X40771937Y48033606D02*
X40771937Y47938368D01*
X40771937Y47938368D02*
X40724318Y47795511D01*
X40724318Y47795511D02*
X40629079Y47700273D01*
X40629079Y47700273D02*
X40533841Y47652654D01*
X40533841Y47652654D02*
X40343365Y47605035D01*
X40343365Y47605035D02*
X40200508Y47605035D01*
X40200508Y47605035D02*
X40010032Y47652654D01*
X40010032Y47652654D02*
X39914794Y47700273D01*
X39914794Y47700273D02*
X39819556Y47795511D01*
X39819556Y47795511D02*
X39771937Y47938368D01*
X39771937Y47938368D02*
X39771937Y48033606D01*
X39771937Y48033606D02*
X39819556Y48176463D01*
X39819556Y48176463D02*
X39867175Y48224082D01*
X39771937Y48938368D02*
X40486222Y48938368D01*
X40486222Y48938368D02*
X40629079Y48890749D01*
X40629079Y48890749D02*
X40724318Y48795511D01*
X40724318Y48795511D02*
X40771937Y48652654D01*
X40771937Y48652654D02*
X40771937Y48557416D01*
X40771937Y49890749D02*
X40771937Y49414559D01*
X40771937Y49414559D02*
X39771937Y49414559D01*
X40676698Y50795511D02*
X40724318Y50747892D01*
X40724318Y50747892D02*
X40771937Y50605035D01*
X40771937Y50605035D02*
X40771937Y50509797D01*
X40771937Y50509797D02*
X40724318Y50366940D01*
X40724318Y50366940D02*
X40629079Y50271702D01*
X40629079Y50271702D02*
X40533841Y50224083D01*
X40533841Y50224083D02*
X40343365Y50176464D01*
X40343365Y50176464D02*
X40200508Y50176464D01*
X40200508Y50176464D02*
X40010032Y50224083D01*
X40010032Y50224083D02*
X39914794Y50271702D01*
X39914794Y50271702D02*
X39819556Y50366940D01*
X39819556Y50366940D02*
X39771937Y50509797D01*
X39771937Y50509797D02*
X39771937Y50605035D01*
X39771937Y50605035D02*
X39819556Y50747892D01*
X39819556Y50747892D02*
X39867175Y50795511D01*
D15*
X22050337Y35895816D02*
X21574146Y35562483D01*
X22050337Y35324388D02*
X21050337Y35324388D01*
X21050337Y35324388D02*
X21050337Y35705340D01*
X21050337Y35705340D02*
X21097956Y35800578D01*
X21097956Y35800578D02*
X21145575Y35848197D01*
X21145575Y35848197D02*
X21240813Y35895816D01*
X21240813Y35895816D02*
X21383670Y35895816D01*
X21383670Y35895816D02*
X21478908Y35848197D01*
X21478908Y35848197D02*
X21526527Y35800578D01*
X21526527Y35800578D02*
X21574146Y35705340D01*
X21574146Y35705340D02*
X21574146Y35324388D01*
X22050337Y36372007D02*
X22050337Y36562483D01*
X22050337Y36562483D02*
X22002718Y36657721D01*
X22002718Y36657721D02*
X21955098Y36705340D01*
X21955098Y36705340D02*
X21812241Y36800578D01*
X21812241Y36800578D02*
X21621765Y36848197D01*
X21621765Y36848197D02*
X21240813Y36848197D01*
X21240813Y36848197D02*
X21145575Y36800578D01*
X21145575Y36800578D02*
X21097956Y36752959D01*
X21097956Y36752959D02*
X21050337Y36657721D01*
X21050337Y36657721D02*
X21050337Y36467245D01*
X21050337Y36467245D02*
X21097956Y36372007D01*
X21097956Y36372007D02*
X21145575Y36324388D01*
X21145575Y36324388D02*
X21240813Y36276769D01*
X21240813Y36276769D02*
X21478908Y36276769D01*
X21478908Y36276769D02*
X21574146Y36324388D01*
X21574146Y36324388D02*
X21621765Y36372007D01*
X21621765Y36372007D02*
X21669384Y36467245D01*
X21669384Y36467245D02*
X21669384Y36657721D01*
X21669384Y36657721D02*
X21621765Y36752959D01*
X21621765Y36752959D02*
X21574146Y36800578D01*
X21574146Y36800578D02*
X21478908Y36848197D01*
X24082337Y9479816D02*
X23606146Y9146483D01*
X24082337Y8908388D02*
X23082337Y8908388D01*
X23082337Y8908388D02*
X23082337Y9289340D01*
X23082337Y9289340D02*
X23129956Y9384578D01*
X23129956Y9384578D02*
X23177575Y9432197D01*
X23177575Y9432197D02*
X23272813Y9479816D01*
X23272813Y9479816D02*
X23415670Y9479816D01*
X23415670Y9479816D02*
X23510908Y9432197D01*
X23510908Y9432197D02*
X23558527Y9384578D01*
X23558527Y9384578D02*
X23606146Y9289340D01*
X23606146Y9289340D02*
X23606146Y8908388D01*
X23177575Y9860769D02*
X23129956Y9908388D01*
X23129956Y9908388D02*
X23082337Y10003626D01*
X23082337Y10003626D02*
X23082337Y10241721D01*
X23082337Y10241721D02*
X23129956Y10336959D01*
X23129956Y10336959D02*
X23177575Y10384578D01*
X23177575Y10384578D02*
X23272813Y10432197D01*
X23272813Y10432197D02*
X23368051Y10432197D01*
X23368051Y10432197D02*
X23510908Y10384578D01*
X23510908Y10384578D02*
X24082337Y9813150D01*
X24082337Y9813150D02*
X24082337Y10432197D01*
X6863613Y63801663D02*
X6863613Y64801663D01*
X6863613Y64325473D02*
X7435041Y64325473D01*
X7435041Y63801663D02*
X7435041Y64801663D01*
X8435041Y63801663D02*
X7863613Y63801663D01*
X8149327Y63801663D02*
X8149327Y64801663D01*
X8149327Y64801663D02*
X8054089Y64658806D01*
X8054089Y64658806D02*
X7958851Y64563568D01*
X7958851Y64563568D02*
X7863613Y64515949D01*
X33914613Y63801663D02*
X33914613Y64801663D01*
X33914613Y64325473D02*
X34486041Y64325473D01*
X34486041Y63801663D02*
X34486041Y64801663D01*
X34914613Y64706425D02*
X34962232Y64754044D01*
X34962232Y64754044D02*
X35057470Y64801663D01*
X35057470Y64801663D02*
X35295565Y64801663D01*
X35295565Y64801663D02*
X35390803Y64754044D01*
X35390803Y64754044D02*
X35438422Y64706425D01*
X35438422Y64706425D02*
X35486041Y64611187D01*
X35486041Y64611187D02*
X35486041Y64515949D01*
X35486041Y64515949D02*
X35438422Y64373092D01*
X35438422Y64373092D02*
X34866994Y63801663D01*
X34866994Y63801663D02*
X35486041Y63801663D01*
X19396851Y9191663D02*
X19063518Y9667854D01*
X18825423Y9191663D02*
X18825423Y10191663D01*
X18825423Y10191663D02*
X19206375Y10191663D01*
X19206375Y10191663D02*
X19301613Y10144044D01*
X19301613Y10144044D02*
X19349232Y10096425D01*
X19349232Y10096425D02*
X19396851Y10001187D01*
X19396851Y10001187D02*
X19396851Y9858330D01*
X19396851Y9858330D02*
X19349232Y9763092D01*
X19349232Y9763092D02*
X19301613Y9715473D01*
X19301613Y9715473D02*
X19206375Y9667854D01*
X19206375Y9667854D02*
X18825423Y9667854D01*
X20349232Y9191663D02*
X19777804Y9191663D01*
X20063518Y9191663D02*
X20063518Y10191663D01*
X20063518Y10191663D02*
X19968280Y10048806D01*
X19968280Y10048806D02*
X19873042Y9953568D01*
X19873042Y9953568D02*
X19777804Y9905949D01*
X26561837Y22095149D02*
X27276122Y22095149D01*
X27276122Y22095149D02*
X27418979Y22047530D01*
X27418979Y22047530D02*
X27514218Y21952292D01*
X27514218Y21952292D02*
X27561837Y21809435D01*
X27561837Y21809435D02*
X27561837Y21714197D01*
X26561837Y23047530D02*
X26561837Y22571340D01*
X26561837Y22571340D02*
X27038027Y22523721D01*
X27038027Y22523721D02*
X26990408Y22571340D01*
X26990408Y22571340D02*
X26942789Y22666578D01*
X26942789Y22666578D02*
X26942789Y22904673D01*
X26942789Y22904673D02*
X26990408Y22999911D01*
X26990408Y22999911D02*
X27038027Y23047530D01*
X27038027Y23047530D02*
X27133265Y23095149D01*
X27133265Y23095149D02*
X27371360Y23095149D01*
X27371360Y23095149D02*
X27466598Y23047530D01*
X27466598Y23047530D02*
X27514218Y22999911D01*
X27514218Y22999911D02*
X27561837Y22904673D01*
X27561837Y22904673D02*
X27561837Y22666578D01*
X27561837Y22666578D02*
X27514218Y22571340D01*
X27514218Y22571340D02*
X27466598Y22523721D01*
X23828337Y29037816D02*
X23352146Y28704483D01*
X23828337Y28466388D02*
X22828337Y28466388D01*
X22828337Y28466388D02*
X22828337Y28847340D01*
X22828337Y28847340D02*
X22875956Y28942578D01*
X22875956Y28942578D02*
X22923575Y28990197D01*
X22923575Y28990197D02*
X23018813Y29037816D01*
X23018813Y29037816D02*
X23161670Y29037816D01*
X23161670Y29037816D02*
X23256908Y28990197D01*
X23256908Y28990197D02*
X23304527Y28942578D01*
X23304527Y28942578D02*
X23352146Y28847340D01*
X23352146Y28847340D02*
X23352146Y28466388D01*
X22828337Y29371150D02*
X22828337Y30037816D01*
X22828337Y30037816D02*
X23828337Y29609245D01*
X32822337Y12996149D02*
X33536622Y12996149D01*
X33536622Y12996149D02*
X33679479Y12948530D01*
X33679479Y12948530D02*
X33774718Y12853292D01*
X33774718Y12853292D02*
X33822337Y12710435D01*
X33822337Y12710435D02*
X33822337Y12615197D01*
X33155670Y13900911D02*
X33822337Y13900911D01*
X32774718Y13662816D02*
X33489003Y13424721D01*
X33489003Y13424721D02*
X33489003Y14043768D01*
X33914613Y301663D02*
X33914613Y1301663D01*
X33914613Y825473D02*
X34486041Y825473D01*
X34486041Y301663D02*
X34486041Y1301663D01*
X34866994Y1301663D02*
X35486041Y1301663D01*
X35486041Y1301663D02*
X35152708Y920711D01*
X35152708Y920711D02*
X35295565Y920711D01*
X35295565Y920711D02*
X35390803Y873092D01*
X35390803Y873092D02*
X35438422Y825473D01*
X35438422Y825473D02*
X35486041Y730235D01*
X35486041Y730235D02*
X35486041Y492140D01*
X35486041Y492140D02*
X35438422Y396902D01*
X35438422Y396902D02*
X35390803Y349282D01*
X35390803Y349282D02*
X35295565Y301663D01*
X35295565Y301663D02*
X35009851Y301663D01*
X35009851Y301663D02*
X34914613Y349282D01*
X34914613Y349282D02*
X34866994Y396902D01*
X9236851Y24526902D02*
X9189232Y24479282D01*
X9189232Y24479282D02*
X9046375Y24431663D01*
X9046375Y24431663D02*
X8951137Y24431663D01*
X8951137Y24431663D02*
X8808280Y24479282D01*
X8808280Y24479282D02*
X8713042Y24574521D01*
X8713042Y24574521D02*
X8665423Y24669759D01*
X8665423Y24669759D02*
X8617804Y24860235D01*
X8617804Y24860235D02*
X8617804Y25003092D01*
X8617804Y25003092D02*
X8665423Y25193568D01*
X8665423Y25193568D02*
X8713042Y25288806D01*
X8713042Y25288806D02*
X8808280Y25384044D01*
X8808280Y25384044D02*
X8951137Y25431663D01*
X8951137Y25431663D02*
X9046375Y25431663D01*
X9046375Y25431663D02*
X9189232Y25384044D01*
X9189232Y25384044D02*
X9236851Y25336425D01*
X10189232Y24431663D02*
X9617804Y24431663D01*
X9903518Y24431663D02*
X9903518Y25431663D01*
X9903518Y25431663D02*
X9808280Y25288806D01*
X9808280Y25288806D02*
X9713042Y25193568D01*
X9713042Y25193568D02*
X9617804Y25145949D01*
X19240660Y44084902D02*
X19193041Y44037282D01*
X19193041Y44037282D02*
X19050184Y43989663D01*
X19050184Y43989663D02*
X18954946Y43989663D01*
X18954946Y43989663D02*
X18812089Y44037282D01*
X18812089Y44037282D02*
X18716851Y44132521D01*
X18716851Y44132521D02*
X18669232Y44227759D01*
X18669232Y44227759D02*
X18621613Y44418235D01*
X18621613Y44418235D02*
X18621613Y44561092D01*
X18621613Y44561092D02*
X18669232Y44751568D01*
X18669232Y44751568D02*
X18716851Y44846806D01*
X18716851Y44846806D02*
X18812089Y44942044D01*
X18812089Y44942044D02*
X18954946Y44989663D01*
X18954946Y44989663D02*
X19050184Y44989663D01*
X19050184Y44989663D02*
X19193041Y44942044D01*
X19193041Y44942044D02*
X19240660Y44894425D01*
X20193041Y43989663D02*
X19621613Y43989663D01*
X19907327Y43989663D02*
X19907327Y44989663D01*
X19907327Y44989663D02*
X19812089Y44846806D01*
X19812089Y44846806D02*
X19716851Y44751568D01*
X19716851Y44751568D02*
X19621613Y44703949D01*
X20812089Y44989663D02*
X20907327Y44989663D01*
X20907327Y44989663D02*
X21002565Y44942044D01*
X21002565Y44942044D02*
X21050184Y44894425D01*
X21050184Y44894425D02*
X21097803Y44799187D01*
X21097803Y44799187D02*
X21145422Y44608711D01*
X21145422Y44608711D02*
X21145422Y44370616D01*
X21145422Y44370616D02*
X21097803Y44180140D01*
X21097803Y44180140D02*
X21050184Y44084902D01*
X21050184Y44084902D02*
X21002565Y44037282D01*
X21002565Y44037282D02*
X20907327Y43989663D01*
X20907327Y43989663D02*
X20812089Y43989663D01*
X20812089Y43989663D02*
X20716851Y44037282D01*
X20716851Y44037282D02*
X20669232Y44084902D01*
X20669232Y44084902D02*
X20621613Y44180140D01*
X20621613Y44180140D02*
X20573994Y44370616D01*
X20573994Y44370616D02*
X20573994Y44608711D01*
X20573994Y44608711D02*
X20621613Y44799187D01*
X20621613Y44799187D02*
X20669232Y44894425D01*
X20669232Y44894425D02*
X20716851Y44942044D01*
X20716851Y44942044D02*
X20812089Y44989663D01*
X23625137Y39432825D02*
X23148946Y39099492D01*
X23625137Y38861397D02*
X22625137Y38861397D01*
X22625137Y38861397D02*
X22625137Y39242349D01*
X22625137Y39242349D02*
X22672756Y39337587D01*
X22672756Y39337587D02*
X22720375Y39385206D01*
X22720375Y39385206D02*
X22815613Y39432825D01*
X22815613Y39432825D02*
X22958470Y39432825D01*
X22958470Y39432825D02*
X23053708Y39385206D01*
X23053708Y39385206D02*
X23101327Y39337587D01*
X23101327Y39337587D02*
X23148946Y39242349D01*
X23148946Y39242349D02*
X23148946Y38861397D01*
X23625137Y40385206D02*
X23625137Y39813778D01*
X23625137Y40099492D02*
X22625137Y40099492D01*
X22625137Y40099492D02*
X22767994Y40004254D01*
X22767994Y40004254D02*
X22863232Y39909016D01*
X22863232Y39909016D02*
X22910851Y39813778D01*
X22625137Y41004254D02*
X22625137Y41099492D01*
X22625137Y41099492D02*
X22672756Y41194730D01*
X22672756Y41194730D02*
X22720375Y41242349D01*
X22720375Y41242349D02*
X22815613Y41289968D01*
X22815613Y41289968D02*
X23006089Y41337587D01*
X23006089Y41337587D02*
X23244184Y41337587D01*
X23244184Y41337587D02*
X23434660Y41289968D01*
X23434660Y41289968D02*
X23529898Y41242349D01*
X23529898Y41242349D02*
X23577518Y41194730D01*
X23577518Y41194730D02*
X23625137Y41099492D01*
X23625137Y41099492D02*
X23625137Y41004254D01*
X23625137Y41004254D02*
X23577518Y40909016D01*
X23577518Y40909016D02*
X23529898Y40861397D01*
X23529898Y40861397D02*
X23434660Y40813778D01*
X23434660Y40813778D02*
X23244184Y40766159D01*
X23244184Y40766159D02*
X23006089Y40766159D01*
X23006089Y40766159D02*
X22815613Y40813778D01*
X22815613Y40813778D02*
X22720375Y40861397D01*
X22720375Y40861397D02*
X22672756Y40909016D01*
X22672756Y40909016D02*
X22625137Y41004254D01*
X29748355Y13859864D02*
X28882330Y14359864D01*
X28882330Y14359864D02*
X29001377Y14566061D01*
X29001377Y14566061D02*
X29114045Y14665969D01*
X29114045Y14665969D02*
X29244143Y14700829D01*
X29244143Y14700829D02*
X29350431Y14694449D01*
X29350431Y14694449D02*
X29539198Y14640450D01*
X29539198Y14640450D02*
X29662916Y14569022D01*
X29662916Y14569022D02*
X29804063Y14432544D01*
X29804063Y14432544D02*
X29862732Y14343686D01*
X29862732Y14343686D02*
X29897592Y14213588D01*
X29897592Y14213588D02*
X29867403Y14066061D01*
X29867403Y14066061D02*
X29748355Y13859864D01*
X30510260Y15179522D02*
X30224545Y14684650D01*
X30367403Y14932086D02*
X29501377Y15432086D01*
X29501377Y15432086D02*
X29577476Y15278179D01*
X29577476Y15278179D02*
X29612336Y15148081D01*
X29612336Y15148081D02*
X29605956Y15041793D01*
X6315994Y27987663D02*
X6315994Y28987663D01*
X6315994Y28987663D02*
X6649327Y28273378D01*
X6649327Y28273378D02*
X6982660Y28987663D01*
X6982660Y28987663D02*
X6982660Y27987663D01*
X7458851Y27987663D02*
X7458851Y28987663D01*
X7458851Y28987663D02*
X7696946Y28987663D01*
X7696946Y28987663D02*
X7839803Y28940044D01*
X7839803Y28940044D02*
X7935041Y28844806D01*
X7935041Y28844806D02*
X7982660Y28749568D01*
X7982660Y28749568D02*
X8030279Y28559092D01*
X8030279Y28559092D02*
X8030279Y28416235D01*
X8030279Y28416235D02*
X7982660Y28225759D01*
X7982660Y28225759D02*
X7935041Y28130521D01*
X7935041Y28130521D02*
X7839803Y28035282D01*
X7839803Y28035282D02*
X7696946Y27987663D01*
X7696946Y27987663D02*
X7458851Y27987663D01*
X8411232Y28892425D02*
X8458851Y28940044D01*
X8458851Y28940044D02*
X8554089Y28987663D01*
X8554089Y28987663D02*
X8792184Y28987663D01*
X8792184Y28987663D02*
X8887422Y28940044D01*
X8887422Y28940044D02*
X8935041Y28892425D01*
X8935041Y28892425D02*
X8982660Y28797187D01*
X8982660Y28797187D02*
X8982660Y28701949D01*
X8982660Y28701949D02*
X8935041Y28559092D01*
X8935041Y28559092D02*
X8363613Y27987663D01*
X8363613Y27987663D02*
X8982660Y27987663D01*
X26620974Y8227341D02*
X26041914Y8176761D01*
X26335259Y7732470D02*
X25469234Y8232470D01*
X25469234Y8232470D02*
X25659710Y8562384D01*
X25659710Y8562384D02*
X25748569Y8621053D01*
X25748569Y8621053D02*
X25813617Y8638483D01*
X25813617Y8638483D02*
X25919906Y8632103D01*
X25919906Y8632103D02*
X26043623Y8560675D01*
X26043623Y8560675D02*
X26102293Y8471816D01*
X26102293Y8471816D02*
X26119722Y8406767D01*
X26119722Y8406767D02*
X26113343Y8300479D01*
X26113343Y8300479D02*
X25922866Y7970565D01*
X27097164Y9052127D02*
X26811450Y8557256D01*
X26954307Y8804692D02*
X26088282Y9304692D01*
X26088282Y9304692D02*
X26164381Y9150784D01*
X26164381Y9150784D02*
X26199240Y9020687D01*
X26199240Y9020687D02*
X26192860Y8914399D01*
X27573355Y9876914D02*
X27287640Y9382042D01*
X27430498Y9629478D02*
X26564472Y10129478D01*
X26564472Y10129478D02*
X26640571Y9975571D01*
X26640571Y9975571D02*
X26675431Y9845473D01*
X26675431Y9845473D02*
X26669051Y9739185D01*
X27124184Y64502663D02*
X27124184Y63788378D01*
X27124184Y63788378D02*
X27076565Y63645521D01*
X27076565Y63645521D02*
X26981327Y63550282D01*
X26981327Y63550282D02*
X26838470Y63502663D01*
X26838470Y63502663D02*
X26743232Y63502663D01*
X27505137Y64502663D02*
X28124184Y64502663D01*
X28124184Y64502663D02*
X27790851Y64121711D01*
X27790851Y64121711D02*
X27933708Y64121711D01*
X27933708Y64121711D02*
X28028946Y64074092D01*
X28028946Y64074092D02*
X28076565Y64026473D01*
X28076565Y64026473D02*
X28124184Y63931235D01*
X28124184Y63931235D02*
X28124184Y63693140D01*
X28124184Y63693140D02*
X28076565Y63597902D01*
X28076565Y63597902D02*
X28028946Y63550282D01*
X28028946Y63550282D02*
X27933708Y63502663D01*
X27933708Y63502663D02*
X27647994Y63502663D01*
X27647994Y63502663D02*
X27552756Y63550282D01*
X27552756Y63550282D02*
X27505137Y63597902D01*
X19716851Y24526902D02*
X19669232Y24479282D01*
X19669232Y24479282D02*
X19526375Y24431663D01*
X19526375Y24431663D02*
X19431137Y24431663D01*
X19431137Y24431663D02*
X19288280Y24479282D01*
X19288280Y24479282D02*
X19193042Y24574521D01*
X19193042Y24574521D02*
X19145423Y24669759D01*
X19145423Y24669759D02*
X19097804Y24860235D01*
X19097804Y24860235D02*
X19097804Y25003092D01*
X19097804Y25003092D02*
X19145423Y25193568D01*
X19145423Y25193568D02*
X19193042Y25288806D01*
X19193042Y25288806D02*
X19288280Y25384044D01*
X19288280Y25384044D02*
X19431137Y25431663D01*
X19431137Y25431663D02*
X19526375Y25431663D01*
X19526375Y25431663D02*
X19669232Y25384044D01*
X19669232Y25384044D02*
X19716851Y25336425D01*
X20621613Y25431663D02*
X20145423Y25431663D01*
X20145423Y25431663D02*
X20097804Y24955473D01*
X20097804Y24955473D02*
X20145423Y25003092D01*
X20145423Y25003092D02*
X20240661Y25050711D01*
X20240661Y25050711D02*
X20478756Y25050711D01*
X20478756Y25050711D02*
X20573994Y25003092D01*
X20573994Y25003092D02*
X20621613Y24955473D01*
X20621613Y24955473D02*
X20669232Y24860235D01*
X20669232Y24860235D02*
X20669232Y24622140D01*
X20669232Y24622140D02*
X20621613Y24526902D01*
X20621613Y24526902D02*
X20573994Y24479282D01*
X20573994Y24479282D02*
X20478756Y24431663D01*
X20478756Y24431663D02*
X20240661Y24431663D01*
X20240661Y24431663D02*
X20145423Y24479282D01*
X20145423Y24479282D02*
X20097804Y24526902D01*
X38818184Y38967663D02*
X38818184Y38253378D01*
X38818184Y38253378D02*
X38770565Y38110521D01*
X38770565Y38110521D02*
X38675327Y38015282D01*
X38675327Y38015282D02*
X38532470Y37967663D01*
X38532470Y37967663D02*
X38437232Y37967663D01*
X39246756Y38872425D02*
X39294375Y38920044D01*
X39294375Y38920044D02*
X39389613Y38967663D01*
X39389613Y38967663D02*
X39627708Y38967663D01*
X39627708Y38967663D02*
X39722946Y38920044D01*
X39722946Y38920044D02*
X39770565Y38872425D01*
X39770565Y38872425D02*
X39818184Y38777187D01*
X39818184Y38777187D02*
X39818184Y38681949D01*
X39818184Y38681949D02*
X39770565Y38539092D01*
X39770565Y38539092D02*
X39199137Y37967663D01*
X39199137Y37967663D02*
X39818184Y37967663D01*
X6315994Y8683663D02*
X6315994Y9683663D01*
X6315994Y9683663D02*
X6649327Y8969378D01*
X6649327Y8969378D02*
X6982660Y9683663D01*
X6982660Y9683663D02*
X6982660Y8683663D01*
X7458851Y8683663D02*
X7458851Y9683663D01*
X7458851Y9683663D02*
X7696946Y9683663D01*
X7696946Y9683663D02*
X7839803Y9636044D01*
X7839803Y9636044D02*
X7935041Y9540806D01*
X7935041Y9540806D02*
X7982660Y9445568D01*
X7982660Y9445568D02*
X8030279Y9255092D01*
X8030279Y9255092D02*
X8030279Y9112235D01*
X8030279Y9112235D02*
X7982660Y8921759D01*
X7982660Y8921759D02*
X7935041Y8826521D01*
X7935041Y8826521D02*
X7839803Y8731282D01*
X7839803Y8731282D02*
X7696946Y8683663D01*
X7696946Y8683663D02*
X7458851Y8683663D01*
X8982660Y8683663D02*
X8411232Y8683663D01*
X8696946Y8683663D02*
X8696946Y9683663D01*
X8696946Y9683663D02*
X8601708Y9540806D01*
X8601708Y9540806D02*
X8506470Y9445568D01*
X8506470Y9445568D02*
X8411232Y9397949D01*
X21745537Y15196716D02*
X21269346Y14863383D01*
X21745537Y14625288D02*
X20745537Y14625288D01*
X20745537Y14625288D02*
X20745537Y15006240D01*
X20745537Y15006240D02*
X20793156Y15101478D01*
X20793156Y15101478D02*
X20840775Y15149097D01*
X20840775Y15149097D02*
X20936013Y15196716D01*
X20936013Y15196716D02*
X21078870Y15196716D01*
X21078870Y15196716D02*
X21174108Y15149097D01*
X21174108Y15149097D02*
X21221727Y15101478D01*
X21221727Y15101478D02*
X21269346Y15006240D01*
X21269346Y15006240D02*
X21269346Y14625288D01*
X21078870Y16053859D02*
X21745537Y16053859D01*
X20697918Y15815764D02*
X21412203Y15577669D01*
X21412203Y15577669D02*
X21412203Y16196716D01*
X23828337Y18393316D02*
X23352146Y18059983D01*
X23828337Y17821888D02*
X22828337Y17821888D01*
X22828337Y17821888D02*
X22828337Y18202840D01*
X22828337Y18202840D02*
X22875956Y18298078D01*
X22875956Y18298078D02*
X22923575Y18345697D01*
X22923575Y18345697D02*
X23018813Y18393316D01*
X23018813Y18393316D02*
X23161670Y18393316D01*
X23161670Y18393316D02*
X23256908Y18345697D01*
X23256908Y18345697D02*
X23304527Y18298078D01*
X23304527Y18298078D02*
X23352146Y18202840D01*
X23352146Y18202840D02*
X23352146Y17821888D01*
X22828337Y19298078D02*
X22828337Y18821888D01*
X22828337Y18821888D02*
X23304527Y18774269D01*
X23304527Y18774269D02*
X23256908Y18821888D01*
X23256908Y18821888D02*
X23209289Y18917126D01*
X23209289Y18917126D02*
X23209289Y19155221D01*
X23209289Y19155221D02*
X23256908Y19250459D01*
X23256908Y19250459D02*
X23304527Y19298078D01*
X23304527Y19298078D02*
X23399765Y19345697D01*
X23399765Y19345697D02*
X23637860Y19345697D01*
X23637860Y19345697D02*
X23733098Y19298078D01*
X23733098Y19298078D02*
X23780718Y19250459D01*
X23780718Y19250459D02*
X23828337Y19155221D01*
X23828337Y19155221D02*
X23828337Y18917126D01*
X23828337Y18917126D02*
X23780718Y18821888D01*
X23780718Y18821888D02*
X23733098Y18774269D01*
X6530184Y49307663D02*
X6530184Y48593378D01*
X6530184Y48593378D02*
X6482565Y48450521D01*
X6482565Y48450521D02*
X6387327Y48355282D01*
X6387327Y48355282D02*
X6244470Y48307663D01*
X6244470Y48307663D02*
X6149232Y48307663D01*
X7530184Y48307663D02*
X6958756Y48307663D01*
X7244470Y48307663D02*
X7244470Y49307663D01*
X7244470Y49307663D02*
X7149232Y49164806D01*
X7149232Y49164806D02*
X7053994Y49069568D01*
X7053994Y49069568D02*
X6958756Y49021949D01*
X25352337Y41902888D02*
X24352337Y41902888D01*
X24352337Y41902888D02*
X24352337Y42140983D01*
X24352337Y42140983D02*
X24399956Y42283840D01*
X24399956Y42283840D02*
X24495194Y42379078D01*
X24495194Y42379078D02*
X24590432Y42426697D01*
X24590432Y42426697D02*
X24780908Y42474316D01*
X24780908Y42474316D02*
X24923765Y42474316D01*
X24923765Y42474316D02*
X25114241Y42426697D01*
X25114241Y42426697D02*
X25209479Y42379078D01*
X25209479Y42379078D02*
X25304718Y42283840D01*
X25304718Y42283840D02*
X25352337Y42140983D01*
X25352337Y42140983D02*
X25352337Y41902888D01*
X24447575Y42855269D02*
X24399956Y42902888D01*
X24399956Y42902888D02*
X24352337Y42998126D01*
X24352337Y42998126D02*
X24352337Y43236221D01*
X24352337Y43236221D02*
X24399956Y43331459D01*
X24399956Y43331459D02*
X24447575Y43379078D01*
X24447575Y43379078D02*
X24542813Y43426697D01*
X24542813Y43426697D02*
X24638051Y43426697D01*
X24638051Y43426697D02*
X24780908Y43379078D01*
X24780908Y43379078D02*
X25352337Y42807650D01*
X25352337Y42807650D02*
X25352337Y43426697D01*
X26114337Y10091316D02*
X25638146Y9757983D01*
X26114337Y9519888D02*
X25114337Y9519888D01*
X25114337Y9519888D02*
X25114337Y9900840D01*
X25114337Y9900840D02*
X25161956Y9996078D01*
X25161956Y9996078D02*
X25209575Y10043697D01*
X25209575Y10043697D02*
X25304813Y10091316D01*
X25304813Y10091316D02*
X25447670Y10091316D01*
X25447670Y10091316D02*
X25542908Y10043697D01*
X25542908Y10043697D02*
X25590527Y9996078D01*
X25590527Y9996078D02*
X25638146Y9900840D01*
X25638146Y9900840D02*
X25638146Y9519888D01*
X25114337Y10424650D02*
X25114337Y11043697D01*
X25114337Y11043697D02*
X25495289Y10710364D01*
X25495289Y10710364D02*
X25495289Y10853221D01*
X25495289Y10853221D02*
X25542908Y10948459D01*
X25542908Y10948459D02*
X25590527Y10996078D01*
X25590527Y10996078D02*
X25685765Y11043697D01*
X25685765Y11043697D02*
X25923860Y11043697D01*
X25923860Y11043697D02*
X26019098Y10996078D01*
X26019098Y10996078D02*
X26066718Y10948459D01*
X26066718Y10948459D02*
X26114337Y10853221D01*
X26114337Y10853221D02*
X26114337Y10567507D01*
X26114337Y10567507D02*
X26066718Y10472269D01*
X26066718Y10472269D02*
X26019098Y10424650D01*
X19142851Y28241663D02*
X18809518Y28717854D01*
X18571423Y28241663D02*
X18571423Y29241663D01*
X18571423Y29241663D02*
X18952375Y29241663D01*
X18952375Y29241663D02*
X19047613Y29194044D01*
X19047613Y29194044D02*
X19095232Y29146425D01*
X19095232Y29146425D02*
X19142851Y29051187D01*
X19142851Y29051187D02*
X19142851Y28908330D01*
X19142851Y28908330D02*
X19095232Y28813092D01*
X19095232Y28813092D02*
X19047613Y28765473D01*
X19047613Y28765473D02*
X18952375Y28717854D01*
X18952375Y28717854D02*
X18571423Y28717854D01*
X19999994Y29241663D02*
X19809518Y29241663D01*
X19809518Y29241663D02*
X19714280Y29194044D01*
X19714280Y29194044D02*
X19666661Y29146425D01*
X19666661Y29146425D02*
X19571423Y29003568D01*
X19571423Y29003568D02*
X19523804Y28813092D01*
X19523804Y28813092D02*
X19523804Y28432140D01*
X19523804Y28432140D02*
X19571423Y28336902D01*
X19571423Y28336902D02*
X19619042Y28289282D01*
X19619042Y28289282D02*
X19714280Y28241663D01*
X19714280Y28241663D02*
X19904756Y28241663D01*
X19904756Y28241663D02*
X19999994Y28289282D01*
X19999994Y28289282D02*
X20047613Y28336902D01*
X20047613Y28336902D02*
X20095232Y28432140D01*
X20095232Y28432140D02*
X20095232Y28670235D01*
X20095232Y28670235D02*
X20047613Y28765473D01*
X20047613Y28765473D02*
X19999994Y28813092D01*
X19999994Y28813092D02*
X19904756Y28860711D01*
X19904756Y28860711D02*
X19714280Y28860711D01*
X19714280Y28860711D02*
X19619042Y28813092D01*
X19619042Y28813092D02*
X19571423Y28765473D01*
X19571423Y28765473D02*
X19523804Y28670235D01*
X25860337Y30815816D02*
X25384146Y30482483D01*
X25860337Y30244388D02*
X24860337Y30244388D01*
X24860337Y30244388D02*
X24860337Y30625340D01*
X24860337Y30625340D02*
X24907956Y30720578D01*
X24907956Y30720578D02*
X24955575Y30768197D01*
X24955575Y30768197D02*
X25050813Y30815816D01*
X25050813Y30815816D02*
X25193670Y30815816D01*
X25193670Y30815816D02*
X25288908Y30768197D01*
X25288908Y30768197D02*
X25336527Y30720578D01*
X25336527Y30720578D02*
X25384146Y30625340D01*
X25384146Y30625340D02*
X25384146Y30244388D01*
X25288908Y31387245D02*
X25241289Y31292007D01*
X25241289Y31292007D02*
X25193670Y31244388D01*
X25193670Y31244388D02*
X25098432Y31196769D01*
X25098432Y31196769D02*
X25050813Y31196769D01*
X25050813Y31196769D02*
X24955575Y31244388D01*
X24955575Y31244388D02*
X24907956Y31292007D01*
X24907956Y31292007D02*
X24860337Y31387245D01*
X24860337Y31387245D02*
X24860337Y31577721D01*
X24860337Y31577721D02*
X24907956Y31672959D01*
X24907956Y31672959D02*
X24955575Y31720578D01*
X24955575Y31720578D02*
X25050813Y31768197D01*
X25050813Y31768197D02*
X25098432Y31768197D01*
X25098432Y31768197D02*
X25193670Y31720578D01*
X25193670Y31720578D02*
X25241289Y31672959D01*
X25241289Y31672959D02*
X25288908Y31577721D01*
X25288908Y31577721D02*
X25288908Y31387245D01*
X25288908Y31387245D02*
X25336527Y31292007D01*
X25336527Y31292007D02*
X25384146Y31244388D01*
X25384146Y31244388D02*
X25479384Y31196769D01*
X25479384Y31196769D02*
X25669860Y31196769D01*
X25669860Y31196769D02*
X25765098Y31244388D01*
X25765098Y31244388D02*
X25812718Y31292007D01*
X25812718Y31292007D02*
X25860337Y31387245D01*
X25860337Y31387245D02*
X25860337Y31577721D01*
X25860337Y31577721D02*
X25812718Y31672959D01*
X25812718Y31672959D02*
X25765098Y31720578D01*
X25765098Y31720578D02*
X25669860Y31768197D01*
X25669860Y31768197D02*
X25479384Y31768197D01*
X25479384Y31768197D02*
X25384146Y31720578D01*
X25384146Y31720578D02*
X25336527Y31672959D01*
X25336527Y31672959D02*
X25288908Y31577721D01*
X24336337Y48119625D02*
X23860146Y47786292D01*
X24336337Y47548197D02*
X23336337Y47548197D01*
X23336337Y47548197D02*
X23336337Y47929149D01*
X23336337Y47929149D02*
X23383956Y48024387D01*
X23383956Y48024387D02*
X23431575Y48072006D01*
X23431575Y48072006D02*
X23526813Y48119625D01*
X23526813Y48119625D02*
X23669670Y48119625D01*
X23669670Y48119625D02*
X23764908Y48072006D01*
X23764908Y48072006D02*
X23812527Y48024387D01*
X23812527Y48024387D02*
X23860146Y47929149D01*
X23860146Y47929149D02*
X23860146Y47548197D01*
X24336337Y49072006D02*
X24336337Y48500578D01*
X24336337Y48786292D02*
X23336337Y48786292D01*
X23336337Y48786292D02*
X23479194Y48691054D01*
X23479194Y48691054D02*
X23574432Y48595816D01*
X23574432Y48595816D02*
X23622051Y48500578D01*
X23431575Y49452959D02*
X23383956Y49500578D01*
X23383956Y49500578D02*
X23336337Y49595816D01*
X23336337Y49595816D02*
X23336337Y49833911D01*
X23336337Y49833911D02*
X23383956Y49929149D01*
X23383956Y49929149D02*
X23431575Y49976768D01*
X23431575Y49976768D02*
X23526813Y50024387D01*
X23526813Y50024387D02*
X23622051Y50024387D01*
X23622051Y50024387D02*
X23764908Y49976768D01*
X23764908Y49976768D02*
X24336337Y49405340D01*
X24336337Y49405340D02*
X24336337Y50024387D01*
X6736613Y301663D02*
X6736613Y1301663D01*
X6736613Y825473D02*
X7308041Y825473D01*
X7308041Y301663D02*
X7308041Y1301663D01*
X8212803Y968330D02*
X8212803Y301663D01*
X7974708Y1349282D02*
X7736613Y634997D01*
X7736613Y634997D02*
X8355660Y634997D01*
X9236851Y44084902D02*
X9189232Y44037282D01*
X9189232Y44037282D02*
X9046375Y43989663D01*
X9046375Y43989663D02*
X8951137Y43989663D01*
X8951137Y43989663D02*
X8808280Y44037282D01*
X8808280Y44037282D02*
X8713042Y44132521D01*
X8713042Y44132521D02*
X8665423Y44227759D01*
X8665423Y44227759D02*
X8617804Y44418235D01*
X8617804Y44418235D02*
X8617804Y44561092D01*
X8617804Y44561092D02*
X8665423Y44751568D01*
X8665423Y44751568D02*
X8713042Y44846806D01*
X8713042Y44846806D02*
X8808280Y44942044D01*
X8808280Y44942044D02*
X8951137Y44989663D01*
X8951137Y44989663D02*
X9046375Y44989663D01*
X9046375Y44989663D02*
X9189232Y44942044D01*
X9189232Y44942044D02*
X9236851Y44894425D01*
X9617804Y44894425D02*
X9665423Y44942044D01*
X9665423Y44942044D02*
X9760661Y44989663D01*
X9760661Y44989663D02*
X9998756Y44989663D01*
X9998756Y44989663D02*
X10093994Y44942044D01*
X10093994Y44942044D02*
X10141613Y44894425D01*
X10141613Y44894425D02*
X10189232Y44799187D01*
X10189232Y44799187D02*
X10189232Y44703949D01*
X10189232Y44703949D02*
X10141613Y44561092D01*
X10141613Y44561092D02*
X9570185Y43989663D01*
X9570185Y43989663D02*
X10189232Y43989663D01*
D16*
%TO.C,G\u002A\u002A\u002A*%
G36*
X13248913Y64209636D02*
G01*
X13577090Y64135659D01*
X13893187Y64007942D01*
X14190848Y63826473D01*
X14463716Y63591243D01*
X14520789Y63531186D01*
X14729947Y63257912D01*
X14889882Y62953359D01*
X14999229Y62626559D01*
X15056624Y62286543D01*
X15060703Y61942344D01*
X15010101Y61602995D01*
X14903456Y61277528D01*
X14871728Y61207405D01*
X14693902Y60904319D01*
X14471360Y60638967D01*
X14211123Y60414651D01*
X13920212Y60234676D01*
X13605647Y60102345D01*
X13274448Y60020962D01*
X12933637Y59993831D01*
X12590232Y60024255D01*
X12431309Y60059015D01*
X12099282Y60176492D01*
X11793212Y60344979D01*
X11519436Y60558254D01*
X11284288Y60810094D01*
X11094103Y61094279D01*
X10955216Y61404586D01*
X10910818Y61552348D01*
X10871461Y61764634D01*
X10850999Y62005159D01*
X10850178Y62169003D01*
X11029230Y62169003D01*
X11036393Y61907930D01*
X11072381Y61669289D01*
X11081764Y61631465D01*
X11194723Y61321261D01*
X11359323Y61033037D01*
X11568101Y60775184D01*
X11813594Y60556090D01*
X12088338Y60384147D01*
X12257832Y60309449D01*
X12413265Y60255624D01*
X12551086Y60220743D01*
X12692055Y60201847D01*
X12856928Y60195979D01*
X13032589Y60199065D01*
X13218803Y60208547D01*
X13363825Y60225872D01*
X13489178Y60254470D01*
X13590306Y60287972D01*
X13884868Y60420535D01*
X14139019Y60589565D01*
X14348095Y60782882D01*
X14566768Y61057657D01*
X14729110Y61358460D01*
X14833542Y61681369D01*
X14878483Y62022466D01*
X14880238Y62103000D01*
X14850868Y62448952D01*
X14764235Y62775474D01*
X14624345Y63077230D01*
X14435208Y63348884D01*
X14200829Y63585101D01*
X13925217Y63780545D01*
X13612380Y63929880D01*
X13472688Y63977020D01*
X13296132Y64013202D01*
X13082703Y64031889D01*
X12855916Y64033081D01*
X12639285Y64016776D01*
X12456325Y63982975D01*
X12435312Y63977020D01*
X12105021Y63846750D01*
X11809768Y63665842D01*
X11553723Y63438429D01*
X11341058Y63168645D01*
X11175943Y62860623D01*
X11099548Y62653124D01*
X11050435Y62426179D01*
X11029230Y62169003D01*
X10850178Y62169003D01*
X10849769Y62250565D01*
X10868112Y62477494D01*
X10895278Y62622942D01*
X10984230Y62884324D01*
X11114831Y63149665D01*
X11273446Y63393681D01*
X11382094Y63525600D01*
X11649278Y63773824D01*
X11942518Y63968375D01*
X12255458Y64109244D01*
X12581741Y64196417D01*
X12915011Y64229886D01*
X13248913Y64209636D01*
G37*
G36*
X13164915Y65099695D02*
G01*
X13327758Y65094777D01*
X13457288Y65084981D01*
X13568264Y65068998D01*
X13675445Y65045520D01*
X13724173Y65032758D01*
X13979004Y64946224D01*
X14252326Y64823671D01*
X14521625Y64676741D01*
X14764385Y64517073D01*
X14852600Y64449351D01*
X15070159Y64251012D01*
X15279014Y64019468D01*
X15467593Y63770103D01*
X15624324Y63518298D01*
X15737635Y63279436D01*
X15742661Y63266222D01*
X15780550Y63177834D01*
X15815961Y63115613D01*
X15828748Y63101563D01*
X15875836Y63089323D01*
X15964964Y63080766D01*
X16058270Y63077986D01*
X16180598Y63072639D01*
X16259524Y63054256D01*
X16313949Y63018220D01*
X16317614Y63014634D01*
X16372877Y62922927D01*
X16368522Y62827193D01*
X16305471Y62740373D01*
X16297657Y62733994D01*
X16252298Y62704333D01*
X16197447Y62685190D01*
X16118955Y62674369D01*
X16002676Y62669671D01*
X15878430Y62668841D01*
X15542031Y62668841D01*
X15487840Y62863755D01*
X15356423Y63221284D01*
X15169496Y63556881D01*
X14932460Y63864192D01*
X14650717Y64136863D01*
X14329667Y64368542D01*
X14101511Y64494609D01*
X13821569Y64615268D01*
X13548193Y64695079D01*
X13259403Y64739043D01*
X12969718Y64752085D01*
X12576520Y64731368D01*
X12217147Y64662616D01*
X11882155Y64543409D01*
X11617985Y64405685D01*
X11295125Y64185286D01*
X11020611Y63937071D01*
X10789773Y63654744D01*
X10597939Y63332012D01*
X10440438Y62962580D01*
X10358218Y62708136D01*
X10331452Y62689123D01*
X10259926Y62676737D01*
X10137157Y62670258D01*
X10004276Y62668841D01*
X9847873Y62670262D01*
X9740346Y62675950D01*
X9667735Y62688043D01*
X9616080Y62708679D01*
X9578908Y62733994D01*
X9510614Y62820329D01*
X9502221Y62918760D01*
X9540624Y63000766D01*
X9578077Y63034230D01*
X9641006Y63056320D01*
X9743779Y63070835D01*
X9830795Y63077505D01*
X10076422Y63093223D01*
X10218491Y63378195D01*
X10441177Y63767379D01*
X10696909Y64104996D01*
X10989990Y64395398D01*
X11324723Y64642937D01*
X11649421Y64824969D01*
X11863350Y64923995D01*
X12056604Y64997129D01*
X12245793Y65047886D01*
X12447528Y65079781D01*
X12678418Y65096328D01*
X12954000Y65101043D01*
X13164915Y65099695D01*
G37*
G36*
X10419384Y61309250D02*
G01*
X10566855Y60939688D01*
X10760610Y60607507D01*
X10995205Y60314356D01*
X11265193Y60061883D01*
X11565131Y59851737D01*
X11889572Y59685567D01*
X12233071Y59565022D01*
X12590183Y59491749D01*
X12955463Y59467397D01*
X13323465Y59493615D01*
X13688745Y59572052D01*
X14045856Y59704356D01*
X14389355Y59892175D01*
X14600832Y60043297D01*
X14852589Y60274511D01*
X15079330Y60547045D01*
X15270656Y60845679D01*
X15416171Y61155193D01*
X15470610Y61316518D01*
X15543449Y61568594D01*
X15879139Y61568594D01*
X16034014Y61567105D01*
X16140228Y61561168D01*
X16211948Y61548577D01*
X16263343Y61527127D01*
X16297657Y61503441D01*
X16365949Y61417109D01*
X16374343Y61318688D01*
X16335922Y61236669D01*
X16295519Y61201549D01*
X16226769Y61178674D01*
X16114974Y61163903D01*
X16063673Y61159931D01*
X15835987Y61144213D01*
X15675996Y60829183D01*
X15599802Y60684054D01*
X15521928Y60543931D01*
X15453267Y60428036D01*
X15417370Y60372835D01*
X15162899Y60061118D01*
X14861267Y59782691D01*
X14522307Y59544301D01*
X14155851Y59352696D01*
X13771732Y59214624D01*
X13702852Y59196322D01*
X13441453Y59144164D01*
X13160557Y59111408D01*
X12883794Y59099702D01*
X12634795Y59110691D01*
X12575364Y59117766D01*
X12143725Y59208834D01*
X11734112Y59358666D01*
X11348583Y59566411D01*
X11137483Y59712606D01*
X10908807Y59898964D01*
X10714708Y60091041D01*
X10543667Y60303043D01*
X10384163Y60549175D01*
X10232000Y60829183D01*
X10072005Y61144213D01*
X9828586Y61159931D01*
X9695386Y61171844D01*
X9610623Y61189193D01*
X9559882Y61215821D01*
X9540624Y61236669D01*
X9499181Y61337434D01*
X9518827Y61434385D01*
X9578908Y61503441D01*
X9624145Y61533041D01*
X9678829Y61552168D01*
X9757064Y61563005D01*
X9872949Y61567737D01*
X9999584Y61568594D01*
X10337432Y61568594D01*
X10419384Y61309250D01*
G37*
G36*
X13236102Y63555420D02*
G01*
X13508028Y63475053D01*
X13750896Y63348861D01*
X13961540Y63183185D01*
X14136793Y62984370D01*
X14273491Y62758759D01*
X14368467Y62512693D01*
X14418557Y62252516D01*
X14420593Y61984571D01*
X14371412Y61715201D01*
X14267847Y61450749D01*
X14120300Y61215246D01*
X13921952Y61002098D01*
X13687802Y60833578D01*
X13427492Y60713084D01*
X13150658Y60644015D01*
X12866942Y60629769D01*
X12585982Y60673745D01*
X12585089Y60673986D01*
X12303512Y60780486D01*
X12051513Y60937154D01*
X11836199Y61137272D01*
X11664675Y61374122D01*
X11544048Y61640985D01*
X11536082Y61665760D01*
X11491846Y61877155D01*
X11476651Y62115581D01*
X11483014Y62224534D01*
X11832106Y62224534D01*
X11834473Y61974095D01*
X11888175Y61740546D01*
X11987602Y61529191D01*
X12127143Y61345329D01*
X12301189Y61194262D01*
X12504129Y61081293D01*
X12730353Y61011721D01*
X12974249Y60990848D01*
X13230209Y61023976D01*
X13384720Y61071038D01*
X13591891Y61180365D01*
X13771849Y61338990D01*
X13917083Y61536506D01*
X14020081Y61762507D01*
X14073331Y62006587D01*
X14075322Y62027824D01*
X14068592Y62293191D01*
X14006303Y62538082D01*
X13894113Y62756357D01*
X13737679Y62941875D01*
X13542658Y63088497D01*
X13314707Y63190082D01*
X13059483Y63240490D01*
X12954000Y63244951D01*
X12710988Y63225209D01*
X12501425Y63161700D01*
X12310030Y63048005D01*
X12150461Y62907360D01*
X12047184Y62797530D01*
X11977777Y62703631D01*
X11927346Y62601904D01*
X11886685Y62486564D01*
X11832106Y62224534D01*
X11483014Y62224534D01*
X11490551Y62353579D01*
X11533600Y62563692D01*
X11534302Y62565957D01*
X11650027Y62836538D01*
X11814648Y63073048D01*
X12021340Y63270543D01*
X12263283Y63424075D01*
X12533651Y63528700D01*
X12825623Y63579472D01*
X12938282Y63583619D01*
X13236102Y63555420D01*
G37*
G36*
X9064350Y62332970D02*
G01*
X9292155Y62329541D01*
X9505440Y62323284D01*
X9692813Y62314746D01*
X9842879Y62304471D01*
X9944245Y62293005D01*
X9960266Y62290094D01*
X10099589Y62256484D01*
X10223196Y62217908D01*
X10317793Y62179367D01*
X10370087Y62145861D01*
X10376277Y62133622D01*
X10348158Y62107091D01*
X10273751Y62071857D01*
X10167983Y62033558D01*
X10045779Y61997830D01*
X9967614Y61979294D01*
X9879863Y61967221D01*
X9742879Y61956323D01*
X9569259Y61946880D01*
X9371600Y61939174D01*
X9162499Y61933487D01*
X8954552Y61930101D01*
X8760356Y61929296D01*
X8592509Y61931355D01*
X8463606Y61936559D01*
X8391798Y61944072D01*
X8252524Y61976923D01*
X8166242Y62017567D01*
X8123076Y62072840D01*
X8112911Y62137146D01*
X8123195Y62204678D01*
X8165020Y62250710D01*
X8230795Y62285298D01*
X8277472Y62302872D01*
X8335159Y62316005D01*
X8412676Y62325200D01*
X8518841Y62330963D01*
X8662476Y62333798D01*
X8852399Y62334209D01*
X9064350Y62332970D01*
G37*
G36*
X17150659Y62339590D02*
G01*
X17376807Y62331299D01*
X17546842Y62314769D01*
X17667218Y62287945D01*
X17744387Y62248774D01*
X17784802Y62195200D01*
X17795089Y62134436D01*
X17785697Y62066039D01*
X17746303Y62021457D01*
X17677206Y61986775D01*
X17591194Y61964876D01*
X17453495Y61947452D01*
X17275155Y61934825D01*
X17067222Y61927317D01*
X16840741Y61925252D01*
X16606760Y61928952D01*
X16376324Y61938740D01*
X16270461Y61945678D01*
X16037904Y61970272D01*
X15835134Y62006325D01*
X15673144Y62051394D01*
X15563159Y62102881D01*
X15531817Y62132998D01*
X15556666Y62161576D01*
X15563159Y62165990D01*
X15677480Y62218284D01*
X15848427Y62262206D01*
X16070233Y62297124D01*
X16337131Y62322409D01*
X16643354Y62337429D01*
X16983135Y62341554D01*
X17150659Y62339590D01*
G37*
D17*
%TO.C,R9*%
X20403318Y39081646D02*
X20403318Y38627518D01*
X21873318Y39081646D02*
X21873318Y38627518D01*
%TO.C,R2*%
X22892518Y12109918D02*
X22892518Y12564046D01*
X24362518Y12109918D02*
X24362518Y12564046D01*
%TO.C,R1*%
X20860518Y11197418D02*
X20860518Y11651546D01*
X22330518Y11197418D02*
X22330518Y11651546D01*
%TO.C,J5*%
X27457018Y24878482D02*
X27457018Y23878482D01*
X27457018Y23878482D02*
X27957018Y24378482D01*
X27957018Y24378482D02*
X27457018Y24878482D01*
X28337018Y20518482D02*
X28337018Y35238482D01*
X28337018Y20518482D02*
X30317018Y20518482D01*
X30317018Y35238482D02*
X28337018Y35238482D01*
X34017018Y35238482D02*
X42557018Y35238482D01*
X34017018Y20518482D02*
X42557018Y20518482D01*
X42557018Y20518482D02*
X42557018Y35238482D01*
%TO.C,R7*%
X22638518Y31667918D02*
X22638518Y32122046D01*
X24108518Y31667918D02*
X24108518Y32122046D01*
%TO.C,J4*%
X38767518Y17364482D02*
X37067518Y17364482D01*
X38767518Y8024482D02*
X37067518Y8024482D01*
%TO.C,C1*%
X11936266Y25621482D02*
X12458770Y25621482D01*
X11936266Y24151482D02*
X12458770Y24151482D01*
%TO.C,C10*%
X17096770Y45179482D02*
X16574266Y45179482D01*
X17096770Y43709482D02*
X16574266Y43709482D01*
%TO.C,R10*%
X22435318Y37254746D02*
X22435318Y36800618D01*
X23905318Y37254746D02*
X23905318Y36800618D01*
%TO.C,D1*%
X29614489Y13172934D02*
X30887547Y12437934D01*
X30756989Y15151802D02*
X29614489Y13172934D01*
X30887547Y12437934D02*
X32030047Y14416802D01*
D15*
%TO.C,MD2*%
X6863518Y42666482D02*
X19563518Y42666482D01*
X6863518Y29966482D02*
X6863518Y42666482D01*
X6863518Y29966482D02*
X19563518Y29966482D01*
X19563518Y29966482D02*
X19563518Y42666482D01*
D18*
X6093518Y36316482D02*
G75*
G02*
X5843518Y36316482I-125000J0D01*
G01*
X5843518Y36316482D02*
G75*
G02*
X6093518Y36316482I125000J0D01*
G01*
D17*
%TO.C,R11*%
X27930521Y12115625D02*
X27703457Y11722339D01*
X29203579Y11380625D02*
X28976515Y10987339D01*
%TO.C,J3*%
X23297518Y63167482D02*
X23297518Y61917482D01*
X23597518Y62867482D02*
X23597518Y56247482D01*
X23597518Y59557482D02*
X24607518Y59557482D01*
X23597518Y56247482D02*
X31317518Y56247482D01*
X24547518Y63167482D02*
X23297518Y63167482D01*
X24607518Y61257482D02*
X24607518Y56957482D01*
X24607518Y56957482D02*
X30307518Y56957482D01*
X25857518Y62867482D02*
X23597518Y62867482D01*
X25857518Y61867482D02*
X25857518Y62867482D01*
X27057518Y62467482D02*
X27057518Y61867482D01*
X27057518Y61867482D02*
X25857518Y61867482D01*
X27857518Y62467482D02*
X27057518Y62467482D01*
X27857518Y61867482D02*
X27857518Y62467482D01*
X29057518Y62867482D02*
X29057518Y61867482D01*
X29057518Y61867482D02*
X27857518Y61867482D01*
X30307518Y61257482D02*
X24607518Y61257482D01*
X30307518Y56957482D02*
X30307518Y61257482D01*
X31317518Y62867482D02*
X29057518Y62867482D01*
X31317518Y59557482D02*
X30307518Y59557482D01*
X31317518Y56247482D02*
X31317518Y62867482D01*
%TO.C,C5*%
X17284770Y25621482D02*
X16762266Y25621482D01*
X17284770Y24151482D02*
X16762266Y24151482D01*
%TO.C,J2*%
X26161518Y50812482D02*
X26161518Y41012482D01*
X29731518Y38662482D02*
X30731518Y38662482D01*
X30231518Y39162482D02*
X29731518Y38662482D01*
X30731518Y38662482D02*
X30231518Y39162482D01*
X34961518Y39282482D02*
X41811518Y39282482D01*
X41811518Y52542482D02*
X34961518Y52542482D01*
D15*
%TO.C,MD1*%
X7117518Y23108482D02*
X19817518Y23108482D01*
X7117518Y10408482D02*
X7117518Y23108482D01*
X7117518Y10408482D02*
X19817518Y10408482D01*
X19817518Y10408482D02*
X19817518Y23108482D01*
D18*
X6347518Y16758482D02*
G75*
G02*
X6097518Y16758482I-125000J0D01*
G01*
X6097518Y16758482D02*
G75*
G02*
X6347518Y16758482I125000J0D01*
G01*
D17*
%TO.C,R4*%
X20555718Y18128546D02*
X20555718Y17674418D01*
X22025718Y18128546D02*
X22025718Y17674418D01*
%TO.C,R5*%
X22638518Y16223546D02*
X22638518Y15769418D01*
X24108518Y16223546D02*
X24108518Y15769418D01*
%TO.C,J1*%
X6677518Y58246482D02*
X6677518Y49946482D01*
X6677518Y49946482D02*
X19527518Y49946482D01*
X19527518Y58246482D02*
X6677518Y58246482D01*
X19527518Y49946482D02*
X22377518Y52496482D01*
X22377518Y55646482D02*
X19527518Y58246482D01*
X22377518Y52496482D02*
X22377518Y55646482D01*
%TO.C,D2*%
X24162518Y46691482D02*
X24162518Y44406482D01*
X25632518Y46691482D02*
X24162518Y46691482D01*
X25632518Y44406482D02*
X25632518Y46691482D01*
%TO.C,R3*%
X24924518Y12721418D02*
X24924518Y13175546D01*
X26394518Y12721418D02*
X26394518Y13175546D01*
%TO.C,R6*%
X20606518Y29842918D02*
X20606518Y30297046D01*
X22076518Y29842918D02*
X22076518Y30297046D01*
%TO.C,R8*%
X24670518Y33445918D02*
X24670518Y33900046D01*
X26140518Y33445918D02*
X26140518Y33900046D01*
%TO.C,R12*%
X21622518Y46249418D02*
X21622518Y46703546D01*
X23092518Y46249418D02*
X23092518Y46703546D01*
%TO.C,C2*%
X11936266Y45179482D02*
X12458770Y45179482D01*
X11936266Y43709482D02*
X12458770Y43709482D01*
%TD*%
M02*
