M48
; DRILL file {KiCad 8.0.3} date 2024-06-16T21:04:12+0900
; FORMAT={3:3/ absolute / metric / keep zeros}
; #@! TF.CreationDate,2024-06-16T21:04:12+09:00
; #@! TF.GenerationSoftware,Kicad,Pcbnew,8.0.3
; #@! TF.FileFunction,MixedPlating,1,2
FMAT,2
METRIC
; #@! TA.AperFunction,Plated,PTH,ViaDrill
T1C0.300
; #@! TA.AperFunction,Plated,PTH,ComponentDrill
T2C0.600
; #@! TA.AperFunction,Plated,PTH,ViaDrill
T3C0.800
; #@! TA.AperFunction,Plated,PTH,ComponentDrill
T4C0.920
; #@! TA.AperFunction,Plated,PTH,ComponentDrill
T5C0.950
; #@! TA.AperFunction,Plated,PTH,ComponentDrill
T6C2.300
; #@! TA.AperFunction,Plated,PTH,ComponentDrill
T7C4.500
; #@! TA.AperFunction,NonPlated,NPTH,ComponentDrill
T8C3.200
%
G90
G05
T1
X001276Y056382
X001276Y053842
X001276Y051302
X001276Y048762
X001276Y046222
X001276Y043682
X001276Y041142
X001276Y038602
X001276Y036062
X001276Y033522
X001276Y030982
X001276Y028442
X001276Y025902
X001276Y023362
X001276Y020822
X001276Y018282
X001276Y015742
X001276Y013202
X001276Y010662
X003816Y048762
X003816Y046222
X003816Y043682
X003816Y041142
X003816Y038602
X003816Y036062
X003816Y033522
X003816Y030982
X003816Y028442
X003816Y025902
X003816Y023362
X003816Y020822
X003816Y018282
X003816Y015742
X003816Y013202
X003816Y010662
X007118Y026664
X007118Y024632
X009150Y028442
X009150Y026664
X011182Y028442
X011182Y026664
X015627Y038983
X015627Y037459
X015627Y035935
X015627Y034284
X015754Y028442
X015754Y026791
X015754Y019298
X015754Y017774
X015754Y016250
X015754Y014726
X018294Y028442
X018294Y026791
X018294Y009392
X018294Y008122
X019818Y008122
X020580Y043809
X020580Y042285
X022040Y043809
X022040Y042285
X023374Y028442
X023501Y043809
X023501Y042285
X025914Y028442
X031248Y017901
X031248Y016123
X033407Y017901
X033407Y016123
T3
X021215Y014853
X022231Y020568
X024136Y020568
X026041Y020568
X029724Y008630
X031502Y008630
X033280Y014345
X033280Y011932
X033280Y008630
X037191Y015107
X037217Y010154
X038868Y015107
X038868Y010154
X040646Y015107
X040646Y010154
T4
X027612Y049412
X027612Y046912
X027612Y044912
X027612Y042412
X029457Y031378
X029457Y028878
X029457Y026878
X029457Y024378
X030232Y049412
X030232Y046912
X030232Y044912
X030232Y042412
T5
X026208Y059557
X028708Y059557
T6
X027262Y052482
X027262Y039342
X032167Y034448
X032167Y021308
X032942Y052482
X032942Y039342
T7
X010928Y054096
X018128Y054096
T8
X003562Y061970
X003562Y003550
X038995Y061970
X038995Y003550
T2
G00X035213Y017014
M15
G01X036313Y017014
M16
G05
G00X035213Y008374
M15
G01X036313Y008374
M16
G05
G00X039543Y017014
M15
G01X040343Y017014
M16
G05
G00X039543Y008374
M15
G01X040343Y008374
M16
G05
M30
