%TF.GenerationSoftware,KiCad,Pcbnew,8.0.3*%
%TF.CreationDate,2024-06-20T15:44:30+09:00*%
%TF.ProjectId,USB_power,5553425f-706f-4776-9572-2e6b69636164,rev?*%
%TF.SameCoordinates,PX77e7cd0PY83695b8*%
%TF.FileFunction,Copper,L2,Bot*%
%TF.FilePolarity,Positive*%
%FSLAX46Y46*%
G04 Gerber Fmt 4.6, Leading zero omitted, Abs format (unit mm)*
G04 Created by KiCad (PCBNEW 8.0.3) date 2024-06-20 15:44:30*
%MOMM*%
%LPD*%
G01*
G04 APERTURE LIST*
G04 Aperture macros list*
%AMRoundRect*
0 Rectangle with rounded corners*
0 $1 Rounding radius*
0 $2 $3 $4 $5 $6 $7 $8 $9 X,Y pos of 4 corners*
0 Add a 4 corners polygon primitive as box body*
4,1,4,$2,$3,$4,$5,$6,$7,$8,$9,$2,$3,0*
0 Add four circle primitives for the rounded corners*
1,1,$1+$1,$2,$3*
1,1,$1+$1,$4,$5*
1,1,$1+$1,$6,$7*
1,1,$1+$1,$8,$9*
0 Add four rect primitives between the rounded corners*
20,1,$1+$1,$2,$3,$4,$5,0*
20,1,$1+$1,$4,$5,$6,$7,0*
20,1,$1+$1,$6,$7,$8,$9,0*
20,1,$1+$1,$8,$9,$2,$3,0*%
G04 Aperture macros list end*
%TA.AperFunction,ComponentPad*%
%ADD10C,0.800000*%
%TD*%
%TA.AperFunction,ComponentPad*%
%ADD11C,6.400000*%
%TD*%
%TA.AperFunction,ComponentPad*%
%ADD12C,1.600000*%
%TD*%
%TA.AperFunction,ComponentPad*%
%ADD13R,1.500000X1.500000*%
%TD*%
%TA.AperFunction,ComponentPad*%
%ADD14C,2.400000*%
%TD*%
%TA.AperFunction,ComponentPad*%
%ADD15O,1.800000X1.000000*%
%TD*%
%TA.AperFunction,ComponentPad*%
%ADD16O,2.100000X1.000000*%
%TD*%
%TA.AperFunction,ComponentPad*%
%ADD17O,1.700000X1.950000*%
%TD*%
%TA.AperFunction,ComponentPad*%
%ADD18RoundRect,0.250000X-0.600000X-0.725000X0.600000X-0.725000X0.600000X0.725000X-0.600000X0.725000X0*%
%TD*%
%TA.AperFunction,ComponentPad*%
%ADD19C,3.500000*%
%TD*%
%TA.AperFunction,ComponentPad*%
%ADD20C,1.500000*%
%TD*%
%TA.AperFunction,ComponentPad*%
%ADD21C,6.000000*%
%TD*%
%TA.AperFunction,ComponentPad*%
%ADD22RoundRect,1.500000X1.500000X1.500000X-1.500000X1.500000X-1.500000X-1.500000X1.500000X-1.500000X0*%
%TD*%
%TA.AperFunction,ViaPad*%
%ADD23C,0.600000*%
%TD*%
%TA.AperFunction,ViaPad*%
%ADD24C,1.200000*%
%TD*%
G04 APERTURE END LIST*
D10*
%TO.P,H4,1,1*%
%TO.N,N/C*%
X6290944Y3856056D03*
X5588000Y2159000D03*
X5588000Y5553112D03*
X3890944Y1456056D03*
D11*
X3890944Y3856056D03*
D10*
X3890944Y6256056D03*
X2193888Y2159000D03*
X2193888Y5553112D03*
X1490944Y3856056D03*
%TD*%
%TO.P,H3,1,1*%
%TO.N,N/C*%
X43675000Y3810000D03*
X42972056Y2112944D03*
X42972056Y5507056D03*
X41275000Y1410000D03*
D11*
X41275000Y3810000D03*
D10*
X41275000Y6210000D03*
X39577944Y2112944D03*
X39577944Y5507056D03*
X38875000Y3810000D03*
%TD*%
%TO.P,H2,1,1*%
%TO.N,N/C*%
X43675000Y62230000D03*
X42972056Y60532944D03*
X42972056Y63927056D03*
X41275000Y59830000D03*
D11*
X41275000Y62230000D03*
D10*
X41275000Y64630000D03*
X39577944Y60532944D03*
X39577944Y63927056D03*
X38875000Y62230000D03*
%TD*%
%TO.P,H1,1,1*%
%TO.N,N/C*%
X6210000Y62230000D03*
X5507056Y60532944D03*
X5507056Y63927056D03*
X3810000Y59830000D03*
D11*
X3810000Y62230000D03*
D10*
X3810000Y64630000D03*
X2112944Y60532944D03*
X2112944Y63927056D03*
X1410000Y62230000D03*
%TD*%
D12*
%TO.P,SW1,3,A*%
%TO.N,Net-(SW1-A)*%
X2540000Y26035000D03*
%TO.P,SW1,2,C*%
%TO.N,GND*%
X2540000Y20955000D03*
D13*
%TO.P,SW1,1,B*%
%TO.N,CTRL*%
X2540000Y23495000D03*
%TD*%
D14*
%TO.P,F1,2*%
%TO.N,+BATT*%
X6272000Y54618000D03*
X2872000Y54618000D03*
%TO.P,F1,1*%
%TO.N,Battery*%
X6272000Y41148000D03*
X2872000Y41148000D03*
%TD*%
D15*
%TO.P,J4,S1,SHIELD*%
%TO.N,unconnected-(J4-SHIELD-PadS1)_1*%
X41969000Y17909000D03*
D16*
%TO.N,unconnected-(J4-SHIELD-PadS1)*%
X37789000Y17909000D03*
D15*
%TO.N,unconnected-(J4-SHIELD-PadS1)_0*%
X41969000Y9269000D03*
D16*
%TO.N,unconnected-(J4-SHIELD-PadS1)_2*%
X37789000Y9269000D03*
%TD*%
D17*
%TO.P,J3,2,Pin_2*%
%TO.N,+BATT*%
X30739518Y59938482D03*
D18*
%TO.P,J3,1,Pin_1*%
%TO.N,GND*%
X28239518Y59938482D03*
%TD*%
D19*
%TO.P,J2,9,Shield*%
%TO.N,unconnected-(J2-Shield-Pad9)_2*%
X29293518Y52863482D03*
%TO.N,unconnected-(J2-Shield-Pad9)_0*%
X29293518Y39723482D03*
%TO.N,unconnected-(J2-Shield-Pad9)_1*%
X34973518Y52863482D03*
%TO.N,unconnected-(J2-Shield-Pad9)*%
X34973518Y39723482D03*
D20*
%TO.P,J2,8,GND2*%
%TO.N,GND*%
X29643518Y49793482D03*
%TO.P,J2,7,D2+*%
%TO.N,unconnected-(J2-D2+-Pad7)*%
X29643518Y47293482D03*
%TO.P,J2,6,D2-*%
%TO.N,unconnected-(J2-D2--Pad6)*%
X29643518Y45293482D03*
%TO.P,J2,5,VBUS2*%
%TO.N,+5VP*%
X29643518Y42793482D03*
%TO.P,J2,4,GND1*%
%TO.N,GND*%
X32263518Y49793482D03*
%TO.P,J2,3,D1+*%
%TO.N,unconnected-(J2-D1+-Pad3)*%
X32263518Y47293482D03*
%TO.P,J2,2,D1-*%
%TO.N,unconnected-(J2-D1--Pad2)*%
X32263518Y45293482D03*
D13*
%TO.P,J2,1,VBUS1*%
%TO.N,+5VP*%
X32263518Y42793482D03*
%TD*%
D21*
%TO.P,J1,2,Pin_2*%
%TO.N,+BATT*%
X12959518Y54477482D03*
D22*
%TO.P,J1,1,Pin_1*%
%TO.N,GND*%
X20159518Y54477482D03*
%TD*%
D19*
%TO.P,J5,9,Shield*%
%TO.N,unconnected-(J5-Shield-Pad9)*%
X29210000Y34671000D03*
%TO.N,unconnected-(J5-Shield-Pad9)_0*%
X29210000Y21531000D03*
%TO.N,unconnected-(J5-Shield-Pad9)_2*%
X34890000Y34671000D03*
%TO.N,unconnected-(J5-Shield-Pad9)_1*%
X34890000Y21531000D03*
D20*
%TO.P,J5,8,GND2*%
%TO.N,GND*%
X29560000Y31601000D03*
%TO.P,J5,7,D2+*%
%TO.N,unconnected-(J5-D2+-Pad7)*%
X29560000Y29101000D03*
%TO.P,J5,6,D2-*%
%TO.N,unconnected-(J5-D2--Pad6)*%
X29560000Y27101000D03*
%TO.P,J5,5,VBUS2*%
%TO.N,+5V*%
X29560000Y24601000D03*
%TO.P,J5,4,GND1*%
%TO.N,GND*%
X32180000Y31601000D03*
%TO.P,J5,3,D1+*%
%TO.N,unconnected-(J5-D1+-Pad3)*%
X32180000Y29101000D03*
%TO.P,J5,2,D1-*%
%TO.N,unconnected-(J5-D1--Pad2)*%
X32180000Y27101000D03*
D13*
%TO.P,J5,1,VBUS1*%
%TO.N,+5V*%
X32180000Y24601000D03*
%TD*%
D23*
%TO.N,GND*%
X3810000Y29210000D03*
X4445000Y36830000D03*
X1905000Y46990000D03*
X6985000Y46990000D03*
X4445000Y46990000D03*
X6985000Y48895000D03*
X4445000Y48895000D03*
X1905000Y48895000D03*
%TO.N,Battery*%
X7112000Y44577000D03*
X5080000Y44577000D03*
X3048000Y44577000D03*
X3048000Y39243000D03*
X5080000Y39243000D03*
X7112000Y38735000D03*
X7620000Y31877000D03*
X7620000Y33401000D03*
X7620000Y34925000D03*
X12954000Y35814000D03*
X12954000Y37592000D03*
X12954000Y34036000D03*
%TO.N,GND*%
X15494000Y9271000D03*
X18034000Y9271000D03*
X20574000Y9271000D03*
%TO.N,+5VP*%
X32258000Y41021000D03*
X27051000Y41275000D03*
X27305000Y43307000D03*
%TO.N,GND*%
X17653000Y34925000D03*
X17658518Y39364482D03*
D24*
X40899518Y16129000D03*
D23*
X17526000Y20193000D03*
D24*
X39248518Y11303000D03*
D23*
X27686000Y9779000D03*
X20325518Y28823482D03*
X17785518Y28823482D03*
X22606000Y16891000D03*
D24*
X39223118Y16129000D03*
D23*
X27686000Y11811000D03*
D24*
X40899518Y11303000D03*
D23*
X22606000Y14351000D03*
D24*
X31755518Y9011482D03*
D23*
X25146000Y14351000D03*
D24*
X42677518Y11303000D03*
D23*
X17658518Y36316482D03*
D24*
X35311518Y9011482D03*
X42677518Y16129000D03*
X33533518Y9011482D03*
D23*
X17526000Y21717000D03*
X17526000Y18669000D03*
X17526000Y17145000D03*
X17658518Y37840482D03*
%TO.N,Battery*%
X12954000Y21463000D03*
X9398000Y21463000D03*
X13081000Y28823482D03*
X9144000Y27559000D03*
X11176000Y39243000D03*
X9398000Y39243000D03*
X12954000Y39243000D03*
X11176000Y21463000D03*
X9144000Y26289000D03*
D24*
%TO.N,+5V*%
X35306000Y12319000D03*
D23*
X22606000Y25019000D03*
X25146000Y22479000D03*
X32766000Y17399000D03*
X25146000Y19939000D03*
X22606000Y22479000D03*
X30226000Y17399000D03*
X22606000Y19939000D03*
X25146000Y25019000D03*
X27686000Y17399000D03*
X30226000Y14859000D03*
D24*
X35311518Y14726482D03*
D23*
X32766000Y14859000D03*
%TD*%
%TA.AperFunction,Conductor*%
%TO.N,GND*%
G36*
X39225197Y65519815D02*
G01*
X39270952Y65467011D01*
X39280896Y65397853D01*
X39251871Y65334297D01*
X39225693Y65311505D01*
X39096917Y65227878D01*
X38795488Y64983785D01*
X38795480Y64983778D01*
X38521222Y64709520D01*
X38521215Y64709512D01*
X38277122Y64408083D01*
X38065877Y64082794D01*
X37889787Y63737198D01*
X37750788Y63375095D01*
X37650397Y63000430D01*
X37650397Y63000428D01*
X37589722Y62617340D01*
X37572183Y62282686D01*
X37569422Y62230000D01*
X37589722Y61842662D01*
X37650398Y61459567D01*
X37748460Y61093592D01*
X37750788Y61084906D01*
X37889787Y60722803D01*
X38065877Y60377207D01*
X38277122Y60051918D01*
X38383558Y59920481D01*
X38521219Y59750484D01*
X38795484Y59476219D01*
X38795488Y59476216D01*
X39096917Y59232123D01*
X39422206Y59020878D01*
X39422211Y59020875D01*
X39767806Y58844786D01*
X40129913Y58705786D01*
X40504567Y58605398D01*
X40887662Y58544722D01*
X41253576Y58525545D01*
X41274999Y58524422D01*
X41275000Y58524422D01*
X41275001Y58524422D01*
X41295301Y58525486D01*
X41662338Y58544722D01*
X42045433Y58605398D01*
X42420087Y58705786D01*
X42782194Y58844786D01*
X43127789Y59020875D01*
X43453084Y59232124D01*
X43754516Y59476219D01*
X44028781Y59750484D01*
X44229634Y59998518D01*
X44287121Y60038228D01*
X44356952Y60040556D01*
X44416956Y60004761D01*
X44448082Y59942207D01*
X44450000Y59920481D01*
X44450000Y6119520D01*
X44430315Y6052481D01*
X44377511Y6006726D01*
X44308353Y5996782D01*
X44244797Y6025807D01*
X44229634Y6041484D01*
X44028784Y6289512D01*
X44028781Y6289516D01*
X43754516Y6563781D01*
X43453084Y6807876D01*
X43453082Y6807878D01*
X43127793Y7019123D01*
X42782197Y7195213D01*
X42420094Y7334212D01*
X42420087Y7334214D01*
X42045433Y7434602D01*
X42045429Y7434603D01*
X42045428Y7434603D01*
X41662339Y7495278D01*
X41275001Y7515578D01*
X41274999Y7515578D01*
X40887660Y7495278D01*
X40504572Y7434603D01*
X40504570Y7434603D01*
X40129905Y7334212D01*
X39767802Y7195213D01*
X39422206Y7019123D01*
X39096917Y6807878D01*
X38795488Y6563785D01*
X38795480Y6563778D01*
X38521222Y6289520D01*
X38521215Y6289512D01*
X38277122Y5988083D01*
X38065877Y5662794D01*
X37889787Y5317198D01*
X37750788Y4955095D01*
X37650397Y4580430D01*
X37650397Y4580428D01*
X37589722Y4197340D01*
X37569422Y3810001D01*
X37569422Y3810000D01*
X37589722Y3422661D01*
X37650397Y3039573D01*
X37650397Y3039571D01*
X37750788Y2664906D01*
X37889787Y2302803D01*
X38065877Y1957207D01*
X38277122Y1631918D01*
X38483924Y1376540D01*
X38521219Y1330484D01*
X38795484Y1056219D01*
X39044367Y854677D01*
X39084078Y797191D01*
X39086406Y727360D01*
X39050611Y667356D01*
X38988057Y636230D01*
X38966347Y634312D01*
X6136565Y630176D01*
X6069523Y649852D01*
X6023761Y702650D01*
X6013809Y771808D01*
X6042826Y835367D01*
X6066571Y856043D01*
X6066404Y856273D01*
X6069012Y858168D01*
X6069020Y858175D01*
X6069028Y858180D01*
X6370460Y1102275D01*
X6644725Y1376540D01*
X6888820Y1677972D01*
X7100069Y2003267D01*
X7276158Y2348862D01*
X7415158Y2710969D01*
X7515546Y3085623D01*
X7576222Y3468718D01*
X7596522Y3856056D01*
X7576222Y4243394D01*
X7515546Y4626489D01*
X7415158Y5001143D01*
X7276158Y5363250D01*
X7100069Y5708845D01*
X6888820Y6034140D01*
X6644725Y6335572D01*
X6370460Y6609837D01*
X6336108Y6637655D01*
X6069026Y6853934D01*
X5743737Y7065179D01*
X5398141Y7241269D01*
X5036038Y7380268D01*
X5036031Y7380270D01*
X4661377Y7480658D01*
X4661373Y7480659D01*
X4661372Y7480659D01*
X4278283Y7541334D01*
X3890945Y7561634D01*
X3890943Y7561634D01*
X3503604Y7541334D01*
X3120516Y7480659D01*
X3120514Y7480659D01*
X2745849Y7380268D01*
X2383746Y7241269D01*
X2038150Y7065179D01*
X1712861Y6853934D01*
X1411432Y6609841D01*
X1411424Y6609834D01*
X1137166Y6335576D01*
X1137159Y6335568D01*
X893066Y6034139D01*
X868053Y5995621D01*
X815032Y5950118D01*
X745827Y5940504D01*
X682410Y5969831D01*
X644916Y6028788D01*
X640059Y6063139D01*
X638901Y19796870D01*
X1947553Y19796870D01*
X2093668Y19728736D01*
X2093682Y19728731D01*
X2313389Y19669861D01*
X2313400Y19669859D01*
X2539998Y19650034D01*
X2540002Y19650034D01*
X2766599Y19669859D01*
X2766610Y19669861D01*
X2986317Y19728731D01*
X2986326Y19728735D01*
X3132445Y19796871D01*
X2540001Y20389315D01*
X2540000Y20389315D01*
X1947553Y19796870D01*
X638901Y19796870D01*
X638803Y20955003D01*
X1235034Y20955003D01*
X1235034Y20954998D01*
X1254858Y20728401D01*
X1254860Y20728390D01*
X1313730Y20508683D01*
X1313732Y20508678D01*
X1381869Y20362556D01*
X1974315Y20955000D01*
X1921654Y21007661D01*
X2140000Y21007661D01*
X2140000Y20902339D01*
X2167259Y20800606D01*
X2219920Y20709394D01*
X2294394Y20634920D01*
X2385606Y20582259D01*
X2487339Y20555000D01*
X2592661Y20555000D01*
X2694394Y20582259D01*
X2785606Y20634920D01*
X2860080Y20709394D01*
X2912741Y20800606D01*
X2940000Y20902339D01*
X2940000Y20955001D01*
X3105685Y20955001D01*
X3105685Y20955000D01*
X3698129Y20362556D01*
X3766265Y20508674D01*
X3766269Y20508683D01*
X3825139Y20728390D01*
X3825141Y20728401D01*
X3844966Y20954998D01*
X3844966Y20955003D01*
X3825141Y21181600D01*
X3825139Y21181611D01*
X3766269Y21401318D01*
X3766264Y21401332D01*
X3698130Y21547447D01*
X3105685Y20955001D01*
X2940000Y20955001D01*
X2940000Y21007661D01*
X2912741Y21109394D01*
X2860080Y21200606D01*
X2785606Y21275080D01*
X2694394Y21327741D01*
X2592661Y21355000D01*
X2487339Y21355000D01*
X2385606Y21327741D01*
X2294394Y21275080D01*
X2219920Y21200606D01*
X2167259Y21109394D01*
X2140000Y21007661D01*
X1921654Y21007661D01*
X1381868Y21547447D01*
X1313731Y21401320D01*
X1254860Y21181611D01*
X1254858Y21181600D01*
X1235034Y20955003D01*
X638803Y20955003D01*
X638374Y26035002D01*
X1234532Y26035002D01*
X1234532Y26034999D01*
X1254364Y25808314D01*
X1254366Y25808303D01*
X1313258Y25588512D01*
X1313261Y25588503D01*
X1409431Y25382268D01*
X1409432Y25382266D01*
X1539954Y25195859D01*
X1700858Y25034955D01*
X1794021Y24969722D01*
X1837646Y24915146D01*
X1844840Y24845647D01*
X1813317Y24783292D01*
X1753088Y24747878D01*
X1736152Y24744857D01*
X1682516Y24739092D01*
X1547671Y24688798D01*
X1547664Y24688794D01*
X1432455Y24602548D01*
X1432452Y24602545D01*
X1346206Y24487336D01*
X1346202Y24487329D01*
X1295908Y24352483D01*
X1289501Y24292884D01*
X1289501Y24292877D01*
X1289500Y24292865D01*
X1289500Y22697130D01*
X1289501Y22697124D01*
X1295908Y22637517D01*
X1346202Y22502672D01*
X1346206Y22502665D01*
X1432452Y22387456D01*
X1432455Y22387453D01*
X1547664Y22301207D01*
X1547671Y22301203D01*
X1592618Y22284439D01*
X1682517Y22250909D01*
X1742127Y22244500D01*
X1822942Y22244501D01*
X1889978Y22224817D01*
X1935734Y22172014D01*
X1943637Y22117048D01*
X2540000Y21520685D01*
X2540001Y21520685D01*
X3137033Y22117720D01*
X3142686Y22168407D01*
X3186742Y22222637D01*
X3253123Y22244439D01*
X3257054Y22244501D01*
X3337872Y22244501D01*
X3397483Y22250909D01*
X3532331Y22301204D01*
X3647546Y22387454D01*
X3733796Y22502669D01*
X3784091Y22637517D01*
X3790500Y22697127D01*
X3790499Y24292872D01*
X3784091Y24352483D01*
X3733796Y24487331D01*
X3733795Y24487332D01*
X3733793Y24487336D01*
X3647547Y24602545D01*
X3647544Y24602548D01*
X3532335Y24688794D01*
X3532328Y24688798D01*
X3397482Y24739092D01*
X3397483Y24739092D01*
X3343846Y24744858D01*
X3279295Y24771596D01*
X3239446Y24828988D01*
X3236953Y24898813D01*
X3272605Y24958902D01*
X3285972Y24969718D01*
X3379139Y25034953D01*
X3540047Y25195861D01*
X3670568Y25382266D01*
X3766739Y25588504D01*
X3825635Y25808308D01*
X3845468Y26035000D01*
X3825635Y26261692D01*
X3768919Y26473361D01*
X3766741Y26481489D01*
X3766738Y26481498D01*
X3678059Y26671669D01*
X3670568Y26687734D01*
X3540047Y26874139D01*
X3540045Y26874142D01*
X3379141Y27035046D01*
X3192734Y27165568D01*
X3192732Y27165569D01*
X2986497Y27261739D01*
X2986488Y27261742D01*
X2766697Y27320634D01*
X2766693Y27320635D01*
X2766692Y27320635D01*
X2766691Y27320636D01*
X2766686Y27320636D01*
X2540002Y27340468D01*
X2539998Y27340468D01*
X2313313Y27320636D01*
X2313302Y27320634D01*
X2093511Y27261742D01*
X2093502Y27261739D01*
X1887267Y27165569D01*
X1887265Y27165568D01*
X1700858Y27035046D01*
X1539954Y26874142D01*
X1409432Y26687735D01*
X1409431Y26687733D01*
X1313261Y26481498D01*
X1313258Y26481489D01*
X1254366Y26261698D01*
X1254364Y26261687D01*
X1234532Y26035002D01*
X638374Y26035002D01*
X637326Y38461750D01*
X657004Y38528786D01*
X709804Y38574545D01*
X778962Y38584494D01*
X842520Y38555475D01*
X865640Y38528796D01*
X899277Y38476457D01*
X899281Y38476452D01*
X945025Y38423660D01*
X945028Y38423657D01*
X945032Y38423653D01*
X1053766Y38329433D01*
X1184643Y38269662D01*
X1251682Y38249977D01*
X1251686Y38249976D01*
X1394102Y38229500D01*
X5726018Y38229500D01*
X5793057Y38209815D01*
X5838812Y38157011D01*
X5850018Y38105500D01*
X5850018Y20438574D01*
X5861608Y20330944D01*
X5861610Y20330934D01*
X5872851Y20279351D01*
X5872852Y20279346D01*
X5907093Y20176655D01*
X5907094Y20176654D01*
X5984965Y20055676D01*
X5984972Y20055666D01*
X6031101Y20002507D01*
X6033258Y20000740D01*
X6139569Y19908756D01*
X6270490Y19849081D01*
X6337544Y19829445D01*
X6479974Y19809072D01*
X13846456Y19814411D01*
X13953726Y19826003D01*
X14005147Y19837209D01*
X14107504Y19871298D01*
X14228543Y19949086D01*
X14281347Y19994841D01*
X14375567Y20103575D01*
X14435338Y20234452D01*
X14455023Y20301491D01*
X14455024Y20301495D01*
X14475500Y20443911D01*
X14475500Y22676120D01*
X19052500Y22676120D01*
X19052500Y20518716D01*
X19053705Y20508674D01*
X19066838Y20399175D01*
X19066839Y20399171D01*
X19080709Y20342185D01*
X19084920Y20330934D01*
X19122915Y20229416D01*
X19160607Y20176655D01*
X19206551Y20112342D01*
X19254843Y20061848D01*
X19368072Y19973080D01*
X19368078Y19973077D01*
X19368080Y19973075D01*
X36468532Y10134459D01*
X36516824Y10083965D01*
X36530150Y10015378D01*
X36504280Y9950474D01*
X36494376Y9939299D01*
X36461864Y9906787D01*
X36461860Y9906782D01*
X36352371Y9742921D01*
X36352364Y9742908D01*
X36276950Y9560840D01*
X36276947Y9560830D01*
X36238500Y9367544D01*
X36238500Y9367541D01*
X36238500Y9170459D01*
X36238500Y9170457D01*
X36238499Y9170457D01*
X36276947Y8977171D01*
X36276950Y8977161D01*
X36352364Y8795093D01*
X36352371Y8795080D01*
X36461860Y8631219D01*
X36461863Y8631215D01*
X36601214Y8491864D01*
X36601218Y8491861D01*
X36765079Y8382372D01*
X36765092Y8382365D01*
X36947160Y8306951D01*
X36947165Y8306949D01*
X36947169Y8306949D01*
X36947170Y8306948D01*
X37140456Y8268500D01*
X37140459Y8268500D01*
X38437543Y8268500D01*
X38567582Y8294368D01*
X38630835Y8306949D01*
X38812914Y8382368D01*
X38976782Y8491861D01*
X39116139Y8631218D01*
X39225632Y8795086D01*
X39301051Y8977165D01*
X39339500Y9170457D01*
X40568499Y9170457D01*
X40606947Y8977171D01*
X40606950Y8977161D01*
X40682364Y8795093D01*
X40682371Y8795080D01*
X40791860Y8631219D01*
X40791863Y8631215D01*
X40931214Y8491864D01*
X40931218Y8491861D01*
X41095079Y8382372D01*
X41095092Y8382365D01*
X41277160Y8306951D01*
X41277165Y8306949D01*
X41277169Y8306949D01*
X41277170Y8306948D01*
X41470456Y8268500D01*
X41470459Y8268500D01*
X42467543Y8268500D01*
X42597582Y8294368D01*
X42660835Y8306949D01*
X42842914Y8382368D01*
X43006782Y8491861D01*
X43146139Y8631218D01*
X43255632Y8795086D01*
X43331051Y8977165D01*
X43369500Y9170459D01*
X43369500Y9367541D01*
X43369500Y9367544D01*
X43331052Y9560830D01*
X43331051Y9560831D01*
X43331051Y9560835D01*
X43331049Y9560840D01*
X43255635Y9742908D01*
X43255628Y9742921D01*
X43146139Y9906782D01*
X43146136Y9906786D01*
X43006785Y10046137D01*
X43006781Y10046140D01*
X42842920Y10155629D01*
X42842907Y10155636D01*
X42660839Y10231050D01*
X42660829Y10231053D01*
X42467543Y10269500D01*
X42467541Y10269500D01*
X41470459Y10269500D01*
X41470457Y10269500D01*
X41277170Y10231053D01*
X41277160Y10231050D01*
X41095092Y10155636D01*
X41095079Y10155629D01*
X40931218Y10046140D01*
X40931214Y10046137D01*
X40791863Y9906786D01*
X40791860Y9906782D01*
X40682371Y9742921D01*
X40682364Y9742908D01*
X40606950Y9560840D01*
X40606947Y9560830D01*
X40568500Y9367544D01*
X40568500Y9367541D01*
X40568500Y9170459D01*
X40568500Y9170457D01*
X40568499Y9170457D01*
X39339500Y9170457D01*
X39339500Y9170459D01*
X39339500Y9367541D01*
X39339500Y9367544D01*
X39301052Y9560830D01*
X39301051Y9560831D01*
X39301051Y9560835D01*
X39301049Y9560840D01*
X39225635Y9742908D01*
X39225628Y9742921D01*
X39116139Y9906782D01*
X39116136Y9906786D01*
X38976785Y10046137D01*
X38976781Y10046140D01*
X38812920Y10155629D01*
X38812911Y10155634D01*
X38682047Y10209839D01*
X38627644Y10253680D01*
X38605579Y10319974D01*
X38605500Y10324400D01*
X38605500Y15817389D01*
X38599875Y15892577D01*
X38599872Y15892603D01*
X38599872Y15892606D01*
X38594380Y15929102D01*
X38577616Y16002666D01*
X38577614Y16002671D01*
X38516131Y16132742D01*
X38477583Y16191022D01*
X38381946Y16298504D01*
X37918272Y16689729D01*
X37879729Y16748004D01*
X37878811Y16817868D01*
X37915810Y16877138D01*
X37978978Y16906995D01*
X37998237Y16908500D01*
X38437543Y16908500D01*
X38567582Y16934368D01*
X38630835Y16946949D01*
X38812914Y17022368D01*
X38976782Y17131861D01*
X39116139Y17271218D01*
X39225632Y17435086D01*
X39301051Y17617165D01*
X39339500Y17810457D01*
X40568499Y17810457D01*
X40606947Y17617171D01*
X40606950Y17617161D01*
X40682364Y17435093D01*
X40682371Y17435080D01*
X40791860Y17271219D01*
X40791863Y17271215D01*
X40931214Y17131864D01*
X40931218Y17131861D01*
X41095079Y17022372D01*
X41095092Y17022365D01*
X41277160Y16946951D01*
X41277165Y16946949D01*
X41277169Y16946949D01*
X41277170Y16946948D01*
X41470456Y16908500D01*
X41470459Y16908500D01*
X42467543Y16908500D01*
X42597582Y16934368D01*
X42660835Y16946949D01*
X42842914Y17022368D01*
X43006782Y17131861D01*
X43146139Y17271218D01*
X43255632Y17435086D01*
X43331051Y17617165D01*
X43369500Y17810459D01*
X43369500Y18007541D01*
X43369500Y18007544D01*
X43331052Y18200830D01*
X43331051Y18200831D01*
X43331051Y18200835D01*
X43304897Y18263978D01*
X43255635Y18382908D01*
X43255628Y18382921D01*
X43146139Y18546782D01*
X43146136Y18546786D01*
X43006785Y18686137D01*
X43006781Y18686140D01*
X42842920Y18795629D01*
X42842907Y18795636D01*
X42660839Y18871050D01*
X42660829Y18871053D01*
X42467543Y18909500D01*
X42467541Y18909500D01*
X41470459Y18909500D01*
X41470457Y18909500D01*
X41277170Y18871053D01*
X41277160Y18871050D01*
X41095092Y18795636D01*
X41095079Y18795629D01*
X40931218Y18686140D01*
X40931214Y18686137D01*
X40791863Y18546786D01*
X40791860Y18546782D01*
X40682371Y18382921D01*
X40682364Y18382908D01*
X40606950Y18200840D01*
X40606947Y18200830D01*
X40568500Y18007544D01*
X40568500Y18007541D01*
X40568500Y17810459D01*
X40568500Y17810457D01*
X40568499Y17810457D01*
X39339500Y17810457D01*
X39339500Y17810459D01*
X39339500Y18007541D01*
X39339500Y18007544D01*
X39301052Y18200830D01*
X39301051Y18200831D01*
X39301051Y18200835D01*
X39274897Y18263978D01*
X39225635Y18382908D01*
X39225628Y18382921D01*
X39116139Y18546782D01*
X39116136Y18546786D01*
X38976785Y18686137D01*
X38976781Y18686140D01*
X38812920Y18795629D01*
X38812907Y18795636D01*
X38630839Y18871050D01*
X38630829Y18871053D01*
X38437543Y18909500D01*
X38437541Y18909500D01*
X37140459Y18909500D01*
X37140457Y18909500D01*
X36947170Y18871053D01*
X36947160Y18871050D01*
X36765092Y18795636D01*
X36765079Y18795629D01*
X36601218Y18686140D01*
X36601214Y18686137D01*
X36461863Y18546786D01*
X36461860Y18546782D01*
X36352371Y18382921D01*
X36352364Y18382908D01*
X36303103Y18263978D01*
X36259262Y18209574D01*
X36192968Y18187509D01*
X36125269Y18204788D01*
X36108578Y18216658D01*
X35091210Y19075063D01*
X35052666Y19133339D01*
X35051748Y19203203D01*
X35088747Y19262473D01*
X35151915Y19292330D01*
X35163046Y19293568D01*
X35184380Y19294966D01*
X35473722Y19352519D01*
X35753077Y19447348D01*
X36017665Y19577828D01*
X36262957Y19741727D01*
X36484758Y19936242D01*
X36679273Y20158043D01*
X36843172Y20403335D01*
X36973652Y20667923D01*
X37068481Y20947278D01*
X37126034Y21236620D01*
X37131059Y21313288D01*
X37145329Y21530993D01*
X37145329Y21531008D01*
X37126035Y21825364D01*
X37126034Y21825380D01*
X37068481Y22114722D01*
X36973652Y22394077D01*
X36843172Y22658664D01*
X36831508Y22676120D01*
X36762500Y22779399D01*
X36679273Y22903957D01*
X36636655Y22952553D01*
X36484758Y23125759D01*
X36262955Y23320275D01*
X36017667Y23484171D01*
X36017660Y23484175D01*
X35753080Y23614651D01*
X35473730Y23709479D01*
X35473724Y23709481D01*
X35473722Y23709481D01*
X35184380Y23767034D01*
X35184373Y23767035D01*
X35184363Y23767036D01*
X34890007Y23786329D01*
X34889993Y23786329D01*
X34595636Y23767036D01*
X34595624Y23767035D01*
X34595620Y23767034D01*
X34595612Y23767033D01*
X34595609Y23767032D01*
X34306283Y23709482D01*
X34306269Y23709479D01*
X34026919Y23614651D01*
X33762334Y23484172D01*
X33517041Y23320272D01*
X33295241Y23125759D01*
X33234728Y23056756D01*
X33175726Y23019332D01*
X33105858Y23019748D01*
X33047305Y23057872D01*
X33018659Y23121599D01*
X33017500Y23138515D01*
X33017500Y23263361D01*
X33037185Y23330400D01*
X33089989Y23376155D01*
X33098168Y23379543D01*
X33172326Y23407202D01*
X33172326Y23407203D01*
X33172331Y23407204D01*
X33287546Y23493454D01*
X33373796Y23608669D01*
X33424091Y23743517D01*
X33430500Y23803127D01*
X33430499Y25398872D01*
X33424091Y25458483D01*
X33375596Y25588504D01*
X33373797Y25593329D01*
X33373793Y25593336D01*
X33287547Y25708545D01*
X33287544Y25708548D01*
X33172335Y25794794D01*
X33172328Y25794798D01*
X33098167Y25822458D01*
X33042233Y25864329D01*
X33017816Y25929794D01*
X33017500Y25938640D01*
X33017500Y25991539D01*
X33017499Y25991554D01*
X33004665Y26088479D01*
X33015379Y26157522D01*
X33039907Y26192434D01*
X33141598Y26294123D01*
X33267102Y26473361D01*
X33359575Y26671670D01*
X33416207Y26883023D01*
X33435277Y27101000D01*
X33416207Y27318977D01*
X33359575Y27530330D01*
X33267102Y27728638D01*
X33267100Y27728641D01*
X33267099Y27728643D01*
X33141597Y27907879D01*
X33036156Y28013320D01*
X33002671Y28074643D01*
X33007655Y28144335D01*
X33036152Y28188678D01*
X33141598Y28294123D01*
X33267102Y28473361D01*
X33359575Y28671670D01*
X33416207Y28883023D01*
X33435277Y29101000D01*
X33416207Y29318977D01*
X33359575Y29530330D01*
X33267102Y29728638D01*
X33267100Y29728641D01*
X33267099Y29728643D01*
X33141599Y29907876D01*
X33141596Y29907879D01*
X32986877Y30062598D01*
X32807639Y30188102D01*
X32807640Y30188102D01*
X32807638Y30188103D01*
X32698714Y30238895D01*
X32646275Y30285068D01*
X32627123Y30352261D01*
X32647339Y30419142D01*
X32698715Y30463659D01*
X32734820Y30480495D01*
X32180001Y31035315D01*
X32180000Y31035315D01*
X31625178Y30480495D01*
X31661284Y30463659D01*
X31713724Y30417487D01*
X31732876Y30350294D01*
X31712661Y30283412D01*
X31661286Y30238895D01*
X31552358Y30188100D01*
X31552357Y30188100D01*
X31373121Y30062598D01*
X31218402Y29907879D01*
X31092900Y29728643D01*
X31092898Y29728639D01*
X31000426Y29530332D01*
X31000423Y29530326D01*
X30989775Y29490584D01*
X30953410Y29430924D01*
X30890563Y29400395D01*
X30821187Y29408690D01*
X30767310Y29453175D01*
X30750225Y29490584D01*
X30739576Y29530326D01*
X30739575Y29530330D01*
X30647102Y29728638D01*
X30647100Y29728641D01*
X30647099Y29728643D01*
X30521599Y29907876D01*
X30521596Y29907879D01*
X30366877Y30062598D01*
X30187639Y30188102D01*
X30187640Y30188102D01*
X30187638Y30188103D01*
X30078714Y30238895D01*
X30026275Y30285068D01*
X30007123Y30352261D01*
X30027339Y30419142D01*
X30078715Y30463659D01*
X30114820Y30480495D01*
X29560001Y31035315D01*
X29560000Y31035315D01*
X29005178Y30480495D01*
X29041284Y30463659D01*
X29093724Y30417487D01*
X29112876Y30350294D01*
X29092661Y30283412D01*
X29041286Y30238895D01*
X28932358Y30188100D01*
X28932357Y30188100D01*
X28753121Y30062598D01*
X28598402Y29907879D01*
X28472900Y29728643D01*
X28472898Y29728639D01*
X28380426Y29530332D01*
X28380422Y29530323D01*
X28323793Y29318980D01*
X28323793Y29318976D01*
X28304723Y29101003D01*
X28304723Y29100998D01*
X28323793Y28883025D01*
X28323793Y28883021D01*
X28380422Y28671678D01*
X28380424Y28671674D01*
X28380425Y28671670D01*
X28426661Y28572516D01*
X28472897Y28473362D01*
X28472898Y28473361D01*
X28598402Y28294123D01*
X28598405Y28294120D01*
X28598406Y28294119D01*
X28621982Y28270543D01*
X28655467Y28209220D01*
X28650483Y28139528D01*
X28608611Y28083595D01*
X28543147Y28059178D01*
X28516655Y28060124D01*
X28486219Y28064500D01*
X28486218Y28064500D01*
X19687518Y28064500D01*
X19687509Y28064500D01*
X19687508Y28064499D01*
X19580067Y28052948D01*
X19580055Y28052946D01*
X19528545Y28041740D01*
X19426020Y28007617D01*
X19426014Y28007614D01*
X19304980Y27929829D01*
X19304969Y27929821D01*
X19252177Y27884077D01*
X19157951Y27775336D01*
X19157948Y27775332D01*
X19098182Y27644466D01*
X19078494Y27577418D01*
X19058018Y27434999D01*
X19058018Y22723369D01*
X19056756Y22705724D01*
X19055519Y22697117D01*
X19052500Y22676120D01*
X14475500Y22676120D01*
X14475500Y34671008D01*
X26954671Y34671008D01*
X26954671Y34670993D01*
X26973964Y34376637D01*
X26973965Y34376627D01*
X26973966Y34376620D01*
X26973968Y34376610D01*
X27031518Y34087284D01*
X27031521Y34087270D01*
X27126349Y33807920D01*
X27256825Y33543340D01*
X27256829Y33543333D01*
X27420725Y33298045D01*
X27615241Y33076242D01*
X27837044Y32881726D01*
X27904411Y32836713D01*
X28082335Y32717828D01*
X28346923Y32587348D01*
X28459447Y32549151D01*
X28495604Y32536877D01*
X28552758Y32496688D01*
X28579111Y32431979D01*
X28566296Y32363294D01*
X28557320Y32348335D01*
X28473336Y32228392D01*
X28473333Y32228388D01*
X28380898Y32030160D01*
X28380894Y32030151D01*
X28324289Y31818895D01*
X28324287Y31818885D01*
X28305225Y31601001D01*
X28305225Y31601000D01*
X28324287Y31383116D01*
X28324289Y31383106D01*
X28380894Y31171850D01*
X28380898Y31171841D01*
X28439494Y31046181D01*
X29116517Y31723205D01*
X29100000Y31661560D01*
X29100000Y31540440D01*
X29131349Y31423447D01*
X29191909Y31318554D01*
X29277554Y31232909D01*
X29382447Y31172349D01*
X29499440Y31141000D01*
X29620560Y31141000D01*
X29737553Y31172349D01*
X29842446Y31232909D01*
X29928091Y31318554D01*
X29988651Y31423447D01*
X30020000Y31540440D01*
X30020000Y31601000D01*
X30125685Y31601000D01*
X30680505Y31046180D01*
X30739102Y31171841D01*
X30739105Y31171850D01*
X30750225Y31213350D01*
X30786589Y31273010D01*
X30849436Y31303540D01*
X30918812Y31295246D01*
X30972690Y31250761D01*
X30989775Y31213350D01*
X31000894Y31171850D01*
X31000898Y31171841D01*
X31059494Y31046181D01*
X31614314Y31601000D01*
X31553754Y31661560D01*
X31720000Y31661560D01*
X31720000Y31540440D01*
X31751349Y31423447D01*
X31811909Y31318554D01*
X31897554Y31232909D01*
X32002447Y31172349D01*
X32119440Y31141000D01*
X32240560Y31141000D01*
X32357553Y31172349D01*
X32462446Y31232909D01*
X32548091Y31318554D01*
X32608651Y31423447D01*
X32640000Y31540440D01*
X32640000Y31601000D01*
X32745685Y31601000D01*
X33300505Y31046180D01*
X33359102Y31171841D01*
X33359105Y31171850D01*
X33415710Y31383106D01*
X33415712Y31383116D01*
X33434775Y31601000D01*
X33434775Y31601001D01*
X33415712Y31818885D01*
X33415710Y31818895D01*
X33359105Y32030151D01*
X33359102Y32030160D01*
X33300505Y32155821D01*
X32745685Y31601000D01*
X32640000Y31601000D01*
X32640000Y31661560D01*
X32608651Y31778553D01*
X32548091Y31883446D01*
X32462446Y31969091D01*
X32357553Y32029651D01*
X32240560Y32061000D01*
X32119440Y32061000D01*
X32002447Y32029651D01*
X31897554Y31969091D01*
X31811909Y31883446D01*
X31751349Y31778553D01*
X31720000Y31661560D01*
X31553754Y31661560D01*
X31059494Y32155820D01*
X31000898Y32030160D01*
X31000894Y32030151D01*
X30989775Y31988651D01*
X30953410Y31928990D01*
X30890563Y31898461D01*
X30821188Y31906756D01*
X30767310Y31951241D01*
X30750225Y31988651D01*
X30739105Y32030151D01*
X30739102Y32030160D01*
X30680505Y32155821D01*
X30125685Y31601000D01*
X30020000Y31601000D01*
X30020000Y31661560D01*
X29988651Y31778553D01*
X29928091Y31883446D01*
X29842446Y31969091D01*
X29737553Y32029651D01*
X29620560Y32061000D01*
X29499440Y32061000D01*
X29437795Y32044483D01*
X29559999Y32166685D01*
X29912723Y32519412D01*
X29960541Y32549148D01*
X30073077Y32587348D01*
X30337665Y32717828D01*
X30343170Y32721506D01*
X31625180Y32721506D01*
X32180000Y32166686D01*
X32734819Y32721506D01*
X32609159Y32780102D01*
X32609150Y32780106D01*
X32397894Y32836711D01*
X32397884Y32836713D01*
X32180001Y32855775D01*
X32179999Y32855775D01*
X31962115Y32836713D01*
X31962105Y32836711D01*
X31750849Y32780106D01*
X31750840Y32780102D01*
X31625180Y32721506D01*
X30343170Y32721506D01*
X30582957Y32881727D01*
X30804758Y33076242D01*
X30999273Y33298043D01*
X31163172Y33543335D01*
X31293652Y33807923D01*
X31388481Y34087278D01*
X31446034Y34376620D01*
X31465329Y34671000D01*
X31465329Y34671008D01*
X32634671Y34671008D01*
X32634671Y34670993D01*
X32653964Y34376637D01*
X32653965Y34376627D01*
X32653966Y34376620D01*
X32653968Y34376610D01*
X32711518Y34087284D01*
X32711521Y34087270D01*
X32806349Y33807920D01*
X32936825Y33543340D01*
X32936829Y33543333D01*
X33100725Y33298045D01*
X33295241Y33076242D01*
X33517044Y32881726D01*
X33584411Y32836713D01*
X33762335Y32717828D01*
X34026923Y32587348D01*
X34306278Y32492519D01*
X34595620Y32434966D01*
X34623888Y32433114D01*
X34889993Y32415671D01*
X34890000Y32415671D01*
X34890007Y32415671D01*
X35138808Y32431979D01*
X35184380Y32434966D01*
X35473722Y32492519D01*
X35753077Y32587348D01*
X36017665Y32717828D01*
X36262957Y32881727D01*
X36484758Y33076242D01*
X36679273Y33298043D01*
X36843172Y33543335D01*
X36973652Y33807923D01*
X37068481Y34087278D01*
X37126034Y34376620D01*
X37145329Y34671000D01*
X37145329Y34671008D01*
X37126035Y34965364D01*
X37126034Y34965380D01*
X37068481Y35254722D01*
X36973652Y35534077D01*
X36843172Y35798664D01*
X36679273Y36043957D01*
X36636655Y36092553D01*
X36484758Y36265759D01*
X36262955Y36460275D01*
X36017667Y36624171D01*
X36017660Y36624175D01*
X35753080Y36754651D01*
X35473730Y36849479D01*
X35473724Y36849481D01*
X35473722Y36849481D01*
X35184380Y36907034D01*
X35184373Y36907035D01*
X35184363Y36907036D01*
X34890007Y36926329D01*
X34889993Y36926329D01*
X34595636Y36907036D01*
X34595624Y36907035D01*
X34595620Y36907034D01*
X34595612Y36907033D01*
X34595609Y36907032D01*
X34306283Y36849482D01*
X34306269Y36849479D01*
X34026919Y36754651D01*
X33762334Y36624172D01*
X33517041Y36460272D01*
X33295241Y36265759D01*
X33100728Y36043959D01*
X32936828Y35798666D01*
X32806349Y35534081D01*
X32711521Y35254731D01*
X32711518Y35254717D01*
X32653968Y34965391D01*
X32653964Y34965364D01*
X32634671Y34671008D01*
X31465329Y34671008D01*
X31446035Y34965364D01*
X31446034Y34965380D01*
X31388481Y35254722D01*
X31293652Y35534077D01*
X31163172Y35798664D01*
X30999273Y36043957D01*
X30956655Y36092553D01*
X30804758Y36265759D01*
X30582955Y36460275D01*
X30337667Y36624171D01*
X30337660Y36624175D01*
X30073080Y36754651D01*
X29793730Y36849479D01*
X29793724Y36849481D01*
X29793722Y36849481D01*
X29504380Y36907034D01*
X29504373Y36907035D01*
X29504363Y36907036D01*
X29210007Y36926329D01*
X29209993Y36926329D01*
X28915636Y36907036D01*
X28915624Y36907035D01*
X28915620Y36907034D01*
X28915612Y36907033D01*
X28915609Y36907032D01*
X28626283Y36849482D01*
X28626269Y36849479D01*
X28346919Y36754651D01*
X28082334Y36624172D01*
X27837041Y36460272D01*
X27615241Y36265759D01*
X27420728Y36043959D01*
X27256828Y35798666D01*
X27126349Y35534081D01*
X27031521Y35254731D01*
X27031518Y35254717D01*
X26973968Y34965391D01*
X26973964Y34965364D01*
X26954671Y34671008D01*
X14475500Y34671008D01*
X14475500Y44198954D01*
X18423018Y44198954D01*
X18423018Y40631524D01*
X18434589Y40523988D01*
X18445813Y40472441D01*
X18445821Y40472411D01*
X18479999Y40369818D01*
X18480001Y40369815D01*
X18557833Y40248803D01*
X18591919Y40209495D01*
X18596793Y40201915D01*
X18603607Y40196016D01*
X18603607Y40196015D01*
X18712379Y40101834D01*
X18750602Y40084396D01*
X18843271Y40042115D01*
X18843278Y40042113D01*
X18843280Y40042112D01*
X18882819Y40030518D01*
X18910330Y40022451D01*
X18991788Y40010771D01*
X19052750Y40002028D01*
X19052752Y40002029D01*
X19052753Y40002028D01*
X19063639Y40002033D01*
X26924198Y40004929D01*
X26991243Y39985269D01*
X27037017Y39932482D01*
X27047976Y39872820D01*
X27038190Y39723489D01*
X27038189Y39723475D01*
X27057482Y39429119D01*
X27057483Y39429109D01*
X27057484Y39429102D01*
X27057486Y39429092D01*
X27115036Y39139766D01*
X27115039Y39139752D01*
X27209867Y38860402D01*
X27340343Y38595822D01*
X27340347Y38595815D01*
X27504243Y38350527D01*
X27698759Y38128724D01*
X27920561Y37934209D01*
X28165853Y37770310D01*
X28430441Y37639830D01*
X28709796Y37545001D01*
X28999138Y37487448D01*
X29027406Y37485596D01*
X29293511Y37468153D01*
X29293518Y37468153D01*
X29293525Y37468153D01*
X29529193Y37483601D01*
X29587898Y37487448D01*
X29877240Y37545001D01*
X30156595Y37639830D01*
X30421183Y37770310D01*
X30666475Y37934209D01*
X30888276Y38128724D01*
X31082791Y38350525D01*
X31246690Y38595817D01*
X31377170Y38860405D01*
X31471999Y39139760D01*
X31529552Y39429102D01*
X31548847Y39723482D01*
X31548846Y39723490D01*
X31538944Y39874563D01*
X31554201Y39942747D01*
X31603899Y39991857D01*
X31662631Y40006674D01*
X32604335Y40007022D01*
X32671380Y39987362D01*
X32717154Y39934575D01*
X32728114Y39874913D01*
X32718190Y39723489D01*
X32718189Y39723476D01*
X32718189Y39723475D01*
X32737482Y39429119D01*
X32737483Y39429109D01*
X32737484Y39429102D01*
X32737486Y39429092D01*
X32795036Y39139766D01*
X32795039Y39139752D01*
X32889867Y38860402D01*
X33020343Y38595822D01*
X33020347Y38595815D01*
X33184243Y38350527D01*
X33378759Y38128724D01*
X33600561Y37934209D01*
X33845853Y37770310D01*
X34110441Y37639830D01*
X34389796Y37545001D01*
X34679138Y37487448D01*
X34707406Y37485596D01*
X34973511Y37468153D01*
X34973518Y37468153D01*
X34973525Y37468153D01*
X35209193Y37483601D01*
X35267898Y37487448D01*
X35557240Y37545001D01*
X35836595Y37639830D01*
X36101183Y37770310D01*
X36346475Y37934209D01*
X36568276Y38128724D01*
X36762791Y38350525D01*
X36926690Y38595817D01*
X37057170Y38860405D01*
X37151999Y39139760D01*
X37209552Y39429102D01*
X37228847Y39723482D01*
X37228847Y39723489D01*
X37228847Y39723490D01*
X37210397Y40004977D01*
X37209552Y40017862D01*
X37151999Y40307204D01*
X37057170Y40586559D01*
X36926690Y40851146D01*
X36762791Y41096439D01*
X36717569Y41148005D01*
X36568276Y41318241D01*
X36346473Y41512757D01*
X36101185Y41676653D01*
X36101178Y41676657D01*
X35836598Y41807133D01*
X35557248Y41901961D01*
X35557242Y41901963D01*
X35557240Y41901963D01*
X35267898Y41959516D01*
X35267891Y41959517D01*
X35267881Y41959518D01*
X34973525Y41978811D01*
X34973511Y41978811D01*
X34679154Y41959518D01*
X34679138Y41959516D01*
X34564930Y41936799D01*
X34495339Y41943028D01*
X34440162Y41985891D01*
X34416918Y42051781D01*
X34416740Y42058597D01*
X34419836Y44192606D01*
X34419835Y44192607D01*
X34419836Y44192615D01*
X34408381Y44300354D01*
X34397194Y44352004D01*
X34363048Y44454818D01*
X34285305Y44575887D01*
X34239570Y44628708D01*
X34239567Y44628711D01*
X34130864Y44722973D01*
X34130863Y44722974D01*
X34130860Y44722976D01*
X34000013Y44782790D01*
X34000010Y44782791D01*
X33932972Y44802502D01*
X33790573Y44823028D01*
X33593646Y44823101D01*
X33526614Y44842811D01*
X33480878Y44895632D01*
X33470961Y44964794D01*
X33473914Y44979180D01*
X33499725Y45075505D01*
X33518795Y45293482D01*
X33499725Y45511459D01*
X33443093Y45722812D01*
X33350620Y45921120D01*
X33350618Y45921123D01*
X33350617Y45921125D01*
X33225115Y46100361D01*
X33119674Y46205802D01*
X33086189Y46267125D01*
X33091173Y46336817D01*
X33119670Y46381160D01*
X33225116Y46486605D01*
X33350620Y46665843D01*
X33443093Y46864152D01*
X33499725Y47075505D01*
X33518795Y47293482D01*
X33499725Y47511459D01*
X33443093Y47722812D01*
X33350620Y47921120D01*
X33350618Y47921123D01*
X33350617Y47921125D01*
X33225117Y48100358D01*
X33225114Y48100361D01*
X33070395Y48255080D01*
X32891157Y48380584D01*
X32891158Y48380584D01*
X32891156Y48380585D01*
X32782232Y48431377D01*
X32729793Y48477550D01*
X32710641Y48544743D01*
X32730857Y48611624D01*
X32782233Y48656141D01*
X32818338Y48672977D01*
X32263519Y49227797D01*
X32263518Y49227797D01*
X31708696Y48672977D01*
X31744802Y48656141D01*
X31797242Y48609969D01*
X31816394Y48542776D01*
X31796179Y48475894D01*
X31744804Y48431377D01*
X31635876Y48380582D01*
X31635875Y48380582D01*
X31456639Y48255080D01*
X31301920Y48100361D01*
X31176418Y47921125D01*
X31176416Y47921121D01*
X31083944Y47722814D01*
X31083941Y47722808D01*
X31073293Y47683066D01*
X31036928Y47623406D01*
X30974081Y47592877D01*
X30904705Y47601172D01*
X30850828Y47645657D01*
X30833743Y47683066D01*
X30823094Y47722808D01*
X30823093Y47722812D01*
X30730620Y47921120D01*
X30730618Y47921123D01*
X30730617Y47921125D01*
X30605117Y48100358D01*
X30605114Y48100361D01*
X30450395Y48255080D01*
X30271157Y48380584D01*
X30271158Y48380584D01*
X30271156Y48380585D01*
X30162232Y48431377D01*
X30109793Y48477550D01*
X30090641Y48544743D01*
X30110857Y48611624D01*
X30162233Y48656141D01*
X30198338Y48672977D01*
X29643519Y49227797D01*
X29643518Y49227797D01*
X29088696Y48672977D01*
X29124802Y48656141D01*
X29177242Y48609969D01*
X29196394Y48542776D01*
X29176179Y48475894D01*
X29124804Y48431377D01*
X29015876Y48380582D01*
X29015875Y48380582D01*
X28836639Y48255080D01*
X28681920Y48100361D01*
X28556418Y47921125D01*
X28556416Y47921121D01*
X28463944Y47722814D01*
X28463940Y47722805D01*
X28407311Y47511462D01*
X28407311Y47511458D01*
X28388241Y47293485D01*
X28388241Y47293480D01*
X28407311Y47075507D01*
X28407311Y47075503D01*
X28463940Y46864160D01*
X28463942Y46864156D01*
X28463943Y46864152D01*
X28510179Y46764998D01*
X28556415Y46665844D01*
X28556416Y46665843D01*
X28681920Y46486605D01*
X28681924Y46486601D01*
X28787361Y46381164D01*
X28820846Y46319841D01*
X28815862Y46250149D01*
X28787362Y46205802D01*
X28681918Y46100358D01*
X28556418Y45921125D01*
X28556416Y45921121D01*
X28463944Y45722814D01*
X28463940Y45722805D01*
X28407311Y45511462D01*
X28407311Y45511458D01*
X28388241Y45293485D01*
X28388241Y45293480D01*
X28407311Y45075507D01*
X28407311Y45075503D01*
X28432596Y44981139D01*
X28430933Y44911289D01*
X28391770Y44853427D01*
X28327542Y44825923D01*
X28312775Y44825046D01*
X19052746Y44828455D01*
X18945187Y44816921D01*
X18945186Y44816921D01*
X18893642Y44805717D01*
X18791014Y44771569D01*
X18669980Y44693784D01*
X18669969Y44693776D01*
X18617177Y44648032D01*
X18522951Y44539291D01*
X18522948Y44539287D01*
X18463182Y44408421D01*
X18443494Y44341373D01*
X18423018Y44198954D01*
X14475500Y44198954D01*
X14475500Y45336482D01*
X14463947Y45443938D01*
X14452741Y45495449D01*
X14447411Y45511462D01*
X14418616Y45597980D01*
X14418613Y45597986D01*
X14396929Y45631727D01*
X14340825Y45719025D01*
X14326003Y45736131D01*
X14295076Y45771823D01*
X14295072Y45771826D01*
X14295070Y45771829D01*
X14186336Y45866049D01*
X14186333Y45866051D01*
X14186331Y45866052D01*
X14055465Y45925818D01*
X14055460Y45925820D01*
X14055459Y45925820D01*
X13995902Y45943308D01*
X13988417Y45945506D01*
X13926013Y45954478D01*
X13846000Y45965982D01*
X1399416Y45965982D01*
X1399410Y45965982D01*
X1292191Y45954478D01*
X1292158Y45954473D01*
X1240774Y45943318D01*
X1240756Y45943313D01*
X1240752Y45943312D01*
X1240745Y45943310D01*
X1240739Y45943308D01*
X1138377Y45909309D01*
X1017282Y45831625D01*
X964432Y45785907D01*
X870129Y45677255D01*
X865330Y45669799D01*
X862351Y45671717D01*
X827595Y45631727D01*
X760527Y45612143D01*
X693517Y45631928D01*
X647841Y45684800D01*
X636712Y45736131D01*
X635516Y59919835D01*
X655195Y59986875D01*
X707995Y60032634D01*
X777153Y60042583D01*
X840711Y60013564D01*
X855879Y59997884D01*
X1056219Y59750484D01*
X1330484Y59476219D01*
X1330488Y59476216D01*
X1631917Y59232123D01*
X1752993Y59153495D01*
X1798496Y59100474D01*
X1808110Y59031269D01*
X1778783Y58967852D01*
X1719826Y58930358D01*
X1685458Y58925500D01*
X1521000Y58925500D01*
X1520991Y58925500D01*
X1520990Y58925499D01*
X1413549Y58913948D01*
X1413537Y58913946D01*
X1362027Y58902740D01*
X1259502Y58868617D01*
X1259496Y58868614D01*
X1138462Y58790829D01*
X1138451Y58790821D01*
X1085659Y58745077D01*
X991433Y58636336D01*
X991430Y58636332D01*
X931664Y58505466D01*
X911976Y58438418D01*
X906949Y58403451D01*
X891502Y58296010D01*
X891500Y58295999D01*
X891500Y55583307D01*
X896644Y55511371D01*
X896645Y55511366D01*
X897152Y55509641D01*
X901858Y55483559D01*
X904529Y55446224D01*
X954811Y55311415D01*
X988296Y55250092D01*
X1074520Y55134911D01*
X1165471Y55043960D01*
X1198955Y54982639D01*
X1198680Y54928688D01*
X1185777Y54872158D01*
X1185777Y54872156D01*
X1166732Y54618005D01*
X1166732Y54617996D01*
X1185777Y54363845D01*
X1185777Y54363843D01*
X1198679Y54307316D01*
X1194406Y54237577D01*
X1165470Y54192044D01*
X1074583Y54101156D01*
X1068195Y54094652D01*
X1065156Y54091504D01*
X1058917Y54084923D01*
X1058907Y54084911D01*
X976854Y53966729D01*
X976846Y53966717D01*
X945583Y53904257D01*
X945577Y53904244D01*
X900145Y53767736D01*
X897771Y53701302D01*
X896588Y53688088D01*
X891500Y53652699D01*
X891500Y53652691D01*
X891500Y50543000D01*
X891501Y50542991D01*
X903052Y50435550D01*
X903054Y50435538D01*
X914260Y50384028D01*
X948383Y50281503D01*
X948386Y50281497D01*
X1026171Y50160463D01*
X1026179Y50160452D01*
X1071923Y50107660D01*
X1071926Y50107657D01*
X1071930Y50107653D01*
X1180664Y50013433D01*
X1180667Y50013432D01*
X1180668Y50013431D01*
X1274925Y49970384D01*
X1311541Y49953662D01*
X1378580Y49933977D01*
X1378584Y49933976D01*
X1521000Y49913500D01*
X1521003Y49913500D01*
X13845990Y49913500D01*
X13846000Y49913500D01*
X13953456Y49925053D01*
X14004967Y49936259D01*
X14039197Y49947653D01*
X14107497Y49970384D01*
X14107501Y49970387D01*
X14107504Y49970387D01*
X14228543Y50048175D01*
X14281347Y50093930D01*
X14375567Y50202664D01*
X14435338Y50333541D01*
X14455023Y50400580D01*
X14455024Y50400584D01*
X14475500Y50543000D01*
X14475500Y50963174D01*
X14474605Y50993234D01*
X14473728Y51007956D01*
X14471047Y51037915D01*
X14433807Y51176892D01*
X14433801Y51176906D01*
X14432909Y51179485D01*
X14432865Y51180408D01*
X14432661Y51181169D01*
X14432826Y51181214D01*
X14429581Y51249275D01*
X14464513Y51309786D01*
X14493788Y51330529D01*
X14712170Y51441800D01*
X14743464Y51462122D01*
X15019882Y51641630D01*
X15019884Y51641631D01*
X15305024Y51872533D01*
X15564467Y52131976D01*
X15795369Y52417116D01*
X15995200Y52724830D01*
X16161773Y53051746D01*
X16293260Y53394283D01*
X16388223Y53748688D01*
X16413045Y53905409D01*
X16442974Y53968543D01*
X16502286Y54005474D01*
X16572148Y54004476D01*
X16630381Y53965866D01*
X16658495Y53901903D01*
X16659518Y53886010D01*
X16659518Y52906046D01*
X16674818Y52692120D01*
X16735627Y52412587D01*
X16835609Y52144524D01*
X16972709Y51893444D01*
X16972710Y51893443D01*
X17144157Y51664417D01*
X17144167Y51664405D01*
X17346440Y51462132D01*
X17346452Y51462122D01*
X17575478Y51290675D01*
X17575479Y51290674D01*
X17826560Y51153574D01*
X17826559Y51153574D01*
X18094622Y51053592D01*
X18374155Y50992783D01*
X18588081Y50977483D01*
X18588084Y50977482D01*
X19759518Y50977482D01*
X19759518Y52260728D01*
X20012045Y52227482D01*
X20306991Y52227482D01*
X20559518Y52260728D01*
X20559518Y50977482D01*
X21730952Y50977482D01*
X21730954Y50977483D01*
X21944880Y50992783D01*
X22224413Y51053592D01*
X22492476Y51153574D01*
X22743556Y51290674D01*
X22743557Y51290675D01*
X22972583Y51462122D01*
X22972595Y51462132D01*
X23174868Y51664405D01*
X23174878Y51664417D01*
X23346325Y51893443D01*
X23346326Y51893444D01*
X23483426Y52144524D01*
X23583408Y52412587D01*
X23644217Y52692120D01*
X23656473Y52863490D01*
X27038189Y52863490D01*
X27038189Y52863475D01*
X27057482Y52569119D01*
X27057483Y52569109D01*
X27057484Y52569102D01*
X27057486Y52569092D01*
X27115036Y52279766D01*
X27115039Y52279752D01*
X27209867Y52000402D01*
X27340343Y51735822D01*
X27340347Y51735815D01*
X27504243Y51490527D01*
X27698759Y51268724D01*
X27920562Y51074208D01*
X28086736Y50963174D01*
X28165853Y50910310D01*
X28430441Y50779830D01*
X28542965Y50741633D01*
X28579122Y50729359D01*
X28636276Y50689170D01*
X28662629Y50624461D01*
X28649814Y50555776D01*
X28640838Y50540817D01*
X28556854Y50420874D01*
X28556851Y50420870D01*
X28464416Y50222642D01*
X28464412Y50222633D01*
X28407807Y50011377D01*
X28407805Y50011367D01*
X28388743Y49793483D01*
X28388743Y49793482D01*
X28407805Y49575598D01*
X28407807Y49575588D01*
X28464412Y49364332D01*
X28464416Y49364323D01*
X28523012Y49238663D01*
X29200035Y49915687D01*
X29183518Y49854042D01*
X29183518Y49732922D01*
X29214867Y49615929D01*
X29275427Y49511036D01*
X29361072Y49425391D01*
X29465965Y49364831D01*
X29582958Y49333482D01*
X29704078Y49333482D01*
X29821071Y49364831D01*
X29925964Y49425391D01*
X30011609Y49511036D01*
X30072169Y49615929D01*
X30103518Y49732922D01*
X30103518Y49793482D01*
X30209203Y49793482D01*
X30764023Y49238662D01*
X30822620Y49364323D01*
X30822623Y49364332D01*
X30833743Y49405832D01*
X30870107Y49465492D01*
X30932954Y49496022D01*
X31002330Y49487728D01*
X31056208Y49443243D01*
X31073293Y49405832D01*
X31084412Y49364332D01*
X31084416Y49364323D01*
X31143012Y49238663D01*
X31697832Y49793482D01*
X31637272Y49854042D01*
X31803518Y49854042D01*
X31803518Y49732922D01*
X31834867Y49615929D01*
X31895427Y49511036D01*
X31981072Y49425391D01*
X32085965Y49364831D01*
X32202958Y49333482D01*
X32324078Y49333482D01*
X32441071Y49364831D01*
X32545964Y49425391D01*
X32631609Y49511036D01*
X32692169Y49615929D01*
X32723518Y49732922D01*
X32723518Y49793482D01*
X32829203Y49793482D01*
X33384023Y49238662D01*
X33442620Y49364323D01*
X33442623Y49364332D01*
X33499228Y49575588D01*
X33499230Y49575598D01*
X33518293Y49793482D01*
X33518293Y49793483D01*
X33499230Y50011367D01*
X33499228Y50011377D01*
X33442623Y50222633D01*
X33442620Y50222642D01*
X33384023Y50348303D01*
X32829203Y49793482D01*
X32723518Y49793482D01*
X32723518Y49854042D01*
X32692169Y49971035D01*
X32631609Y50075928D01*
X32545964Y50161573D01*
X32441071Y50222133D01*
X32324078Y50253482D01*
X32202958Y50253482D01*
X32085965Y50222133D01*
X31981072Y50161573D01*
X31895427Y50075928D01*
X31834867Y49971035D01*
X31803518Y49854042D01*
X31637272Y49854042D01*
X31143012Y50348302D01*
X31084416Y50222642D01*
X31084412Y50222633D01*
X31073293Y50181133D01*
X31036928Y50121472D01*
X30974081Y50090943D01*
X30904706Y50099238D01*
X30850828Y50143723D01*
X30833743Y50181133D01*
X30822623Y50222633D01*
X30822620Y50222642D01*
X30764023Y50348303D01*
X30209203Y49793482D01*
X30103518Y49793482D01*
X30103518Y49854042D01*
X30072169Y49971035D01*
X30011609Y50075928D01*
X29925964Y50161573D01*
X29821071Y50222133D01*
X29704078Y50253482D01*
X29582958Y50253482D01*
X29521313Y50236965D01*
X29643517Y50359167D01*
X29996241Y50711894D01*
X30044059Y50741630D01*
X30156595Y50779830D01*
X30421183Y50910310D01*
X30426688Y50913988D01*
X31708698Y50913988D01*
X32263518Y50359168D01*
X32818337Y50913988D01*
X32692677Y50972584D01*
X32692668Y50972588D01*
X32481412Y51029193D01*
X32481402Y51029195D01*
X32263519Y51048257D01*
X32263517Y51048257D01*
X32045633Y51029195D01*
X32045623Y51029193D01*
X31834367Y50972588D01*
X31834358Y50972584D01*
X31708698Y50913988D01*
X30426688Y50913988D01*
X30666475Y51074209D01*
X30888276Y51268724D01*
X31082791Y51490525D01*
X31246690Y51735817D01*
X31377170Y52000405D01*
X31471999Y52279760D01*
X31529552Y52569102D01*
X31539759Y52724830D01*
X31548847Y52863475D01*
X31548847Y52863490D01*
X32718189Y52863490D01*
X32718189Y52863475D01*
X32737482Y52569119D01*
X32737483Y52569109D01*
X32737484Y52569102D01*
X32737486Y52569092D01*
X32795036Y52279766D01*
X32795039Y52279752D01*
X32889867Y52000402D01*
X33020343Y51735822D01*
X33020347Y51735815D01*
X33184243Y51490527D01*
X33378759Y51268724D01*
X33600562Y51074208D01*
X33766736Y50963174D01*
X33845853Y50910310D01*
X34110441Y50779830D01*
X34389796Y50685001D01*
X34679138Y50627448D01*
X34707406Y50625596D01*
X34973511Y50608153D01*
X34973518Y50608153D01*
X34973525Y50608153D01*
X35222326Y50624461D01*
X35267898Y50627448D01*
X35557240Y50685001D01*
X35836595Y50779830D01*
X36101183Y50910310D01*
X36346475Y51074209D01*
X36568276Y51268724D01*
X36762791Y51490525D01*
X36926690Y51735817D01*
X37057170Y52000405D01*
X37151999Y52279760D01*
X37209552Y52569102D01*
X37219759Y52724830D01*
X37228847Y52863475D01*
X37228847Y52863490D01*
X37209553Y53157846D01*
X37209552Y53157862D01*
X37151999Y53447204D01*
X37057170Y53726559D01*
X36926690Y53991146D01*
X36917116Y54005474D01*
X36846554Y54111078D01*
X36762791Y54236439D01*
X36680732Y54330009D01*
X36568276Y54458241D01*
X36346473Y54652757D01*
X36101185Y54816653D01*
X36101178Y54816657D01*
X35836598Y54947133D01*
X35557248Y55041961D01*
X35557242Y55041963D01*
X35557240Y55041963D01*
X35267898Y55099516D01*
X35267891Y55099517D01*
X35267881Y55099518D01*
X34973525Y55118811D01*
X34973511Y55118811D01*
X34679154Y55099518D01*
X34679142Y55099517D01*
X34679138Y55099516D01*
X34679130Y55099515D01*
X34679127Y55099514D01*
X34389801Y55041964D01*
X34389787Y55041961D01*
X34110437Y54947133D01*
X33845852Y54816654D01*
X33600559Y54652754D01*
X33378759Y54458241D01*
X33184246Y54236441D01*
X33020346Y53991148D01*
X32889867Y53726563D01*
X32795039Y53447213D01*
X32795036Y53447199D01*
X32737486Y53157873D01*
X32737482Y53157846D01*
X32718189Y52863490D01*
X31548847Y52863490D01*
X31529553Y53157846D01*
X31529552Y53157862D01*
X31471999Y53447204D01*
X31377170Y53726559D01*
X31246690Y53991146D01*
X31237116Y54005474D01*
X31166554Y54111078D01*
X31082791Y54236439D01*
X31000732Y54330009D01*
X30888276Y54458241D01*
X30666473Y54652757D01*
X30421185Y54816653D01*
X30421178Y54816657D01*
X30156598Y54947133D01*
X29877248Y55041961D01*
X29877242Y55041963D01*
X29877240Y55041963D01*
X29587898Y55099516D01*
X29587891Y55099517D01*
X29587881Y55099518D01*
X29293525Y55118811D01*
X29293511Y55118811D01*
X28999154Y55099518D01*
X28999142Y55099517D01*
X28999138Y55099516D01*
X28999130Y55099515D01*
X28999127Y55099514D01*
X28709801Y55041964D01*
X28709787Y55041961D01*
X28430437Y54947133D01*
X28165852Y54816654D01*
X27920559Y54652754D01*
X27698759Y54458241D01*
X27504246Y54236441D01*
X27340346Y53991148D01*
X27209867Y53726563D01*
X27115039Y53447213D01*
X27115036Y53447199D01*
X27057486Y53157873D01*
X27057482Y53157846D01*
X27038189Y52863490D01*
X23656473Y52863490D01*
X23659517Y52906046D01*
X23659518Y52906048D01*
X23659518Y54077482D01*
X22376272Y54077482D01*
X22409518Y54330009D01*
X22409518Y54624955D01*
X22376272Y54877482D01*
X23659518Y54877482D01*
X23659518Y56048916D01*
X23659517Y56048919D01*
X23644217Y56262845D01*
X23583408Y56542378D01*
X23483426Y56810441D01*
X23346326Y57061521D01*
X23346325Y57061522D01*
X23174878Y57290548D01*
X23174868Y57290560D01*
X22972595Y57492833D01*
X22972583Y57492843D01*
X22743557Y57664290D01*
X22743556Y57664291D01*
X22492475Y57801391D01*
X22492476Y57801391D01*
X22224413Y57901373D01*
X21944880Y57962182D01*
X21730954Y57977482D01*
X20559518Y57977482D01*
X20559518Y56694237D01*
X20306991Y56727482D01*
X20012045Y56727482D01*
X19759518Y56694237D01*
X19759518Y57977482D01*
X18588081Y57977482D01*
X18374155Y57962182D01*
X18094622Y57901373D01*
X17826559Y57801391D01*
X17575479Y57664291D01*
X17575478Y57664290D01*
X17346452Y57492843D01*
X17346440Y57492833D01*
X17144167Y57290560D01*
X17144157Y57290548D01*
X16972710Y57061522D01*
X16972709Y57061521D01*
X16835609Y56810441D01*
X16735627Y56542378D01*
X16674818Y56262845D01*
X16659518Y56048919D01*
X16659518Y55068955D01*
X16639833Y55001916D01*
X16587029Y54956161D01*
X16517871Y54946217D01*
X16454315Y54975242D01*
X16416541Y55034020D01*
X16413045Y55049557D01*
X16399526Y55134911D01*
X16388223Y55206276D01*
X16293260Y55560681D01*
X16161773Y55903218D01*
X15995200Y56230134D01*
X15995197Y56230139D01*
X15795370Y56537847D01*
X15564470Y56822984D01*
X15564467Y56822988D01*
X15305024Y57082431D01*
X15272528Y57108746D01*
X15019882Y57313335D01*
X14712172Y57513164D01*
X14712161Y57513170D01*
X14493717Y57624474D01*
X14442921Y57672448D01*
X14426126Y57740269D01*
X14433833Y57778300D01*
X14435331Y57782319D01*
X14435338Y57782332D01*
X14455023Y57849371D01*
X14455024Y57849375D01*
X14475500Y57991791D01*
X14475500Y58296000D01*
X14463947Y58403456D01*
X14452741Y58454967D01*
X14446414Y58473977D01*
X14418616Y58557498D01*
X14418613Y58557504D01*
X14340828Y58678538D01*
X14340825Y58678543D01*
X14317219Y58705786D01*
X14295076Y58731341D01*
X14295072Y58731344D01*
X14295070Y58731347D01*
X14186336Y58825567D01*
X14186333Y58825569D01*
X14186331Y58825570D01*
X14055465Y58885336D01*
X14055460Y58885338D01*
X14055459Y58885338D01*
X13988420Y58905023D01*
X13988422Y58905023D01*
X13988417Y58905024D01*
X13926347Y58913948D01*
X13846000Y58925500D01*
X13845998Y58925500D01*
X5934542Y58925500D01*
X5867503Y58945185D01*
X5821748Y58997989D01*
X5811804Y59067147D01*
X5840829Y59130703D01*
X5867007Y59153495D01*
X5882407Y59163496D01*
X26889519Y59163496D01*
X26900012Y59060785D01*
X26955159Y58894363D01*
X26955161Y58894358D01*
X27047202Y58745137D01*
X27171172Y58621167D01*
X27320393Y58529126D01*
X27320398Y58529124D01*
X27486820Y58473977D01*
X27486827Y58473976D01*
X27589537Y58463483D01*
X27839517Y58463483D01*
X27839518Y58463484D01*
X27839518Y59538482D01*
X26889519Y59538482D01*
X26889519Y59163496D01*
X5882407Y59163496D01*
X5988082Y59232123D01*
X5988084Y59232124D01*
X6289516Y59476219D01*
X6563781Y59750484D01*
X6766659Y60001017D01*
X27764518Y60001017D01*
X27764518Y59875947D01*
X27796888Y59755139D01*
X27859423Y59646825D01*
X27947861Y59558387D01*
X28056175Y59495852D01*
X28176983Y59463482D01*
X28302053Y59463482D01*
X28422861Y59495852D01*
X28531175Y59558387D01*
X28619613Y59646825D01*
X28639518Y59681302D01*
X28639518Y58463483D01*
X28889490Y58463483D01*
X28889504Y58463484D01*
X28992215Y58473977D01*
X29158637Y58529124D01*
X29158642Y58529126D01*
X29307863Y58621167D01*
X29431835Y58745139D01*
X29527333Y58899966D01*
X29579281Y58946691D01*
X29648243Y58957914D01*
X29712326Y58930070D01*
X29720553Y58922551D01*
X29859731Y58783373D01*
X30031697Y58658434D01*
X30031699Y58658433D01*
X30031702Y58658431D01*
X30221106Y58561925D01*
X30423275Y58496236D01*
X30633231Y58462982D01*
X30633232Y58462982D01*
X30845804Y58462982D01*
X30845805Y58462982D01*
X31055761Y58496236D01*
X31257930Y58561925D01*
X31447334Y58658431D01*
X31547695Y58731347D01*
X31619304Y58783373D01*
X31619306Y58783376D01*
X31619310Y58783378D01*
X31769622Y58933690D01*
X31769624Y58933694D01*
X31769627Y58933696D01*
X31894566Y59105662D01*
X31894565Y59105662D01*
X31894569Y59105666D01*
X31991075Y59295070D01*
X32056764Y59497239D01*
X32090018Y59707195D01*
X32090018Y60169769D01*
X32056764Y60379725D01*
X31991075Y60581894D01*
X31894569Y60771298D01*
X31894567Y60771301D01*
X31894566Y60771303D01*
X31769627Y60943269D01*
X31619304Y61093592D01*
X31447338Y61218531D01*
X31257932Y61315038D01*
X31257931Y61315039D01*
X31257930Y61315039D01*
X31055761Y61380728D01*
X31055759Y61380729D01*
X31055758Y61380729D01*
X30894475Y61406274D01*
X30845805Y61413982D01*
X30633231Y61413982D01*
X30584560Y61406274D01*
X30423278Y61380729D01*
X30221103Y61315038D01*
X30031697Y61218531D01*
X29859733Y61093593D01*
X29720553Y60954413D01*
X29659230Y60920929D01*
X29589538Y60925913D01*
X29533605Y60967785D01*
X29527333Y60976998D01*
X29431833Y61131828D01*
X29307863Y61255798D01*
X29158642Y61347839D01*
X29158637Y61347841D01*
X28992215Y61402988D01*
X28992208Y61402989D01*
X28889504Y61413482D01*
X28639518Y61413482D01*
X28639518Y60195663D01*
X28619613Y60230139D01*
X28531175Y60318577D01*
X28422861Y60381112D01*
X28302053Y60413482D01*
X28176983Y60413482D01*
X28056175Y60381112D01*
X27947861Y60318577D01*
X27859423Y60230139D01*
X27796888Y60121825D01*
X27764518Y60001017D01*
X6766659Y60001017D01*
X6807876Y60051916D01*
X7019125Y60377211D01*
X7190457Y60713469D01*
X26889518Y60713469D01*
X26889518Y60338482D01*
X27839518Y60338482D01*
X27839518Y61413482D01*
X27589547Y61413482D01*
X27589530Y61413481D01*
X27486820Y61402988D01*
X27320398Y61347841D01*
X27320393Y61347839D01*
X27171172Y61255798D01*
X27047202Y61131828D01*
X26955161Y60982607D01*
X26955159Y60982602D01*
X26900012Y60816180D01*
X26900011Y60816173D01*
X26889518Y60713469D01*
X7190457Y60713469D01*
X7195214Y60722806D01*
X7334214Y61084913D01*
X7434602Y61459567D01*
X7495278Y61842662D01*
X7515578Y62230000D01*
X7495278Y62617338D01*
X7434602Y63000433D01*
X7334214Y63375087D01*
X7195214Y63737194D01*
X7019125Y64082789D01*
X6807876Y64408084D01*
X6563781Y64709516D01*
X6289516Y64983781D01*
X5988084Y65227876D01*
X5988082Y65227878D01*
X5859307Y65311505D01*
X5813804Y65364526D01*
X5804190Y65433731D01*
X5833517Y65497148D01*
X5892474Y65534642D01*
X5926842Y65539500D01*
X39158158Y65539500D01*
X39225197Y65519815D01*
G37*
%TD.AperFunction*%
%TD*%
%TA.AperFunction,Conductor*%
%TO.N,+5V*%
G36*
X28553257Y27539315D02*
G01*
X28599012Y27486511D01*
X28608956Y27417353D01*
X28604879Y27399005D01*
X28573975Y27297131D01*
X28554659Y27101000D01*
X28573975Y26904871D01*
X28631188Y26716267D01*
X28724086Y26542468D01*
X28724090Y26542461D01*
X28849116Y26390117D01*
X29001460Y26265091D01*
X29001467Y26265087D01*
X29175266Y26172189D01*
X29175269Y26172189D01*
X29175273Y26172186D01*
X29363868Y26114976D01*
X29560000Y26095659D01*
X29756132Y26114976D01*
X29944727Y26172186D01*
X30118538Y26265090D01*
X30270883Y26390117D01*
X30395910Y26542462D01*
X30488814Y26716273D01*
X30546024Y26904868D01*
X30565341Y27101000D01*
X30546024Y27297132D01*
X30515121Y27399005D01*
X30514498Y27468872D01*
X30551746Y27527985D01*
X30615040Y27557575D01*
X30633782Y27559000D01*
X31106218Y27559000D01*
X31173257Y27539315D01*
X31219012Y27486511D01*
X31228956Y27417353D01*
X31224879Y27399005D01*
X31193975Y27297131D01*
X31174659Y27101000D01*
X31193975Y26904871D01*
X31251188Y26716267D01*
X31344086Y26542468D01*
X31344090Y26542461D01*
X31469116Y26390117D01*
X31621460Y26265091D01*
X31621467Y26265087D01*
X31795266Y26172189D01*
X31795269Y26172189D01*
X31795273Y26172186D01*
X31983868Y26114976D01*
X32180000Y26095659D01*
X32375846Y26114948D01*
X32444492Y26101929D01*
X32495202Y26053864D01*
X32512000Y25991545D01*
X32512000Y22735466D01*
X32492315Y22668427D01*
X32439511Y22622672D01*
X32388053Y22611466D01*
X30962684Y22610859D01*
X30895636Y22630515D01*
X30863364Y22660549D01*
X30725745Y22844388D01*
X30725729Y22844406D01*
X30523405Y23046730D01*
X30523387Y23046746D01*
X30294317Y23218225D01*
X30294309Y23218230D01*
X30043166Y23355365D01*
X30043167Y23355365D01*
X29935915Y23395368D01*
X29775046Y23455369D01*
X29775043Y23455370D01*
X29775037Y23455372D01*
X29495433Y23516196D01*
X29210001Y23536610D01*
X29209999Y23536610D01*
X28924566Y23516196D01*
X28644962Y23455372D01*
X28376833Y23355365D01*
X28125690Y23218230D01*
X28125682Y23218225D01*
X27896612Y23046746D01*
X27896594Y23046730D01*
X27694270Y22844406D01*
X27694254Y22844388D01*
X27522775Y22615318D01*
X27522770Y22615310D01*
X27519537Y22609391D01*
X19563518Y22606000D01*
X19563518Y27435000D01*
X19583203Y27502039D01*
X19636007Y27547794D01*
X19687518Y27559000D01*
X28486218Y27559000D01*
X28553257Y27539315D01*
G37*
%TD.AperFunction*%
%TD*%
%TA.AperFunction,Conductor*%
%TO.N,+5VP*%
G36*
X28815480Y44319360D02*
G01*
X28882507Y44299652D01*
X28886524Y44296955D01*
X29015879Y44206380D01*
X29214188Y44113907D01*
X29425541Y44057275D01*
X29608444Y44041274D01*
X29643516Y44038205D01*
X29643518Y44038205D01*
X29643520Y44038205D01*
X29671772Y44040677D01*
X29861495Y44057275D01*
X30072848Y44113907D01*
X30271157Y44206380D01*
X30399612Y44296326D01*
X30465817Y44318653D01*
X30470732Y44318751D01*
X31436856Y44318395D01*
X31503886Y44298686D01*
X31507918Y44295980D01*
X31635879Y44206380D01*
X31834188Y44113907D01*
X32045541Y44057275D01*
X32228444Y44041274D01*
X32263516Y44038205D01*
X32263518Y44038205D01*
X32263520Y44038205D01*
X32291772Y44040677D01*
X32481495Y44057275D01*
X32692848Y44113907D01*
X32891157Y44206380D01*
X33018235Y44295362D01*
X33084440Y44317689D01*
X33089345Y44317786D01*
X33790383Y44317528D01*
X33857415Y44297819D01*
X33903150Y44244998D01*
X33914337Y44193348D01*
X33910845Y41785588D01*
X33891063Y41718577D01*
X33848847Y41678382D01*
X33845846Y41676650D01*
X33600562Y41512757D01*
X33378759Y41318241D01*
X33184246Y41096441D01*
X33020346Y40851148D01*
X32935109Y40678305D01*
X32889866Y40586559D01*
X32889864Y40586556D01*
X32888071Y40582918D01*
X32886554Y40583666D01*
X32847012Y40534674D01*
X32780701Y40512660D01*
X32776416Y40512584D01*
X31490908Y40512110D01*
X31423861Y40531770D01*
X31379345Y40583106D01*
X31378966Y40582918D01*
X31378250Y40584368D01*
X31378087Y40584557D01*
X31377552Y40585785D01*
X31246689Y40851148D01*
X31191560Y40933653D01*
X31082791Y41096439D01*
X31040173Y41145035D01*
X30888276Y41318241D01*
X30666473Y41512757D01*
X30421185Y41676653D01*
X30421178Y41676657D01*
X30156598Y41807133D01*
X29877248Y41901961D01*
X29877242Y41901963D01*
X29877240Y41901963D01*
X29587898Y41959516D01*
X29587891Y41959517D01*
X29587881Y41959518D01*
X29293525Y41978811D01*
X29293511Y41978811D01*
X28999154Y41959518D01*
X28999142Y41959517D01*
X28999138Y41959516D01*
X28999130Y41959515D01*
X28999127Y41959514D01*
X28709801Y41901964D01*
X28709787Y41901961D01*
X28430437Y41807133D01*
X28165852Y41676654D01*
X27920559Y41512754D01*
X27698759Y41318241D01*
X27504246Y41096441D01*
X27340346Y40851148D01*
X27208070Y40582918D01*
X27207121Y40583386D01*
X27166220Y40532633D01*
X27099925Y40510570D01*
X27095549Y40510491D01*
X19052564Y40507528D01*
X18985517Y40527188D01*
X18939743Y40579975D01*
X18928518Y40631528D01*
X18928518Y44198955D01*
X18948203Y44265994D01*
X19001007Y44311749D01*
X19052560Y44322955D01*
X28815480Y44319360D01*
G37*
%TD.AperFunction*%
%TD*%
%TA.AperFunction,Conductor*%
%TO.N,Battery*%
G36*
X13913039Y45440797D02*
G01*
X13958794Y45387993D01*
X13970000Y45336482D01*
X13970000Y20443911D01*
X13950315Y20376872D01*
X13897511Y20331117D01*
X13846090Y20319911D01*
X6479608Y20314572D01*
X6412554Y20334208D01*
X6366761Y20386979D01*
X6355518Y20438572D01*
X6355518Y38735000D01*
X1394102Y38735000D01*
X1327063Y38754685D01*
X1281308Y38807489D01*
X1270102Y38859102D01*
X1270616Y39485976D01*
X1271153Y40140512D01*
X1290892Y40207531D01*
X1343733Y40253243D01*
X1411338Y40263345D01*
X1420459Y40262145D01*
X2097802Y40939488D01*
X2102743Y40914649D01*
X2163049Y40769058D01*
X2250599Y40638030D01*
X2362030Y40526599D01*
X2493058Y40439049D01*
X2638649Y40378743D01*
X2663487Y40373803D01*
X1984948Y39695265D01*
X2019616Y39671629D01*
X2019622Y39671626D01*
X2249176Y39561079D01*
X2249174Y39561079D01*
X2492652Y39485976D01*
X2492658Y39485974D01*
X2744595Y39448001D01*
X2744604Y39448000D01*
X2999396Y39448000D01*
X2999404Y39448001D01*
X3251341Y39485974D01*
X3251347Y39485976D01*
X3494824Y39561079D01*
X3724372Y39671623D01*
X3724396Y39671636D01*
X3759049Y39695263D01*
X3759049Y39695265D01*
X3080513Y40373803D01*
X3105351Y40378743D01*
X3250942Y40439049D01*
X3381970Y40526599D01*
X3493401Y40638030D01*
X3580951Y40769058D01*
X3641257Y40914649D01*
X3646197Y40939488D01*
X4323540Y40262144D01*
X4323541Y40262144D01*
X4407941Y40408329D01*
X4456572Y40532237D01*
X4499387Y40587451D01*
X4565257Y40610752D01*
X4633268Y40594741D01*
X4681827Y40544504D01*
X4687428Y40532237D01*
X4736058Y40408329D01*
X4820458Y40262145D01*
X4820459Y40262144D01*
X5497802Y40939488D01*
X5502743Y40914649D01*
X5563049Y40769058D01*
X5650599Y40638030D01*
X5762030Y40526599D01*
X5893058Y40439049D01*
X6038649Y40378743D01*
X6063487Y40373803D01*
X5384948Y39695265D01*
X5419616Y39671629D01*
X5419622Y39671626D01*
X5649176Y39561079D01*
X5649174Y39561079D01*
X5892652Y39485976D01*
X5892658Y39485974D01*
X6144595Y39448001D01*
X6144604Y39448000D01*
X6399396Y39448000D01*
X6399404Y39448001D01*
X6651341Y39485974D01*
X6651347Y39485976D01*
X6894824Y39561079D01*
X7124372Y39671623D01*
X7124396Y39671636D01*
X7159049Y39695263D01*
X7159049Y39695265D01*
X6480513Y40373803D01*
X6505351Y40378743D01*
X6650942Y40439049D01*
X6781970Y40526599D01*
X6893401Y40638030D01*
X6980951Y40769058D01*
X7041257Y40914649D01*
X7046197Y40939487D01*
X7723540Y40262144D01*
X7723541Y40262144D01*
X7807941Y40408329D01*
X7901026Y40645506D01*
X7901031Y40645523D01*
X7957726Y40893921D01*
X7976767Y41147996D01*
X7976767Y41148005D01*
X7957726Y41402080D01*
X7901031Y41650478D01*
X7901026Y41650495D01*
X7807941Y41887672D01*
X7807942Y41887672D01*
X7723540Y42033858D01*
X7046197Y41356514D01*
X7041257Y41381351D01*
X6980951Y41526942D01*
X6893401Y41657970D01*
X6781970Y41769401D01*
X6650942Y41856951D01*
X6505351Y41917257D01*
X6480512Y41922198D01*
X7159050Y42600737D01*
X7124384Y42624372D01*
X7124376Y42624377D01*
X6894823Y42734922D01*
X6894825Y42734922D01*
X6651347Y42810025D01*
X6651341Y42810027D01*
X6399404Y42848000D01*
X6144595Y42848000D01*
X5892658Y42810027D01*
X5892652Y42810025D01*
X5649178Y42734923D01*
X5419620Y42624374D01*
X5384948Y42600737D01*
X6063488Y41922198D01*
X6038649Y41917257D01*
X5893058Y41856951D01*
X5762030Y41769401D01*
X5650599Y41657970D01*
X5563049Y41526942D01*
X5502743Y41381351D01*
X5497802Y41356513D01*
X4820458Y42033857D01*
X4736058Y41887672D01*
X4687428Y41763764D01*
X4644612Y41708550D01*
X4578742Y41685249D01*
X4510732Y41701260D01*
X4462173Y41751498D01*
X4456572Y41763764D01*
X4407941Y41887672D01*
X4407942Y41887672D01*
X4323540Y42033858D01*
X3646197Y41356514D01*
X3641257Y41381351D01*
X3580951Y41526942D01*
X3493401Y41657970D01*
X3381970Y41769401D01*
X3250942Y41856951D01*
X3105351Y41917257D01*
X3080512Y41922198D01*
X3759050Y42600737D01*
X3724384Y42624372D01*
X3724376Y42624377D01*
X3494823Y42734922D01*
X3494825Y42734922D01*
X3251347Y42810025D01*
X3251341Y42810027D01*
X2999404Y42848000D01*
X2744595Y42848000D01*
X2492658Y42810027D01*
X2492652Y42810025D01*
X2249178Y42734923D01*
X2019620Y42624374D01*
X1984948Y42600737D01*
X2663488Y41922198D01*
X2638649Y41917257D01*
X2493058Y41856951D01*
X2362030Y41769401D01*
X2250599Y41657970D01*
X2163049Y41526942D01*
X2102743Y41381351D01*
X2097802Y41356513D01*
X1420458Y42033858D01*
X1412992Y42032874D01*
X1343956Y42043639D01*
X1291700Y42090019D01*
X1272806Y42155913D01*
X1275416Y45336586D01*
X1295156Y45403607D01*
X1347997Y45449319D01*
X1399416Y45460482D01*
X13846000Y45460482D01*
X13913039Y45440797D01*
G37*
%TD.AperFunction*%
%TD*%
%TA.AperFunction,Conductor*%
%TO.N,+5V*%
G36*
X27522775Y22615318D02*
G01*
X27522770Y22615310D01*
X27385635Y22364167D01*
X27285628Y22096038D01*
X27224804Y21816434D01*
X27204390Y21531002D01*
X27204390Y21530999D01*
X27224804Y21245567D01*
X27285628Y20965963D01*
X27385635Y20697834D01*
X27522770Y20446691D01*
X27522775Y20446683D01*
X27694254Y20217613D01*
X27694270Y20217595D01*
X27896594Y20015271D01*
X27896612Y20015255D01*
X28125682Y19843776D01*
X28125690Y19843771D01*
X28376833Y19706636D01*
X28376832Y19706636D01*
X28376836Y19706635D01*
X28376839Y19706633D01*
X28644954Y19606631D01*
X28644960Y19606630D01*
X28644962Y19606629D01*
X28924566Y19545805D01*
X28924568Y19545805D01*
X28924572Y19545804D01*
X29178220Y19527663D01*
X29209999Y19525390D01*
X29210000Y19525390D01*
X29210001Y19525390D01*
X29238595Y19527436D01*
X29495428Y19545804D01*
X29775046Y19606631D01*
X30043161Y19706633D01*
X30294315Y19843774D01*
X30523395Y20015261D01*
X30725739Y20217605D01*
X30897226Y20446685D01*
X31034367Y20697839D01*
X31134369Y20965954D01*
X31195196Y21245572D01*
X31208524Y21431932D01*
X31232941Y21497394D01*
X31288874Y21539266D01*
X31358566Y21544250D01*
X31412168Y21517858D01*
X38055964Y15912155D01*
X38094508Y15853880D01*
X38100000Y15817384D01*
X38100000Y10143500D01*
X38080315Y10076461D01*
X38027511Y10030706D01*
X37976000Y10019500D01*
X37715113Y10019500D01*
X37653275Y10036020D01*
X19620162Y20411236D01*
X19571870Y20461730D01*
X19558000Y20518716D01*
X19558000Y22676120D01*
X19563518Y22694913D01*
X19563518Y22733000D01*
X27610871Y22733000D01*
X27522775Y22615318D01*
G37*
%TD.AperFunction*%
%TD*%
%TA.AperFunction,Conductor*%
%TO.N,+BATT*%
G36*
X13913039Y58400315D02*
G01*
X13958794Y58347511D01*
X13970000Y58296000D01*
X13970000Y57991791D01*
X13950315Y57924752D01*
X13897511Y57878997D01*
X13828353Y57869053D01*
X13813907Y57872016D01*
X13688209Y57905697D01*
X13688202Y57905698D01*
X13325871Y57963085D01*
X12959519Y57982285D01*
X12959517Y57982285D01*
X12593164Y57963085D01*
X12230833Y57905698D01*
X12230831Y57905698D01*
X11876466Y57810746D01*
X11533982Y57679278D01*
X11207112Y57512728D01*
X10899448Y57312929D01*
X10783581Y57219103D01*
X11674878Y56327807D01*
X11472807Y56172751D01*
X11264249Y55964193D01*
X11109193Y55762123D01*
X10217897Y56653419D01*
X10124071Y56537552D01*
X9924272Y56229888D01*
X9757722Y55903018D01*
X9626254Y55560534D01*
X9531302Y55206169D01*
X9531302Y55206167D01*
X9473915Y54843836D01*
X9454715Y54477483D01*
X9454715Y54477482D01*
X9473915Y54111129D01*
X9531302Y53748798D01*
X9531302Y53748796D01*
X9626254Y53394431D01*
X9757722Y53051947D01*
X9924272Y52725076D01*
X10124071Y52417412D01*
X10217897Y52301548D01*
X11109193Y53192844D01*
X11264249Y52990771D01*
X11472807Y52782213D01*
X11674877Y52627159D01*
X10783582Y51735863D01*
X10899453Y51642032D01*
X11207111Y51442237D01*
X11533982Y51275687D01*
X11876466Y51144219D01*
X12230832Y51049267D01*
X12593164Y50991880D01*
X12959517Y50972679D01*
X12959519Y50972679D01*
X13325871Y50991880D01*
X13688202Y51049267D01*
X13688204Y51049267D01*
X13813906Y51082949D01*
X13883756Y51081286D01*
X13941618Y51042124D01*
X13969123Y50977896D01*
X13970000Y50963174D01*
X13970000Y50543000D01*
X13950315Y50475961D01*
X13897511Y50430206D01*
X13846000Y50419000D01*
X1521000Y50419000D01*
X1453961Y50438685D01*
X1408206Y50491489D01*
X1397000Y50543000D01*
X1397000Y53652691D01*
X1400332Y53652691D01*
X1397613Y53677982D01*
X1428887Y53740462D01*
X1431962Y53743648D01*
X2097802Y54409489D01*
X2102743Y54384649D01*
X2163049Y54239058D01*
X2250599Y54108030D01*
X2362030Y53996599D01*
X2493058Y53909049D01*
X2638649Y53848743D01*
X2663487Y53843803D01*
X1984948Y53165265D01*
X2019616Y53141629D01*
X2019622Y53141626D01*
X2249176Y53031079D01*
X2249174Y53031079D01*
X2492652Y52955976D01*
X2492658Y52955974D01*
X2744595Y52918001D01*
X2744604Y52918000D01*
X2999396Y52918000D01*
X2999404Y52918001D01*
X3251341Y52955974D01*
X3251347Y52955976D01*
X3494824Y53031079D01*
X3724372Y53141623D01*
X3724396Y53141636D01*
X3759049Y53165263D01*
X3759049Y53165265D01*
X3080513Y53843803D01*
X3105351Y53848743D01*
X3250942Y53909049D01*
X3381970Y53996599D01*
X3493401Y54108030D01*
X3580951Y54239058D01*
X3641257Y54384649D01*
X3646197Y54409488D01*
X4323540Y53732144D01*
X4323541Y53732144D01*
X4407941Y53878329D01*
X4456572Y54002237D01*
X4499387Y54057451D01*
X4565257Y54080752D01*
X4633268Y54064741D01*
X4681827Y54014504D01*
X4687428Y54002237D01*
X4736058Y53878329D01*
X4820458Y53732145D01*
X4820459Y53732144D01*
X5497802Y54409488D01*
X5502743Y54384649D01*
X5563049Y54239058D01*
X5650599Y54108030D01*
X5762030Y53996599D01*
X5893058Y53909049D01*
X6038649Y53848743D01*
X6063487Y53843803D01*
X5384948Y53165265D01*
X5419616Y53141629D01*
X5419622Y53141626D01*
X5649176Y53031079D01*
X5649174Y53031079D01*
X5892652Y52955976D01*
X5892658Y52955974D01*
X6144595Y52918001D01*
X6144604Y52918000D01*
X6399396Y52918000D01*
X6399404Y52918001D01*
X6651341Y52955974D01*
X6651347Y52955976D01*
X6894824Y53031079D01*
X7124372Y53141623D01*
X7124396Y53141636D01*
X7159049Y53165263D01*
X7159049Y53165265D01*
X6480513Y53843803D01*
X6505351Y53848743D01*
X6650942Y53909049D01*
X6781970Y53996599D01*
X6893401Y54108030D01*
X6980951Y54239058D01*
X7041257Y54384649D01*
X7046197Y54409487D01*
X7723540Y53732144D01*
X7723541Y53732144D01*
X7807941Y53878329D01*
X7901026Y54115506D01*
X7901031Y54115523D01*
X7957726Y54363921D01*
X7976767Y54617996D01*
X7976767Y54618005D01*
X7957726Y54872080D01*
X7901031Y55120478D01*
X7901026Y55120495D01*
X7807941Y55357672D01*
X7807942Y55357672D01*
X7723540Y55503858D01*
X7046197Y54826514D01*
X7041257Y54851351D01*
X6980951Y54996942D01*
X6893401Y55127970D01*
X6781970Y55239401D01*
X6650942Y55326951D01*
X6505351Y55387257D01*
X6480512Y55392198D01*
X7159050Y56070737D01*
X7124384Y56094372D01*
X7124376Y56094377D01*
X6894823Y56204922D01*
X6894825Y56204922D01*
X6651347Y56280025D01*
X6651341Y56280027D01*
X6399404Y56318000D01*
X6144595Y56318000D01*
X5892658Y56280027D01*
X5892652Y56280025D01*
X5649178Y56204923D01*
X5419620Y56094374D01*
X5384948Y56070737D01*
X6063488Y55392198D01*
X6038649Y55387257D01*
X5893058Y55326951D01*
X5762030Y55239401D01*
X5650599Y55127970D01*
X5563049Y54996942D01*
X5502743Y54851351D01*
X5497802Y54826513D01*
X4820458Y55503857D01*
X4736058Y55357672D01*
X4687428Y55233764D01*
X4644612Y55178550D01*
X4578742Y55155249D01*
X4510732Y55171260D01*
X4462173Y55221498D01*
X4456572Y55233764D01*
X4407941Y55357672D01*
X4407942Y55357672D01*
X4323540Y55503858D01*
X3646197Y54826514D01*
X3641257Y54851351D01*
X3580951Y54996942D01*
X3493401Y55127970D01*
X3381970Y55239401D01*
X3250942Y55326951D01*
X3105351Y55387257D01*
X3080512Y55392198D01*
X3759050Y56070737D01*
X3724384Y56094372D01*
X3724376Y56094377D01*
X3494823Y56204922D01*
X3494825Y56204922D01*
X3251347Y56280025D01*
X3251341Y56280027D01*
X2999404Y56318000D01*
X2744595Y56318000D01*
X2492658Y56280027D01*
X2492652Y56280025D01*
X2249178Y56204923D01*
X2019620Y56094374D01*
X1984948Y56070737D01*
X2663488Y55392198D01*
X2638649Y55387257D01*
X2493058Y55326951D01*
X2362030Y55239401D01*
X2250599Y55127970D01*
X2163049Y54996942D01*
X2102743Y54851351D01*
X2097802Y54826513D01*
X1431962Y55492353D01*
X1398477Y55553676D01*
X1400596Y55583309D01*
X1397000Y55583309D01*
X1397000Y58296000D01*
X1416685Y58363039D01*
X1469489Y58408794D01*
X1521000Y58420000D01*
X13846000Y58420000D01*
X13913039Y58400315D01*
G37*
%TD.AperFunction*%
%TD*%
M02*
