%TF.GenerationSoftware,KiCad,Pcbnew,8.0.3*%
%TF.CreationDate,2024-06-18T09:05:39+09:00*%
%TF.ProjectId,USB_power,5553425f-706f-4776-9572-2e6b69636164,rev?*%
%TF.SameCoordinates,PX79d7e50PY830c570*%
%TF.FileFunction,Soldermask,Top*%
%TF.FilePolarity,Negative*%
%FSLAX46Y46*%
G04 Gerber Fmt 4.6, Leading zero omitted, Abs format (unit mm)*
G04 Created by KiCad (PCBNEW 8.0.3) date 2024-06-18 09:05:39*
%MOMM*%
%LPD*%
G01*
G04 APERTURE LIST*
G04 Aperture macros list*
%AMRoundRect*
0 Rectangle with rounded corners*
0 $1 Rounding radius*
0 $2 $3 $4 $5 $6 $7 $8 $9 X,Y pos of 4 corners*
0 Add a 4 corners polygon primitive as box body*
4,1,4,$2,$3,$4,$5,$6,$7,$8,$9,$2,$3,0*
0 Add four circle primitives for the rounded corners*
1,1,$1+$1,$2,$3*
1,1,$1+$1,$4,$5*
1,1,$1+$1,$6,$7*
1,1,$1+$1,$8,$9*
0 Add four rect primitives between the rounded corners*
20,1,$1+$1,$2,$3,$4,$5,0*
20,1,$1+$1,$4,$5,$6,$7,0*
20,1,$1+$1,$6,$7,$8,$9,0*
20,1,$1+$1,$8,$9,$2,$3,0*%
G04 Aperture macros list end*
%ADD10RoundRect,0.250000X-0.450000X0.262500X-0.450000X-0.262500X0.450000X-0.262500X0.450000X0.262500X0*%
%ADD11RoundRect,0.250000X-0.262500X-0.450000X0.262500X-0.450000X0.262500X0.450000X-0.262500X0.450000X0*%
%ADD12C,3.200000*%
%ADD13R,1.524000X1.524000*%
%ADD14C,1.524000*%
%ADD15C,3.500000*%
%ADD16RoundRect,0.250000X0.450000X-0.262500X0.450000X0.262500X-0.450000X0.262500X-0.450000X-0.262500X0*%
%ADD17RoundRect,0.150000X0.425000X-0.150000X0.425000X0.150000X-0.425000X0.150000X-0.425000X-0.150000X0*%
%ADD18RoundRect,0.075000X0.500000X-0.075000X0.500000X0.075000X-0.500000X0.075000X-0.500000X-0.075000X0*%
%ADD19O,2.100000X1.000000*%
%ADD20O,1.800000X1.000000*%
%ADD21RoundRect,0.250000X-0.250000X-0.475000X0.250000X-0.475000X0.250000X0.475000X-0.250000X0.475000X0*%
%ADD22RoundRect,0.250000X0.250000X0.475000X-0.250000X0.475000X-0.250000X-0.475000X0.250000X-0.475000X0*%
%ADD23RoundRect,0.218750X0.112544X-0.317568X0.331294X0.061318X-0.112544X0.317568X-0.331294X-0.061318X0*%
%ADD24RoundRect,0.102000X-0.571500X-0.571500X0.571500X-0.571500X0.571500X0.571500X-0.571500X0.571500X0*%
%ADD25RoundRect,0.102000X-2.095500X-0.952500X2.095500X-0.952500X2.095500X0.952500X-2.095500X0.952500X0*%
%ADD26RoundRect,0.102000X-0.952500X-2.095500X0.952500X-2.095500X0.952500X2.095500X-0.952500X2.095500X0*%
%ADD27RoundRect,0.250000X-0.258461X0.452332X-0.520961X-0.002332X0.258461X-0.452332X0.520961X0.002332X0*%
%ADD28RoundRect,0.250000X-0.600000X-0.725000X0.600000X-0.725000X0.600000X0.725000X-0.600000X0.725000X0*%
%ADD29O,1.700000X1.950000*%
%ADD30R,1.500000X1.500000*%
%ADD31C,1.500000*%
%ADD32RoundRect,1.500000X1.500000X1.500000X-1.500000X1.500000X-1.500000X-1.500000X1.500000X-1.500000X0*%
%ADD33C,6.000000*%
%ADD34RoundRect,0.218750X-0.256250X0.218750X-0.256250X-0.218750X0.256250X-0.218750X0.256250X0.218750X0*%
G04 APERTURE END LIST*
D10*
%TO.C,R9*%
X21138318Y40536500D03*
X21138318Y38711500D03*
%TD*%
D11*
%TO.C,R2*%
X18391500Y8890000D03*
X20216500Y8890000D03*
%TD*%
D12*
%TO.C,H1*%
X3561518Y61970482D03*
%TD*%
%TO.C,H2*%
X38994518Y61970482D03*
%TD*%
D11*
%TO.C,R1*%
X16590000Y10922000D03*
X18415000Y10922000D03*
%TD*%
D13*
%TO.C,J5*%
X29457018Y24378482D03*
D14*
X29457018Y26878482D03*
X29457018Y28878482D03*
X29457018Y31378482D03*
D15*
X32167018Y21308482D03*
X32167018Y34448482D03*
%TD*%
D16*
%TO.C,R7*%
X23368000Y32742500D03*
X23368000Y34567500D03*
%TD*%
D17*
%TO.C,J4*%
X35187518Y9494482D03*
X35187518Y10294482D03*
D18*
X35187518Y11444482D03*
X35187518Y12444482D03*
X35187518Y12944482D03*
X35187518Y13944482D03*
D17*
X35187518Y15094482D03*
X35187518Y15894482D03*
X35187518Y15894482D03*
X35187518Y15094482D03*
D18*
X35187518Y14444482D03*
X35187518Y13444482D03*
X35187518Y11944482D03*
X35187518Y10944482D03*
D17*
X35187518Y10294482D03*
X35187518Y9494482D03*
D19*
X35762518Y8374482D03*
D20*
X39942518Y8374482D03*
D19*
X35762518Y17014482D03*
D20*
X39942518Y17014482D03*
%TD*%
D12*
%TO.C,H3*%
X38994518Y3550482D03*
%TD*%
D21*
%TO.C,C1*%
X10988000Y26924000D03*
X12888000Y26924000D03*
%TD*%
D22*
%TO.C,C10*%
X17785518Y44444482D03*
X15885518Y44444482D03*
%TD*%
D10*
%TO.C,R10*%
X23170318Y38709600D03*
X23170318Y36884600D03*
%TD*%
D23*
%TO.C,D1*%
X29578249Y11510004D03*
X30365751Y12873996D03*
%TD*%
D24*
%TO.C,MD2*%
X8641518Y36316482D03*
D25*
X9784518Y40888482D03*
X14356518Y40888482D03*
D26*
X17785518Y39745482D03*
D24*
X17785518Y36316482D03*
X17785518Y31744482D03*
X13213518Y31744482D03*
X10927518Y31744482D03*
X8641518Y31744482D03*
X8641518Y34030482D03*
X17785518Y34030482D03*
X15499518Y31744482D03*
%TD*%
D27*
%TO.C,R11*%
X28142250Y12474248D03*
X27229750Y10893752D03*
%TD*%
D28*
%TO.C,J3*%
X26207518Y59557482D03*
D29*
X28707518Y59557482D03*
%TD*%
D22*
%TO.C,C5*%
X17714000Y26924000D03*
X15814000Y26924000D03*
%TD*%
D30*
%TO.C,J2*%
X30231518Y42412482D03*
D31*
X30231518Y44912482D03*
X30231518Y46912482D03*
X30231518Y49412482D03*
X27611518Y42412482D03*
X27611518Y44912482D03*
X27611518Y46912482D03*
X27611518Y49412482D03*
D15*
X32941518Y39342482D03*
X32941518Y52482482D03*
X27261518Y39342482D03*
X27261518Y52482482D03*
%TD*%
D24*
%TO.C,MD1*%
X8636000Y18796000D03*
D25*
X9779000Y23368000D03*
X14351000Y23368000D03*
D26*
X17780000Y22225000D03*
D24*
X17780000Y18796000D03*
X17780000Y14224000D03*
X13208000Y14224000D03*
X10922000Y14224000D03*
X8636000Y14224000D03*
X8636000Y16510000D03*
X17780000Y16510000D03*
X15494000Y14224000D03*
%TD*%
D16*
%TO.C,R4*%
X24765000Y26519500D03*
X24765000Y28344500D03*
%TD*%
%TO.C,R5*%
X26797000Y28194000D03*
X26797000Y30019000D03*
%TD*%
D32*
%TO.C,J1*%
X18127518Y54096482D03*
D33*
X10927518Y54096482D03*
%TD*%
D34*
%TO.C,D2*%
X24892000Y44983500D03*
X24892000Y43408500D03*
%TD*%
D16*
%TO.C,R3*%
X22098000Y10818500D03*
X22098000Y8993500D03*
%TD*%
%TO.C,R6*%
X21336000Y32916500D03*
X21336000Y31091500D03*
%TD*%
D10*
%TO.C,R8*%
X25400000Y34585482D03*
X25400000Y32760482D03*
%TD*%
D16*
%TO.C,R12*%
X22352000Y44934500D03*
X22352000Y46759500D03*
%TD*%
D12*
%TO.C,H4*%
X3561518Y3550482D03*
%TD*%
D21*
%TO.C,C2*%
X11247518Y44444482D03*
X13147518Y44444482D03*
%TD*%
M02*
