M48
; DRILL file {KiCad 8.0.3} date 2024-06-17T18:15:36+0900
; FORMAT={-:-/ absolute / metric / decimal}
; #@! TF.CreationDate,2024-06-17T18:15:36+09:00
; #@! TF.GenerationSoftware,Kicad,Pcbnew,8.0.3
; #@! TF.FileFunction,MixedPlating,1,2
FMAT,2
METRIC
; #@! TA.AperFunction,Plated,PTH,ViaDrill
T1C0.300
; #@! TA.AperFunction,Plated,PTH,ComponentDrill
T2C0.600
; #@! TA.AperFunction,Plated,PTH,ViaDrill
T3C0.800
; #@! TA.AperFunction,Plated,PTH,ComponentDrill
T4C0.920
; #@! TA.AperFunction,Plated,PTH,ComponentDrill
T5C0.950
; #@! TA.AperFunction,Plated,PTH,ComponentDrill
T6C2.300
; #@! TA.AperFunction,Plated,PTH,ComponentDrill
T7C4.500
; #@! TA.AperFunction,NonPlated,NPTH,ComponentDrill
T8C3.200
%
G90
G05
T1
X7.112Y46.228
X7.112Y44.196
X7.118Y26.664
X7.118Y24.632
X9.144Y48.006
X9.144Y46.228
X9.15Y28.442
X9.15Y26.664
X11.176Y48.006
X11.176Y46.228
X11.182Y28.442
X11.182Y26.664
X15.621Y34.544
X15.627Y38.983
X15.627Y37.459
X15.627Y35.935
X15.754Y28.442
X15.754Y26.791
X15.754Y19.298
X15.754Y17.774
X15.754Y16.25
X15.754Y14.726
X18.294Y28.442
X18.294Y26.791
X18.294Y9.392
X18.294Y8.122
X19.818Y8.122
X23.374Y28.442
X25.914Y28.442
X31.248Y17.901
X31.248Y16.123
X33.407Y17.901
X33.407Y16.123
T3
X21.215Y14.853
X22.231Y20.568
X24.136Y20.568
X26.041Y20.568
X29.724Y8.63
X31.502Y8.63
X33.28Y14.345
X33.28Y11.932
X33.28Y8.63
X37.191Y15.107
X37.217Y10.154
X38.868Y15.107
X38.868Y10.154
X40.646Y15.107
X40.646Y10.154
T4
X27.612Y49.412
X27.612Y46.912
X27.612Y44.912
X27.612Y42.412
X29.457Y31.378
X29.457Y28.878
X29.457Y26.878
X29.457Y24.378
X30.232Y49.412
X30.232Y46.912
X30.232Y44.912
X30.232Y42.412
T5
X26.208Y59.557
X28.708Y59.557
T6
X27.262Y52.482
X27.262Y39.342
X32.167Y34.448
X32.167Y21.308
X32.942Y52.482
X32.942Y39.342
T7
X10.928Y54.096
X18.128Y54.096
T8
X3.562Y61.97
X3.562Y3.55
X38.995Y61.97
X38.995Y3.55
T2
G00X35.213Y17.014
M15
G01X36.313Y17.014
M16
G05
G00X35.213Y8.374
M15
G01X36.313Y8.374
M16
G05
G00X39.543Y17.014
M15
G01X40.343Y17.014
M16
G05
G00X39.543Y8.374
M15
G01X40.343Y8.374
M16
G05
M30
