%TF.GenerationSoftware,KiCad,Pcbnew,8.0.3*%
%TF.CreationDate,2024-06-19T16:29:22+09:00*%
%TF.ProjectId,USB_power,5553425f-706f-4776-9572-2e6b69636164,rev?*%
%TF.SameCoordinates,PX77e7cd0PY83695b8*%
%TF.FileFunction,Soldermask,Top*%
%TF.FilePolarity,Negative*%
%FSLAX46Y46*%
G04 Gerber Fmt 4.6, Leading zero omitted, Abs format (unit mm)*
G04 Created by KiCad (PCBNEW 8.0.3) date 2024-06-19 16:29:22*
%MOMM*%
%LPD*%
G01*
G04 APERTURE LIST*
G04 Aperture macros list*
%AMRoundRect*
0 Rectangle with rounded corners*
0 $1 Rounding radius*
0 $2 $3 $4 $5 $6 $7 $8 $9 X,Y pos of 4 corners*
0 Add a 4 corners polygon primitive as box body*
4,1,4,$2,$3,$4,$5,$6,$7,$8,$9,$2,$3,0*
0 Add four circle primitives for the rounded corners*
1,1,$1+$1,$2,$3*
1,1,$1+$1,$4,$5*
1,1,$1+$1,$6,$7*
1,1,$1+$1,$8,$9*
0 Add four rect primitives between the rounded corners*
20,1,$1+$1,$2,$3,$4,$5,0*
20,1,$1+$1,$4,$5,$6,$7,0*
20,1,$1+$1,$6,$7,$8,$9,0*
20,1,$1+$1,$8,$9,$2,$3,0*%
G04 Aperture macros list end*
%ADD10C,0.800000*%
%ADD11C,6.400000*%
%ADD12C,1.600000*%
%ADD13R,1.500000X1.500000*%
%ADD14RoundRect,0.250000X-0.262500X-0.450000X0.262500X-0.450000X0.262500X0.450000X-0.262500X0.450000X0*%
%ADD15C,2.604000*%
%ADD16RoundRect,0.250000X-0.450000X0.262500X-0.450000X-0.262500X0.450000X-0.262500X0.450000X0.262500X0*%
%ADD17RoundRect,0.250000X0.450000X-0.262500X0.450000X0.262500X-0.450000X0.262500X-0.450000X-0.262500X0*%
%ADD18O,1.800000X1.000000*%
%ADD19O,2.100000X1.000000*%
%ADD20RoundRect,0.150000X0.425000X-0.150000X0.425000X0.150000X-0.425000X0.150000X-0.425000X-0.150000X0*%
%ADD21RoundRect,0.075000X0.500000X-0.075000X0.500000X0.075000X-0.500000X0.075000X-0.500000X-0.075000X0*%
%ADD22RoundRect,0.250000X-0.250000X-0.475000X0.250000X-0.475000X0.250000X0.475000X-0.250000X0.475000X0*%
%ADD23RoundRect,0.250000X0.250000X0.475000X-0.250000X0.475000X-0.250000X-0.475000X0.250000X-0.475000X0*%
%ADD24RoundRect,0.218750X0.112544X-0.317568X0.331294X0.061318X-0.112544X0.317568X-0.331294X-0.061318X0*%
%ADD25RoundRect,0.102000X-0.571500X-0.571500X0.571500X-0.571500X0.571500X0.571500X-0.571500X0.571500X0*%
%ADD26RoundRect,0.102000X-0.952500X-2.095500X0.952500X-2.095500X0.952500X2.095500X-0.952500X2.095500X0*%
%ADD27RoundRect,0.102000X-2.095500X-0.952500X2.095500X-0.952500X2.095500X0.952500X-2.095500X0.952500X0*%
%ADD28RoundRect,0.250000X0.452332X0.258461X-0.002332X0.520961X-0.452332X-0.258461X0.002332X-0.520961X0*%
%ADD29O,1.700000X1.950000*%
%ADD30RoundRect,0.250000X-0.600000X-0.725000X0.600000X-0.725000X0.600000X0.725000X-0.600000X0.725000X0*%
%ADD31C,3.500000*%
%ADD32C,1.500000*%
%ADD33C,6.000000*%
%ADD34RoundRect,1.500000X1.500000X1.500000X-1.500000X1.500000X-1.500000X-1.500000X1.500000X-1.500000X0*%
%ADD35RoundRect,0.218750X-0.256250X0.218750X-0.256250X-0.218750X0.256250X-0.218750X0.256250X0.218750X0*%
G04 APERTURE END LIST*
D10*
%TO.C,H4*%
X1490944Y3856056D03*
X2193888Y5553112D03*
X2193888Y2159000D03*
X3890944Y6256056D03*
D11*
X3890944Y3856056D03*
D10*
X3890944Y1456056D03*
X5588000Y5553112D03*
X5588000Y2159000D03*
X6290944Y3856056D03*
%TD*%
%TO.C,H3*%
X38875000Y3810000D03*
X39577944Y5507056D03*
X39577944Y2112944D03*
X41275000Y6210000D03*
D11*
X41275000Y3810000D03*
D10*
X41275000Y1410000D03*
X42972056Y5507056D03*
X42972056Y2112944D03*
X43675000Y3810000D03*
%TD*%
%TO.C,H2*%
X38875000Y62230000D03*
X39577944Y63927056D03*
X39577944Y60532944D03*
X41275000Y64630000D03*
D11*
X41275000Y62230000D03*
D10*
X41275000Y59830000D03*
X42972056Y63927056D03*
X42972056Y60532944D03*
X43675000Y62230000D03*
%TD*%
%TO.C,H1*%
X1410000Y62230000D03*
X2112944Y63927056D03*
X2112944Y60532944D03*
X3810000Y64630000D03*
D11*
X3810000Y62230000D03*
D10*
X3810000Y59830000D03*
X5507056Y63927056D03*
X5507056Y60532944D03*
X6210000Y62230000D03*
%TD*%
D12*
%TO.C,SW1*%
X2540000Y26035000D03*
X2540000Y20955000D03*
D13*
X2540000Y23495000D03*
%TD*%
D14*
%TO.C,R14*%
X4214500Y31369000D03*
X2389500Y31369000D03*
%TD*%
%TO.C,R13*%
X2944500Y35179000D03*
X1119500Y35179000D03*
%TD*%
D15*
%TO.C,F1*%
X6272000Y54618000D03*
X2872000Y54618000D03*
X6272000Y41148000D03*
X2872000Y41148000D03*
%TD*%
D16*
%TO.C,R9*%
X23170318Y39600500D03*
X23170318Y41425500D03*
%TD*%
%TO.C,R2*%
X22606000Y9374500D03*
X22606000Y11199500D03*
%TD*%
D14*
%TO.C,R1*%
X20447000Y11303000D03*
X18622000Y11303000D03*
%TD*%
D17*
%TO.C,R7*%
X25400000Y34948500D03*
X25400000Y33123500D03*
%TD*%
D18*
%TO.C,J4*%
X41969000Y17909000D03*
D19*
X37789000Y17909000D03*
D18*
X41969000Y9269000D03*
D19*
X37789000Y9269000D03*
D20*
X37214000Y10389000D03*
X37214000Y11189000D03*
D21*
X37214000Y11839000D03*
X37214000Y12839000D03*
X37214000Y14339000D03*
X37214000Y15339000D03*
D20*
X37214000Y15989000D03*
X37214000Y16789000D03*
X37214000Y16789000D03*
X37214000Y15989000D03*
D21*
X37214000Y14839000D03*
X37214000Y13839000D03*
X37214000Y13339000D03*
X37214000Y12339000D03*
D20*
X37214000Y11189000D03*
X37214000Y10389000D03*
%TD*%
D22*
%TO.C,C1*%
X14920000Y27305000D03*
X13020000Y27305000D03*
%TD*%
D23*
%TO.C,C10*%
X17917518Y44825482D03*
X19817518Y44825482D03*
%TD*%
D16*
%TO.C,R10*%
X25654000Y37822500D03*
X25654000Y39647500D03*
%TD*%
D24*
%TO.C,D1*%
X32651751Y13762996D03*
X31864249Y12399004D03*
%TD*%
D25*
%TO.C,MD2*%
X17531518Y32125482D03*
X19817518Y34411482D03*
X10673518Y34411482D03*
X10673518Y32125482D03*
X12959518Y32125482D03*
X15245518Y32125482D03*
X19817518Y32125482D03*
X19817518Y36697482D03*
D26*
X19817518Y40126482D03*
D27*
X16388518Y41269482D03*
X11816518Y41269482D03*
D25*
X10673518Y36697482D03*
%TD*%
D28*
%TO.C,R11*%
X28546752Y13537250D03*
X30127248Y12624750D03*
%TD*%
D29*
%TO.C,J3*%
X30739518Y59938482D03*
D30*
X28239518Y59938482D03*
%TD*%
D23*
%TO.C,C5*%
X17846000Y27305000D03*
X19746000Y27305000D03*
%TD*%
D31*
%TO.C,J2*%
X29293518Y52863482D03*
X29293518Y39723482D03*
X34973518Y52863482D03*
X34973518Y39723482D03*
D32*
X29643518Y49793482D03*
X29643518Y47293482D03*
X29643518Y45293482D03*
X29643518Y42793482D03*
X32263518Y49793482D03*
X32263518Y47293482D03*
X32263518Y45293482D03*
D13*
X32263518Y42793482D03*
%TD*%
D25*
%TO.C,MD1*%
X17526000Y14605000D03*
X19812000Y16891000D03*
X10668000Y16891000D03*
X10668000Y14605000D03*
X12954000Y14605000D03*
X15240000Y14605000D03*
X19812000Y14605000D03*
X19812000Y19177000D03*
D26*
X19812000Y22606000D03*
D27*
X16383000Y23749000D03*
X11811000Y23749000D03*
D25*
X10668000Y19177000D03*
%TD*%
D17*
%TO.C,R4*%
X23876000Y27201500D03*
X23876000Y25376500D03*
%TD*%
%TO.C,R5*%
X25908000Y28876000D03*
X25908000Y27051000D03*
%TD*%
D33*
%TO.C,J1*%
X12959518Y54477482D03*
D34*
X20159518Y54477482D03*
%TD*%
D35*
%TO.C,D2*%
X24638000Y43281500D03*
X24638000Y44856500D03*
%TD*%
D17*
%TO.C,R3*%
X24638000Y11199500D03*
X24638000Y9374500D03*
%TD*%
%TO.C,R6*%
X23368000Y32027500D03*
X23368000Y30202500D03*
%TD*%
%TO.C,R8*%
X23368000Y36345500D03*
X23368000Y34520500D03*
%TD*%
%TO.C,R12*%
X26670000Y46632500D03*
X26670000Y44807500D03*
%TD*%
D31*
%TO.C,J5*%
X29210000Y34671000D03*
X29210000Y21531000D03*
X34890000Y34671000D03*
X34890000Y21531000D03*
D32*
X29560000Y31601000D03*
X29560000Y29101000D03*
X29560000Y27101000D03*
X29560000Y24601000D03*
X32180000Y31601000D03*
X32180000Y29101000D03*
X32180000Y27101000D03*
D13*
X32180000Y24601000D03*
%TD*%
D22*
%TO.C,C2*%
X15179518Y44825482D03*
X13279518Y44825482D03*
%TD*%
M02*
