%TF.GenerationSoftware,KiCad,Pcbnew,8.0.3*%
%TF.CreationDate,2024-06-17T17:54:11+09:00*%
%TF.ProjectId,USB_power,5553425f-706f-4776-9572-2e6b69636164,rev?*%
%TF.SameCoordinates,PX79d7e50PY830c570*%
%TF.FileFunction,Copper,L1,Top*%
%TF.FilePolarity,Positive*%
%FSLAX46Y46*%
G04 Gerber Fmt 4.6, Leading zero omitted, Abs format (unit mm)*
G04 Created by KiCad (PCBNEW 8.0.3) date 2024-06-17 17:54:11*
%MOMM*%
%LPD*%
G01*
G04 APERTURE LIST*
G04 Aperture macros list*
%AMRoundRect*
0 Rectangle with rounded corners*
0 $1 Rounding radius*
0 $2 $3 $4 $5 $6 $7 $8 $9 X,Y pos of 4 corners*
0 Add a 4 corners polygon primitive as box body*
4,1,4,$2,$3,$4,$5,$6,$7,$8,$9,$2,$3,0*
0 Add four circle primitives for the rounded corners*
1,1,$1+$1,$2,$3*
1,1,$1+$1,$4,$5*
1,1,$1+$1,$6,$7*
1,1,$1+$1,$8,$9*
0 Add four rect primitives between the rounded corners*
20,1,$1+$1,$2,$3,$4,$5,0*
20,1,$1+$1,$4,$5,$6,$7,0*
20,1,$1+$1,$6,$7,$8,$9,0*
20,1,$1+$1,$8,$9,$2,$3,0*%
G04 Aperture macros list end*
%TA.AperFunction,SMDPad,CuDef*%
%ADD10RoundRect,0.250000X-0.450000X0.262500X-0.450000X-0.262500X0.450000X-0.262500X0.450000X0.262500X0*%
%TD*%
%TA.AperFunction,SMDPad,CuDef*%
%ADD11RoundRect,0.250000X0.450000X-0.262500X0.450000X0.262500X-0.450000X0.262500X-0.450000X-0.262500X0*%
%TD*%
%TA.AperFunction,ComponentPad*%
%ADD12R,1.524000X1.524000*%
%TD*%
%TA.AperFunction,ComponentPad*%
%ADD13C,1.524000*%
%TD*%
%TA.AperFunction,ComponentPad*%
%ADD14C,3.500000*%
%TD*%
%TA.AperFunction,SMDPad,CuDef*%
%ADD15RoundRect,0.150000X0.425000X-0.150000X0.425000X0.150000X-0.425000X0.150000X-0.425000X-0.150000X0*%
%TD*%
%TA.AperFunction,SMDPad,CuDef*%
%ADD16RoundRect,0.075000X0.500000X-0.075000X0.500000X0.075000X-0.500000X0.075000X-0.500000X-0.075000X0*%
%TD*%
%TA.AperFunction,ComponentPad*%
%ADD17O,2.100000X1.000000*%
%TD*%
%TA.AperFunction,ComponentPad*%
%ADD18O,1.800000X1.000000*%
%TD*%
%TA.AperFunction,SMDPad,CuDef*%
%ADD19RoundRect,0.250000X-0.250000X-0.475000X0.250000X-0.475000X0.250000X0.475000X-0.250000X0.475000X0*%
%TD*%
%TA.AperFunction,SMDPad,CuDef*%
%ADD20RoundRect,0.250000X0.250000X0.475000X-0.250000X0.475000X-0.250000X-0.475000X0.250000X-0.475000X0*%
%TD*%
%TA.AperFunction,SMDPad,CuDef*%
%ADD21RoundRect,0.218750X0.112544X-0.317568X0.331294X0.061318X-0.112544X0.317568X-0.331294X-0.061318X0*%
%TD*%
%TA.AperFunction,SMDPad,CuDef*%
%ADD22R,1.143000X1.143000*%
%TD*%
%TA.AperFunction,SMDPad,CuDef*%
%ADD23R,4.191000X1.905000*%
%TD*%
%TA.AperFunction,SMDPad,CuDef*%
%ADD24R,1.905000X4.191000*%
%TD*%
%TA.AperFunction,SMDPad,CuDef*%
%ADD25RoundRect,0.250000X-0.258461X0.452332X-0.520961X-0.002332X0.258461X-0.452332X0.520961X0.002332X0*%
%TD*%
%TA.AperFunction,ComponentPad*%
%ADD26RoundRect,0.250000X-0.600000X-0.725000X0.600000X-0.725000X0.600000X0.725000X-0.600000X0.725000X0*%
%TD*%
%TA.AperFunction,ComponentPad*%
%ADD27O,1.700000X1.950000*%
%TD*%
%TA.AperFunction,ComponentPad*%
%ADD28R,1.500000X1.500000*%
%TD*%
%TA.AperFunction,ComponentPad*%
%ADD29C,1.500000*%
%TD*%
%TA.AperFunction,ComponentPad*%
%ADD30RoundRect,1.500000X1.500000X1.500000X-1.500000X1.500000X-1.500000X-1.500000X1.500000X-1.500000X0*%
%TD*%
%TA.AperFunction,ComponentPad*%
%ADD31C,6.000000*%
%TD*%
%TA.AperFunction,SMDPad,CuDef*%
%ADD32RoundRect,0.218750X-0.256250X0.218750X-0.256250X-0.218750X0.256250X-0.218750X0.256250X0.218750X0*%
%TD*%
%TA.AperFunction,ViaPad*%
%ADD33C,0.600000*%
%TD*%
%TA.AperFunction,ViaPad*%
%ADD34C,1.200000*%
%TD*%
%TA.AperFunction,Conductor*%
%ADD35C,0.635000*%
%TD*%
%TA.AperFunction,Conductor*%
%ADD36C,0.600000*%
%TD*%
%TA.AperFunction,Conductor*%
%ADD37C,1.270000*%
%TD*%
G04 APERTURE END LIST*
D10*
%TO.P,R9,1*%
%TO.N,+5VP*%
X21138318Y39767082D03*
%TO.P,R9,2*%
%TO.N,Net-(R10-Pad1)*%
X21138318Y37942082D03*
%TD*%
D11*
%TO.P,R2,1*%
%TO.N,Net-(R1-Pad2)*%
X23627518Y11424482D03*
%TO.P,R2,2*%
%TO.N,Net-(R2-Pad2)*%
X23627518Y13249482D03*
%TD*%
%TO.P,R1,1*%
%TO.N,Net-(MD1-TRIM)*%
X21595518Y10511982D03*
%TO.P,R1,2*%
%TO.N,Net-(R1-Pad2)*%
X21595518Y12336982D03*
%TD*%
D12*
%TO.P,J5,1,VBUS*%
%TO.N,+5V*%
X29457018Y24378482D03*
D13*
%TO.P,J5,2,D-*%
%TO.N,unconnected-(J5-D--Pad2)*%
X29457018Y26878482D03*
%TO.P,J5,3,D+*%
%TO.N,unconnected-(J5-D+-Pad3)*%
X29457018Y28878482D03*
%TO.P,J5,4,GND*%
%TO.N,GND*%
X29457018Y31378482D03*
D14*
%TO.P,J5,5,Shield*%
%TO.N,unconnected-(J5-Shield-Pad5)_0*%
X32167018Y21308482D03*
%TO.N,unconnected-(J5-Shield-Pad5)*%
X32167018Y34448482D03*
%TD*%
D11*
%TO.P,R7,1*%
%TO.N,Net-(R6-Pad2)*%
X23373518Y30982482D03*
%TO.P,R7,2*%
%TO.N,Net-(R7-Pad2)*%
X23373518Y32807482D03*
%TD*%
D15*
%TO.P,J4,A1,GND*%
%TO.N,GND*%
X35187518Y9494482D03*
%TO.P,J4,A4,VBUS*%
%TO.N,+5V*%
X35187518Y10294482D03*
D16*
%TO.P,J4,A5,CC1*%
%TO.N,unconnected-(J4-CC1-PadA5)*%
X35187518Y11444482D03*
%TO.P,J4,A6,D+*%
%TO.N,unconnected-(J4-D+-PadA6)*%
X35187518Y12444482D03*
%TO.P,J4,A7,D-*%
%TO.N,unconnected-(J4-D--PadA7)*%
X35187518Y12944482D03*
%TO.P,J4,A8,SBU1*%
%TO.N,unconnected-(J4-SBU1-PadA8)*%
X35187518Y13944482D03*
D15*
%TO.P,J4,A9,VBUS*%
%TO.N,+5V*%
X35187518Y15094482D03*
%TO.P,J4,A12,GND*%
%TO.N,GND*%
X35187518Y15894482D03*
%TO.P,J4,B1,GND*%
X35187518Y15894482D03*
%TO.P,J4,B4,VBUS*%
%TO.N,+5V*%
X35187518Y15094482D03*
D16*
%TO.P,J4,B5,CC2*%
%TO.N,unconnected-(J4-CC2-PadB5)*%
X35187518Y14444482D03*
%TO.P,J4,B6,D+*%
%TO.N,unconnected-(J4-D+-PadB6)*%
X35187518Y13444482D03*
%TO.P,J4,B7,D-*%
%TO.N,unconnected-(J4-D--PadB7)*%
X35187518Y11944482D03*
%TO.P,J4,B8,SBU2*%
%TO.N,unconnected-(J4-SBU2-PadB8)*%
X35187518Y10944482D03*
D15*
%TO.P,J4,B9,VBUS*%
%TO.N,+5V*%
X35187518Y10294482D03*
%TO.P,J4,B12,GND*%
%TO.N,GND*%
X35187518Y9494482D03*
D17*
%TO.P,J4,S1,SHIELD*%
%TO.N,unconnected-(J4-SHIELD-PadS1)_2*%
X35762518Y8374482D03*
D18*
%TO.N,unconnected-(J4-SHIELD-PadS1)_0*%
X39942518Y8374482D03*
D17*
%TO.N,unconnected-(J4-SHIELD-PadS1)*%
X35762518Y17014482D03*
D18*
%TO.N,unconnected-(J4-SHIELD-PadS1)_1*%
X39942518Y17014482D03*
%TD*%
D19*
%TO.P,C1,1*%
%TO.N,+BATT*%
X11247518Y24886482D03*
%TO.P,C1,2*%
%TO.N,GND*%
X13147518Y24886482D03*
%TD*%
D20*
%TO.P,C10,1*%
%TO.N,+5VP*%
X17785518Y44444482D03*
%TO.P,C10,2*%
%TO.N,GND*%
X15885518Y44444482D03*
%TD*%
D10*
%TO.P,R10,1*%
%TO.N,Net-(R10-Pad1)*%
X23170318Y37940182D03*
%TO.P,R10,2*%
%TO.N,GND*%
X23170318Y36115182D03*
%TD*%
D21*
%TO.P,D1,1,K*%
%TO.N,Net-(D1-K)*%
X30599767Y13409486D03*
%TO.P,D1,2,A*%
%TO.N,+5V*%
X31387269Y14773478D03*
%TD*%
D22*
%TO.P,MD2,1,~{ON}/OFF_CONTROL*%
%TO.N,GND*%
X8641518Y36316482D03*
D23*
%TO.P,MD2,2,VIN*%
%TO.N,+BATT*%
X9784518Y40888482D03*
%TO.P,MD2,3,1_GROUND*%
%TO.N,GND*%
X14356518Y40888482D03*
D24*
%TO.P,MD2,4,VOUT*%
%TO.N,+5VP*%
X17785518Y39745482D03*
D22*
%TO.P,MD2,5,SENSE*%
X17785518Y36316482D03*
%TO.P,MD2,6,TRIM*%
%TO.N,Net-(MD2-TRIM)*%
X17785518Y31744482D03*
%TO.P,MD2,7,2_GROUND*%
%TO.N,GND*%
X13213518Y31744482D03*
%TO.P,MD2,8,1_NC*%
%TO.N,unconnected-(MD2-1_NC-Pad8)*%
X10927518Y31744482D03*
%TO.P,MD2,9,2_NC*%
%TO.N,unconnected-(MD2-2_NC-Pad9)*%
X8641518Y31744482D03*
%TO.P,MD2,10,POWER_GOOD_OUT*%
%TO.N,unconnected-(MD2-POWER_GOOD_OUT-Pad10)*%
X8641518Y34030482D03*
%TO.P,MD2,11,3_NC*%
%TO.N,unconnected-(MD2-3_NC-Pad11)*%
X17785518Y34030482D03*
%TO.P,MD2,12,4_NC*%
%TO.N,unconnected-(MD2-4_NC-Pad12)*%
X15499518Y31744482D03*
%TD*%
D25*
%TO.P,R11,1*%
%TO.N,Net-(D1-K)*%
X28909768Y12341730D03*
%TO.P,R11,2*%
%TO.N,GND*%
X27997268Y10761234D03*
%TD*%
D26*
%TO.P,J3,1,Pin_1*%
%TO.N,GND*%
X26207518Y59557482D03*
D27*
%TO.P,J3,2,Pin_2*%
%TO.N,+BATT*%
X28707518Y59557482D03*
%TD*%
D20*
%TO.P,C5,1*%
%TO.N,+5V*%
X17973518Y24886482D03*
%TO.P,C5,2*%
%TO.N,GND*%
X16073518Y24886482D03*
%TD*%
D28*
%TO.P,J2,1,VBUS1*%
%TO.N,+5VP*%
X30231518Y42412482D03*
D29*
%TO.P,J2,2,D1-*%
%TO.N,unconnected-(J2-D1--Pad2)*%
X30231518Y44912482D03*
%TO.P,J2,3,D1+*%
%TO.N,unconnected-(J2-D1+-Pad3)*%
X30231518Y46912482D03*
%TO.P,J2,4,GND1*%
%TO.N,GND*%
X30231518Y49412482D03*
%TO.P,J2,5,VBUS2*%
%TO.N,+5VP*%
X27611518Y42412482D03*
%TO.P,J2,6,D2-*%
%TO.N,unconnected-(J2-D2--Pad6)*%
X27611518Y44912482D03*
%TO.P,J2,7,D2+*%
%TO.N,unconnected-(J2-D2+-Pad7)*%
X27611518Y46912482D03*
%TO.P,J2,8,GND2*%
%TO.N,GND*%
X27611518Y49412482D03*
D14*
%TO.P,J2,9,Shield*%
%TO.N,unconnected-(J2-Shield-Pad9)*%
X32941518Y39342482D03*
%TO.N,unconnected-(J2-Shield-Pad9)_1*%
X32941518Y52482482D03*
%TO.N,unconnected-(J2-Shield-Pad9)_0*%
X27261518Y39342482D03*
%TO.N,unconnected-(J2-Shield-Pad9)_2*%
X27261518Y52482482D03*
%TD*%
D22*
%TO.P,MD1,1,~{ON}/OFF_CONTROL*%
%TO.N,GND*%
X8895518Y16758482D03*
D23*
%TO.P,MD1,2,VIN*%
%TO.N,+BATT*%
X10038518Y21330482D03*
%TO.P,MD1,3,1_GROUND*%
%TO.N,GND*%
X14610518Y21330482D03*
D24*
%TO.P,MD1,4,VOUT*%
%TO.N,+5V*%
X18039518Y20187482D03*
D22*
%TO.P,MD1,5,SENSE*%
X18039518Y16758482D03*
%TO.P,MD1,6,TRIM*%
%TO.N,Net-(MD1-TRIM)*%
X18039518Y12186482D03*
%TO.P,MD1,7,2_GROUND*%
%TO.N,GND*%
X13467518Y12186482D03*
%TO.P,MD1,8,1_NC*%
%TO.N,unconnected-(MD1-1_NC-Pad8)*%
X11181518Y12186482D03*
%TO.P,MD1,9,2_NC*%
%TO.N,unconnected-(MD1-2_NC-Pad9)*%
X8895518Y12186482D03*
%TO.P,MD1,10,POWER_GOOD_OUT*%
%TO.N,unconnected-(MD1-POWER_GOOD_OUT-Pad10)*%
X8895518Y14472482D03*
%TO.P,MD1,11,3_NC*%
%TO.N,unconnected-(MD1-3_NC-Pad11)*%
X18039518Y14472482D03*
%TO.P,MD1,12,4_NC*%
%TO.N,unconnected-(MD1-4_NC-Pad12)*%
X15753518Y12186482D03*
%TD*%
D10*
%TO.P,R4,1*%
%TO.N,+5V*%
X21290718Y18813982D03*
%TO.P,R4,2*%
%TO.N,Net-(R4-Pad2)*%
X21290718Y16988982D03*
%TD*%
%TO.P,R5,1*%
%TO.N,Net-(R4-Pad2)*%
X23373518Y16908982D03*
%TO.P,R5,2*%
%TO.N,GND*%
X23373518Y15083982D03*
%TD*%
D30*
%TO.P,J1,1,Pin_1*%
%TO.N,GND*%
X18127518Y54096482D03*
D31*
%TO.P,J1,2,Pin_2*%
%TO.N,+BATT*%
X10927518Y54096482D03*
%TD*%
D32*
%TO.P,D2,1,K*%
%TO.N,Net-(D2-K)*%
X24892000Y44983500D03*
%TO.P,D2,2,A*%
%TO.N,+5VP*%
X24892000Y43408500D03*
%TD*%
D11*
%TO.P,R3,1*%
%TO.N,Net-(R2-Pad2)*%
X25659518Y12035982D03*
%TO.P,R3,2*%
%TO.N,GND*%
X25659518Y13860982D03*
%TD*%
%TO.P,R6,1*%
%TO.N,Net-(MD2-TRIM)*%
X21341518Y29157482D03*
%TO.P,R6,2*%
%TO.N,Net-(R6-Pad2)*%
X21341518Y30982482D03*
%TD*%
%TO.P,R8,1*%
%TO.N,Net-(R7-Pad2)*%
X25405518Y32760482D03*
%TO.P,R8,2*%
%TO.N,GND*%
X25405518Y34585482D03*
%TD*%
%TO.P,R12,1*%
%TO.N,Net-(D2-K)*%
X22352000Y44934500D03*
%TO.P,R12,2*%
%TO.N,GND*%
X22352000Y46759500D03*
%TD*%
D19*
%TO.P,C2,1*%
%TO.N,+BATT*%
X11247518Y44444482D03*
%TO.P,C2,2*%
%TO.N,GND*%
X13147518Y44444482D03*
%TD*%
D33*
%TO.N,+BATT*%
X9144000Y46228000D03*
X11176000Y46228000D03*
X7112000Y44196000D03*
X11176000Y48006000D03*
X9144000Y48006000D03*
X7112000Y46228000D03*
%TO.N,GND*%
X18293518Y26791482D03*
X18293518Y9392482D03*
X15626518Y38983482D03*
D34*
X38867518Y15107482D03*
D33*
X15753518Y17774482D03*
D34*
X37216518Y10154482D03*
D33*
X18293518Y28442482D03*
X15753518Y28442482D03*
D34*
X37191118Y15107482D03*
X38867518Y10154482D03*
D33*
X18293518Y8122482D03*
D34*
X29723518Y8630482D03*
D33*
X23373518Y28442482D03*
X15753518Y26791482D03*
D34*
X40645518Y10154482D03*
D33*
X15626518Y35935482D03*
D34*
X33279518Y8630482D03*
X40645518Y15107482D03*
X31501518Y8630482D03*
D33*
X15753518Y19298482D03*
X19817518Y8122482D03*
X15626518Y37459482D03*
X25913518Y28442482D03*
D34*
X21214518Y14853482D03*
%TO.N,+5V*%
X33279518Y11932482D03*
D33*
X33406518Y16123482D03*
X33406518Y17901482D03*
D34*
X24135518Y20568482D03*
X26040518Y20568482D03*
D33*
X31247518Y16123482D03*
D34*
X33279518Y14345482D03*
X22230518Y20568482D03*
D33*
X31247518Y17901482D03*
%TO.N,+BATT*%
X7117518Y24632482D03*
X9149518Y28442482D03*
X7117518Y26664482D03*
X11181518Y28442482D03*
X9149518Y26664482D03*
X11181518Y26664482D03*
%TO.N,GND*%
X15621000Y34544000D03*
X15753518Y16250482D03*
X15753518Y14726482D03*
%TD*%
D35*
%TO.N,GND*%
X8641518Y36316482D02*
X13213518Y31744482D01*
X8895518Y16758482D02*
X13467518Y12186482D01*
D36*
%TO.N,Net-(D2-K)*%
X22401000Y44983500D02*
X24892000Y44983500D01*
X22352000Y44934500D02*
X22401000Y44983500D01*
%TO.N,GND*%
X36556518Y9494482D02*
X35187518Y9494482D01*
D37*
X15753518Y19298482D02*
X15753518Y20187482D01*
D35*
X13147518Y42097482D02*
X14356518Y40888482D01*
X13213518Y31744482D02*
X13213518Y31871482D01*
D36*
X37191118Y15107482D02*
X37089118Y15005482D01*
X37191118Y15107482D02*
X36404118Y15894482D01*
D37*
X14356518Y40888482D02*
X15626518Y39618482D01*
D36*
X36404118Y15894482D02*
X35187518Y15894482D01*
X35187518Y9494482D02*
X34143518Y9494482D01*
X37216518Y10154482D02*
X36556518Y9494482D01*
D35*
X13467518Y12186482D02*
X13467518Y12376982D01*
D37*
X18127518Y54096482D02*
X20746518Y54096482D01*
X20746518Y54096482D02*
X26207518Y59557482D01*
X15626518Y39618482D02*
X15626518Y39364482D01*
X15626518Y37332482D02*
X15626518Y35808482D01*
D36*
X29723518Y8630482D02*
X33279518Y8630482D01*
D35*
X13147518Y44444482D02*
X13147518Y42097482D01*
D37*
X15626518Y38983482D02*
X15626518Y37332482D01*
X15626518Y39364482D02*
X15626518Y38983482D01*
X15753518Y17774482D02*
X15753518Y19298482D01*
X15753518Y20187482D02*
X14610518Y21330482D01*
D36*
X34143518Y9494482D02*
X33279518Y8630482D01*
D35*
%TO.N,+5V*%
X18039518Y20187482D02*
X18039518Y24820482D01*
X21290718Y19628682D02*
X22230518Y20568482D01*
X21290718Y18813982D02*
X21290718Y19628682D01*
X18039518Y16758482D02*
X18039518Y20187482D01*
D37*
X18420518Y20568482D02*
X18039518Y20187482D01*
X18039518Y21161482D02*
X18039518Y20187482D01*
D35*
X18039518Y24820482D02*
X17973518Y24886482D01*
D37*
X26040518Y20568482D02*
X18420518Y20568482D01*
D35*
%TO.N,Net-(MD1-TRIM)*%
X18039518Y12186482D02*
X19921018Y12186482D01*
X19921018Y12186482D02*
X21595518Y10511982D01*
D36*
%TO.N,Net-(R1-Pad2)*%
X21595518Y12336982D02*
X21699018Y12336982D01*
D35*
X23627518Y11424482D02*
X22508018Y11424482D01*
X22508018Y11424482D02*
X21595518Y12336982D01*
%TO.N,Net-(R2-Pad2)*%
X23627518Y13249482D02*
X24446018Y13249482D01*
X24446018Y13249482D02*
X25659518Y12035982D01*
%TO.N,Net-(R4-Pad2)*%
X23016018Y16988982D02*
X23096018Y16908982D01*
X21290718Y16988982D02*
X23016018Y16988982D01*
X23096018Y16908982D02*
X23373518Y16908982D01*
D37*
%TO.N,+BATT*%
X28707518Y60319482D02*
X28707518Y59557482D01*
X11805482Y54096482D02*
X19298482Y61589482D01*
X19298482Y61589482D02*
X27437518Y61589482D01*
X10883518Y54096482D02*
X11805482Y54096482D01*
X27437518Y61589482D02*
X28707518Y60319482D01*
D35*
%TO.N,Net-(MD2-TRIM)*%
X17785518Y31744482D02*
X20325518Y29204482D01*
X21294518Y29204482D02*
X21341518Y29157482D01*
X20325518Y29204482D02*
X21294518Y29204482D01*
%TO.N,Net-(R6-Pad2)*%
X23373518Y30982482D02*
X21341518Y30982482D01*
%TO.N,Net-(R7-Pad2)*%
X23420518Y32760482D02*
X23373518Y32807482D01*
X25405518Y32760482D02*
X23420518Y32760482D01*
%TO.N,Net-(R10-Pad1)*%
X21138318Y37942082D02*
X23168418Y37942082D01*
X23168418Y37942082D02*
X23170318Y37940182D01*
%TO.N,+5VP*%
X17785518Y36316482D02*
X17785518Y39745482D01*
X21116718Y39745482D02*
X21138318Y39767082D01*
D36*
%TO.N,Net-(D1-K)*%
X29532012Y12341730D02*
X30599768Y13409486D01*
X28909768Y12341730D02*
X29532012Y12341730D01*
D37*
%TO.N,GND*%
X15626518Y35808482D02*
X15626518Y34411482D01*
X15753518Y16250482D02*
X15753518Y16313982D01*
X15753518Y16313982D02*
X15753518Y17774482D01*
X15753518Y16313982D02*
X15753518Y16313982D01*
X15753518Y14726482D02*
X15753518Y14853482D01*
X15753518Y14853482D02*
X15753518Y16250482D01*
X15753518Y14662982D02*
X15753518Y14726482D01*
%TD*%
%TA.AperFunction,Conductor*%
%TO.N,GND*%
G36*
X41993057Y58019315D02*
G01*
X42038812Y57966511D01*
X42050018Y57915000D01*
X42050018Y7616910D01*
X42030333Y7549871D01*
X41977529Y7504116D01*
X41926041Y7492910D01*
X41175113Y7492771D01*
X41108070Y7512443D01*
X41062305Y7565239D01*
X41052349Y7634395D01*
X41081362Y7697956D01*
X41087410Y7704453D01*
X41119654Y7736697D01*
X41119657Y7736700D01*
X41229150Y7900568D01*
X41304569Y8082647D01*
X41343018Y8275941D01*
X41343018Y8473023D01*
X41343018Y8473026D01*
X41304570Y8666312D01*
X41304569Y8666313D01*
X41304569Y8666317D01*
X41255203Y8785499D01*
X41229153Y8848390D01*
X41229146Y8848403D01*
X41119657Y9012264D01*
X41119654Y9012268D01*
X40980303Y9151619D01*
X40980299Y9151622D01*
X40816438Y9261111D01*
X40816425Y9261118D01*
X40634357Y9336532D01*
X40634347Y9336535D01*
X40441061Y9374982D01*
X40441059Y9374982D01*
X39443977Y9374982D01*
X39443975Y9374982D01*
X39250688Y9336535D01*
X39250678Y9336532D01*
X39068610Y9261118D01*
X39068597Y9261111D01*
X38904736Y9151622D01*
X38904732Y9151619D01*
X38765381Y9012268D01*
X38765378Y9012264D01*
X38655889Y8848403D01*
X38655882Y8848390D01*
X38580468Y8666322D01*
X38580465Y8666312D01*
X38542018Y8473026D01*
X38542018Y8473023D01*
X38542018Y8275941D01*
X38542018Y8275939D01*
X38542017Y8275939D01*
X38580465Y8082653D01*
X38580468Y8082643D01*
X38655882Y7900575D01*
X38655889Y7900562D01*
X38765378Y7736701D01*
X38765381Y7736697D01*
X38798082Y7703996D01*
X38831567Y7642673D01*
X38826583Y7572981D01*
X38784711Y7517048D01*
X38719247Y7492631D01*
X38710424Y7492315D01*
X37144368Y7492026D01*
X37077325Y7511698D01*
X37031560Y7564494D01*
X37021604Y7633650D01*
X37050617Y7697211D01*
X37056665Y7703708D01*
X37089654Y7736697D01*
X37089657Y7736700D01*
X37199150Y7900568D01*
X37274569Y8082647D01*
X37313018Y8275941D01*
X37313018Y8473023D01*
X37313018Y8473026D01*
X37274570Y8666312D01*
X37274569Y8666313D01*
X37274569Y8666317D01*
X37225203Y8785499D01*
X37199153Y8848390D01*
X37199146Y8848403D01*
X37089657Y9012264D01*
X37089654Y9012268D01*
X36950303Y9151619D01*
X36950299Y9151622D01*
X36786438Y9261111D01*
X36786425Y9261118D01*
X36604357Y9336532D01*
X36604347Y9336535D01*
X36411061Y9374982D01*
X36411059Y9374982D01*
X36042524Y9374982D01*
X35975485Y9394667D01*
X35929730Y9447471D01*
X35919786Y9516629D01*
X35948811Y9580185D01*
X35979404Y9605714D01*
X36014376Y9626397D01*
X36014375Y9626397D01*
X36014383Y9626401D01*
X36130599Y9742617D01*
X36130601Y9742622D01*
X36133597Y9746482D01*
X36190240Y9787389D01*
X36231577Y9794482D01*
X36245814Y9794482D01*
X36245814Y9794483D01*
X36227073Y9858991D01*
X36227073Y9928180D01*
X36260116Y10041913D01*
X36263018Y10078788D01*
X36263018Y10510176D01*
X36260116Y10547051D01*
X36237950Y10623345D01*
X36238149Y10693210D01*
X36242464Y10705388D01*
X36248205Y10719246D01*
X36263018Y10831762D01*
X36263018Y11057202D01*
X36248205Y11169718D01*
X36248204Y11169719D01*
X36247144Y11177777D01*
X36250207Y11178181D01*
X36250207Y11210784D01*
X36247144Y11211187D01*
X36252053Y11248473D01*
X36263018Y11331762D01*
X36263018Y11557202D01*
X36248205Y11669718D01*
X36248204Y11669719D01*
X36247144Y11677777D01*
X36250207Y11678181D01*
X36250207Y11710784D01*
X36247144Y11711187D01*
X36248296Y11719941D01*
X36263018Y11831762D01*
X36263018Y12057202D01*
X36248205Y12169718D01*
X36248204Y12169719D01*
X36247144Y12177777D01*
X36250207Y12178181D01*
X36250207Y12210784D01*
X36247144Y12211187D01*
X36249606Y12229886D01*
X36263018Y12331762D01*
X36263018Y12557202D01*
X36248205Y12669718D01*
X36248204Y12669719D01*
X36247144Y12677777D01*
X36250207Y12678181D01*
X36250207Y12710784D01*
X36247144Y12711187D01*
X36259607Y12805855D01*
X36263018Y12831762D01*
X36263018Y13057202D01*
X36248205Y13169718D01*
X36248204Y13169719D01*
X36247144Y13177777D01*
X36250207Y13178181D01*
X36250207Y13210784D01*
X36247144Y13211187D01*
X36251721Y13245952D01*
X36263018Y13331762D01*
X36263018Y13557202D01*
X36248205Y13669718D01*
X36248204Y13669719D01*
X36247144Y13677777D01*
X36250207Y13678181D01*
X36250207Y13710784D01*
X36247144Y13711187D01*
X36248205Y13719246D01*
X36263018Y13831762D01*
X36263018Y14057202D01*
X36248205Y14169718D01*
X36248204Y14169719D01*
X36247144Y14177777D01*
X36250207Y14178181D01*
X36250207Y14210784D01*
X36247144Y14211187D01*
X36249511Y14229167D01*
X36263018Y14331762D01*
X36263018Y14557202D01*
X36248205Y14669718D01*
X36242466Y14683572D01*
X36234995Y14753037D01*
X36237945Y14765606D01*
X36260116Y14841913D01*
X36263018Y14878788D01*
X36263018Y15310176D01*
X36260116Y15347051D01*
X36227073Y15460785D01*
X36227073Y15529974D01*
X36245815Y15594482D01*
X36231577Y15594482D01*
X36164538Y15614167D01*
X36133597Y15642482D01*
X36130595Y15646352D01*
X36014388Y15762559D01*
X36014376Y15762568D01*
X35979404Y15783250D01*
X35931720Y15834318D01*
X35919216Y15903060D01*
X35945861Y15967650D01*
X36003196Y16007580D01*
X36042524Y16013982D01*
X36411061Y16013982D01*
X36550254Y16041670D01*
X36604353Y16052431D01*
X36786432Y16127850D01*
X36950300Y16237343D01*
X37089657Y16376700D01*
X37199150Y16540568D01*
X37274569Y16722647D01*
X37313018Y16915939D01*
X38542017Y16915939D01*
X38580465Y16722653D01*
X38580468Y16722643D01*
X38655882Y16540575D01*
X38655889Y16540562D01*
X38765378Y16376701D01*
X38765381Y16376697D01*
X38904732Y16237346D01*
X38904736Y16237343D01*
X39068597Y16127854D01*
X39068610Y16127847D01*
X39247450Y16053770D01*
X39250683Y16052431D01*
X39250687Y16052431D01*
X39250688Y16052430D01*
X39443974Y16013982D01*
X39443977Y16013982D01*
X40441061Y16013982D01*
X40580254Y16041670D01*
X40634353Y16052431D01*
X40816432Y16127850D01*
X40980300Y16237343D01*
X41119657Y16376700D01*
X41229150Y16540568D01*
X41304569Y16722647D01*
X41343018Y16915941D01*
X41343018Y17113023D01*
X41343018Y17113026D01*
X41304570Y17306312D01*
X41304569Y17306313D01*
X41304569Y17306317D01*
X41263992Y17404279D01*
X41229153Y17488390D01*
X41229146Y17488403D01*
X41119657Y17652264D01*
X41119654Y17652268D01*
X40980303Y17791619D01*
X40980299Y17791622D01*
X40816438Y17901111D01*
X40816425Y17901118D01*
X40634357Y17976532D01*
X40634347Y17976535D01*
X40441061Y18014982D01*
X40441059Y18014982D01*
X39443977Y18014982D01*
X39443975Y18014982D01*
X39250688Y17976535D01*
X39250678Y17976532D01*
X39068610Y17901118D01*
X39068597Y17901111D01*
X38904736Y17791622D01*
X38904732Y17791619D01*
X38765381Y17652268D01*
X38765378Y17652264D01*
X38655889Y17488403D01*
X38655882Y17488390D01*
X38580468Y17306322D01*
X38580465Y17306312D01*
X38542018Y17113026D01*
X38542018Y17113023D01*
X38542018Y16915941D01*
X38542018Y16915939D01*
X38542017Y16915939D01*
X37313018Y16915939D01*
X37313018Y16915941D01*
X37313018Y17113023D01*
X37313018Y17113026D01*
X37274570Y17306312D01*
X37274569Y17306313D01*
X37274569Y17306317D01*
X37233992Y17404279D01*
X37199153Y17488390D01*
X37199146Y17488403D01*
X37089657Y17652264D01*
X37089654Y17652268D01*
X36950303Y17791619D01*
X36950299Y17791622D01*
X36786438Y17901111D01*
X36786425Y17901118D01*
X36604357Y17976532D01*
X36604347Y17976535D01*
X36411061Y18014982D01*
X36411059Y18014982D01*
X36322018Y18014982D01*
X36254979Y18034667D01*
X36209224Y18087471D01*
X36198018Y18138982D01*
X36198018Y25270472D01*
X36198018Y25270482D01*
X36186465Y25377938D01*
X36175259Y25429449D01*
X36175155Y25429760D01*
X36141134Y25531980D01*
X36141131Y25531986D01*
X36063346Y25653020D01*
X36063343Y25653025D01*
X36063338Y25653031D01*
X36017594Y25705823D01*
X36017590Y25705826D01*
X36017588Y25705829D01*
X35908854Y25800049D01*
X35908851Y25800051D01*
X35908849Y25800052D01*
X35777983Y25859818D01*
X35777978Y25859820D01*
X35777977Y25859820D01*
X35710938Y25879505D01*
X35710940Y25879505D01*
X35710935Y25879506D01*
X35648865Y25888430D01*
X35568518Y25899982D01*
X35568516Y25899982D01*
X30551296Y25899982D01*
X30484257Y25919667D01*
X30438502Y25972471D01*
X30428558Y26041629D01*
X30449721Y26095105D01*
X30554549Y26244816D01*
X30554548Y26244816D01*
X30554552Y26244820D01*
X30647912Y26445032D01*
X30705088Y26658414D01*
X30724341Y26878482D01*
X30705088Y27098550D01*
X30647912Y27311932D01*
X30554552Y27512143D01*
X30427844Y27693102D01*
X30427842Y27693105D01*
X30330145Y27790802D01*
X30296660Y27852125D01*
X30301644Y27921817D01*
X30330141Y27966160D01*
X30427844Y28063862D01*
X30554552Y28244820D01*
X30647912Y28445032D01*
X30705088Y28658414D01*
X30724341Y28878482D01*
X30705088Y29098550D01*
X30647912Y29311932D01*
X30554552Y29512143D01*
X30427844Y29693102D01*
X30271638Y29849308D01*
X30271634Y29849311D01*
X30271633Y29849312D01*
X30090684Y29976014D01*
X30090681Y29976016D01*
X30090680Y29976016D01*
X30042709Y29998386D01*
X30004126Y30016377D01*
X29951687Y30062550D01*
X29932535Y30129743D01*
X29952751Y30196624D01*
X30004127Y30241142D01*
X30020867Y30248948D01*
X29457019Y30812797D01*
X29457018Y30812797D01*
X28893166Y30248947D01*
X28909909Y30241140D01*
X28962348Y30194968D01*
X28981500Y30127774D01*
X28961284Y30060893D01*
X28909909Y30016376D01*
X28823358Y29976017D01*
X28823356Y29976016D01*
X28642395Y29849307D01*
X28486193Y29693105D01*
X28359484Y29512144D01*
X28359483Y29512142D01*
X28266125Y29311934D01*
X28266122Y29311928D01*
X28208948Y29098553D01*
X28208947Y29098545D01*
X28189695Y28878485D01*
X28189695Y28878480D01*
X28208947Y28658420D01*
X28208948Y28658412D01*
X28266122Y28445037D01*
X28266123Y28445035D01*
X28266124Y28445032D01*
X28310362Y28350163D01*
X28359484Y28244820D01*
X28359486Y28244816D01*
X28486188Y28063867D01*
X28486193Y28063861D01*
X28583890Y27966164D01*
X28617375Y27904841D01*
X28612391Y27835149D01*
X28583891Y27790802D01*
X28486190Y27693101D01*
X28359484Y27512144D01*
X28359483Y27512142D01*
X28266125Y27311934D01*
X28266122Y27311928D01*
X28208948Y27098553D01*
X28208947Y27098545D01*
X28189695Y26878485D01*
X28189695Y26878480D01*
X28208947Y26658420D01*
X28208948Y26658412D01*
X28266122Y26445037D01*
X28266123Y26445035D01*
X28266124Y26445032D01*
X28359484Y26244820D01*
X28359486Y26244816D01*
X28464315Y26095105D01*
X28486642Y26028899D01*
X28469632Y25961132D01*
X28418684Y25913319D01*
X28362740Y25899982D01*
X21211518Y25899982D01*
X21211509Y25899982D01*
X21211508Y25899981D01*
X21104067Y25888430D01*
X21104055Y25888428D01*
X21052545Y25877222D01*
X20950020Y25843099D01*
X20950014Y25843096D01*
X20828980Y25765311D01*
X20828969Y25765303D01*
X20776177Y25719559D01*
X20681951Y25610818D01*
X20681948Y25610814D01*
X20622182Y25479948D01*
X20602494Y25412900D01*
X20597467Y25377933D01*
X20582020Y25270492D01*
X20582018Y25270481D01*
X20582018Y21827982D01*
X20562333Y21760943D01*
X20509529Y21715188D01*
X20458018Y21703982D01*
X19616517Y21703982D01*
X19549478Y21723667D01*
X19503723Y21776471D01*
X19492517Y21827982D01*
X19492517Y22330853D01*
X19492516Y22330859D01*
X19486109Y22390466D01*
X19435815Y22525311D01*
X19435811Y22525318D01*
X19349565Y22640527D01*
X19349562Y22640530D01*
X19234353Y22726776D01*
X19234346Y22726780D01*
X19099500Y22777074D01*
X19099501Y22777074D01*
X19039901Y22783481D01*
X19039899Y22783482D01*
X19039891Y22783482D01*
X19039883Y22783482D01*
X18981518Y22783482D01*
X18914479Y22803167D01*
X18868724Y22855971D01*
X18857518Y22907482D01*
X18857518Y23974599D01*
X18875978Y24039695D01*
X18908332Y24092148D01*
X18963517Y24258685D01*
X18974018Y24361473D01*
X18974017Y25411490D01*
X18972182Y25429449D01*
X18963517Y25514279D01*
X18963516Y25514282D01*
X18931527Y25610818D01*
X18908332Y25680816D01*
X18816230Y25830138D01*
X18692174Y25954194D01*
X18571057Y26028899D01*
X18542854Y26046295D01*
X18542849Y26046297D01*
X18489841Y26063862D01*
X18376315Y26101481D01*
X18376313Y26101482D01*
X18273528Y26111982D01*
X17673516Y26111982D01*
X17673498Y26111981D01*
X17570721Y26101482D01*
X17570718Y26101481D01*
X17404186Y26046297D01*
X17404181Y26046295D01*
X17254860Y25954193D01*
X17130806Y25830139D01*
X17130801Y25830133D01*
X17128759Y25826821D01*
X17126765Y25825029D01*
X17126325Y25824471D01*
X17126229Y25824547D01*
X17076809Y25780099D01*
X17007846Y25768880D01*
X16943765Y25796727D01*
X16917686Y25826826D01*
X16915837Y25829823D01*
X16915834Y25829827D01*
X16791863Y25953798D01*
X16642642Y26045839D01*
X16642637Y26045841D01*
X16476213Y26100988D01*
X16473518Y26101264D01*
X16473518Y23671702D01*
X16476212Y23671977D01*
X16476219Y23671978D01*
X16642637Y23727124D01*
X16642642Y23727126D01*
X16791863Y23819167D01*
X16915836Y23943140D01*
X16917683Y23946134D01*
X16919487Y23947758D01*
X16920316Y23948805D01*
X16920494Y23948664D01*
X16969628Y23992861D01*
X17038591Y24004086D01*
X17102674Y23976246D01*
X17128761Y23946141D01*
X17130806Y23942826D01*
X17130807Y23942825D01*
X17185199Y23888433D01*
X17218684Y23827110D01*
X17221518Y23800752D01*
X17221518Y22907482D01*
X17201833Y22840443D01*
X17149029Y22794688D01*
X17097520Y22783482D01*
X17039148Y22783482D01*
X17039141Y22783481D01*
X16979536Y22777074D01*
X16939134Y22762005D01*
X16869442Y22757022D01*
X16852470Y22762006D01*
X16813398Y22776579D01*
X16813390Y22776581D01*
X16753862Y22782982D01*
X15010518Y22782982D01*
X15010518Y19877982D01*
X16462519Y19877982D01*
X16529558Y19858297D01*
X16575313Y19805493D01*
X16586519Y19753982D01*
X16586519Y18044106D01*
X16592926Y17984499D01*
X16643220Y17849654D01*
X16643224Y17849647D01*
X16729470Y17734438D01*
X16729473Y17734435D01*
X16844682Y17648189D01*
X16844691Y17648184D01*
X16910956Y17623469D01*
X16966890Y17581598D01*
X16991308Y17516134D01*
X16983807Y17463956D01*
X16973926Y17437465D01*
X16967519Y17377866D01*
X16967519Y17377859D01*
X16967518Y17377847D01*
X16967518Y16139112D01*
X16967519Y16139106D01*
X16973926Y16079499D01*
X17024220Y15944654D01*
X17024224Y15944647D01*
X17110470Y15829438D01*
X17110473Y15829435D01*
X17225682Y15743189D01*
X17225689Y15743185D01*
X17256578Y15731664D01*
X17312512Y15689793D01*
X17336929Y15624329D01*
X17322077Y15556056D01*
X17272672Y15506650D01*
X17256578Y15499300D01*
X17225689Y15487780D01*
X17225682Y15487776D01*
X17110473Y15401530D01*
X17110470Y15401527D01*
X17024224Y15286318D01*
X17024220Y15286311D01*
X16973926Y15151465D01*
X16968360Y15099689D01*
X16967519Y15091859D01*
X16967518Y15091847D01*
X16967518Y13853112D01*
X16967519Y13853106D01*
X16973926Y13793499D01*
X17024220Y13658654D01*
X17024224Y13658647D01*
X17110470Y13543438D01*
X17110473Y13543435D01*
X17225682Y13457189D01*
X17225689Y13457185D01*
X17256578Y13445664D01*
X17312512Y13403793D01*
X17336929Y13338329D01*
X17322077Y13270056D01*
X17272672Y13220650D01*
X17256578Y13213300D01*
X17225689Y13201780D01*
X17225682Y13201776D01*
X17110473Y13115530D01*
X17110470Y13115527D01*
X17024224Y13000318D01*
X17024220Y13000311D01*
X17012700Y12969422D01*
X16970829Y12913488D01*
X16905365Y12889071D01*
X16837092Y12903923D01*
X16787686Y12953328D01*
X16780336Y12969422D01*
X16768815Y13000311D01*
X16768811Y13000318D01*
X16682565Y13115527D01*
X16682562Y13115530D01*
X16567353Y13201776D01*
X16567346Y13201780D01*
X16432500Y13252074D01*
X16432501Y13252074D01*
X16372901Y13258481D01*
X16372899Y13258482D01*
X16372891Y13258482D01*
X16372882Y13258482D01*
X15134147Y13258482D01*
X15134141Y13258481D01*
X15074534Y13252074D01*
X14939689Y13201780D01*
X14939682Y13201776D01*
X14824473Y13115530D01*
X14824470Y13115527D01*
X14738224Y13000318D01*
X14738219Y13000308D01*
X14726432Y12968706D01*
X14684560Y12912773D01*
X14619096Y12888357D01*
X14550823Y12903209D01*
X14501418Y12952615D01*
X14494069Y12968708D01*
X14482372Y13000069D01*
X14482368Y13000076D01*
X14396208Y13115170D01*
X14396205Y13115173D01*
X14281111Y13201333D01*
X14281104Y13201337D01*
X14146397Y13251579D01*
X14146390Y13251581D01*
X14086862Y13257982D01*
X13867518Y13257982D01*
X13867518Y11114982D01*
X14086846Y11114982D01*
X14086862Y11114983D01*
X14146390Y11121384D01*
X14146397Y11121386D01*
X14281104Y11171628D01*
X14281111Y11171632D01*
X14396205Y11257792D01*
X14396208Y11257795D01*
X14482368Y11372889D01*
X14482373Y11372898D01*
X14494069Y11404256D01*
X14535939Y11460190D01*
X14601403Y11484608D01*
X14669676Y11469757D01*
X14719082Y11420352D01*
X14726433Y11404258D01*
X14738221Y11372652D01*
X14738224Y11372647D01*
X14824470Y11257438D01*
X14824473Y11257435D01*
X14939682Y11171189D01*
X14939689Y11171185D01*
X15074535Y11120891D01*
X15074534Y11120891D01*
X15081462Y11120147D01*
X15134145Y11114482D01*
X16372890Y11114483D01*
X16432501Y11120891D01*
X16567349Y11171186D01*
X16682564Y11257436D01*
X16768814Y11372651D01*
X16780336Y11403542D01*
X16822206Y11459476D01*
X16887670Y11483894D01*
X16955943Y11469043D01*
X17005349Y11419638D01*
X17012700Y11403542D01*
X17024219Y11372656D01*
X17024224Y11372647D01*
X17110470Y11257438D01*
X17110473Y11257435D01*
X17225682Y11171189D01*
X17225689Y11171185D01*
X17360535Y11120891D01*
X17360534Y11120891D01*
X17367462Y11120147D01*
X17420145Y11114482D01*
X18658890Y11114483D01*
X18718501Y11120891D01*
X18853349Y11171186D01*
X18968564Y11257436D01*
X19014497Y11318794D01*
X19070431Y11360664D01*
X19113763Y11368482D01*
X19530829Y11368482D01*
X19597868Y11348797D01*
X19618510Y11332163D01*
X20358699Y10591975D01*
X20392184Y10530652D01*
X20395018Y10504294D01*
X20395018Y10199482D01*
X20395019Y10199463D01*
X20405518Y10096686D01*
X20405519Y10096683D01*
X20423669Y10041912D01*
X20460704Y9930148D01*
X20552806Y9780826D01*
X20676862Y9656770D01*
X20826184Y9564668D01*
X20992721Y9509483D01*
X21095509Y9498982D01*
X22095526Y9498983D01*
X22095534Y9498984D01*
X22095537Y9498984D01*
X22151820Y9504734D01*
X22198315Y9509483D01*
X22364852Y9564668D01*
X22514174Y9656770D01*
X22541789Y9684385D01*
X27837428Y9684385D01*
X27837428Y9684384D01*
X27923999Y9634403D01*
X27924028Y9634388D01*
X28018214Y9592124D01*
X28018213Y9592124D01*
X28189916Y9556671D01*
X28365168Y9561769D01*
X28534514Y9607145D01*
X28688843Y9690358D01*
X28819808Y9806907D01*
X28819811Y9806910D01*
X28828754Y9819296D01*
X28143678Y10214824D01*
X28143677Y10214824D01*
X27837428Y9684385D01*
X22541789Y9684385D01*
X22638230Y9780826D01*
X22730332Y9930148D01*
X22785517Y10096685D01*
X22796018Y10199473D01*
X22796017Y10326051D01*
X22815701Y10393088D01*
X22868505Y10438843D01*
X22937663Y10448787D01*
X22959006Y10443759D01*
X23024721Y10421983D01*
X23127509Y10411482D01*
X24127526Y10411483D01*
X24127534Y10411484D01*
X24127537Y10411484D01*
X24183820Y10417234D01*
X24230315Y10421983D01*
X24396852Y10477168D01*
X24546174Y10569270D01*
X24670230Y10693326D01*
X24762332Y10842648D01*
X24809435Y10984798D01*
X24849206Y11042240D01*
X24913722Y11069064D01*
X24966140Y11063499D01*
X25056721Y11033483D01*
X25159509Y11022982D01*
X26159526Y11022983D01*
X26159534Y11022984D01*
X26159537Y11022984D01*
X26215820Y11028734D01*
X26262315Y11033483D01*
X26428852Y11088668D01*
X26578174Y11180770D01*
X26580238Y11182835D01*
X26582003Y11183799D01*
X26583837Y11185248D01*
X26584084Y11184935D01*
X26641556Y11216322D01*
X26711248Y11211343D01*
X26767185Y11169475D01*
X26791606Y11104013D01*
X26781056Y11044394D01*
X26759527Y10996416D01*
X26724073Y10824717D01*
X26729172Y10649464D01*
X26774548Y10480118D01*
X26857760Y10325792D01*
X26974313Y10194821D01*
X27058025Y10134372D01*
X27144607Y10084384D01*
X27144608Y10084384D01*
X27479921Y10665161D01*
X27788858Y11200258D01*
X27839425Y11248473D01*
X27908032Y11261697D01*
X27958245Y11245645D01*
X29228754Y10512116D01*
X29235008Y10526052D01*
X29270462Y10697752D01*
X29265363Y10873005D01*
X29231095Y11000895D01*
X29232758Y11070745D01*
X29271921Y11128607D01*
X29318776Y11152763D01*
X29447205Y11187174D01*
X29601629Y11270440D01*
X29601630Y11270441D01*
X29601632Y11270442D01*
X29732684Y11387068D01*
X29732688Y11387072D01*
X29793177Y11470839D01*
X29793178Y11470841D01*
X29857654Y11582517D01*
X29906594Y11629880D01*
X29911176Y11632330D01*
X29911191Y11632336D01*
X30042301Y11719941D01*
X30382640Y12060282D01*
X30443959Y12093764D01*
X30513651Y12088780D01*
X30554361Y12063772D01*
X30589254Y12031609D01*
X30592196Y12028897D01*
X33360308Y10127324D01*
X33375746Y10116719D01*
X33375776Y10116699D01*
X34054979Y9650116D01*
X34061478Y9645725D01*
X34061515Y9645700D01*
X34064639Y9643624D01*
X34071069Y9639422D01*
X34071076Y9639419D01*
X34071081Y9639415D01*
X34201958Y9579644D01*
X34268997Y9559959D01*
X34269001Y9559958D01*
X34411417Y9539482D01*
X34495680Y9539482D01*
X34530275Y9534558D01*
X34659944Y9496885D01*
X34659947Y9496885D01*
X34659949Y9496884D01*
X34690592Y9494473D01*
X34755880Y9469591D01*
X34797352Y9413361D01*
X34801841Y9343635D01*
X34767920Y9282552D01*
X34743580Y9264633D01*
X34743670Y9264499D01*
X34740748Y9262548D01*
X34739332Y9261504D01*
X34738609Y9261118D01*
X34670158Y9215380D01*
X34603480Y9194502D01*
X34601267Y9194482D01*
X34129222Y9194482D01*
X34161236Y9084284D01*
X34244832Y8942930D01*
X34244839Y8942921D01*
X34271246Y8916514D01*
X34304731Y8855191D01*
X34299747Y8785499D01*
X34298127Y8781382D01*
X34250467Y8666317D01*
X34250465Y8666312D01*
X34212018Y8473026D01*
X34212018Y8473023D01*
X34212018Y8275941D01*
X34212018Y8275939D01*
X34212017Y8275939D01*
X34250465Y8082653D01*
X34250468Y8082643D01*
X34325882Y7900575D01*
X34325889Y7900562D01*
X34435378Y7736701D01*
X34435381Y7736697D01*
X34468883Y7703195D01*
X34502368Y7641872D01*
X34497384Y7572180D01*
X34455512Y7516247D01*
X34390048Y7491830D01*
X34381225Y7491514D01*
X12702839Y7487505D01*
X12635796Y7507177D01*
X12590031Y7559973D01*
X12578816Y7611800D01*
X12587003Y11018300D01*
X12606848Y11085288D01*
X12659762Y11130916D01*
X12728944Y11140693D01*
X12754336Y11134179D01*
X12788634Y11121387D01*
X12788645Y11121384D01*
X12848173Y11114983D01*
X12848190Y11114982D01*
X13067518Y11114982D01*
X13067518Y13257982D01*
X12848173Y13257982D01*
X12788645Y13251581D01*
X12788635Y13251579D01*
X12759953Y13240881D01*
X12690262Y13235899D01*
X12628939Y13269385D01*
X12595456Y13330709D01*
X12592624Y13357352D01*
X12606927Y19308982D01*
X12607997Y19754280D01*
X12627843Y19821272D01*
X12680757Y19866900D01*
X12731997Y19877982D01*
X14210518Y19877982D01*
X14210518Y22782982D01*
X12739574Y22782982D01*
X12672535Y22802667D01*
X12626780Y22855471D01*
X12615574Y22907280D01*
X12615732Y22973210D01*
X12617113Y23548016D01*
X12636958Y23615002D01*
X12689871Y23660630D01*
X12745300Y23669699D01*
X12747518Y23671701D01*
X12747518Y23671702D01*
X13547518Y23671702D01*
X13550212Y23671977D01*
X13550219Y23671978D01*
X13716637Y23727124D01*
X13716642Y23727126D01*
X13865863Y23819167D01*
X13989833Y23943137D01*
X14081874Y24092358D01*
X14081876Y24092363D01*
X14137023Y24258785D01*
X14137024Y24258792D01*
X14147517Y24361496D01*
X15073519Y24361496D01*
X15084012Y24258785D01*
X15139159Y24092363D01*
X15139161Y24092358D01*
X15231202Y23943137D01*
X15355172Y23819167D01*
X15504393Y23727126D01*
X15504398Y23727124D01*
X15670816Y23671978D01*
X15670823Y23671977D01*
X15673518Y23671702D01*
X15673518Y24486482D01*
X15073519Y24486482D01*
X15073519Y24361496D01*
X14147517Y24361496D01*
X14147518Y24361509D01*
X14147518Y24486482D01*
X13547518Y24486482D01*
X13547518Y23671702D01*
X12747518Y23671702D01*
X12747518Y25286482D01*
X13547518Y25286482D01*
X14147517Y25286482D01*
X14147517Y25411454D01*
X14147516Y25411469D01*
X15073518Y25411469D01*
X15073518Y25286482D01*
X15673518Y25286482D01*
X15673518Y26101264D01*
X15673517Y26101264D01*
X15670823Y26100988D01*
X15670821Y26100988D01*
X15504398Y26045841D01*
X15504393Y26045839D01*
X15355172Y25953798D01*
X15231202Y25829828D01*
X15139161Y25680607D01*
X15139159Y25680602D01*
X15084012Y25514180D01*
X15084011Y25514173D01*
X15073518Y25411469D01*
X14147516Y25411469D01*
X14137023Y25514180D01*
X14081876Y25680602D01*
X14081874Y25680607D01*
X13989833Y25829828D01*
X13865863Y25953798D01*
X13716642Y26045839D01*
X13716637Y26045841D01*
X13550213Y26100988D01*
X13547518Y26101264D01*
X13547518Y25286482D01*
X12747518Y25286482D01*
X12747518Y26101264D01*
X12742432Y26105856D01*
X12691480Y26115316D01*
X12640586Y26163186D01*
X12623549Y26226208D01*
X12631992Y29739319D01*
X12633939Y30549280D01*
X12653785Y30616272D01*
X12706699Y30661900D01*
X12757939Y30672982D01*
X12813518Y30672982D01*
X12813518Y32815982D01*
X13613518Y32815982D01*
X13613518Y30672982D01*
X13832846Y30672982D01*
X13832862Y30672983D01*
X13892390Y30679384D01*
X13892397Y30679386D01*
X14027104Y30729628D01*
X14027111Y30729632D01*
X14142205Y30815792D01*
X14142208Y30815795D01*
X14228368Y30930889D01*
X14228373Y30930898D01*
X14240069Y30962256D01*
X14281939Y31018190D01*
X14347403Y31042608D01*
X14415676Y31027757D01*
X14465082Y30978352D01*
X14472433Y30962258D01*
X14484221Y30930652D01*
X14484224Y30930647D01*
X14570470Y30815438D01*
X14570473Y30815435D01*
X14685682Y30729189D01*
X14685689Y30729185D01*
X14820535Y30678891D01*
X14820534Y30678891D01*
X14827462Y30678147D01*
X14880145Y30672482D01*
X16118890Y30672483D01*
X16178501Y30678891D01*
X16313349Y30729186D01*
X16428564Y30815436D01*
X16514814Y30930651D01*
X16526336Y30961542D01*
X16568206Y31017476D01*
X16633670Y31041894D01*
X16701943Y31027043D01*
X16751349Y30977638D01*
X16758700Y30961542D01*
X16770219Y30930656D01*
X16770224Y30930647D01*
X16856470Y30815438D01*
X16856473Y30815435D01*
X16971682Y30729189D01*
X16971689Y30729185D01*
X17016636Y30712421D01*
X17106535Y30678891D01*
X17166145Y30672482D01*
X17649328Y30672483D01*
X17716367Y30652799D01*
X17737009Y30636164D01*
X19804069Y28569103D01*
X19804072Y28569100D01*
X19938043Y28479584D01*
X19938049Y28479580D01*
X19958729Y28471014D01*
X19981642Y28461523D01*
X19981647Y28461522D01*
X19981651Y28461520D01*
X20086916Y28417917D01*
X20244947Y28386483D01*
X20244951Y28386482D01*
X20244952Y28386482D01*
X20287288Y28386482D01*
X20354327Y28366797D01*
X20374969Y28350163D01*
X20422862Y28302270D01*
X20572184Y28210168D01*
X20738721Y28154983D01*
X20841509Y28144482D01*
X21841526Y28144483D01*
X21841534Y28144484D01*
X21841537Y28144484D01*
X21897820Y28150234D01*
X21944315Y28154983D01*
X22110852Y28210168D01*
X22260174Y28302270D01*
X22384230Y28426326D01*
X22476332Y28575648D01*
X22531517Y28742185D01*
X22542018Y28844973D01*
X22542017Y29469990D01*
X22531517Y29572779D01*
X22476332Y29739316D01*
X22384230Y29888638D01*
X22384228Y29888640D01*
X22380438Y29894785D01*
X22381728Y29895582D01*
X22358702Y29952662D01*
X22371744Y30021304D01*
X22419826Y30071998D01*
X22487683Y30088649D01*
X22547203Y30070314D01*
X22604184Y30035168D01*
X22770721Y29979983D01*
X22873509Y29969482D01*
X23873526Y29969483D01*
X23873534Y29969484D01*
X23873537Y29969484D01*
X23937490Y29976017D01*
X23976315Y29979983D01*
X24142852Y30035168D01*
X24292174Y30127270D01*
X24416230Y30251326D01*
X24508332Y30400648D01*
X24563517Y30567185D01*
X24574018Y30669973D01*
X24574017Y31294990D01*
X24571674Y31317922D01*
X24565488Y31378483D01*
X28190197Y31378483D01*
X28190197Y31378482D01*
X28209442Y31158506D01*
X28209444Y31158496D01*
X28266593Y30945212D01*
X28266598Y30945198D01*
X28327481Y30814632D01*
X28327482Y30814632D01*
X28891333Y31378482D01*
X28891333Y31378483D01*
X28830774Y31439042D01*
X28997018Y31439042D01*
X28997018Y31317922D01*
X29028367Y31200929D01*
X29088927Y31096036D01*
X29174572Y31010391D01*
X29279465Y30949831D01*
X29396458Y30918482D01*
X29517578Y30918482D01*
X29634571Y30949831D01*
X29739464Y31010391D01*
X29825109Y31096036D01*
X29885669Y31200929D01*
X29917018Y31317922D01*
X29917018Y31378483D01*
X30022703Y31378483D01*
X30022703Y31378482D01*
X30586552Y30814633D01*
X30647438Y30945203D01*
X30647442Y30945212D01*
X30704591Y31158496D01*
X30704593Y31158506D01*
X30723839Y31378482D01*
X30723839Y31378483D01*
X30704593Y31598459D01*
X30704591Y31598469D01*
X30647442Y31811753D01*
X30647438Y31811762D01*
X30586552Y31942333D01*
X30022703Y31378483D01*
X29917018Y31378483D01*
X29917018Y31439042D01*
X29885669Y31556035D01*
X29825109Y31660928D01*
X29739464Y31746573D01*
X29634571Y31807133D01*
X29517578Y31838482D01*
X29396458Y31838482D01*
X29279465Y31807133D01*
X29174572Y31746573D01*
X29088927Y31660928D01*
X29028367Y31556035D01*
X28997018Y31439042D01*
X28830774Y31439042D01*
X28327481Y31942334D01*
X28266594Y31811755D01*
X28209444Y31598469D01*
X28209442Y31598459D01*
X28190197Y31378483D01*
X24565488Y31378483D01*
X24563517Y31397779D01*
X24563516Y31397782D01*
X24549844Y31439042D01*
X24508332Y31564316D01*
X24456733Y31647972D01*
X24438294Y31715362D01*
X24459217Y31782025D01*
X24512859Y31826795D01*
X24582189Y31835456D01*
X24627367Y31818606D01*
X24636184Y31813168D01*
X24802721Y31757983D01*
X24905509Y31747482D01*
X25905526Y31747483D01*
X25905534Y31747484D01*
X25905537Y31747484D01*
X25961820Y31753234D01*
X26008315Y31757983D01*
X26174852Y31813168D01*
X26324174Y31905270D01*
X26448230Y32029326D01*
X26540332Y32178648D01*
X26595517Y32345185D01*
X26606018Y32447973D01*
X26606018Y32508019D01*
X28893166Y32508019D01*
X29457018Y31944167D01*
X29457019Y31944167D01*
X30020868Y32508018D01*
X30020868Y32508019D01*
X29890302Y32568902D01*
X29890288Y32568907D01*
X29677004Y32626056D01*
X29676994Y32626058D01*
X29457019Y32645303D01*
X29457017Y32645303D01*
X29237041Y32626058D01*
X29237031Y32626056D01*
X29023745Y32568906D01*
X28893166Y32508019D01*
X26606018Y32508019D01*
X26606017Y33072990D01*
X26595517Y33175779D01*
X26540332Y33342316D01*
X26448230Y33491638D01*
X26354213Y33585655D01*
X26320728Y33646978D01*
X26325712Y33716670D01*
X26354213Y33761018D01*
X26447835Y33854640D01*
X26539874Y34003858D01*
X26539876Y34003863D01*
X26595023Y34170285D01*
X26596576Y34185482D01*
X24214460Y34185482D01*
X24216012Y34170285D01*
X24271159Y34003863D01*
X24271161Y34003858D01*
X24323249Y33919411D01*
X24341689Y33852018D01*
X24320766Y33785355D01*
X24267124Y33740585D01*
X24197794Y33731924D01*
X24152614Y33748775D01*
X24142858Y33754793D01*
X24142853Y33754795D01*
X24142852Y33754796D01*
X23976315Y33809981D01*
X23976313Y33809982D01*
X23873528Y33820482D01*
X22873516Y33820482D01*
X22873498Y33820481D01*
X22770721Y33809982D01*
X22770718Y33809981D01*
X22604186Y33754797D01*
X22604181Y33754795D01*
X22454860Y33662693D01*
X22330807Y33538640D01*
X22238705Y33389319D01*
X22238703Y33389314D01*
X22223131Y33342319D01*
X22183519Y33222779D01*
X22183519Y33222778D01*
X22183518Y33222778D01*
X22173018Y33119999D01*
X22173018Y32494981D01*
X22173019Y32494963D01*
X22183518Y32392186D01*
X22183519Y32392183D01*
X22238703Y32225651D01*
X22238705Y32225646D01*
X22334598Y32070179D01*
X22333307Y32069384D01*
X22356333Y32012300D01*
X22343289Y31943658D01*
X22295206Y31892966D01*
X22227349Y31876316D01*
X22167830Y31894652D01*
X22110852Y31929796D01*
X21944315Y31984981D01*
X21944313Y31984982D01*
X21841528Y31995482D01*
X20841516Y31995482D01*
X20841498Y31995481D01*
X20738721Y31984982D01*
X20738718Y31984981D01*
X20572186Y31929797D01*
X20572181Y31929795D01*
X20422860Y31837693D01*
X20298807Y31713640D01*
X20206705Y31564319D01*
X20206704Y31564316D01*
X20151519Y31397779D01*
X20151519Y31397778D01*
X20151518Y31397778D01*
X20141018Y31294999D01*
X20141018Y30845171D01*
X20121333Y30778132D01*
X20068529Y30732377D01*
X19999371Y30722433D01*
X19935815Y30751458D01*
X19929337Y30757490D01*
X18893836Y31792991D01*
X18860351Y31854314D01*
X18857517Y31880672D01*
X18857517Y32363853D01*
X18857516Y32363859D01*
X18857411Y32364832D01*
X18851109Y32423465D01*
X18837031Y32461209D01*
X18800815Y32558311D01*
X18800811Y32558318D01*
X18714565Y32673527D01*
X18714562Y32673530D01*
X18599353Y32759776D01*
X18599344Y32759781D01*
X18568458Y32771300D01*
X18512524Y32813170D01*
X18488106Y32878634D01*
X18502957Y32946907D01*
X18552362Y32996313D01*
X18568458Y33003664D01*
X18599344Y33015184D01*
X18599344Y33015185D01*
X18599349Y33015186D01*
X18714564Y33101436D01*
X18800814Y33216651D01*
X18851109Y33351499D01*
X18857518Y33411109D01*
X18857517Y34448490D01*
X29911689Y34448490D01*
X29911689Y34448475D01*
X29930982Y34154119D01*
X29930983Y34154109D01*
X29930984Y34154102D01*
X29977666Y33919411D01*
X29988536Y33864766D01*
X29988539Y33864752D01*
X30083367Y33585402D01*
X30213843Y33320822D01*
X30213847Y33320815D01*
X30377743Y33075527D01*
X30572259Y32853724D01*
X30794062Y32659208D01*
X30991294Y32527422D01*
X31039353Y32495310D01*
X31303941Y32364830D01*
X31583296Y32270001D01*
X31872638Y32212448D01*
X31900906Y32210596D01*
X32167011Y32193153D01*
X32167018Y32193153D01*
X32167025Y32193153D01*
X32402693Y32208601D01*
X32461398Y32212448D01*
X32750740Y32270001D01*
X33030095Y32364830D01*
X33294683Y32495310D01*
X33539975Y32659209D01*
X33761776Y32853724D01*
X33956291Y33075525D01*
X34120190Y33320817D01*
X34250670Y33585405D01*
X34345499Y33864760D01*
X34403052Y34154102D01*
X34422347Y34448482D01*
X34422347Y34448490D01*
X34403053Y34742846D01*
X34403052Y34742862D01*
X34345499Y35032204D01*
X34250670Y35311559D01*
X34120190Y35576146D01*
X34105600Y35597981D01*
X34027289Y35715182D01*
X33956291Y35821439D01*
X33913673Y35870035D01*
X33761776Y36043241D01*
X33539973Y36237757D01*
X33294685Y36401653D01*
X33294678Y36401657D01*
X33030098Y36532133D01*
X32750748Y36626961D01*
X32750742Y36626963D01*
X32750740Y36626963D01*
X32461398Y36684516D01*
X32461391Y36684517D01*
X32461381Y36684518D01*
X32167025Y36703811D01*
X32167011Y36703811D01*
X31872654Y36684518D01*
X31872642Y36684517D01*
X31872638Y36684516D01*
X31872630Y36684515D01*
X31872627Y36684514D01*
X31583301Y36626964D01*
X31583287Y36626961D01*
X31303937Y36532133D01*
X31039352Y36401654D01*
X30794059Y36237754D01*
X30572259Y36043241D01*
X30377746Y35821441D01*
X30213846Y35576148D01*
X30083367Y35311563D01*
X29988539Y35032213D01*
X29988536Y35032199D01*
X29930986Y34742873D01*
X29930982Y34742846D01*
X29911689Y34448490D01*
X18857517Y34448490D01*
X18857517Y34649854D01*
X18851109Y34709465D01*
X18800814Y34844313D01*
X18800813Y34844314D01*
X18800811Y34844318D01*
X18714565Y34959527D01*
X18714562Y34959530D01*
X18599353Y35045776D01*
X18599344Y35045781D01*
X18568458Y35057300D01*
X18512524Y35099170D01*
X18488106Y35164634D01*
X18502957Y35232907D01*
X18552362Y35282313D01*
X18568458Y35289664D01*
X18599344Y35301184D01*
X18599344Y35301185D01*
X18599349Y35301186D01*
X18714564Y35387436D01*
X18800814Y35502651D01*
X18851109Y35637499D01*
X18857518Y35697109D01*
X18857518Y35715182D01*
X21979260Y35715182D01*
X21980812Y35699985D01*
X22035959Y35533563D01*
X22035961Y35533558D01*
X22128002Y35384337D01*
X22251972Y35260367D01*
X22401193Y35168326D01*
X22401198Y35168324D01*
X22567620Y35113177D01*
X22567627Y35113176D01*
X22670337Y35102683D01*
X23570318Y35102683D01*
X23670290Y35102683D01*
X23670304Y35102684D01*
X23773015Y35113177D01*
X23939437Y35168324D01*
X23939448Y35168329D01*
X24066920Y35246955D01*
X24134312Y35265396D01*
X24200975Y35244474D01*
X24245745Y35190832D01*
X24254407Y35121502D01*
X24249723Y35102413D01*
X24216012Y35000680D01*
X24214459Y34985483D01*
X24214460Y34985482D01*
X25005518Y34985482D01*
X25805518Y34985482D01*
X26596576Y34985482D01*
X26596576Y34985483D01*
X26595023Y35000680D01*
X26539876Y35167102D01*
X26539874Y35167107D01*
X26447833Y35316328D01*
X26323863Y35440298D01*
X26174642Y35532339D01*
X26174637Y35532341D01*
X26008215Y35587488D01*
X26008208Y35587489D01*
X25905504Y35597982D01*
X25805518Y35597982D01*
X25805518Y34985482D01*
X25005518Y34985482D01*
X25005518Y35597983D01*
X24905546Y35597982D01*
X24905530Y35597981D01*
X24802820Y35587488D01*
X24636398Y35532341D01*
X24636393Y35532339D01*
X24508915Y35453709D01*
X24441522Y35435269D01*
X24374859Y35456192D01*
X24330089Y35509834D01*
X24321428Y35579165D01*
X24326112Y35598253D01*
X24359823Y35699987D01*
X24361376Y35715182D01*
X23570318Y35715182D01*
X23570318Y35102683D01*
X22670337Y35102683D01*
X22770318Y35102684D01*
X22770318Y35715182D01*
X21979260Y35715182D01*
X18857518Y35715182D01*
X18857517Y36935854D01*
X18851109Y36995465D01*
X18851108Y36995468D01*
X18841230Y37021953D01*
X18836245Y37091644D01*
X18869729Y37152968D01*
X18914079Y37181469D01*
X18980344Y37206184D01*
X18980344Y37206185D01*
X18980349Y37206186D01*
X19095564Y37292436D01*
X19181814Y37407651D01*
X19232109Y37542499D01*
X19238518Y37602109D01*
X19238517Y39497893D01*
X19258202Y39564931D01*
X19311005Y39610686D01*
X19362468Y39621892D01*
X19813774Y39622058D01*
X19880819Y39602398D01*
X19926593Y39549611D01*
X19937818Y39498061D01*
X19937818Y39454583D01*
X19937819Y39454563D01*
X19948318Y39351786D01*
X19948319Y39351783D01*
X19961409Y39312281D01*
X20003504Y39185248D01*
X20088085Y39048119D01*
X20095607Y39035925D01*
X20189269Y38942263D01*
X20222754Y38880940D01*
X20217770Y38811248D01*
X20189269Y38766901D01*
X20095607Y38673240D01*
X20003505Y38523919D01*
X20003503Y38523914D01*
X19988754Y38479405D01*
X19948319Y38357379D01*
X19948319Y38357378D01*
X19948318Y38357378D01*
X19937818Y38254599D01*
X19937818Y37629581D01*
X19937819Y37629563D01*
X19948318Y37526786D01*
X19948319Y37526783D01*
X19987795Y37407654D01*
X20003504Y37360248D01*
X20095606Y37210926D01*
X20219662Y37086870D01*
X20368984Y36994768D01*
X20535521Y36939583D01*
X20638309Y36929082D01*
X21638326Y36929083D01*
X21638334Y36929084D01*
X21638337Y36929084D01*
X21694620Y36934834D01*
X21741115Y36939583D01*
X21907652Y36994768D01*
X21968817Y37032495D01*
X22036206Y37050935D01*
X22102870Y37030013D01*
X22147640Y36976372D01*
X22156302Y36907041D01*
X22131183Y36850051D01*
X22128004Y36846031D01*
X22035961Y36696807D01*
X22035959Y36696802D01*
X21980812Y36530380D01*
X21979259Y36515183D01*
X21979260Y36515182D01*
X24361376Y36515182D01*
X24361376Y36515183D01*
X24359823Y36530380D01*
X24304676Y36696802D01*
X24304674Y36696807D01*
X24212633Y36846028D01*
X24119013Y36939648D01*
X24085528Y37000971D01*
X24090512Y37070663D01*
X24119009Y37115006D01*
X24213030Y37209026D01*
X24305132Y37358348D01*
X24360317Y37524885D01*
X24370818Y37627673D01*
X24370817Y38252690D01*
X24360317Y38355479D01*
X24305132Y38522016D01*
X24213030Y38671338D01*
X24088974Y38795394D01*
X23950281Y38880940D01*
X23939654Y38887495D01*
X23939649Y38887497D01*
X23938180Y38887984D01*
X23773115Y38942681D01*
X23773113Y38942682D01*
X23670328Y38953182D01*
X22670316Y38953182D01*
X22670298Y38953181D01*
X22567521Y38942682D01*
X22567518Y38942681D01*
X22400986Y38887497D01*
X22400977Y38887492D01*
X22341072Y38850543D01*
X22273679Y38832103D01*
X22207016Y38853026D01*
X22162247Y38906669D01*
X22153586Y38975999D01*
X22177282Y39029752D01*
X22177238Y39029779D01*
X22177437Y39030103D01*
X22178714Y39032998D01*
X22181025Y39035922D01*
X22181030Y39035926D01*
X22273132Y39185248D01*
X22328317Y39351785D01*
X22338818Y39454573D01*
X22338817Y39499034D01*
X22358500Y39566071D01*
X22411303Y39611827D01*
X22462769Y39623034D01*
X24892198Y39623929D01*
X24959243Y39604269D01*
X25005017Y39551482D01*
X25015976Y39491820D01*
X25006190Y39342489D01*
X25006189Y39342475D01*
X25025482Y39048119D01*
X25025483Y39048109D01*
X25025484Y39048102D01*
X25075750Y38795393D01*
X25083036Y38758766D01*
X25083039Y38758752D01*
X25177867Y38479402D01*
X25308343Y38214822D01*
X25308347Y38214815D01*
X25472243Y37969527D01*
X25666759Y37747724D01*
X25888562Y37553208D01*
X26106399Y37407654D01*
X26133853Y37389310D01*
X26398441Y37258830D01*
X26677796Y37164001D01*
X26967138Y37106448D01*
X26995406Y37104596D01*
X27261511Y37087153D01*
X27261518Y37087153D01*
X27261525Y37087153D01*
X27497193Y37102601D01*
X27555898Y37106448D01*
X27845240Y37164001D01*
X28124595Y37258830D01*
X28389183Y37389310D01*
X28634475Y37553209D01*
X28856276Y37747724D01*
X29050791Y37969525D01*
X29214690Y38214817D01*
X29345170Y38479405D01*
X29439999Y38758760D01*
X29497552Y39048102D01*
X29506541Y39185248D01*
X29516847Y39342475D01*
X29516847Y39342489D01*
X29506944Y39493563D01*
X29522201Y39561747D01*
X29571899Y39610857D01*
X29630631Y39625674D01*
X30572335Y39626022D01*
X30639380Y39606362D01*
X30685154Y39553575D01*
X30696114Y39493913D01*
X30686190Y39342489D01*
X30686189Y39342476D01*
X30686189Y39342475D01*
X30705482Y39048119D01*
X30705483Y39048109D01*
X30705484Y39048102D01*
X30755750Y38795393D01*
X30763036Y38758766D01*
X30763039Y38758752D01*
X30857867Y38479402D01*
X30988343Y38214822D01*
X30988347Y38214815D01*
X31152243Y37969527D01*
X31346759Y37747724D01*
X31568562Y37553208D01*
X31786399Y37407654D01*
X31813853Y37389310D01*
X32078441Y37258830D01*
X32357796Y37164001D01*
X32647138Y37106448D01*
X32675406Y37104596D01*
X32941511Y37087153D01*
X32941518Y37087153D01*
X32941525Y37087153D01*
X33177193Y37102601D01*
X33235898Y37106448D01*
X33525240Y37164001D01*
X33804595Y37258830D01*
X34069183Y37389310D01*
X34314475Y37553209D01*
X34536276Y37747724D01*
X34730791Y37969525D01*
X34894690Y38214817D01*
X35025170Y38479405D01*
X35119999Y38758760D01*
X35177552Y39048102D01*
X35186541Y39185248D01*
X35196847Y39342475D01*
X35196847Y39342490D01*
X35178397Y39623977D01*
X35177552Y39636862D01*
X35119999Y39926204D01*
X35025170Y40205559D01*
X34894690Y40470146D01*
X34730791Y40715439D01*
X34688173Y40764035D01*
X34536276Y40937241D01*
X34314473Y41131757D01*
X34069185Y41295653D01*
X34069178Y41295657D01*
X33804598Y41426133D01*
X33525248Y41520961D01*
X33525242Y41520963D01*
X33525240Y41520963D01*
X33235898Y41578516D01*
X33235891Y41578517D01*
X33235881Y41578518D01*
X32941525Y41597811D01*
X32941511Y41597811D01*
X32647154Y41578518D01*
X32647141Y41578517D01*
X32647138Y41578516D01*
X32647132Y41578515D01*
X32647126Y41578514D01*
X32533009Y41555815D01*
X32463417Y41562042D01*
X32408240Y41604906D01*
X32384996Y41670796D01*
X32384818Y41677618D01*
X32385135Y41888855D01*
X32387830Y43684584D01*
X32376378Y43792336D01*
X32365191Y43843992D01*
X32331042Y43946818D01*
X32253299Y44067887D01*
X32207564Y44120708D01*
X32207561Y44120711D01*
X32098858Y44214973D01*
X32098857Y44214974D01*
X32098854Y44214976D01*
X31968007Y44274790D01*
X31968004Y44274791D01*
X31900966Y44294502D01*
X31758567Y44315028D01*
X31526976Y44315114D01*
X31459944Y44334824D01*
X31414208Y44387645D01*
X31404291Y44456807D01*
X31410505Y44481539D01*
X31411088Y44483143D01*
X31411093Y44483152D01*
X31467725Y44694505D01*
X31486795Y44912482D01*
X31467725Y45130459D01*
X31411093Y45341812D01*
X31318620Y45540120D01*
X31318618Y45540123D01*
X31318617Y45540125D01*
X31193115Y45719361D01*
X31087674Y45824802D01*
X31054189Y45886125D01*
X31059173Y45955817D01*
X31087670Y46000160D01*
X31193116Y46105605D01*
X31318620Y46284843D01*
X31411093Y46483152D01*
X31467725Y46694505D01*
X31486795Y46912482D01*
X31467725Y47130459D01*
X31421743Y47302066D01*
X31411095Y47341805D01*
X31411094Y47341808D01*
X31411093Y47341812D01*
X31318620Y47540120D01*
X31318618Y47540123D01*
X31318617Y47540125D01*
X31193117Y47719358D01*
X31140474Y47772001D01*
X31038395Y47874080D01*
X30859157Y47999584D01*
X30859158Y47999584D01*
X30859156Y47999585D01*
X30750232Y48050377D01*
X30697793Y48096550D01*
X30678641Y48163743D01*
X30698857Y48230624D01*
X30750233Y48275141D01*
X30786338Y48291977D01*
X30231519Y48846797D01*
X30231518Y48846797D01*
X29676696Y48291977D01*
X29712802Y48275141D01*
X29765242Y48228969D01*
X29784394Y48161776D01*
X29764179Y48094894D01*
X29712804Y48050377D01*
X29603876Y47999582D01*
X29603875Y47999582D01*
X29424639Y47874080D01*
X29269920Y47719361D01*
X29144418Y47540125D01*
X29144416Y47540121D01*
X29051944Y47341814D01*
X29051941Y47341808D01*
X29041293Y47302066D01*
X29004928Y47242406D01*
X28942081Y47211877D01*
X28872705Y47220172D01*
X28818828Y47264657D01*
X28801743Y47302066D01*
X28791094Y47341808D01*
X28791093Y47341812D01*
X28698620Y47540120D01*
X28698618Y47540123D01*
X28698617Y47540125D01*
X28573117Y47719358D01*
X28520474Y47772001D01*
X28418395Y47874080D01*
X28239157Y47999584D01*
X28239158Y47999584D01*
X28239156Y47999585D01*
X28130232Y48050377D01*
X28077793Y48096550D01*
X28058641Y48163743D01*
X28078857Y48230624D01*
X28130233Y48275141D01*
X28166338Y48291977D01*
X27611519Y48846797D01*
X27611518Y48846797D01*
X27056696Y48291977D01*
X27092802Y48275141D01*
X27145242Y48228969D01*
X27164394Y48161776D01*
X27144179Y48094894D01*
X27092804Y48050377D01*
X26983876Y47999582D01*
X26983875Y47999582D01*
X26804639Y47874080D01*
X26649920Y47719361D01*
X26524418Y47540125D01*
X26524416Y47540121D01*
X26431944Y47341814D01*
X26431940Y47341805D01*
X26375311Y47130462D01*
X26375311Y47130458D01*
X26356241Y46912485D01*
X26356241Y46912480D01*
X26375311Y46694507D01*
X26375311Y46694503D01*
X26431940Y46483160D01*
X26431942Y46483156D01*
X26431943Y46483152D01*
X26478179Y46383998D01*
X26524415Y46284844D01*
X26524416Y46284843D01*
X26649920Y46105605D01*
X26649924Y46105601D01*
X26755361Y46000164D01*
X26788846Y45938841D01*
X26783862Y45869149D01*
X26755362Y45824802D01*
X26649918Y45719358D01*
X26524418Y45540125D01*
X26524416Y45540121D01*
X26451163Y45383029D01*
X26435148Y45348684D01*
X26431944Y45341814D01*
X26431940Y45341805D01*
X26375311Y45130462D01*
X26375311Y45130458D01*
X26356241Y44912485D01*
X26356241Y44912480D01*
X26375311Y44694507D01*
X26375311Y44694503D01*
X26433344Y44477922D01*
X26432205Y44477617D01*
X26436270Y44413723D01*
X26402304Y44352665D01*
X26340720Y44319663D01*
X26315269Y44317033D01*
X25929321Y44317175D01*
X25862289Y44336884D01*
X25816554Y44389705D01*
X25806636Y44458867D01*
X25811657Y44480165D01*
X25857436Y44618315D01*
X25867500Y44716826D01*
X25867500Y45250174D01*
X25857436Y45348685D01*
X25804549Y45508287D01*
X25804545Y45508293D01*
X25804544Y45508296D01*
X25716283Y45651388D01*
X25716280Y45651392D01*
X25597391Y45770281D01*
X25597387Y45770284D01*
X25454295Y45858545D01*
X25454289Y45858548D01*
X25454287Y45858549D01*
X25294685Y45911436D01*
X25294683Y45911437D01*
X25196181Y45921500D01*
X25196174Y45921500D01*
X24587826Y45921500D01*
X24587818Y45921500D01*
X24489316Y45911437D01*
X24489315Y45911436D01*
X24329711Y45858549D01*
X24329710Y45858548D01*
X24238782Y45802462D01*
X24173685Y45784000D01*
X23449023Y45784000D01*
X23381984Y45803685D01*
X23336229Y45856489D01*
X23326285Y45925647D01*
X23355310Y45989203D01*
X23361342Y45995681D01*
X23394315Y46028655D01*
X23486356Y46177876D01*
X23486358Y46177881D01*
X23541505Y46344303D01*
X23543058Y46359500D01*
X21160942Y46359500D01*
X21162494Y46344303D01*
X21217641Y46177881D01*
X21217643Y46177876D01*
X21309684Y46028655D01*
X21403304Y45935035D01*
X21436789Y45873712D01*
X21431805Y45804020D01*
X21403305Y45759673D01*
X21309287Y45665655D01*
X21217187Y45516337D01*
X21217185Y45516332D01*
X21215683Y45511798D01*
X21162001Y45349797D01*
X21162001Y45349796D01*
X21162000Y45349796D01*
X21151500Y45247017D01*
X21151500Y44621999D01*
X21151501Y44621981D01*
X21162000Y44519204D01*
X21162002Y44519197D01*
X21174337Y44481972D01*
X21176738Y44412143D01*
X21141006Y44352102D01*
X21078485Y44320910D01*
X21056585Y44318969D01*
X18909971Y44319760D01*
X18842939Y44339469D01*
X18797204Y44392290D01*
X18786017Y44443760D01*
X18786017Y44969484D01*
X18786016Y44969501D01*
X18775517Y45072279D01*
X18775516Y45072282D01*
X18756237Y45130462D01*
X18720332Y45238816D01*
X18628230Y45388138D01*
X18504174Y45512194D01*
X18354852Y45604296D01*
X18188315Y45659481D01*
X18188313Y45659482D01*
X18085528Y45669982D01*
X17485516Y45669982D01*
X17485498Y45669981D01*
X17382721Y45659482D01*
X17382718Y45659481D01*
X17216186Y45604297D01*
X17216181Y45604295D01*
X17066860Y45512193D01*
X16942806Y45388139D01*
X16942801Y45388133D01*
X16940759Y45384821D01*
X16938765Y45383029D01*
X16938325Y45382471D01*
X16938229Y45382547D01*
X16888809Y45338099D01*
X16819846Y45326880D01*
X16755765Y45354727D01*
X16729686Y45384826D01*
X16727837Y45387823D01*
X16727834Y45387827D01*
X16603863Y45511798D01*
X16454642Y45603839D01*
X16454637Y45603841D01*
X16288213Y45658988D01*
X16285518Y45659264D01*
X16285518Y43229701D01*
X16298001Y43218426D01*
X16323122Y43213753D01*
X16374001Y43165866D01*
X16391018Y43103171D01*
X16391018Y42464982D01*
X16371333Y42397943D01*
X16318529Y42352188D01*
X16267018Y42340982D01*
X14756518Y42340982D01*
X14756518Y39435982D01*
X16208519Y39435982D01*
X16275558Y39416297D01*
X16321313Y39363493D01*
X16332519Y39311982D01*
X16332519Y37602106D01*
X16338926Y37542499D01*
X16389220Y37407654D01*
X16389224Y37407647D01*
X16475470Y37292438D01*
X16475473Y37292435D01*
X16590682Y37206189D01*
X16590691Y37206184D01*
X16656956Y37181469D01*
X16712890Y37139598D01*
X16737308Y37074134D01*
X16729807Y37021956D01*
X16719926Y36995465D01*
X16713519Y36935866D01*
X16713519Y36935859D01*
X16713518Y36935847D01*
X16713518Y35697112D01*
X16713519Y35697106D01*
X16719926Y35637499D01*
X16770220Y35502654D01*
X16770224Y35502647D01*
X16856470Y35387438D01*
X16856473Y35387435D01*
X16971682Y35301189D01*
X16971689Y35301185D01*
X17002578Y35289664D01*
X17058512Y35247793D01*
X17082929Y35182329D01*
X17068077Y35114056D01*
X17018672Y35064650D01*
X17002578Y35057300D01*
X16971689Y35045780D01*
X16971682Y35045776D01*
X16856473Y34959530D01*
X16856470Y34959527D01*
X16770224Y34844318D01*
X16770220Y34844311D01*
X16719926Y34709465D01*
X16713519Y34649866D01*
X16713519Y34649859D01*
X16713518Y34649847D01*
X16713518Y33411112D01*
X16713519Y33411106D01*
X16719926Y33351499D01*
X16770220Y33216654D01*
X16770224Y33216647D01*
X16856470Y33101438D01*
X16856473Y33101435D01*
X16971682Y33015189D01*
X16971689Y33015185D01*
X17002578Y33003664D01*
X17058512Y32961793D01*
X17082929Y32896329D01*
X17068077Y32828056D01*
X17018672Y32778650D01*
X17002578Y32771300D01*
X16971689Y32759780D01*
X16971682Y32759776D01*
X16856473Y32673530D01*
X16856470Y32673527D01*
X16770224Y32558318D01*
X16770220Y32558311D01*
X16758700Y32527422D01*
X16716829Y32471488D01*
X16651365Y32447071D01*
X16583092Y32461923D01*
X16533686Y32511328D01*
X16526336Y32527422D01*
X16514815Y32558311D01*
X16514811Y32558318D01*
X16428565Y32673527D01*
X16428562Y32673530D01*
X16313353Y32759776D01*
X16313346Y32759780D01*
X16178500Y32810074D01*
X16178501Y32810074D01*
X16118901Y32816481D01*
X16118899Y32816482D01*
X16118891Y32816482D01*
X16118882Y32816482D01*
X14880147Y32816482D01*
X14880141Y32816481D01*
X14820534Y32810074D01*
X14685689Y32759780D01*
X14685682Y32759776D01*
X14570473Y32673530D01*
X14570470Y32673527D01*
X14484224Y32558318D01*
X14484219Y32558308D01*
X14472432Y32526706D01*
X14430560Y32470773D01*
X14365096Y32446357D01*
X14296823Y32461209D01*
X14247418Y32510615D01*
X14240069Y32526708D01*
X14228372Y32558069D01*
X14228368Y32558076D01*
X14142208Y32673170D01*
X14142205Y32673173D01*
X14027111Y32759333D01*
X14027104Y32759337D01*
X13892397Y32809579D01*
X13892390Y32809581D01*
X13832862Y32815982D01*
X13613518Y32815982D01*
X12813518Y32815982D01*
X12763685Y32815982D01*
X12696646Y32835667D01*
X12650891Y32888471D01*
X12639685Y32940280D01*
X12653457Y38671340D01*
X12654997Y39312281D01*
X12674843Y39379272D01*
X12727757Y39424900D01*
X12778997Y39435982D01*
X13956518Y39435982D01*
X13956518Y42340982D01*
X12786575Y42340982D01*
X12719536Y42360667D01*
X12673781Y42413471D01*
X12662575Y42465280D01*
X12663061Y42668108D01*
X12664102Y43101222D01*
X12683947Y43168208D01*
X12709171Y43189960D01*
X12706631Y43192772D01*
X12747518Y43229701D01*
X12747518Y43229702D01*
X13547518Y43229702D01*
X13550212Y43229977D01*
X13550219Y43229978D01*
X13716637Y43285124D01*
X13716642Y43285126D01*
X13865863Y43377167D01*
X13989833Y43501137D01*
X14081874Y43650358D01*
X14081876Y43650363D01*
X14137023Y43816785D01*
X14137024Y43816792D01*
X14147517Y43919496D01*
X14885519Y43919496D01*
X14896012Y43816785D01*
X14951159Y43650363D01*
X14951161Y43650358D01*
X15043202Y43501137D01*
X15167172Y43377167D01*
X15316393Y43285126D01*
X15316398Y43285124D01*
X15482816Y43229978D01*
X15482823Y43229977D01*
X15485518Y43229702D01*
X15485518Y44044482D01*
X14885519Y44044482D01*
X14885519Y43919496D01*
X14147517Y43919496D01*
X14147518Y43919509D01*
X14147518Y44044482D01*
X13547518Y44044482D01*
X13547518Y43229702D01*
X12747518Y43229702D01*
X12747518Y44844482D01*
X13547518Y44844482D01*
X14147517Y44844482D01*
X14147517Y44969454D01*
X14147516Y44969469D01*
X14885518Y44969469D01*
X14885518Y44844482D01*
X15485518Y44844482D01*
X15485518Y45659264D01*
X15485517Y45659264D01*
X15482823Y45658988D01*
X15482821Y45658988D01*
X15316398Y45603841D01*
X15316393Y45603839D01*
X15167172Y45511798D01*
X15043202Y45387828D01*
X14951161Y45238607D01*
X14951159Y45238602D01*
X14896012Y45072180D01*
X14896011Y45072173D01*
X14885518Y44969469D01*
X14147516Y44969469D01*
X14137023Y45072180D01*
X14081876Y45238602D01*
X14081874Y45238607D01*
X13989833Y45387828D01*
X13865863Y45511798D01*
X13716642Y45603839D01*
X13716637Y45603841D01*
X13550213Y45658988D01*
X13547518Y45659264D01*
X13547518Y44844482D01*
X12747518Y44844482D01*
X12747518Y45659264D01*
X12711452Y45691826D01*
X12674884Y45751363D01*
X12670549Y45784155D01*
X12673854Y47159501D01*
X21160941Y47159501D01*
X21160942Y47159500D01*
X21952000Y47159500D01*
X22752000Y47159500D01*
X23543058Y47159500D01*
X23543058Y47159501D01*
X23541505Y47174698D01*
X23486358Y47341120D01*
X23486356Y47341125D01*
X23394315Y47490346D01*
X23270345Y47614316D01*
X23121124Y47706357D01*
X23121119Y47706359D01*
X22954697Y47761506D01*
X22954690Y47761507D01*
X22851986Y47772000D01*
X22752000Y47772000D01*
X22752000Y47159500D01*
X21952000Y47159500D01*
X21952000Y47772001D01*
X21852028Y47772000D01*
X21852012Y47771999D01*
X21749302Y47761506D01*
X21582880Y47706359D01*
X21582875Y47706357D01*
X21433654Y47614316D01*
X21309684Y47490346D01*
X21217643Y47341125D01*
X21217641Y47341120D01*
X21162494Y47174698D01*
X21160941Y47159501D01*
X12673854Y47159501D01*
X12683073Y50995665D01*
X12702918Y51062650D01*
X12739531Y51099350D01*
X12987884Y51260631D01*
X13273024Y51491533D01*
X13532467Y51750976D01*
X13763369Y52036116D01*
X13963200Y52343830D01*
X14129773Y52670746D01*
X14261260Y53013283D01*
X14356223Y53367688D01*
X14381045Y53524409D01*
X14410974Y53587543D01*
X14470286Y53624474D01*
X14540148Y53623476D01*
X14598381Y53584866D01*
X14626495Y53520903D01*
X14627518Y53505010D01*
X14627518Y52525046D01*
X14642818Y52311120D01*
X14703627Y52031587D01*
X14803609Y51763524D01*
X14940709Y51512444D01*
X14940710Y51512443D01*
X15112157Y51283417D01*
X15112167Y51283405D01*
X15314440Y51081132D01*
X15314452Y51081122D01*
X15543478Y50909675D01*
X15543479Y50909674D01*
X15794560Y50772574D01*
X15794559Y50772574D01*
X16062622Y50672592D01*
X16342155Y50611783D01*
X16556081Y50596483D01*
X16556084Y50596482D01*
X17727518Y50596482D01*
X17727518Y51879728D01*
X17980045Y51846482D01*
X18274991Y51846482D01*
X18527518Y51879728D01*
X18527518Y50596482D01*
X19698952Y50596482D01*
X19698954Y50596483D01*
X19912880Y50611783D01*
X20192413Y50672592D01*
X20460476Y50772574D01*
X20711556Y50909674D01*
X20711557Y50909675D01*
X20940583Y51081122D01*
X20940595Y51081132D01*
X21142868Y51283405D01*
X21142878Y51283417D01*
X21314325Y51512443D01*
X21314326Y51512444D01*
X21451426Y51763524D01*
X21551408Y52031587D01*
X21612217Y52311120D01*
X21624473Y52482490D01*
X25006189Y52482490D01*
X25006189Y52482475D01*
X25025482Y52188119D01*
X25025483Y52188109D01*
X25025484Y52188102D01*
X25025486Y52188092D01*
X25083036Y51898766D01*
X25083039Y51898752D01*
X25177867Y51619402D01*
X25308343Y51354822D01*
X25308347Y51354815D01*
X25472243Y51109527D01*
X25666759Y50887724D01*
X25888562Y50693208D01*
X26033323Y50596482D01*
X26133853Y50529310D01*
X26398441Y50398830D01*
X26510965Y50360633D01*
X26547122Y50348359D01*
X26604276Y50308170D01*
X26630629Y50243461D01*
X26617814Y50174776D01*
X26608838Y50159817D01*
X26524854Y50039874D01*
X26524851Y50039870D01*
X26432416Y49841642D01*
X26432412Y49841633D01*
X26375807Y49630377D01*
X26375805Y49630367D01*
X26356743Y49412483D01*
X26356743Y49412482D01*
X26375805Y49194598D01*
X26375807Y49194588D01*
X26432412Y48983332D01*
X26432416Y48983323D01*
X26491012Y48857663D01*
X27168035Y49534687D01*
X27151518Y49473042D01*
X27151518Y49351922D01*
X27182867Y49234929D01*
X27243427Y49130036D01*
X27329072Y49044391D01*
X27433965Y48983831D01*
X27550958Y48952482D01*
X27672078Y48952482D01*
X27789071Y48983831D01*
X27893964Y49044391D01*
X27979609Y49130036D01*
X28040169Y49234929D01*
X28071518Y49351922D01*
X28071518Y49412482D01*
X28177203Y49412482D01*
X28732023Y48857662D01*
X28790620Y48983323D01*
X28790623Y48983332D01*
X28801743Y49024832D01*
X28838107Y49084492D01*
X28900954Y49115022D01*
X28970330Y49106728D01*
X29024208Y49062243D01*
X29041293Y49024832D01*
X29052412Y48983332D01*
X29052416Y48983323D01*
X29111012Y48857663D01*
X29665832Y49412482D01*
X29605272Y49473042D01*
X29771518Y49473042D01*
X29771518Y49351922D01*
X29802867Y49234929D01*
X29863427Y49130036D01*
X29949072Y49044391D01*
X30053965Y48983831D01*
X30170958Y48952482D01*
X30292078Y48952482D01*
X30409071Y48983831D01*
X30513964Y49044391D01*
X30599609Y49130036D01*
X30660169Y49234929D01*
X30691518Y49351922D01*
X30691518Y49412482D01*
X30797203Y49412482D01*
X31352023Y48857662D01*
X31410620Y48983323D01*
X31410623Y48983332D01*
X31467228Y49194588D01*
X31467230Y49194598D01*
X31486293Y49412482D01*
X31486293Y49412483D01*
X31467230Y49630367D01*
X31467228Y49630377D01*
X31410623Y49841633D01*
X31410620Y49841642D01*
X31352023Y49967303D01*
X30797203Y49412482D01*
X30691518Y49412482D01*
X30691518Y49473042D01*
X30660169Y49590035D01*
X30599609Y49694928D01*
X30513964Y49780573D01*
X30409071Y49841133D01*
X30292078Y49872482D01*
X30170958Y49872482D01*
X30053965Y49841133D01*
X29949072Y49780573D01*
X29863427Y49694928D01*
X29802867Y49590035D01*
X29771518Y49473042D01*
X29605272Y49473042D01*
X29111012Y49967302D01*
X29052416Y49841642D01*
X29052412Y49841633D01*
X29041293Y49800133D01*
X29004928Y49740472D01*
X28942081Y49709943D01*
X28872706Y49718238D01*
X28818828Y49762723D01*
X28801743Y49800133D01*
X28790623Y49841633D01*
X28790620Y49841642D01*
X28732023Y49967303D01*
X28177203Y49412482D01*
X28071518Y49412482D01*
X28071518Y49473042D01*
X28040169Y49590035D01*
X27979609Y49694928D01*
X27893964Y49780573D01*
X27789071Y49841133D01*
X27672078Y49872482D01*
X27550958Y49872482D01*
X27489313Y49855965D01*
X27611517Y49978167D01*
X27964241Y50330894D01*
X28012059Y50360630D01*
X28124595Y50398830D01*
X28389183Y50529310D01*
X28394688Y50532988D01*
X29676698Y50532988D01*
X30231518Y49978168D01*
X30786337Y50532988D01*
X30660677Y50591584D01*
X30660668Y50591588D01*
X30449412Y50648193D01*
X30449402Y50648195D01*
X30231519Y50667257D01*
X30231517Y50667257D01*
X30013633Y50648195D01*
X30013623Y50648193D01*
X29802367Y50591588D01*
X29802358Y50591584D01*
X29676698Y50532988D01*
X28394688Y50532988D01*
X28634475Y50693209D01*
X28856276Y50887724D01*
X29050791Y51109525D01*
X29214690Y51354817D01*
X29345170Y51619405D01*
X29439999Y51898760D01*
X29497552Y52188102D01*
X29507759Y52343830D01*
X29516847Y52482475D01*
X29516847Y52482490D01*
X30686189Y52482490D01*
X30686189Y52482475D01*
X30705482Y52188119D01*
X30705483Y52188109D01*
X30705484Y52188102D01*
X30705486Y52188092D01*
X30763036Y51898766D01*
X30763039Y51898752D01*
X30857867Y51619402D01*
X30988343Y51354822D01*
X30988347Y51354815D01*
X31152243Y51109527D01*
X31346759Y50887724D01*
X31568562Y50693208D01*
X31713323Y50596482D01*
X31813853Y50529310D01*
X32078441Y50398830D01*
X32357796Y50304001D01*
X32647138Y50246448D01*
X32675406Y50244596D01*
X32941511Y50227153D01*
X32941518Y50227153D01*
X32941525Y50227153D01*
X33190326Y50243461D01*
X33235898Y50246448D01*
X33525240Y50304001D01*
X33804595Y50398830D01*
X34069183Y50529310D01*
X34314475Y50693209D01*
X34536276Y50887724D01*
X34730791Y51109525D01*
X34894690Y51354817D01*
X35025170Y51619405D01*
X35119999Y51898760D01*
X35177552Y52188102D01*
X35187759Y52343830D01*
X35196847Y52482475D01*
X35196847Y52482490D01*
X35177553Y52776846D01*
X35177552Y52776862D01*
X35119999Y53066204D01*
X35025170Y53345559D01*
X34894690Y53610146D01*
X34885116Y53624474D01*
X34814554Y53730078D01*
X34730791Y53855439D01*
X34648732Y53949009D01*
X34536276Y54077241D01*
X34314473Y54271757D01*
X34069185Y54435653D01*
X34069178Y54435657D01*
X33804598Y54566133D01*
X33525248Y54660961D01*
X33525242Y54660963D01*
X33525240Y54660963D01*
X33235898Y54718516D01*
X33235891Y54718517D01*
X33235881Y54718518D01*
X32941525Y54737811D01*
X32941511Y54737811D01*
X32647154Y54718518D01*
X32647142Y54718517D01*
X32647138Y54718516D01*
X32647130Y54718515D01*
X32647127Y54718514D01*
X32357801Y54660964D01*
X32357787Y54660961D01*
X32078437Y54566133D01*
X31813852Y54435654D01*
X31568559Y54271754D01*
X31346759Y54077241D01*
X31152246Y53855441D01*
X30988346Y53610148D01*
X30857867Y53345563D01*
X30763039Y53066213D01*
X30763036Y53066199D01*
X30705486Y52776873D01*
X30705482Y52776846D01*
X30686189Y52482490D01*
X29516847Y52482490D01*
X29497553Y52776846D01*
X29497552Y52776862D01*
X29439999Y53066204D01*
X29345170Y53345559D01*
X29214690Y53610146D01*
X29205116Y53624474D01*
X29134554Y53730078D01*
X29050791Y53855439D01*
X28968732Y53949009D01*
X28856276Y54077241D01*
X28634473Y54271757D01*
X28389185Y54435653D01*
X28389178Y54435657D01*
X28124598Y54566133D01*
X27845248Y54660961D01*
X27845242Y54660963D01*
X27845240Y54660963D01*
X27555898Y54718516D01*
X27555891Y54718517D01*
X27555881Y54718518D01*
X27261525Y54737811D01*
X27261511Y54737811D01*
X26967154Y54718518D01*
X26967142Y54718517D01*
X26967138Y54718516D01*
X26967130Y54718515D01*
X26967127Y54718514D01*
X26677801Y54660964D01*
X26677787Y54660961D01*
X26398437Y54566133D01*
X26133852Y54435654D01*
X25888559Y54271754D01*
X25666759Y54077241D01*
X25472246Y53855441D01*
X25308346Y53610148D01*
X25177867Y53345563D01*
X25083039Y53066213D01*
X25083036Y53066199D01*
X25025486Y52776873D01*
X25025482Y52776846D01*
X25006189Y52482490D01*
X21624473Y52482490D01*
X21627517Y52525046D01*
X21627518Y52525048D01*
X21627518Y53696482D01*
X20344272Y53696482D01*
X20377518Y53949009D01*
X20377518Y54243955D01*
X20344272Y54496482D01*
X21627518Y54496482D01*
X21627518Y55667916D01*
X21627517Y55667919D01*
X21612217Y55881845D01*
X21551408Y56161378D01*
X21451426Y56429441D01*
X21314326Y56680521D01*
X21314325Y56680522D01*
X21142878Y56909548D01*
X21142868Y56909560D01*
X20940595Y57111833D01*
X20940583Y57111843D01*
X20711557Y57283290D01*
X20711556Y57283291D01*
X20460475Y57420391D01*
X20460476Y57420391D01*
X20192413Y57520373D01*
X19912880Y57581182D01*
X19698954Y57596482D01*
X18527518Y57596482D01*
X18527518Y56313237D01*
X18274991Y56346482D01*
X17980045Y56346482D01*
X17727518Y56313237D01*
X17727518Y57596482D01*
X17210683Y57596482D01*
X17143644Y57616167D01*
X17097889Y57668971D01*
X17087945Y57738129D01*
X17116970Y57801685D01*
X17123002Y57808163D01*
X17317520Y58002681D01*
X17378843Y58036166D01*
X17405201Y58039000D01*
X41926018Y58039000D01*
X41993057Y58019315D01*
G37*
%TD.AperFunction*%
%TA.AperFunction,Conductor*%
G36*
X20063539Y19413297D02*
G01*
X20109294Y19360493D01*
X20119238Y19291335D01*
X20114208Y19269988D01*
X20100797Y19229517D01*
X20100718Y19229276D01*
X20090218Y19126499D01*
X20090218Y18501481D01*
X20090219Y18501463D01*
X20100718Y18398686D01*
X20100719Y18398683D01*
X20155903Y18232151D01*
X20155905Y18232146D01*
X20248007Y18082825D01*
X20341669Y17989163D01*
X20375154Y17927840D01*
X20370170Y17858148D01*
X20341669Y17813801D01*
X20248007Y17720140D01*
X20155905Y17570819D01*
X20155904Y17570816D01*
X20100719Y17404279D01*
X20100719Y17404278D01*
X20100718Y17404278D01*
X20090218Y17301499D01*
X20090218Y16676481D01*
X20090219Y16676463D01*
X20100718Y16573686D01*
X20100719Y16573683D01*
X20155903Y16407151D01*
X20155904Y16407148D01*
X20248006Y16257826D01*
X20372062Y16133770D01*
X20521384Y16041668D01*
X20687921Y15986483D01*
X20790709Y15975982D01*
X21790726Y15975983D01*
X21790734Y15975984D01*
X21790737Y15975984D01*
X21847020Y15981734D01*
X21893515Y15986483D01*
X22060052Y16041668D01*
X22209374Y16133770D01*
X22209380Y16133777D01*
X22215037Y16138248D01*
X22217040Y16135715D01*
X22265760Y16162318D01*
X22335452Y16157334D01*
X22379799Y16128833D01*
X22424822Y16083810D01*
X22458307Y16022487D01*
X22453323Y15952795D01*
X22424823Y15908448D01*
X22331200Y15814825D01*
X22239161Y15665607D01*
X22239159Y15665602D01*
X22184012Y15499180D01*
X22182459Y15483983D01*
X22182460Y15483982D01*
X24564576Y15483982D01*
X24564576Y15483983D01*
X24563023Y15499180D01*
X24507876Y15665602D01*
X24507874Y15665607D01*
X24415833Y15814828D01*
X24322213Y15908448D01*
X24288728Y15969771D01*
X24293712Y16039463D01*
X24322211Y16083808D01*
X24398863Y16160460D01*
X24460184Y16193943D01*
X24529876Y16188959D01*
X24556752Y16174986D01*
X25682667Y15401530D01*
X26122056Y15099689D01*
X26166167Y15045505D01*
X26173982Y14976073D01*
X26143019Y14913439D01*
X26083108Y14877488D01*
X26060645Y14874610D01*
X26059518Y14873482D01*
X26059518Y14260982D01*
X26850576Y14260982D01*
X26850576Y14260983D01*
X26849023Y14276178D01*
X26825936Y14345851D01*
X26823534Y14415680D01*
X26859265Y14475722D01*
X26921786Y14506915D01*
X26991245Y14499355D01*
X27013850Y14487065D01*
X28251903Y13636577D01*
X28296014Y13582393D01*
X28303829Y13512961D01*
X28272866Y13450327D01*
X28240543Y13425226D01*
X28217905Y13413020D01*
X28086851Y13296393D01*
X28086847Y13296389D01*
X28026358Y13212621D01*
X27713853Y12671344D01*
X27713843Y12671324D01*
X27671550Y12577073D01*
X27636072Y12405257D01*
X27641174Y12229886D01*
X27675587Y12101458D01*
X27673924Y12031609D01*
X27634761Y11973746D01*
X27587906Y11949590D01*
X27460020Y11915324D01*
X27305692Y11832111D01*
X27174728Y11715563D01*
X27174726Y11715560D01*
X27114276Y11631847D01*
X27114266Y11631833D01*
X27083595Y11578707D01*
X27033028Y11530491D01*
X26964421Y11517268D01*
X26899556Y11543236D01*
X26859028Y11600151D01*
X26852850Y11653310D01*
X26857056Y11694482D01*
X26860018Y11723473D01*
X26860017Y12348490D01*
X26849517Y12451279D01*
X26794332Y12617816D01*
X26702230Y12767138D01*
X26608213Y12861155D01*
X26574728Y12922478D01*
X26579712Y12992170D01*
X26608213Y13036518D01*
X26701835Y13130140D01*
X26793874Y13279358D01*
X26793876Y13279363D01*
X26849023Y13445785D01*
X26850576Y13460982D01*
X25442707Y13460982D01*
X25375668Y13480667D01*
X25355026Y13497301D01*
X25295837Y13556490D01*
X25262352Y13617813D01*
X25259518Y13644171D01*
X25259518Y14873483D01*
X25159546Y14873482D01*
X25159530Y14873481D01*
X25056820Y14862988D01*
X24890398Y14807841D01*
X24890393Y14807839D01*
X24741172Y14715798D01*
X24725538Y14700164D01*
X24664214Y14666680D01*
X24594523Y14671666D01*
X24576391Y14683982D01*
X22182460Y14683982D01*
X22184012Y14668785D01*
X22239159Y14502363D01*
X22239161Y14502358D01*
X22331202Y14353137D01*
X22455172Y14229167D01*
X22555805Y14167096D01*
X22602529Y14115148D01*
X22613752Y14046185D01*
X22587984Y13984659D01*
X22584813Y13980649D01*
X22492705Y13831319D01*
X22492703Y13831314D01*
X22464867Y13747312D01*
X22437519Y13664779D01*
X22437519Y13664778D01*
X22437518Y13664778D01*
X22427018Y13561999D01*
X22427018Y13435417D01*
X22407333Y13368378D01*
X22354529Y13322623D01*
X22285371Y13312679D01*
X22264015Y13317711D01*
X22198317Y13339481D01*
X22198313Y13339482D01*
X22095528Y13349982D01*
X21095516Y13349982D01*
X21095498Y13349981D01*
X20992721Y13339482D01*
X20992718Y13339481D01*
X20826186Y13284297D01*
X20826181Y13284295D01*
X20676860Y13192193D01*
X20552806Y13068139D01*
X20552803Y13068135D01*
X20480540Y12950978D01*
X20428592Y12904253D01*
X20359630Y12893032D01*
X20314561Y12909823D01*
X20313861Y12908512D01*
X20308479Y12911389D01*
X20159624Y12973046D01*
X20159612Y12973049D01*
X20001588Y13004482D01*
X20001584Y13004482D01*
X19113763Y13004482D01*
X19046724Y13024167D01*
X19014497Y13054170D01*
X18968832Y13115170D01*
X18968564Y13115528D01*
X18968562Y13115529D01*
X18968562Y13115530D01*
X18853353Y13201776D01*
X18853344Y13201781D01*
X18822458Y13213300D01*
X18766524Y13255170D01*
X18742106Y13320634D01*
X18756957Y13388907D01*
X18806362Y13438313D01*
X18822458Y13445664D01*
X18853344Y13457184D01*
X18853344Y13457185D01*
X18853349Y13457186D01*
X18968564Y13543436D01*
X19054814Y13658651D01*
X19105109Y13793499D01*
X19111518Y13853109D01*
X19111517Y15091854D01*
X19105109Y15151465D01*
X19054814Y15286313D01*
X19054813Y15286314D01*
X19054811Y15286318D01*
X18968565Y15401527D01*
X18968562Y15401530D01*
X18853353Y15487776D01*
X18853344Y15487781D01*
X18822458Y15499300D01*
X18766524Y15541170D01*
X18742106Y15606634D01*
X18756957Y15674907D01*
X18806362Y15724313D01*
X18822458Y15731664D01*
X18853344Y15743184D01*
X18853344Y15743185D01*
X18853349Y15743186D01*
X18968564Y15829436D01*
X19054814Y15944651D01*
X19105109Y16079499D01*
X19111518Y16139109D01*
X19111517Y17377854D01*
X19105109Y17437465D01*
X19095230Y17463953D01*
X19090245Y17533644D01*
X19123729Y17594968D01*
X19168079Y17623469D01*
X19234344Y17648184D01*
X19234344Y17648185D01*
X19234349Y17648186D01*
X19349564Y17734436D01*
X19435814Y17849651D01*
X19486109Y17984499D01*
X19492518Y18044109D01*
X19492518Y19308982D01*
X19512203Y19376021D01*
X19565007Y19421776D01*
X19616518Y19432982D01*
X19996500Y19432982D01*
X20063539Y19413297D01*
G37*
%TD.AperFunction*%
%TD*%
%TA.AperFunction,Conductor*%
%TO.N,+5V*%
G36*
X35635557Y25374797D02*
G01*
X35681312Y25321993D01*
X35692518Y25270482D01*
X35692518Y17888982D01*
X35672833Y17821943D01*
X35620029Y17776188D01*
X35568518Y17764982D01*
X35138598Y17764982D01*
X34993610Y17736142D01*
X34993600Y17736139D01*
X34857029Y17679570D01*
X34857016Y17679563D01*
X34734102Y17597434D01*
X34734098Y17597431D01*
X34629569Y17492902D01*
X34629566Y17492898D01*
X34547437Y17369984D01*
X34547430Y17369971D01*
X34490861Y17233400D01*
X34490858Y17233390D01*
X34462018Y17088403D01*
X34462018Y17088400D01*
X34462018Y16940564D01*
X34462018Y16940562D01*
X34462017Y16940562D01*
X34490858Y16795575D01*
X34490861Y16795565D01*
X34547430Y16658994D01*
X34547440Y16658976D01*
X34606790Y16570152D01*
X34627668Y16503475D01*
X34609183Y16436095D01*
X34559985Y16390778D01*
X34524175Y16372532D01*
X34524170Y16372528D01*
X34434472Y16282830D01*
X34434469Y16282825D01*
X34376870Y16169784D01*
X34362018Y16076007D01*
X34362018Y15712965D01*
X34363441Y15703982D01*
X34376872Y15619178D01*
X34434468Y15506140D01*
X34434470Y15506138D01*
X34434472Y15506135D01*
X34524170Y15416437D01*
X34524172Y15416436D01*
X34524176Y15416432D01*
X34637214Y15358836D01*
X34637216Y15358835D01*
X34730993Y15343983D01*
X34730999Y15343982D01*
X35100600Y15343983D01*
X35100610Y15343982D01*
X35115043Y15343982D01*
X35568518Y15343982D01*
X35635557Y15324297D01*
X35681312Y15271493D01*
X35692518Y15219982D01*
X35692518Y14968982D01*
X35672833Y14901943D01*
X35620029Y14856188D01*
X35568518Y14844982D01*
X34649385Y14844982D01*
X34634357Y14843004D01*
X34601973Y14838741D01*
X34601971Y14838740D01*
X34601969Y14838740D01*
X34497938Y14790229D01*
X34416771Y14709062D01*
X34368258Y14605026D01*
X34362018Y14557623D01*
X34362018Y14331351D01*
X34362019Y14331344D01*
X34368259Y14283937D01*
X34385536Y14246886D01*
X34396027Y14177809D01*
X34385536Y14142080D01*
X34368260Y14105031D01*
X34368258Y14105024D01*
X34362018Y14057623D01*
X34362018Y13831351D01*
X34362019Y13831344D01*
X34368259Y13783937D01*
X34385536Y13746886D01*
X34396027Y13677809D01*
X34385536Y13642080D01*
X34368260Y13605031D01*
X34368258Y13605024D01*
X34362018Y13557623D01*
X34362018Y13331351D01*
X34362019Y13331344D01*
X34368259Y13283937D01*
X34385536Y13246886D01*
X34396027Y13177809D01*
X34385536Y13142080D01*
X34368260Y13105031D01*
X34368258Y13105024D01*
X34362018Y13057623D01*
X34362018Y12831351D01*
X34362019Y12831344D01*
X34368259Y12783937D01*
X34385536Y12746886D01*
X34396027Y12677809D01*
X34385536Y12642080D01*
X34368260Y12605031D01*
X34368258Y12605024D01*
X34362018Y12557623D01*
X34362018Y12331351D01*
X34362019Y12331344D01*
X34368259Y12283937D01*
X34385536Y12246886D01*
X34396027Y12177809D01*
X34385536Y12142080D01*
X34368260Y12105031D01*
X34368258Y12105024D01*
X34362018Y12057623D01*
X34362018Y11831351D01*
X34362019Y11831344D01*
X34368259Y11783937D01*
X34385536Y11746886D01*
X34396027Y11677809D01*
X34385536Y11642080D01*
X34368260Y11605031D01*
X34368258Y11605024D01*
X34362018Y11557623D01*
X34362018Y11331351D01*
X34362019Y11331344D01*
X34368259Y11283937D01*
X34385536Y11246886D01*
X34396027Y11177809D01*
X34385536Y11142080D01*
X34368260Y11105031D01*
X34368258Y11105024D01*
X34362018Y11057623D01*
X34362018Y10831350D01*
X34362019Y10831344D01*
X34368259Y10783937D01*
X34368260Y10783935D01*
X34368260Y10783934D01*
X34398919Y10718186D01*
X34416771Y10679903D01*
X34497939Y10598735D01*
X34601973Y10550223D01*
X34649379Y10543982D01*
X35568518Y10543983D01*
X35635557Y10524299D01*
X35681312Y10471495D01*
X35692518Y10419983D01*
X35692518Y10168982D01*
X35672833Y10101943D01*
X35620029Y10056188D01*
X35568518Y10044982D01*
X34411417Y10044982D01*
X34344378Y10064667D01*
X34341205Y10066775D01*
X33646535Y10543983D01*
X30878423Y12445556D01*
X30834312Y12499740D01*
X30826497Y12569172D01*
X30857460Y12631806D01*
X30899819Y12661750D01*
X30959052Y12687114D01*
X31063103Y12773026D01*
X31096253Y12818426D01*
X31359883Y13275046D01*
X31382625Y13326455D01*
X31405002Y13459522D01*
X31388983Y13593504D01*
X31335865Y13717545D01*
X31249953Y13821597D01*
X31204553Y13854746D01*
X30682981Y14155876D01*
X30631572Y14178619D01*
X30631570Y14178620D01*
X30631569Y14178620D01*
X30498507Y14200995D01*
X30498504Y14200996D01*
X30364523Y14184976D01*
X30240484Y14131860D01*
X30136430Y14045946D01*
X30103277Y14000541D01*
X29839654Y13543933D01*
X29839650Y13543926D01*
X29816910Y13492523D01*
X29816908Y13492516D01*
X29805820Y13426580D01*
X29775290Y13363734D01*
X29771218Y13359464D01*
X29753248Y13341494D01*
X29691925Y13308009D01*
X29622233Y13312993D01*
X29595355Y13326968D01*
X24377805Y16911198D01*
X24333694Y16965382D01*
X24324017Y17013405D01*
X24324017Y17219353D01*
X24324016Y17219359D01*
X24322507Y17233395D01*
X24317609Y17278965D01*
X24267314Y17413813D01*
X24267313Y17413814D01*
X24267311Y17413818D01*
X24181065Y17529027D01*
X24181062Y17529030D01*
X24065853Y17615276D01*
X24065846Y17615280D01*
X23931000Y17665574D01*
X23931001Y17665574D01*
X23871401Y17671981D01*
X23871399Y17671982D01*
X23871391Y17671982D01*
X23871383Y17671982D01*
X23308823Y17671982D01*
X23241784Y17691667D01*
X23238611Y17693775D01*
X21141306Y19134532D01*
X21097195Y19188716D01*
X21087518Y19236739D01*
X21087518Y21308484D01*
X30161408Y21308484D01*
X30161408Y21308481D01*
X30181822Y21023049D01*
X30242646Y20743445D01*
X30342653Y20475316D01*
X30479788Y20224173D01*
X30479793Y20224165D01*
X30651272Y19995095D01*
X30651288Y19995077D01*
X30853612Y19792753D01*
X30853630Y19792737D01*
X31082700Y19621258D01*
X31082708Y19621253D01*
X31333851Y19484118D01*
X31333850Y19484118D01*
X31333854Y19484117D01*
X31333857Y19484115D01*
X31601972Y19384113D01*
X31601978Y19384112D01*
X31601980Y19384111D01*
X31881584Y19323287D01*
X31881586Y19323287D01*
X31881590Y19323286D01*
X32135238Y19305145D01*
X32167017Y19302872D01*
X32167018Y19302872D01*
X32167019Y19302872D01*
X32195613Y19304918D01*
X32452446Y19323286D01*
X32732064Y19384113D01*
X33000179Y19484115D01*
X33251333Y19621256D01*
X33480413Y19792743D01*
X33682757Y19995087D01*
X33854244Y20224167D01*
X33991385Y20475321D01*
X34091387Y20743436D01*
X34152214Y21023054D01*
X34172628Y21308482D01*
X34152214Y21593910D01*
X34091387Y21873528D01*
X33991385Y22141643D01*
X33854244Y22392797D01*
X33854242Y22392800D01*
X33682763Y22621870D01*
X33682747Y22621888D01*
X33480423Y22824212D01*
X33480405Y22824228D01*
X33251335Y22995707D01*
X33251327Y22995712D01*
X33000184Y23132847D01*
X33000185Y23132847D01*
X32892933Y23172850D01*
X32732064Y23232851D01*
X32732061Y23232852D01*
X32732055Y23232854D01*
X32452451Y23293678D01*
X32167019Y23314092D01*
X32167017Y23314092D01*
X31881584Y23293678D01*
X31601980Y23232854D01*
X31333851Y23132847D01*
X31082708Y22995712D01*
X31082700Y22995707D01*
X30853630Y22824228D01*
X30853612Y22824212D01*
X30651288Y22621888D01*
X30651272Y22621870D01*
X30479793Y22392800D01*
X30479788Y22392792D01*
X30342653Y22141649D01*
X30242646Y21873520D01*
X30181822Y21593916D01*
X30161408Y21308484D01*
X21087518Y21308484D01*
X21087518Y25270482D01*
X21107203Y25337521D01*
X21160007Y25383276D01*
X21211518Y25394482D01*
X35568518Y25394482D01*
X35635557Y25374797D01*
G37*
%TD.AperFunction*%
%TD*%
%TA.AperFunction,Conductor*%
%TO.N,+5VP*%
G36*
X26986667Y43811285D02*
G01*
X27039016Y43799670D01*
X27182188Y43732907D01*
X27393541Y43676275D01*
X27576444Y43660274D01*
X27611516Y43657205D01*
X27611518Y43657205D01*
X27611520Y43657205D01*
X27639772Y43659677D01*
X27829495Y43676275D01*
X28040848Y43732907D01*
X28183033Y43799210D01*
X28235473Y43810825D01*
X29608739Y43810320D01*
X29661085Y43798705D01*
X29802188Y43732907D01*
X30013541Y43676275D01*
X30196444Y43660274D01*
X30231516Y43657205D01*
X30231518Y43657205D01*
X30231520Y43657205D01*
X30259772Y43659677D01*
X30449495Y43676275D01*
X30660848Y43732907D01*
X30800967Y43798246D01*
X30853406Y43809861D01*
X31758377Y43809528D01*
X31825409Y43789819D01*
X31871144Y43736998D01*
X31882331Y43685342D01*
X31878909Y41404620D01*
X31859124Y41337610D01*
X31816919Y41297425D01*
X31813862Y41295661D01*
X31568559Y41131754D01*
X31346759Y40937241D01*
X31152246Y40715441D01*
X30988346Y40470148D01*
X30903109Y40297305D01*
X30857866Y40205559D01*
X30857864Y40205556D01*
X30856071Y40201918D01*
X30854554Y40202666D01*
X30815012Y40153674D01*
X30748701Y40131660D01*
X30744416Y40131584D01*
X29458908Y40131110D01*
X29391861Y40150770D01*
X29347345Y40202106D01*
X29346966Y40201918D01*
X29346250Y40203368D01*
X29346087Y40203557D01*
X29345552Y40204785D01*
X29214689Y40470148D01*
X29159560Y40552653D01*
X29050791Y40715439D01*
X29008173Y40764035D01*
X28856276Y40937241D01*
X28634473Y41131757D01*
X28389185Y41295653D01*
X28389178Y41295657D01*
X28124598Y41426133D01*
X27845248Y41520961D01*
X27845242Y41520963D01*
X27845240Y41520963D01*
X27555898Y41578516D01*
X27555891Y41578517D01*
X27555881Y41578518D01*
X27261525Y41597811D01*
X27261511Y41597811D01*
X26967154Y41578518D01*
X26967142Y41578517D01*
X26967138Y41578516D01*
X26967130Y41578515D01*
X26967127Y41578514D01*
X26677801Y41520964D01*
X26677787Y41520961D01*
X26398437Y41426133D01*
X26133852Y41295654D01*
X25888559Y41131754D01*
X25666759Y40937241D01*
X25472246Y40715441D01*
X25308346Y40470148D01*
X25176070Y40201918D01*
X25175121Y40202386D01*
X25134220Y40151633D01*
X25067925Y40129570D01*
X25063549Y40129491D01*
X17076563Y40126549D01*
X17009516Y40146209D01*
X16963742Y40198996D01*
X16952517Y40250546D01*
X16952517Y41888854D01*
X16946109Y41948465D01*
X16904336Y42060465D01*
X16896518Y42103798D01*
X16896518Y43690955D01*
X16916203Y43757994D01*
X16969007Y43803749D01*
X17020560Y43814955D01*
X26986667Y43811285D01*
G37*
%TD.AperFunction*%
%TD*%
%TA.AperFunction,Conductor*%
%TO.N,+BATT*%
G36*
X11881039Y58013797D02*
G01*
X11926794Y57960993D01*
X11938000Y57909482D01*
X11938000Y57610791D01*
X11918315Y57543752D01*
X11865511Y57497997D01*
X11796353Y57488053D01*
X11781907Y57491016D01*
X11656209Y57524697D01*
X11656202Y57524698D01*
X11293871Y57582085D01*
X10927519Y57601285D01*
X10927517Y57601285D01*
X10561164Y57582085D01*
X10198833Y57524698D01*
X10198831Y57524698D01*
X9844466Y57429746D01*
X9501982Y57298278D01*
X9175112Y57131728D01*
X8867448Y56931929D01*
X8751581Y56838103D01*
X9642878Y55946807D01*
X9440807Y55791751D01*
X9232249Y55583193D01*
X9077193Y55381123D01*
X8185897Y56272419D01*
X8092071Y56156552D01*
X7892272Y55848888D01*
X7725722Y55522018D01*
X7594254Y55179534D01*
X7499302Y54825169D01*
X7499302Y54825167D01*
X7441915Y54462836D01*
X7422715Y54096483D01*
X7422715Y54096482D01*
X7441915Y53730129D01*
X7499302Y53367798D01*
X7499302Y53367796D01*
X7594254Y53013431D01*
X7725722Y52670947D01*
X7892272Y52344076D01*
X8092071Y52036412D01*
X8185897Y51920548D01*
X9077193Y52811844D01*
X9232249Y52609771D01*
X9440807Y52401213D01*
X9642877Y52246159D01*
X8751582Y51354863D01*
X8867453Y51261032D01*
X9175111Y51061237D01*
X9501982Y50894687D01*
X9844466Y50763219D01*
X10198832Y50668267D01*
X10561164Y50610880D01*
X10927517Y50591679D01*
X10927519Y50591679D01*
X11293871Y50610880D01*
X11656202Y50668267D01*
X11656204Y50668267D01*
X11781906Y50701949D01*
X11851756Y50700286D01*
X11909618Y50661124D01*
X11937123Y50596896D01*
X11938000Y50582174D01*
X11938000Y45735345D01*
X11918315Y45668306D01*
X11865511Y45622551D01*
X11796353Y45612607D01*
X11774996Y45617639D01*
X11650213Y45658988D01*
X11647518Y45659264D01*
X11647518Y43229702D01*
X11650212Y43229977D01*
X11650219Y43229978D01*
X11774996Y43271325D01*
X11844824Y43273727D01*
X11904866Y43237995D01*
X11936059Y43175475D01*
X11938000Y43153619D01*
X11938000Y42464982D01*
X11918315Y42397943D01*
X11865511Y42352188D01*
X11814000Y42340982D01*
X10184518Y42340982D01*
X10184518Y39435982D01*
X11814000Y39435982D01*
X11881039Y39416297D01*
X11926794Y39363493D01*
X11938000Y39311982D01*
X11938000Y34476189D01*
X11918315Y34409150D01*
X11865511Y34363395D01*
X11796353Y34353451D01*
X11732797Y34382476D01*
X11726319Y34388508D01*
X9749836Y36364991D01*
X9716351Y36426314D01*
X9713517Y36452672D01*
X9713517Y36935853D01*
X9713516Y36935859D01*
X9713515Y36935866D01*
X9707109Y36995465D01*
X9656814Y37130313D01*
X9656813Y37130314D01*
X9656811Y37130318D01*
X9570565Y37245527D01*
X9570562Y37245530D01*
X9455353Y37331776D01*
X9455346Y37331780D01*
X9320500Y37382074D01*
X9320501Y37382074D01*
X9260901Y37388481D01*
X9260899Y37388482D01*
X9260891Y37388482D01*
X9260882Y37388482D01*
X8022147Y37388482D01*
X8022141Y37388481D01*
X7962534Y37382074D01*
X7827689Y37331780D01*
X7827682Y37331776D01*
X7712473Y37245530D01*
X7712470Y37245527D01*
X7626224Y37130318D01*
X7626220Y37130311D01*
X7575926Y36995465D01*
X7569519Y36935866D01*
X7569519Y36935859D01*
X7569518Y36935847D01*
X7569518Y35697112D01*
X7569519Y35697106D01*
X7575926Y35637499D01*
X7626220Y35502654D01*
X7626224Y35502647D01*
X7712470Y35387438D01*
X7712473Y35387435D01*
X7827682Y35301189D01*
X7827689Y35301185D01*
X7858578Y35289664D01*
X7914512Y35247793D01*
X7938929Y35182329D01*
X7924077Y35114056D01*
X7874672Y35064650D01*
X7858578Y35057300D01*
X7827689Y35045780D01*
X7827682Y35045776D01*
X7712473Y34959530D01*
X7712470Y34959527D01*
X7626224Y34844318D01*
X7626220Y34844311D01*
X7575926Y34709465D01*
X7569519Y34649866D01*
X7569518Y34649847D01*
X7569518Y33411112D01*
X7569519Y33411106D01*
X7575926Y33351499D01*
X7626220Y33216654D01*
X7626224Y33216647D01*
X7712470Y33101438D01*
X7712473Y33101435D01*
X7827682Y33015189D01*
X7827689Y33015185D01*
X7858578Y33003664D01*
X7914512Y32961793D01*
X7938929Y32896329D01*
X7924077Y32828056D01*
X7874672Y32778650D01*
X7858578Y32771300D01*
X7827689Y32759780D01*
X7827682Y32759776D01*
X7712473Y32673530D01*
X7712470Y32673527D01*
X7626224Y32558318D01*
X7626220Y32558311D01*
X7575926Y32423465D01*
X7569519Y32363866D01*
X7569518Y32363847D01*
X7569518Y31125112D01*
X7569519Y31125106D01*
X7575926Y31065499D01*
X7626220Y30930654D01*
X7626224Y30930647D01*
X7712470Y30815438D01*
X7712473Y30815435D01*
X7827682Y30729189D01*
X7827689Y30729185D01*
X7962535Y30678891D01*
X7962534Y30678891D01*
X7969462Y30678147D01*
X8022145Y30672482D01*
X9260890Y30672483D01*
X9320501Y30678891D01*
X9455349Y30729186D01*
X9570564Y30815436D01*
X9656814Y30930651D01*
X9668336Y30961542D01*
X9710206Y31017476D01*
X9775670Y31041894D01*
X9843943Y31027043D01*
X9893349Y30977638D01*
X9900700Y30961542D01*
X9912219Y30930656D01*
X9912224Y30930647D01*
X9998470Y30815438D01*
X9998473Y30815435D01*
X10113682Y30729189D01*
X10113689Y30729185D01*
X10248535Y30678891D01*
X10248534Y30678891D01*
X10255462Y30678147D01*
X10308145Y30672482D01*
X11546890Y30672483D01*
X11606501Y30678891D01*
X11741349Y30729186D01*
X11741352Y30729189D01*
X11749132Y30733436D01*
X11750026Y30731798D01*
X11805144Y30752360D01*
X11873418Y30737514D01*
X11922828Y30688112D01*
X11938000Y30628677D01*
X11938000Y26177345D01*
X11918315Y26110306D01*
X11865511Y26064551D01*
X11796353Y26054607D01*
X11774996Y26059639D01*
X11650213Y26100988D01*
X11647518Y26101264D01*
X11647518Y23671702D01*
X11650212Y23671977D01*
X11650219Y23671978D01*
X11774996Y23713325D01*
X11844824Y23715727D01*
X11904866Y23679995D01*
X11936059Y23617475D01*
X11938000Y23595619D01*
X11938000Y22906982D01*
X11918315Y22839943D01*
X11865511Y22794188D01*
X11814000Y22782982D01*
X10438518Y22782982D01*
X10438518Y19877982D01*
X11814000Y19877982D01*
X11881039Y19858297D01*
X11926794Y19805493D01*
X11938000Y19753982D01*
X11938000Y15172189D01*
X11918315Y15105150D01*
X11865511Y15059395D01*
X11796353Y15049451D01*
X11732797Y15078476D01*
X11726319Y15084508D01*
X10003836Y16806991D01*
X9970351Y16868314D01*
X9967517Y16894672D01*
X9967517Y17377853D01*
X9967516Y17377859D01*
X9967515Y17377866D01*
X9961109Y17437465D01*
X9910814Y17572313D01*
X9910813Y17572314D01*
X9910811Y17572318D01*
X9824565Y17687527D01*
X9824562Y17687530D01*
X9709353Y17773776D01*
X9709346Y17773780D01*
X9574500Y17824074D01*
X9574501Y17824074D01*
X9514901Y17830481D01*
X9514899Y17830482D01*
X9514891Y17830482D01*
X9514882Y17830482D01*
X8276147Y17830482D01*
X8276141Y17830481D01*
X8216534Y17824074D01*
X8081689Y17773780D01*
X8081682Y17773776D01*
X7966473Y17687530D01*
X7966470Y17687527D01*
X7880224Y17572318D01*
X7880220Y17572311D01*
X7829926Y17437465D01*
X7823519Y17377866D01*
X7823519Y17377859D01*
X7823518Y17377847D01*
X7823518Y16139112D01*
X7823519Y16139106D01*
X7829926Y16079499D01*
X7880220Y15944654D01*
X7880224Y15944647D01*
X7966470Y15829438D01*
X7966473Y15829435D01*
X8081682Y15743189D01*
X8081689Y15743185D01*
X8112578Y15731664D01*
X8168512Y15689793D01*
X8192929Y15624329D01*
X8178077Y15556056D01*
X8128672Y15506650D01*
X8112578Y15499300D01*
X8081689Y15487780D01*
X8081682Y15487776D01*
X7966473Y15401530D01*
X7966470Y15401527D01*
X7880224Y15286318D01*
X7880220Y15286311D01*
X7829926Y15151465D01*
X7823519Y15091866D01*
X7823518Y15091847D01*
X7823518Y13853112D01*
X7823519Y13853106D01*
X7829926Y13793499D01*
X7880220Y13658654D01*
X7880224Y13658647D01*
X7966470Y13543438D01*
X7966473Y13543435D01*
X8081682Y13457189D01*
X8081689Y13457185D01*
X8112578Y13445664D01*
X8168512Y13403793D01*
X8192929Y13338329D01*
X8178077Y13270056D01*
X8128672Y13220650D01*
X8112578Y13213300D01*
X8081689Y13201780D01*
X8081682Y13201776D01*
X7966473Y13115530D01*
X7966470Y13115527D01*
X7880224Y13000318D01*
X7880220Y13000311D01*
X7829926Y12865465D01*
X7823519Y12805866D01*
X7823518Y12805847D01*
X7823518Y11567112D01*
X7823519Y11567106D01*
X7829926Y11507499D01*
X7880220Y11372654D01*
X7880224Y11372647D01*
X7966470Y11257438D01*
X7966473Y11257435D01*
X8081682Y11171189D01*
X8081689Y11171185D01*
X8216535Y11120891D01*
X8216534Y11120891D01*
X8223462Y11120147D01*
X8276145Y11114482D01*
X9514890Y11114483D01*
X9574501Y11120891D01*
X9709349Y11171186D01*
X9824564Y11257436D01*
X9910814Y11372651D01*
X9922336Y11403542D01*
X9964206Y11459476D01*
X10029670Y11483894D01*
X10097943Y11469043D01*
X10147349Y11419638D01*
X10154700Y11403542D01*
X10166219Y11372656D01*
X10166224Y11372647D01*
X10252470Y11257438D01*
X10252473Y11257435D01*
X10367682Y11171189D01*
X10367689Y11171185D01*
X10502535Y11120891D01*
X10502534Y11120891D01*
X10509462Y11120147D01*
X10562145Y11114482D01*
X11800890Y11114483D01*
X11800891Y11114484D01*
X11804213Y11114661D01*
X11804257Y11113830D01*
X11869488Y11102070D01*
X11920632Y11054468D01*
X11938000Y10991178D01*
X11938000Y7616893D01*
X11918315Y7549854D01*
X11865511Y7504099D01*
X11814108Y7492893D01*
X5717626Y7487590D01*
X5650569Y7507216D01*
X5604768Y7559980D01*
X5593518Y7611590D01*
X5593518Y20330138D01*
X7443018Y20330138D01*
X7449419Y20270610D01*
X7449421Y20270603D01*
X7499663Y20135896D01*
X7499667Y20135889D01*
X7585827Y20020795D01*
X7585830Y20020792D01*
X7700924Y19934632D01*
X7700931Y19934628D01*
X7835638Y19884386D01*
X7835645Y19884384D01*
X7895173Y19877983D01*
X7895190Y19877982D01*
X9638518Y19877982D01*
X9638518Y20930482D01*
X7443018Y20930482D01*
X7443018Y20330138D01*
X5593518Y20330138D01*
X5593518Y22330827D01*
X7443018Y22330827D01*
X7443018Y21730482D01*
X9638518Y21730482D01*
X9638518Y22782982D01*
X7895173Y22782982D01*
X7835645Y22776581D01*
X7835638Y22776579D01*
X7700931Y22726337D01*
X7700924Y22726333D01*
X7585830Y22640173D01*
X7585827Y22640170D01*
X7499667Y22525076D01*
X7499663Y22525069D01*
X7449421Y22390362D01*
X7449419Y22390355D01*
X7443018Y22330827D01*
X5593518Y22330827D01*
X5593518Y24361496D01*
X10247519Y24361496D01*
X10258012Y24258785D01*
X10313159Y24092363D01*
X10313161Y24092358D01*
X10405202Y23943137D01*
X10529172Y23819167D01*
X10678393Y23727126D01*
X10678398Y23727124D01*
X10844816Y23671978D01*
X10844823Y23671977D01*
X10847518Y23671702D01*
X10847518Y24486482D01*
X10247519Y24486482D01*
X10247519Y24361496D01*
X5593518Y24361496D01*
X5593518Y25411469D01*
X10247518Y25411469D01*
X10247518Y25286482D01*
X10847518Y25286482D01*
X10847518Y26101264D01*
X10847517Y26101264D01*
X10844823Y26100988D01*
X10844821Y26100988D01*
X10678398Y26045841D01*
X10678393Y26045839D01*
X10529172Y25953798D01*
X10405202Y25829828D01*
X10313161Y25680607D01*
X10313159Y25680602D01*
X10258012Y25514180D01*
X10258011Y25514173D01*
X10247518Y25411469D01*
X5593518Y25411469D01*
X5593518Y39888138D01*
X7189018Y39888138D01*
X7195419Y39828610D01*
X7195421Y39828603D01*
X7245663Y39693896D01*
X7245667Y39693889D01*
X7331827Y39578795D01*
X7331830Y39578792D01*
X7446924Y39492632D01*
X7446931Y39492628D01*
X7581638Y39442386D01*
X7581645Y39442384D01*
X7641173Y39435983D01*
X7641190Y39435982D01*
X9384518Y39435982D01*
X9384518Y40488482D01*
X7189018Y40488482D01*
X7189018Y39888138D01*
X5593518Y39888138D01*
X5593518Y41888827D01*
X7189018Y41888827D01*
X7189018Y41288482D01*
X9384518Y41288482D01*
X9384518Y42340982D01*
X7641173Y42340982D01*
X7581645Y42334581D01*
X7581638Y42334579D01*
X7446931Y42284337D01*
X7446924Y42284333D01*
X7331830Y42198173D01*
X7331827Y42198170D01*
X7245667Y42083076D01*
X7245663Y42083069D01*
X7195421Y41948362D01*
X7195419Y41948355D01*
X7189018Y41888827D01*
X5593518Y41888827D01*
X5593518Y43919496D01*
X10247519Y43919496D01*
X10258012Y43816785D01*
X10313159Y43650363D01*
X10313161Y43650358D01*
X10405202Y43501137D01*
X10529172Y43377167D01*
X10678393Y43285126D01*
X10678398Y43285124D01*
X10844816Y43229978D01*
X10844823Y43229977D01*
X10847518Y43229702D01*
X10847518Y44044482D01*
X10247519Y44044482D01*
X10247519Y43919496D01*
X5593518Y43919496D01*
X5593518Y44969469D01*
X10247518Y44969469D01*
X10247518Y44844482D01*
X10847518Y44844482D01*
X10847518Y45659264D01*
X10847517Y45659264D01*
X10844823Y45658988D01*
X10844821Y45658988D01*
X10678398Y45603841D01*
X10678393Y45603839D01*
X10529172Y45511798D01*
X10405202Y45387828D01*
X10313161Y45238607D01*
X10313159Y45238602D01*
X10258012Y45072180D01*
X10258011Y45072173D01*
X10247518Y44969469D01*
X5593518Y44969469D01*
X5593518Y57909482D01*
X5613203Y57976521D01*
X5666007Y58022276D01*
X5717518Y58033482D01*
X11814000Y58033482D01*
X11881039Y58013797D01*
G37*
%TD.AperFunction*%
%TD*%
M02*
