%TF.GenerationSoftware,KiCad,Pcbnew,8.0.3*%
%TF.CreationDate,2024-06-18T09:05:39+09:00*%
%TF.ProjectId,USB_power,5553425f-706f-4776-9572-2e6b69636164,rev?*%
%TF.SameCoordinates,PX79d7e50PY830c570*%
%TF.FileFunction,Copper,L2,Bot*%
%TF.FilePolarity,Positive*%
%FSLAX46Y46*%
G04 Gerber Fmt 4.6, Leading zero omitted, Abs format (unit mm)*
G04 Created by KiCad (PCBNEW 8.0.3) date 2024-06-18 09:05:39*
%MOMM*%
%LPD*%
G01*
G04 APERTURE LIST*
G04 Aperture macros list*
%AMRoundRect*
0 Rectangle with rounded corners*
0 $1 Rounding radius*
0 $2 $3 $4 $5 $6 $7 $8 $9 X,Y pos of 4 corners*
0 Add a 4 corners polygon primitive as box body*
4,1,4,$2,$3,$4,$5,$6,$7,$8,$9,$2,$3,0*
0 Add four circle primitives for the rounded corners*
1,1,$1+$1,$2,$3*
1,1,$1+$1,$4,$5*
1,1,$1+$1,$6,$7*
1,1,$1+$1,$8,$9*
0 Add four rect primitives between the rounded corners*
20,1,$1+$1,$2,$3,$4,$5,0*
20,1,$1+$1,$4,$5,$6,$7,0*
20,1,$1+$1,$6,$7,$8,$9,0*
20,1,$1+$1,$8,$9,$2,$3,0*%
G04 Aperture macros list end*
%TA.AperFunction,ComponentPad*%
%ADD10R,1.524000X1.524000*%
%TD*%
%TA.AperFunction,ComponentPad*%
%ADD11C,1.524000*%
%TD*%
%TA.AperFunction,ComponentPad*%
%ADD12C,3.500000*%
%TD*%
%TA.AperFunction,ComponentPad*%
%ADD13O,2.100000X1.000000*%
%TD*%
%TA.AperFunction,ComponentPad*%
%ADD14O,1.800000X1.000000*%
%TD*%
%TA.AperFunction,ComponentPad*%
%ADD15RoundRect,0.250000X-0.600000X-0.725000X0.600000X-0.725000X0.600000X0.725000X-0.600000X0.725000X0*%
%TD*%
%TA.AperFunction,ComponentPad*%
%ADD16O,1.700000X1.950000*%
%TD*%
%TA.AperFunction,ComponentPad*%
%ADD17R,1.500000X1.500000*%
%TD*%
%TA.AperFunction,ComponentPad*%
%ADD18C,1.500000*%
%TD*%
%TA.AperFunction,ComponentPad*%
%ADD19RoundRect,1.500000X1.500000X1.500000X-1.500000X1.500000X-1.500000X-1.500000X1.500000X-1.500000X0*%
%TD*%
%TA.AperFunction,ComponentPad*%
%ADD20C,6.000000*%
%TD*%
%TA.AperFunction,ViaPad*%
%ADD21C,0.600000*%
%TD*%
%TA.AperFunction,ViaPad*%
%ADD22C,1.200000*%
%TD*%
G04 APERTURE END LIST*
D10*
%TO.P,J5,1,VBUS*%
%TO.N,+5V*%
X29457018Y24378482D03*
D11*
%TO.P,J5,2,D-*%
%TO.N,unconnected-(J5-D--Pad2)*%
X29457018Y26878482D03*
%TO.P,J5,3,D+*%
%TO.N,unconnected-(J5-D+-Pad3)*%
X29457018Y28878482D03*
%TO.P,J5,4,GND*%
%TO.N,GND*%
X29457018Y31378482D03*
D12*
%TO.P,J5,5,Shield*%
%TO.N,unconnected-(J5-Shield-Pad5)_0*%
X32167018Y21308482D03*
%TO.N,unconnected-(J5-Shield-Pad5)*%
X32167018Y34448482D03*
%TD*%
D13*
%TO.P,J4,S1,SHIELD*%
%TO.N,unconnected-(J4-SHIELD-PadS1)_2*%
X35762518Y8374482D03*
D14*
%TO.N,unconnected-(J4-SHIELD-PadS1)_0*%
X39942518Y8374482D03*
D13*
%TO.N,unconnected-(J4-SHIELD-PadS1)*%
X35762518Y17014482D03*
D14*
%TO.N,unconnected-(J4-SHIELD-PadS1)_1*%
X39942518Y17014482D03*
%TD*%
D15*
%TO.P,J3,1,Pin_1*%
%TO.N,GND*%
X26207518Y59557482D03*
D16*
%TO.P,J3,2,Pin_2*%
%TO.N,+BATT*%
X28707518Y59557482D03*
%TD*%
D17*
%TO.P,J2,1,VBUS1*%
%TO.N,+5VP*%
X30231518Y42412482D03*
D18*
%TO.P,J2,2,D1-*%
%TO.N,unconnected-(J2-D1--Pad2)*%
X30231518Y44912482D03*
%TO.P,J2,3,D1+*%
%TO.N,unconnected-(J2-D1+-Pad3)*%
X30231518Y46912482D03*
%TO.P,J2,4,GND1*%
%TO.N,GND*%
X30231518Y49412482D03*
%TO.P,J2,5,VBUS2*%
%TO.N,+5VP*%
X27611518Y42412482D03*
%TO.P,J2,6,D2-*%
%TO.N,unconnected-(J2-D2--Pad6)*%
X27611518Y44912482D03*
%TO.P,J2,7,D2+*%
%TO.N,unconnected-(J2-D2+-Pad7)*%
X27611518Y46912482D03*
%TO.P,J2,8,GND2*%
%TO.N,GND*%
X27611518Y49412482D03*
D12*
%TO.P,J2,9,Shield*%
%TO.N,unconnected-(J2-Shield-Pad9)*%
X32941518Y39342482D03*
%TO.N,unconnected-(J2-Shield-Pad9)_1*%
X32941518Y52482482D03*
%TO.N,unconnected-(J2-Shield-Pad9)_0*%
X27261518Y39342482D03*
%TO.N,unconnected-(J2-Shield-Pad9)_2*%
X27261518Y52482482D03*
%TD*%
D19*
%TO.P,J1,1,Pin_1*%
%TO.N,GND*%
X18127518Y54096482D03*
D20*
%TO.P,J1,2,Pin_2*%
%TO.N,+BATT*%
X10927518Y54096482D03*
%TD*%
D21*
%TO.N,+BATT*%
X10922000Y38862000D03*
X9144000Y38862000D03*
X7366000Y38862000D03*
%TO.N,GND*%
X25654000Y11430000D03*
X20574000Y11430000D03*
X25654000Y13970000D03*
X23114000Y13970000D03*
X20574000Y13970000D03*
X20574000Y16510000D03*
%TO.N,+BATT*%
X10922000Y21082000D03*
X9144000Y21082000D03*
X7366000Y21082000D03*
X7112000Y25908000D03*
X7112000Y27178000D03*
%TO.N,+5V*%
X30734000Y14478000D03*
X28194000Y14478000D03*
X30734000Y17018000D03*
X28194000Y17018000D03*
X25654000Y17018000D03*
X25654000Y19558000D03*
X23114000Y19558000D03*
X20574000Y19558000D03*
X25654000Y22098000D03*
X23114000Y22098000D03*
X20574000Y22098000D03*
X25654000Y24638000D03*
X23114000Y24638000D03*
X20574000Y24638000D03*
%TO.N,+BATT*%
X9144000Y46228000D03*
X11176000Y46228000D03*
X7112000Y44196000D03*
X11176000Y48006000D03*
X9144000Y48006000D03*
X7112000Y46228000D03*
%TO.N,GND*%
X15626518Y38983482D03*
D22*
X38867518Y15107482D03*
D21*
X15494000Y19812000D03*
D22*
X37216518Y10154482D03*
D21*
X18293518Y28442482D03*
X15753518Y28442482D03*
D22*
X37191118Y15107482D03*
X38867518Y10154482D03*
X29723518Y8630482D03*
X40645518Y10154482D03*
D21*
X15626518Y35935482D03*
D22*
X33279518Y8630482D03*
X40645518Y15107482D03*
X31501518Y8630482D03*
D21*
X15494000Y21336000D03*
X15626518Y37459482D03*
D22*
%TO.N,+5V*%
X33274000Y11938000D03*
X33279518Y14345482D03*
D21*
%TO.N,+BATT*%
X11049000Y28442482D03*
%TO.N,GND*%
X15621000Y34544000D03*
X15494000Y18288000D03*
X15494000Y16764000D03*
%TD*%
%TA.AperFunction,Conductor*%
%TO.N,GND*%
G36*
X41993057Y58019315D02*
G01*
X42038812Y57966511D01*
X42050018Y57915000D01*
X42050018Y7616910D01*
X42030333Y7549871D01*
X41977529Y7504116D01*
X41926041Y7492910D01*
X41175113Y7492771D01*
X41108070Y7512443D01*
X41062305Y7565239D01*
X41052349Y7634395D01*
X41081362Y7697956D01*
X41087410Y7704453D01*
X41119654Y7736697D01*
X41119657Y7736700D01*
X41229150Y7900568D01*
X41304569Y8082647D01*
X41343018Y8275941D01*
X41343018Y8473023D01*
X41343018Y8473026D01*
X41304570Y8666312D01*
X41304569Y8666313D01*
X41304569Y8666317D01*
X41304567Y8666322D01*
X41229153Y8848390D01*
X41229146Y8848403D01*
X41119657Y9012264D01*
X41119654Y9012268D01*
X40980303Y9151619D01*
X40980299Y9151622D01*
X40816438Y9261111D01*
X40816425Y9261118D01*
X40634357Y9336532D01*
X40634347Y9336535D01*
X40441061Y9374982D01*
X40441059Y9374982D01*
X39443977Y9374982D01*
X39443975Y9374982D01*
X39250688Y9336535D01*
X39250678Y9336532D01*
X39068610Y9261118D01*
X39068597Y9261111D01*
X38904736Y9151622D01*
X38904732Y9151619D01*
X38765381Y9012268D01*
X38765378Y9012264D01*
X38655889Y8848403D01*
X38655882Y8848390D01*
X38580468Y8666322D01*
X38580465Y8666312D01*
X38542018Y8473026D01*
X38542018Y8473023D01*
X38542018Y8275941D01*
X38542018Y8275939D01*
X38542017Y8275939D01*
X38580465Y8082653D01*
X38580468Y8082643D01*
X38655882Y7900575D01*
X38655889Y7900562D01*
X38765378Y7736701D01*
X38765381Y7736697D01*
X38798082Y7703996D01*
X38831567Y7642673D01*
X38826583Y7572981D01*
X38784711Y7517048D01*
X38719247Y7492631D01*
X38710424Y7492315D01*
X37144368Y7492026D01*
X37077325Y7511698D01*
X37031560Y7564494D01*
X37021604Y7633650D01*
X37050617Y7697211D01*
X37056665Y7703708D01*
X37089654Y7736697D01*
X37089657Y7736700D01*
X37199150Y7900568D01*
X37274569Y8082647D01*
X37313018Y8275941D01*
X37313018Y8473023D01*
X37313018Y8473026D01*
X37274570Y8666312D01*
X37274569Y8666313D01*
X37274569Y8666317D01*
X37274567Y8666322D01*
X37199153Y8848390D01*
X37199146Y8848403D01*
X37089657Y9012264D01*
X37089654Y9012268D01*
X36950303Y9151619D01*
X36950299Y9151622D01*
X36786438Y9261111D01*
X36786425Y9261118D01*
X36626384Y9327408D01*
X36571980Y9371249D01*
X36549915Y9437543D01*
X36552987Y9466765D01*
X36552414Y9466877D01*
X36553022Y9469977D01*
X36553023Y9469981D01*
X36553024Y9469985D01*
X36573500Y9612401D01*
X36573500Y15436384D01*
X36573500Y15436389D01*
X36567875Y15511577D01*
X36567872Y15511603D01*
X36567872Y15511606D01*
X36562380Y15548102D01*
X36545616Y15621666D01*
X36545614Y15621671D01*
X36484131Y15751742D01*
X36471087Y15771463D01*
X36445584Y15810021D01*
X36430164Y15827351D01*
X36400305Y15890519D01*
X36409337Y15959802D01*
X36454393Y16013204D01*
X36498609Y16031397D01*
X36604353Y16052431D01*
X36786432Y16127850D01*
X36950300Y16237343D01*
X37089657Y16376700D01*
X37199150Y16540568D01*
X37274569Y16722647D01*
X37313018Y16915939D01*
X38542017Y16915939D01*
X38580465Y16722653D01*
X38580468Y16722643D01*
X38655882Y16540575D01*
X38655889Y16540562D01*
X38765378Y16376701D01*
X38765381Y16376697D01*
X38904732Y16237346D01*
X38904736Y16237343D01*
X39068597Y16127854D01*
X39068610Y16127847D01*
X39250678Y16052433D01*
X39250683Y16052431D01*
X39250687Y16052431D01*
X39250688Y16052430D01*
X39443974Y16013982D01*
X39443977Y16013982D01*
X40441061Y16013982D01*
X40571100Y16039850D01*
X40634353Y16052431D01*
X40816432Y16127850D01*
X40980300Y16237343D01*
X41119657Y16376700D01*
X41229150Y16540568D01*
X41304569Y16722647D01*
X41343018Y16915941D01*
X41343018Y17113023D01*
X41343018Y17113026D01*
X41304570Y17306312D01*
X41304569Y17306313D01*
X41304569Y17306317D01*
X41304567Y17306322D01*
X41229153Y17488390D01*
X41229146Y17488403D01*
X41119657Y17652264D01*
X41119654Y17652268D01*
X40980303Y17791619D01*
X40980299Y17791622D01*
X40816438Y17901111D01*
X40816425Y17901118D01*
X40634357Y17976532D01*
X40634347Y17976535D01*
X40441061Y18014982D01*
X40441059Y18014982D01*
X39443977Y18014982D01*
X39443975Y18014982D01*
X39250688Y17976535D01*
X39250678Y17976532D01*
X39068610Y17901118D01*
X39068597Y17901111D01*
X38904736Y17791622D01*
X38904732Y17791619D01*
X38765381Y17652268D01*
X38765378Y17652264D01*
X38655889Y17488403D01*
X38655882Y17488390D01*
X38580468Y17306322D01*
X38580465Y17306312D01*
X38542018Y17113026D01*
X38542018Y17113023D01*
X38542018Y16915941D01*
X38542018Y16915939D01*
X38542017Y16915939D01*
X37313018Y16915939D01*
X37313018Y16915941D01*
X37313018Y17113023D01*
X37313018Y17113026D01*
X37274570Y17306312D01*
X37274569Y17306313D01*
X37274569Y17306317D01*
X37274567Y17306322D01*
X37199153Y17488390D01*
X37199146Y17488403D01*
X37089657Y17652264D01*
X37089654Y17652268D01*
X36950303Y17791619D01*
X36950299Y17791622D01*
X36786438Y17901111D01*
X36786425Y17901118D01*
X36604357Y17976532D01*
X36604347Y17976535D01*
X36411061Y18014982D01*
X36411059Y18014982D01*
X35113977Y18014982D01*
X35113975Y18014982D01*
X34920688Y17976535D01*
X34920678Y17976532D01*
X34738610Y17901118D01*
X34738597Y17901111D01*
X34574736Y17791622D01*
X34451214Y17668100D01*
X34389891Y17634616D01*
X34320199Y17639600D01*
X34283570Y17661009D01*
X32770101Y18937998D01*
X32731558Y18996273D01*
X32730640Y19066137D01*
X32767639Y19125407D01*
X32810204Y19150187D01*
X33030095Y19224830D01*
X33294683Y19355310D01*
X33539975Y19519209D01*
X33761776Y19713724D01*
X33956291Y19935525D01*
X34120190Y20180817D01*
X34250670Y20445405D01*
X34345499Y20724760D01*
X34403052Y21014102D01*
X34422347Y21308482D01*
X34422347Y21308490D01*
X34403053Y21602846D01*
X34403052Y21602862D01*
X34345499Y21892204D01*
X34250670Y22171559D01*
X34120190Y22436146D01*
X33956291Y22681439D01*
X33913673Y22730035D01*
X33761776Y22903241D01*
X33539973Y23097757D01*
X33294685Y23261653D01*
X33294678Y23261657D01*
X33030098Y23392133D01*
X32750748Y23486961D01*
X32750742Y23486963D01*
X32750740Y23486963D01*
X32461398Y23544516D01*
X32461391Y23544517D01*
X32461381Y23544518D01*
X32167025Y23563811D01*
X32167011Y23563811D01*
X31872654Y23544518D01*
X31872642Y23544517D01*
X31872638Y23544516D01*
X31872630Y23544515D01*
X31872627Y23544514D01*
X31583301Y23486964D01*
X31583287Y23486961D01*
X31303937Y23392133D01*
X31164344Y23323293D01*
X31095512Y23311297D01*
X31031121Y23338418D01*
X30991615Y23396047D01*
X30985500Y23434505D01*
X30985500Y26182432D01*
X30983683Y26225237D01*
X30981906Y26246145D01*
X30976470Y26288659D01*
X30932255Y26425569D01*
X30932253Y26425575D01*
X30901493Y26488420D01*
X30900754Y26489479D01*
X30820537Y26607243D01*
X30783949Y26637270D01*
X30759208Y26657575D01*
X30719874Y26715321D01*
X30714345Y26764236D01*
X30724341Y26878482D01*
X30724341Y26878485D01*
X30717121Y26961008D01*
X30705088Y27098550D01*
X30647912Y27311932D01*
X30554552Y27512143D01*
X30448027Y27664277D01*
X30427842Y27693105D01*
X30330145Y27790802D01*
X30296660Y27852125D01*
X30301644Y27921817D01*
X30330141Y27966160D01*
X30427844Y28063862D01*
X30554552Y28244820D01*
X30647912Y28445032D01*
X30705088Y28658414D01*
X30724341Y28878482D01*
X30705088Y29098550D01*
X30647912Y29311932D01*
X30554552Y29512143D01*
X30427844Y29693102D01*
X30271638Y29849308D01*
X30271634Y29849311D01*
X30271633Y29849312D01*
X30090684Y29976014D01*
X30090681Y29976016D01*
X30090680Y29976016D01*
X30042709Y29998386D01*
X30004126Y30016377D01*
X29951687Y30062550D01*
X29932535Y30129743D01*
X29952751Y30196624D01*
X30004127Y30241142D01*
X30020867Y30248948D01*
X29457019Y30812797D01*
X29457018Y30812797D01*
X28893166Y30248947D01*
X28909909Y30241140D01*
X28962348Y30194968D01*
X28981500Y30127774D01*
X28961284Y30060893D01*
X28909909Y30016376D01*
X28823358Y29976017D01*
X28823356Y29976016D01*
X28642395Y29849307D01*
X28486193Y29693105D01*
X28359484Y29512144D01*
X28359483Y29512142D01*
X28266125Y29311934D01*
X28266122Y29311928D01*
X28208948Y29098553D01*
X28208947Y29098545D01*
X28189695Y28878485D01*
X28189695Y28878480D01*
X28208947Y28658420D01*
X28208948Y28658412D01*
X28266122Y28445037D01*
X28266123Y28445035D01*
X28266124Y28445032D01*
X28359484Y28244820D01*
X28359486Y28244816D01*
X28486188Y28063867D01*
X28486193Y28063861D01*
X28583891Y27966163D01*
X28617376Y27904840D01*
X28612392Y27835148D01*
X28583892Y27790803D01*
X28502343Y27709253D01*
X28441019Y27675769D01*
X28397017Y27674197D01*
X28332309Y27683500D01*
X28332306Y27683500D01*
X17655518Y27683500D01*
X17655509Y27683500D01*
X17655508Y27683499D01*
X17548067Y27671948D01*
X17548055Y27671946D01*
X17496545Y27660740D01*
X17394020Y27626617D01*
X17394014Y27626614D01*
X17272980Y27548829D01*
X17272969Y27548821D01*
X17220177Y27503077D01*
X17125951Y27394336D01*
X17125948Y27394332D01*
X17066182Y27263466D01*
X17046494Y27196418D01*
X17026018Y27053999D01*
X17026018Y22342369D01*
X17024756Y22324724D01*
X17020500Y22295120D01*
X17020500Y20137716D01*
X17029352Y20063909D01*
X17034838Y20018175D01*
X17048709Y19961186D01*
X17090915Y19848416D01*
X17143180Y19775255D01*
X17174551Y19731342D01*
X17222843Y19680848D01*
X17336072Y19592080D01*
X17336078Y19592077D01*
X17336080Y19592075D01*
X34842153Y9520088D01*
X34890445Y9469594D01*
X34903771Y9401007D01*
X34877901Y9336103D01*
X34827768Y9298047D01*
X34738606Y9261116D01*
X34738597Y9261111D01*
X34574736Y9151622D01*
X34574732Y9151619D01*
X34435381Y9012268D01*
X34435378Y9012264D01*
X34325889Y8848403D01*
X34325882Y8848390D01*
X34250468Y8666322D01*
X34250465Y8666312D01*
X34212018Y8473026D01*
X34212018Y8473023D01*
X34212018Y8275941D01*
X34212018Y8275939D01*
X34212017Y8275939D01*
X34250465Y8082653D01*
X34250468Y8082643D01*
X34325882Y7900575D01*
X34325889Y7900562D01*
X34435378Y7736701D01*
X34435381Y7736697D01*
X34468883Y7703195D01*
X34502368Y7641872D01*
X34497384Y7572180D01*
X34455512Y7516247D01*
X34390048Y7491830D01*
X34381225Y7491514D01*
X12702839Y7487505D01*
X12635796Y7507177D01*
X12590031Y7559973D01*
X12578816Y7611800D01*
X12635930Y31378483D01*
X28190197Y31378483D01*
X28190197Y31378482D01*
X28209442Y31158506D01*
X28209444Y31158496D01*
X28266593Y30945212D01*
X28266598Y30945198D01*
X28327481Y30814632D01*
X28327482Y30814632D01*
X28891333Y31378482D01*
X28891333Y31378483D01*
X28830774Y31439042D01*
X28997018Y31439042D01*
X28997018Y31317922D01*
X29028367Y31200929D01*
X29088927Y31096036D01*
X29174572Y31010391D01*
X29279465Y30949831D01*
X29396458Y30918482D01*
X29517578Y30918482D01*
X29634571Y30949831D01*
X29739464Y31010391D01*
X29825109Y31096036D01*
X29885669Y31200929D01*
X29917018Y31317922D01*
X29917018Y31378483D01*
X30022703Y31378483D01*
X30022703Y31378482D01*
X30586552Y30814633D01*
X30647438Y30945203D01*
X30647442Y30945212D01*
X30704591Y31158496D01*
X30704593Y31158506D01*
X30723839Y31378482D01*
X30723839Y31378483D01*
X30704593Y31598459D01*
X30704591Y31598469D01*
X30647442Y31811753D01*
X30647438Y31811762D01*
X30586552Y31942333D01*
X30022703Y31378483D01*
X29917018Y31378483D01*
X29917018Y31439042D01*
X29885669Y31556035D01*
X29825109Y31660928D01*
X29739464Y31746573D01*
X29634571Y31807133D01*
X29517578Y31838482D01*
X29396458Y31838482D01*
X29279465Y31807133D01*
X29174572Y31746573D01*
X29088927Y31660928D01*
X29028367Y31556035D01*
X28997018Y31439042D01*
X28830774Y31439042D01*
X28327481Y31942334D01*
X28266594Y31811755D01*
X28209444Y31598469D01*
X28209442Y31598459D01*
X28190197Y31378483D01*
X12635930Y31378483D01*
X12638644Y32508019D01*
X28893166Y32508019D01*
X29457018Y31944167D01*
X29457019Y31944167D01*
X30020868Y32508018D01*
X30020868Y32508019D01*
X29890302Y32568902D01*
X29890288Y32568907D01*
X29677004Y32626056D01*
X29676994Y32626058D01*
X29457019Y32645303D01*
X29457017Y32645303D01*
X29237041Y32626058D01*
X29237031Y32626056D01*
X29023745Y32568906D01*
X28893166Y32508019D01*
X12638644Y32508019D01*
X12643307Y34448490D01*
X29911689Y34448490D01*
X29911689Y34448475D01*
X29930982Y34154119D01*
X29930983Y34154109D01*
X29930984Y34154102D01*
X29930986Y34154092D01*
X29988536Y33864766D01*
X29988539Y33864752D01*
X30083367Y33585402D01*
X30213843Y33320822D01*
X30213847Y33320815D01*
X30377743Y33075527D01*
X30572259Y32853724D01*
X30794062Y32659208D01*
X30843675Y32626058D01*
X31039353Y32495310D01*
X31303941Y32364830D01*
X31583296Y32270001D01*
X31872638Y32212448D01*
X31900906Y32210596D01*
X32167011Y32193153D01*
X32167018Y32193153D01*
X32167025Y32193153D01*
X32402693Y32208601D01*
X32461398Y32212448D01*
X32750740Y32270001D01*
X33030095Y32364830D01*
X33294683Y32495310D01*
X33539975Y32659209D01*
X33761776Y32853724D01*
X33956291Y33075525D01*
X34120190Y33320817D01*
X34250670Y33585405D01*
X34345499Y33864760D01*
X34403052Y34154102D01*
X34422347Y34448482D01*
X34422347Y34448490D01*
X34403053Y34742846D01*
X34403052Y34742862D01*
X34345499Y35032204D01*
X34250670Y35311559D01*
X34120190Y35576146D01*
X33956291Y35821439D01*
X33913673Y35870035D01*
X33761776Y36043241D01*
X33539973Y36237757D01*
X33294685Y36401653D01*
X33294678Y36401657D01*
X33030098Y36532133D01*
X32750748Y36626961D01*
X32750742Y36626963D01*
X32750740Y36626963D01*
X32461398Y36684516D01*
X32461391Y36684517D01*
X32461381Y36684518D01*
X32167025Y36703811D01*
X32167011Y36703811D01*
X31872654Y36684518D01*
X31872642Y36684517D01*
X31872638Y36684516D01*
X31872630Y36684515D01*
X31872627Y36684514D01*
X31583301Y36626964D01*
X31583287Y36626961D01*
X31303937Y36532133D01*
X31039352Y36401654D01*
X30794059Y36237754D01*
X30572259Y36043241D01*
X30377746Y35821441D01*
X30213846Y35576148D01*
X30083367Y35311563D01*
X29988539Y35032213D01*
X29988536Y35032199D01*
X29930986Y34742873D01*
X29930982Y34742846D01*
X29911689Y34448490D01*
X12643307Y34448490D01*
X12665519Y43690954D01*
X16391018Y43690954D01*
X16391018Y40250524D01*
X16402589Y40142988D01*
X16413813Y40091441D01*
X16413821Y40091411D01*
X16447999Y39988818D01*
X16448001Y39988815D01*
X16525833Y39867803D01*
X16559919Y39828495D01*
X16564793Y39820915D01*
X16571607Y39815016D01*
X16571607Y39815015D01*
X16680379Y39720834D01*
X16718602Y39703396D01*
X16811271Y39661115D01*
X16811278Y39661113D01*
X16811280Y39661112D01*
X16850819Y39649518D01*
X16878330Y39641451D01*
X16959788Y39629771D01*
X17020750Y39621028D01*
X17020752Y39621029D01*
X17020753Y39621028D01*
X17031639Y39621033D01*
X24892198Y39623929D01*
X24959243Y39604269D01*
X25005017Y39551482D01*
X25015976Y39491820D01*
X25006190Y39342489D01*
X25006189Y39342475D01*
X25025482Y39048119D01*
X25025483Y39048109D01*
X25025484Y39048102D01*
X25025486Y39048092D01*
X25083036Y38758766D01*
X25083039Y38758752D01*
X25177867Y38479402D01*
X25308343Y38214822D01*
X25308347Y38214815D01*
X25472243Y37969527D01*
X25666759Y37747724D01*
X25888561Y37553209D01*
X26133853Y37389310D01*
X26398441Y37258830D01*
X26677796Y37164001D01*
X26967138Y37106448D01*
X26995406Y37104596D01*
X27261511Y37087153D01*
X27261518Y37087153D01*
X27261525Y37087153D01*
X27497193Y37102601D01*
X27555898Y37106448D01*
X27845240Y37164001D01*
X28124595Y37258830D01*
X28389183Y37389310D01*
X28634475Y37553209D01*
X28856276Y37747724D01*
X29050791Y37969525D01*
X29214690Y38214817D01*
X29345170Y38479405D01*
X29439999Y38758760D01*
X29497552Y39048102D01*
X29516847Y39342482D01*
X29516846Y39342490D01*
X29506944Y39493563D01*
X29522201Y39561747D01*
X29571899Y39610857D01*
X29630631Y39625674D01*
X30572335Y39626022D01*
X30639380Y39606362D01*
X30685154Y39553575D01*
X30696114Y39493913D01*
X30686190Y39342489D01*
X30686189Y39342476D01*
X30686189Y39342475D01*
X30705482Y39048119D01*
X30705483Y39048109D01*
X30705484Y39048102D01*
X30705486Y39048092D01*
X30763036Y38758766D01*
X30763039Y38758752D01*
X30857867Y38479402D01*
X30988343Y38214822D01*
X30988347Y38214815D01*
X31152243Y37969527D01*
X31346759Y37747724D01*
X31568561Y37553209D01*
X31813853Y37389310D01*
X32078441Y37258830D01*
X32357796Y37164001D01*
X32647138Y37106448D01*
X32675406Y37104596D01*
X32941511Y37087153D01*
X32941518Y37087153D01*
X32941525Y37087153D01*
X33177193Y37102601D01*
X33235898Y37106448D01*
X33525240Y37164001D01*
X33804595Y37258830D01*
X34069183Y37389310D01*
X34314475Y37553209D01*
X34536276Y37747724D01*
X34730791Y37969525D01*
X34894690Y38214817D01*
X35025170Y38479405D01*
X35119999Y38758760D01*
X35177552Y39048102D01*
X35196847Y39342482D01*
X35196847Y39342489D01*
X35196847Y39342490D01*
X35178397Y39623977D01*
X35177552Y39636862D01*
X35119999Y39926204D01*
X35025170Y40205559D01*
X34894690Y40470146D01*
X34730791Y40715439D01*
X34688173Y40764035D01*
X34536276Y40937241D01*
X34314473Y41131757D01*
X34069185Y41295653D01*
X34069178Y41295657D01*
X33804598Y41426133D01*
X33525248Y41520961D01*
X33525242Y41520963D01*
X33525240Y41520963D01*
X33235898Y41578516D01*
X33235891Y41578517D01*
X33235881Y41578518D01*
X32941525Y41597811D01*
X32941511Y41597811D01*
X32647154Y41578518D01*
X32647141Y41578517D01*
X32647138Y41578516D01*
X32647132Y41578515D01*
X32647126Y41578514D01*
X32533009Y41555815D01*
X32463417Y41562042D01*
X32408240Y41604906D01*
X32384996Y41670796D01*
X32384818Y41677618D01*
X32387830Y43684584D01*
X32376378Y43792336D01*
X32365191Y43843992D01*
X32331042Y43946818D01*
X32253299Y44067887D01*
X32207564Y44120708D01*
X32207561Y44120711D01*
X32098858Y44214973D01*
X32098857Y44214974D01*
X32098854Y44214976D01*
X31968007Y44274790D01*
X31968004Y44274791D01*
X31900966Y44294502D01*
X31758567Y44315028D01*
X31526976Y44315114D01*
X31459944Y44334824D01*
X31414208Y44387645D01*
X31404291Y44456807D01*
X31410505Y44481539D01*
X31411088Y44483143D01*
X31411093Y44483152D01*
X31467725Y44694505D01*
X31486795Y44912482D01*
X31467725Y45130459D01*
X31411093Y45341812D01*
X31318620Y45540120D01*
X31318618Y45540123D01*
X31318617Y45540125D01*
X31193115Y45719361D01*
X31087674Y45824802D01*
X31054189Y45886125D01*
X31059173Y45955817D01*
X31087670Y46000160D01*
X31193116Y46105605D01*
X31318620Y46284843D01*
X31411093Y46483152D01*
X31467725Y46694505D01*
X31486795Y46912482D01*
X31467725Y47130459D01*
X31411093Y47341812D01*
X31318620Y47540120D01*
X31318618Y47540123D01*
X31318617Y47540125D01*
X31193117Y47719358D01*
X31193114Y47719361D01*
X31038395Y47874080D01*
X30859157Y47999584D01*
X30859158Y47999584D01*
X30859156Y47999585D01*
X30750232Y48050377D01*
X30697793Y48096550D01*
X30678641Y48163743D01*
X30698857Y48230624D01*
X30750233Y48275141D01*
X30786338Y48291977D01*
X30231519Y48846797D01*
X30231518Y48846797D01*
X29676696Y48291977D01*
X29712802Y48275141D01*
X29765242Y48228969D01*
X29784394Y48161776D01*
X29764179Y48094894D01*
X29712804Y48050377D01*
X29603876Y47999582D01*
X29603875Y47999582D01*
X29424639Y47874080D01*
X29269920Y47719361D01*
X29144418Y47540125D01*
X29144416Y47540121D01*
X29051944Y47341814D01*
X29051941Y47341808D01*
X29041293Y47302066D01*
X29004928Y47242406D01*
X28942081Y47211877D01*
X28872705Y47220172D01*
X28818828Y47264657D01*
X28801743Y47302066D01*
X28791094Y47341808D01*
X28791093Y47341812D01*
X28698620Y47540120D01*
X28698618Y47540123D01*
X28698617Y47540125D01*
X28573117Y47719358D01*
X28573114Y47719361D01*
X28418395Y47874080D01*
X28239157Y47999584D01*
X28239158Y47999584D01*
X28239156Y47999585D01*
X28130232Y48050377D01*
X28077793Y48096550D01*
X28058641Y48163743D01*
X28078857Y48230624D01*
X28130233Y48275141D01*
X28166338Y48291977D01*
X27611519Y48846797D01*
X27611518Y48846797D01*
X27056696Y48291977D01*
X27092802Y48275141D01*
X27145242Y48228969D01*
X27164394Y48161776D01*
X27144179Y48094894D01*
X27092804Y48050377D01*
X26983876Y47999582D01*
X26983875Y47999582D01*
X26804639Y47874080D01*
X26649920Y47719361D01*
X26524418Y47540125D01*
X26524416Y47540121D01*
X26431944Y47341814D01*
X26431940Y47341805D01*
X26375311Y47130462D01*
X26375311Y47130458D01*
X26356241Y46912485D01*
X26356241Y46912480D01*
X26375311Y46694507D01*
X26375311Y46694503D01*
X26431940Y46483160D01*
X26431942Y46483156D01*
X26431943Y46483152D01*
X26478179Y46383998D01*
X26524415Y46284844D01*
X26524416Y46284843D01*
X26649920Y46105605D01*
X26649924Y46105601D01*
X26755361Y46000164D01*
X26788846Y45938841D01*
X26783862Y45869149D01*
X26755362Y45824802D01*
X26649918Y45719358D01*
X26524418Y45540125D01*
X26524416Y45540121D01*
X26431944Y45341814D01*
X26431940Y45341805D01*
X26375311Y45130462D01*
X26375311Y45130458D01*
X26356241Y44912485D01*
X26356241Y44912480D01*
X26375311Y44694507D01*
X26375311Y44694503D01*
X26433344Y44477922D01*
X26432205Y44477617D01*
X26436270Y44413723D01*
X26402304Y44352665D01*
X26340720Y44319663D01*
X26315269Y44317033D01*
X17020746Y44320455D01*
X16913187Y44308921D01*
X16913186Y44308921D01*
X16861642Y44297717D01*
X16759014Y44263569D01*
X16637980Y44185784D01*
X16637969Y44185776D01*
X16585177Y44140032D01*
X16490951Y44031291D01*
X16490948Y44031287D01*
X16431182Y43900421D01*
X16411494Y43833373D01*
X16391018Y43690954D01*
X12665519Y43690954D01*
X12683073Y50995662D01*
X12702919Y51062650D01*
X12739531Y51099350D01*
X12987884Y51260631D01*
X13273024Y51491533D01*
X13532467Y51750976D01*
X13763369Y52036116D01*
X13963200Y52343830D01*
X14129773Y52670746D01*
X14261260Y53013283D01*
X14356223Y53367688D01*
X14381045Y53524409D01*
X14410974Y53587543D01*
X14470286Y53624474D01*
X14540148Y53623476D01*
X14598381Y53584866D01*
X14626495Y53520903D01*
X14627518Y53505010D01*
X14627518Y52525046D01*
X14642818Y52311120D01*
X14703627Y52031587D01*
X14803609Y51763524D01*
X14940709Y51512444D01*
X14940710Y51512443D01*
X15112157Y51283417D01*
X15112167Y51283405D01*
X15314440Y51081132D01*
X15314452Y51081122D01*
X15543478Y50909675D01*
X15543479Y50909674D01*
X15794560Y50772574D01*
X15794559Y50772574D01*
X16062622Y50672592D01*
X16342155Y50611783D01*
X16556081Y50596483D01*
X16556084Y50596482D01*
X17727518Y50596482D01*
X17727518Y51879728D01*
X17980045Y51846482D01*
X18274991Y51846482D01*
X18527518Y51879728D01*
X18527518Y50596482D01*
X19698952Y50596482D01*
X19698954Y50596483D01*
X19912880Y50611783D01*
X20192413Y50672592D01*
X20460476Y50772574D01*
X20711556Y50909674D01*
X20711557Y50909675D01*
X20940583Y51081122D01*
X20940595Y51081132D01*
X21142868Y51283405D01*
X21142878Y51283417D01*
X21314325Y51512443D01*
X21314326Y51512444D01*
X21451426Y51763524D01*
X21551408Y52031587D01*
X21612217Y52311120D01*
X21624473Y52482490D01*
X25006189Y52482490D01*
X25006189Y52482475D01*
X25025482Y52188119D01*
X25025483Y52188109D01*
X25025484Y52188102D01*
X25025486Y52188092D01*
X25083036Y51898766D01*
X25083039Y51898752D01*
X25177867Y51619402D01*
X25308343Y51354822D01*
X25308347Y51354815D01*
X25472243Y51109527D01*
X25666759Y50887724D01*
X25888562Y50693208D01*
X26033323Y50596482D01*
X26133853Y50529310D01*
X26398441Y50398830D01*
X26510965Y50360633D01*
X26547122Y50348359D01*
X26604276Y50308170D01*
X26630629Y50243461D01*
X26617814Y50174776D01*
X26608838Y50159817D01*
X26524854Y50039874D01*
X26524851Y50039870D01*
X26432416Y49841642D01*
X26432412Y49841633D01*
X26375807Y49630377D01*
X26375805Y49630367D01*
X26356743Y49412483D01*
X26356743Y49412482D01*
X26375805Y49194598D01*
X26375807Y49194588D01*
X26432412Y48983332D01*
X26432416Y48983323D01*
X26491012Y48857663D01*
X27168035Y49534687D01*
X27151518Y49473042D01*
X27151518Y49351922D01*
X27182867Y49234929D01*
X27243427Y49130036D01*
X27329072Y49044391D01*
X27433965Y48983831D01*
X27550958Y48952482D01*
X27672078Y48952482D01*
X27789071Y48983831D01*
X27893964Y49044391D01*
X27979609Y49130036D01*
X28040169Y49234929D01*
X28071518Y49351922D01*
X28071518Y49412482D01*
X28177203Y49412482D01*
X28732023Y48857662D01*
X28790620Y48983323D01*
X28790623Y48983332D01*
X28801743Y49024832D01*
X28838107Y49084492D01*
X28900954Y49115022D01*
X28970330Y49106728D01*
X29024208Y49062243D01*
X29041293Y49024832D01*
X29052412Y48983332D01*
X29052416Y48983323D01*
X29111012Y48857663D01*
X29665832Y49412482D01*
X29605272Y49473042D01*
X29771518Y49473042D01*
X29771518Y49351922D01*
X29802867Y49234929D01*
X29863427Y49130036D01*
X29949072Y49044391D01*
X30053965Y48983831D01*
X30170958Y48952482D01*
X30292078Y48952482D01*
X30409071Y48983831D01*
X30513964Y49044391D01*
X30599609Y49130036D01*
X30660169Y49234929D01*
X30691518Y49351922D01*
X30691518Y49412482D01*
X30797203Y49412482D01*
X31352023Y48857662D01*
X31410620Y48983323D01*
X31410623Y48983332D01*
X31467228Y49194588D01*
X31467230Y49194598D01*
X31486293Y49412482D01*
X31486293Y49412483D01*
X31467230Y49630367D01*
X31467228Y49630377D01*
X31410623Y49841633D01*
X31410620Y49841642D01*
X31352023Y49967303D01*
X30797203Y49412482D01*
X30691518Y49412482D01*
X30691518Y49473042D01*
X30660169Y49590035D01*
X30599609Y49694928D01*
X30513964Y49780573D01*
X30409071Y49841133D01*
X30292078Y49872482D01*
X30170958Y49872482D01*
X30053965Y49841133D01*
X29949072Y49780573D01*
X29863427Y49694928D01*
X29802867Y49590035D01*
X29771518Y49473042D01*
X29605272Y49473042D01*
X29111012Y49967302D01*
X29052416Y49841642D01*
X29052412Y49841633D01*
X29041293Y49800133D01*
X29004928Y49740472D01*
X28942081Y49709943D01*
X28872706Y49718238D01*
X28818828Y49762723D01*
X28801743Y49800133D01*
X28790623Y49841633D01*
X28790620Y49841642D01*
X28732023Y49967303D01*
X28177203Y49412482D01*
X28071518Y49412482D01*
X28071518Y49473042D01*
X28040169Y49590035D01*
X27979609Y49694928D01*
X27893964Y49780573D01*
X27789071Y49841133D01*
X27672078Y49872482D01*
X27550958Y49872482D01*
X27489313Y49855965D01*
X27611517Y49978167D01*
X27964241Y50330894D01*
X28012059Y50360630D01*
X28124595Y50398830D01*
X28389183Y50529310D01*
X28394688Y50532988D01*
X29676698Y50532988D01*
X30231518Y49978168D01*
X30786337Y50532988D01*
X30660677Y50591584D01*
X30660668Y50591588D01*
X30449412Y50648193D01*
X30449402Y50648195D01*
X30231519Y50667257D01*
X30231517Y50667257D01*
X30013633Y50648195D01*
X30013623Y50648193D01*
X29802367Y50591588D01*
X29802358Y50591584D01*
X29676698Y50532988D01*
X28394688Y50532988D01*
X28634475Y50693209D01*
X28856276Y50887724D01*
X29050791Y51109525D01*
X29214690Y51354817D01*
X29345170Y51619405D01*
X29439999Y51898760D01*
X29497552Y52188102D01*
X29507759Y52343830D01*
X29516847Y52482475D01*
X29516847Y52482490D01*
X30686189Y52482490D01*
X30686189Y52482475D01*
X30705482Y52188119D01*
X30705483Y52188109D01*
X30705484Y52188102D01*
X30705486Y52188092D01*
X30763036Y51898766D01*
X30763039Y51898752D01*
X30857867Y51619402D01*
X30988343Y51354822D01*
X30988347Y51354815D01*
X31152243Y51109527D01*
X31346759Y50887724D01*
X31568562Y50693208D01*
X31713323Y50596482D01*
X31813853Y50529310D01*
X32078441Y50398830D01*
X32357796Y50304001D01*
X32647138Y50246448D01*
X32675406Y50244596D01*
X32941511Y50227153D01*
X32941518Y50227153D01*
X32941525Y50227153D01*
X33190326Y50243461D01*
X33235898Y50246448D01*
X33525240Y50304001D01*
X33804595Y50398830D01*
X34069183Y50529310D01*
X34314475Y50693209D01*
X34536276Y50887724D01*
X34730791Y51109525D01*
X34894690Y51354817D01*
X35025170Y51619405D01*
X35119999Y51898760D01*
X35177552Y52188102D01*
X35187759Y52343830D01*
X35196847Y52482475D01*
X35196847Y52482490D01*
X35177553Y52776846D01*
X35177552Y52776862D01*
X35119999Y53066204D01*
X35025170Y53345559D01*
X34894690Y53610146D01*
X34885116Y53624474D01*
X34814554Y53730078D01*
X34730791Y53855439D01*
X34648732Y53949009D01*
X34536276Y54077241D01*
X34314473Y54271757D01*
X34069185Y54435653D01*
X34069178Y54435657D01*
X33804598Y54566133D01*
X33525248Y54660961D01*
X33525242Y54660963D01*
X33525240Y54660963D01*
X33235898Y54718516D01*
X33235891Y54718517D01*
X33235881Y54718518D01*
X32941525Y54737811D01*
X32941511Y54737811D01*
X32647154Y54718518D01*
X32647142Y54718517D01*
X32647138Y54718516D01*
X32647130Y54718515D01*
X32647127Y54718514D01*
X32357801Y54660964D01*
X32357787Y54660961D01*
X32078437Y54566133D01*
X31813852Y54435654D01*
X31568559Y54271754D01*
X31346759Y54077241D01*
X31152246Y53855441D01*
X30988346Y53610148D01*
X30857867Y53345563D01*
X30763039Y53066213D01*
X30763036Y53066199D01*
X30705486Y52776873D01*
X30705482Y52776846D01*
X30686189Y52482490D01*
X29516847Y52482490D01*
X29497553Y52776846D01*
X29497552Y52776862D01*
X29439999Y53066204D01*
X29345170Y53345559D01*
X29214690Y53610146D01*
X29205116Y53624474D01*
X29134554Y53730078D01*
X29050791Y53855439D01*
X28968732Y53949009D01*
X28856276Y54077241D01*
X28634473Y54271757D01*
X28389185Y54435653D01*
X28389178Y54435657D01*
X28124598Y54566133D01*
X27845248Y54660961D01*
X27845242Y54660963D01*
X27845240Y54660963D01*
X27555898Y54718516D01*
X27555891Y54718517D01*
X27555881Y54718518D01*
X27261525Y54737811D01*
X27261511Y54737811D01*
X26967154Y54718518D01*
X26967142Y54718517D01*
X26967138Y54718516D01*
X26967130Y54718515D01*
X26967127Y54718514D01*
X26677801Y54660964D01*
X26677787Y54660961D01*
X26398437Y54566133D01*
X26133852Y54435654D01*
X25888559Y54271754D01*
X25666759Y54077241D01*
X25472246Y53855441D01*
X25308346Y53610148D01*
X25177867Y53345563D01*
X25083039Y53066213D01*
X25083036Y53066199D01*
X25025486Y52776873D01*
X25025482Y52776846D01*
X25006189Y52482490D01*
X21624473Y52482490D01*
X21627517Y52525046D01*
X21627518Y52525048D01*
X21627518Y53696482D01*
X20344272Y53696482D01*
X20377518Y53949009D01*
X20377518Y54243955D01*
X20344272Y54496482D01*
X21627518Y54496482D01*
X21627518Y55667916D01*
X21627517Y55667919D01*
X21612217Y55881845D01*
X21551408Y56161378D01*
X21451426Y56429441D01*
X21314326Y56680521D01*
X21314325Y56680522D01*
X21142878Y56909548D01*
X21142868Y56909560D01*
X20940595Y57111833D01*
X20940583Y57111843D01*
X20711557Y57283290D01*
X20711556Y57283291D01*
X20460475Y57420391D01*
X20460476Y57420391D01*
X20192413Y57520373D01*
X19912880Y57581182D01*
X19698954Y57596482D01*
X18527518Y57596482D01*
X18527518Y56313237D01*
X18274991Y56346482D01*
X17980045Y56346482D01*
X17727518Y56313237D01*
X17727518Y57596482D01*
X16556081Y57596482D01*
X16342155Y57581182D01*
X16062622Y57520373D01*
X15794559Y57420391D01*
X15543479Y57283291D01*
X15543478Y57283290D01*
X15314452Y57111843D01*
X15314440Y57111833D01*
X15112167Y56909560D01*
X15112157Y56909548D01*
X14940710Y56680522D01*
X14940709Y56680521D01*
X14803609Y56429441D01*
X14703627Y56161378D01*
X14642818Y55881845D01*
X14627518Y55667919D01*
X14627518Y54687955D01*
X14607833Y54620916D01*
X14555029Y54575161D01*
X14485871Y54565217D01*
X14422315Y54594242D01*
X14384541Y54653020D01*
X14381045Y54668557D01*
X14370076Y54737811D01*
X14356223Y54825276D01*
X14261260Y55179681D01*
X14129773Y55522218D01*
X13963200Y55849134D01*
X13963197Y55849139D01*
X13763370Y56156847D01*
X13532470Y56441984D01*
X13532467Y56441988D01*
X13273024Y56701431D01*
X13240528Y56727746D01*
X12987882Y56932335D01*
X12754420Y57083946D01*
X12708917Y57136967D01*
X12697955Y57188237D01*
X12699703Y57915298D01*
X12719549Y57982290D01*
X12772463Y58027918D01*
X12823703Y58039000D01*
X41926018Y58039000D01*
X41993057Y58019315D01*
G37*
%TD.AperFunction*%
%TD*%
%TA.AperFunction,Conductor*%
%TO.N,+5V*%
G36*
X28399345Y27158315D02*
G01*
X28445100Y27105511D01*
X28455709Y27041846D01*
X28439619Y26878482D01*
X28459167Y26680001D01*
X28517066Y26489134D01*
X28611078Y26313251D01*
X28611083Y26313244D01*
X28737607Y26159072D01*
X28844893Y26071026D01*
X28891781Y26032546D01*
X28891784Y26032545D01*
X28891786Y26032543D01*
X29067669Y25938531D01*
X29067672Y25938531D01*
X29067676Y25938528D01*
X29258533Y25880632D01*
X29457018Y25861083D01*
X29655503Y25880632D01*
X29846360Y25938528D01*
X30022255Y26032546D01*
X30176428Y26159072D01*
X30260146Y26261083D01*
X30317892Y26300418D01*
X30387737Y26302289D01*
X30447505Y26266102D01*
X30478221Y26203346D01*
X30480000Y26182419D01*
X30480000Y22424828D01*
X30464831Y22365399D01*
X30426400Y22295021D01*
X30376994Y22245617D01*
X30317622Y22230450D01*
X28085187Y22229498D01*
X17531518Y22225000D01*
X17531518Y27054000D01*
X17551203Y27121039D01*
X17604007Y27166794D01*
X17655518Y27178000D01*
X28332306Y27178000D01*
X28399345Y27158315D01*
G37*
%TD.AperFunction*%
%TD*%
%TA.AperFunction,Conductor*%
%TO.N,+5VP*%
G36*
X26986667Y43811285D02*
G01*
X27039016Y43799670D01*
X27182188Y43732907D01*
X27393541Y43676275D01*
X27576444Y43660274D01*
X27611516Y43657205D01*
X27611518Y43657205D01*
X27611520Y43657205D01*
X27639772Y43659677D01*
X27829495Y43676275D01*
X28040848Y43732907D01*
X28183033Y43799210D01*
X28235473Y43810825D01*
X29608739Y43810320D01*
X29661085Y43798705D01*
X29802188Y43732907D01*
X30013541Y43676275D01*
X30196444Y43660274D01*
X30231516Y43657205D01*
X30231518Y43657205D01*
X30231520Y43657205D01*
X30259772Y43659677D01*
X30449495Y43676275D01*
X30660848Y43732907D01*
X30800967Y43798246D01*
X30853406Y43809861D01*
X31758377Y43809528D01*
X31825409Y43789819D01*
X31871144Y43736998D01*
X31882331Y43685342D01*
X31878909Y41404620D01*
X31859124Y41337610D01*
X31816919Y41297425D01*
X31813862Y41295661D01*
X31568559Y41131754D01*
X31346759Y40937241D01*
X31152246Y40715441D01*
X30988346Y40470148D01*
X30903109Y40297305D01*
X30857866Y40205559D01*
X30857864Y40205556D01*
X30856071Y40201918D01*
X30854554Y40202666D01*
X30815012Y40153674D01*
X30748701Y40131660D01*
X30744416Y40131584D01*
X29458908Y40131110D01*
X29391861Y40150770D01*
X29347345Y40202106D01*
X29346966Y40201918D01*
X29346250Y40203368D01*
X29346087Y40203557D01*
X29345552Y40204785D01*
X29214689Y40470148D01*
X29159560Y40552653D01*
X29050791Y40715439D01*
X29008173Y40764035D01*
X28856276Y40937241D01*
X28634473Y41131757D01*
X28389185Y41295653D01*
X28389178Y41295657D01*
X28124598Y41426133D01*
X27845248Y41520961D01*
X27845242Y41520963D01*
X27845240Y41520963D01*
X27555898Y41578516D01*
X27555891Y41578517D01*
X27555881Y41578518D01*
X27261525Y41597811D01*
X27261511Y41597811D01*
X26967154Y41578518D01*
X26967142Y41578517D01*
X26967138Y41578516D01*
X26967130Y41578515D01*
X26967127Y41578514D01*
X26677801Y41520964D01*
X26677787Y41520961D01*
X26398437Y41426133D01*
X26133852Y41295654D01*
X25888559Y41131754D01*
X25666759Y40937241D01*
X25472246Y40715441D01*
X25308346Y40470148D01*
X25176070Y40201918D01*
X25175121Y40202386D01*
X25134220Y40151633D01*
X25067925Y40129570D01*
X25063549Y40129491D01*
X17020564Y40126528D01*
X16953517Y40146188D01*
X16907743Y40198975D01*
X16896518Y40250528D01*
X16896518Y43690955D01*
X16916203Y43757994D01*
X16969007Y43803749D01*
X17020560Y43814955D01*
X26986667Y43811285D01*
G37*
%TD.AperFunction*%
%TD*%
%TA.AperFunction,Conductor*%
%TO.N,+BATT*%
G36*
X11881039Y58013797D02*
G01*
X11926794Y57960993D01*
X11938000Y57909482D01*
X11938000Y57610791D01*
X11918315Y57543752D01*
X11865511Y57497997D01*
X11796353Y57488053D01*
X11781907Y57491016D01*
X11656209Y57524697D01*
X11656202Y57524698D01*
X11293871Y57582085D01*
X10927519Y57601285D01*
X10927517Y57601285D01*
X10561164Y57582085D01*
X10198833Y57524698D01*
X10198831Y57524698D01*
X9844466Y57429746D01*
X9501982Y57298278D01*
X9175112Y57131728D01*
X8867448Y56931929D01*
X8751581Y56838103D01*
X9642878Y55946807D01*
X9440807Y55791751D01*
X9232249Y55583193D01*
X9077193Y55381123D01*
X8185897Y56272419D01*
X8092071Y56156552D01*
X7892272Y55848888D01*
X7725722Y55522018D01*
X7594254Y55179534D01*
X7499302Y54825169D01*
X7499302Y54825167D01*
X7441915Y54462836D01*
X7422715Y54096483D01*
X7422715Y54096482D01*
X7441915Y53730129D01*
X7499302Y53367798D01*
X7499302Y53367796D01*
X7594254Y53013431D01*
X7725722Y52670947D01*
X7892272Y52344076D01*
X8092071Y52036412D01*
X8185897Y51920548D01*
X9077193Y52811844D01*
X9232249Y52609771D01*
X9440807Y52401213D01*
X9642877Y52246159D01*
X8751582Y51354863D01*
X8867453Y51261032D01*
X9175111Y51061237D01*
X9501982Y50894687D01*
X9844466Y50763219D01*
X10198832Y50668267D01*
X10561164Y50610880D01*
X10927517Y50591679D01*
X10927519Y50591679D01*
X11293871Y50610880D01*
X11656202Y50668267D01*
X11656204Y50668267D01*
X11781906Y50701949D01*
X11851756Y50700286D01*
X11909618Y50661124D01*
X11937123Y50596896D01*
X11938000Y50582174D01*
X11938000Y20062893D01*
X11918315Y19995854D01*
X11865511Y19950099D01*
X11814108Y19938893D01*
X5717626Y19933590D01*
X5650569Y19953216D01*
X5604768Y20005980D01*
X5593518Y20057590D01*
X5593518Y57909482D01*
X5613203Y57976521D01*
X5666007Y58022276D01*
X5717518Y58033482D01*
X11814000Y58033482D01*
X11881039Y58013797D01*
G37*
%TD.AperFunction*%
%TD*%
%TA.AperFunction,Conductor*%
%TO.N,+5V*%
G36*
X28085187Y22229499D02*
G01*
X28085187Y22229498D01*
X28731929Y21683810D01*
X30499696Y20192256D01*
X30518991Y20171804D01*
X30567566Y20106914D01*
X30651272Y19995095D01*
X30651288Y19995077D01*
X30853612Y19792753D01*
X30853630Y19792737D01*
X31082700Y19621258D01*
X31082703Y19621256D01*
X31333857Y19484115D01*
X31333859Y19484115D01*
X31337385Y19482189D01*
X31357917Y19468132D01*
X34450934Y16858399D01*
X34489478Y16800124D01*
X34489632Y16799620D01*
X34490858Y16795575D01*
X34490860Y16795569D01*
X34490862Y16795564D01*
X34490863Y16795561D01*
X34547430Y16658994D01*
X34547437Y16658981D01*
X34629566Y16536067D01*
X34629569Y16536063D01*
X34734098Y16431534D01*
X34734102Y16431531D01*
X34857016Y16349402D01*
X34857029Y16349395D01*
X34993600Y16292826D01*
X34993605Y16292824D01*
X35101320Y16271398D01*
X35129274Y16265837D01*
X35185045Y16238993D01*
X36023964Y15531155D01*
X36062508Y15472880D01*
X36068000Y15436384D01*
X36068000Y9612401D01*
X36048315Y9545362D01*
X35995511Y9499607D01*
X35926353Y9489663D01*
X35882162Y9504921D01*
X17588162Y20030236D01*
X17539870Y20080730D01*
X17526000Y20137716D01*
X17526000Y22295120D01*
X17531518Y22313913D01*
X17531518Y22352000D01*
X27940000Y22352000D01*
X28085187Y22229499D01*
G37*
%TD.AperFunction*%
%TD*%
M02*
