M48
; DRILL file {KiCad 8.0.3} date 2024-06-18T09:05:43+0900
; FORMAT={-:-/ absolute / metric / decimal}
; #@! TF.CreationDate,2024-06-18T09:05:43+09:00
; #@! TF.GenerationSoftware,Kicad,Pcbnew,8.0.3
; #@! TF.FileFunction,MixedPlating,1,2
FMAT,2
METRIC
; #@! TA.AperFunction,Plated,PTH,ViaDrill
T1C0.300
; #@! TA.AperFunction,Plated,PTH,ComponentDrill
T2C0.600
; #@! TA.AperFunction,Plated,PTH,ViaDrill
T3C0.800
; #@! TA.AperFunction,Plated,PTH,ComponentDrill
T4C0.920
; #@! TA.AperFunction,Plated,PTH,ComponentDrill
T5C0.950
; #@! TA.AperFunction,Plated,PTH,ComponentDrill
T6C2.300
; #@! TA.AperFunction,Plated,PTH,ComponentDrill
T7C4.500
; #@! TA.AperFunction,NonPlated,NPTH,ComponentDrill
T8C3.200
%
G90
G05
T1
X7.112Y46.228
X7.112Y44.196
X7.112Y27.178
X7.112Y25.908
X7.366Y38.862
X7.366Y21.082
X9.144Y48.006
X9.144Y46.228
X9.144Y38.862
X9.144Y21.082
X10.922Y38.862
X10.922Y21.082
X11.049Y28.442
X11.176Y48.006
X11.176Y46.228
X15.494Y21.336
X15.494Y19.812
X15.494Y18.288
X15.494Y16.764
X15.621Y34.544
X15.627Y38.983
X15.627Y37.459
X15.627Y35.935
X15.754Y28.442
X18.294Y28.442
X20.574Y24.638
X20.574Y22.098
X20.574Y19.558
X20.574Y16.51
X20.574Y13.97
X20.574Y11.43
X23.114Y24.638
X23.114Y22.098
X23.114Y19.558
X23.114Y13.97
X25.654Y24.638
X25.654Y22.098
X25.654Y19.558
X25.654Y17.018
X25.654Y13.97
X25.654Y11.43
X28.194Y17.018
X28.194Y14.478
X30.734Y17.018
X30.734Y14.478
T3
X29.724Y8.63
X31.502Y8.63
X33.274Y11.938
X33.28Y14.345
X33.28Y8.63
X37.191Y15.107
X37.217Y10.154
X38.868Y15.107
X38.868Y10.154
X40.646Y15.107
X40.646Y10.154
T4
X27.612Y49.412
X27.612Y46.912
X27.612Y44.912
X27.612Y42.412
X29.457Y31.378
X29.457Y28.878
X29.457Y26.878
X29.457Y24.378
X30.232Y49.412
X30.232Y46.912
X30.232Y44.912
X30.232Y42.412
T5
X26.208Y59.557
X28.708Y59.557
T6
X27.262Y52.482
X27.262Y39.342
X32.167Y34.448
X32.167Y21.308
X32.942Y52.482
X32.942Y39.342
T7
X10.928Y54.096
X18.128Y54.096
T8
X3.562Y61.97
X3.562Y3.55
X38.995Y61.97
X38.995Y3.55
T2
G00X35.213Y17.014
M15
G01X36.313Y17.014
M16
G05
G00X35.213Y8.374
M15
G01X36.313Y8.374
M16
G05
G00X39.543Y17.014
M15
G01X40.343Y17.014
M16
G05
G00X39.543Y8.374
M15
G01X40.343Y8.374
M16
G05
M30
