%TF.GenerationSoftware,KiCad,Pcbnew,8.0.3*%
%TF.CreationDate,2024-06-19T09:11:03+09:00*%
%TF.ProjectId,USB_power,5553425f-706f-4776-9572-2e6b69636164,rev?*%
%TF.SameCoordinates,PX77e7cd0PY83695b8*%
%TF.FileFunction,Copper,L1,Top*%
%TF.FilePolarity,Positive*%
%FSLAX46Y46*%
G04 Gerber Fmt 4.6, Leading zero omitted, Abs format (unit mm)*
G04 Created by KiCad (PCBNEW 8.0.3) date 2024-06-19 09:11:03*
%MOMM*%
%LPD*%
G01*
G04 APERTURE LIST*
G04 Aperture macros list*
%AMRoundRect*
0 Rectangle with rounded corners*
0 $1 Rounding radius*
0 $2 $3 $4 $5 $6 $7 $8 $9 X,Y pos of 4 corners*
0 Add a 4 corners polygon primitive as box body*
4,1,4,$2,$3,$4,$5,$6,$7,$8,$9,$2,$3,0*
0 Add four circle primitives for the rounded corners*
1,1,$1+$1,$2,$3*
1,1,$1+$1,$4,$5*
1,1,$1+$1,$6,$7*
1,1,$1+$1,$8,$9*
0 Add four rect primitives between the rounded corners*
20,1,$1+$1,$2,$3,$4,$5,0*
20,1,$1+$1,$4,$5,$6,$7,0*
20,1,$1+$1,$6,$7,$8,$9,0*
20,1,$1+$1,$8,$9,$2,$3,0*%
G04 Aperture macros list end*
%TA.AperFunction,ComponentPad*%
%ADD10C,0.800000*%
%TD*%
%TA.AperFunction,ComponentPad*%
%ADD11C,6.400000*%
%TD*%
%TA.AperFunction,ComponentPad*%
%ADD12C,2.400000*%
%TD*%
%TA.AperFunction,SMDPad,CuDef*%
%ADD13RoundRect,0.250000X-0.450000X0.262500X-0.450000X-0.262500X0.450000X-0.262500X0.450000X0.262500X0*%
%TD*%
%TA.AperFunction,SMDPad,CuDef*%
%ADD14RoundRect,0.250000X-0.262500X-0.450000X0.262500X-0.450000X0.262500X0.450000X-0.262500X0.450000X0*%
%TD*%
%TA.AperFunction,SMDPad,CuDef*%
%ADD15RoundRect,0.250000X0.450000X-0.262500X0.450000X0.262500X-0.450000X0.262500X-0.450000X-0.262500X0*%
%TD*%
%TA.AperFunction,ComponentPad*%
%ADD16O,1.800000X1.000000*%
%TD*%
%TA.AperFunction,ComponentPad*%
%ADD17O,2.100000X1.000000*%
%TD*%
%TA.AperFunction,SMDPad,CuDef*%
%ADD18RoundRect,0.150000X0.425000X-0.150000X0.425000X0.150000X-0.425000X0.150000X-0.425000X-0.150000X0*%
%TD*%
%TA.AperFunction,SMDPad,CuDef*%
%ADD19RoundRect,0.075000X0.500000X-0.075000X0.500000X0.075000X-0.500000X0.075000X-0.500000X-0.075000X0*%
%TD*%
%TA.AperFunction,SMDPad,CuDef*%
%ADD20RoundRect,0.250000X-0.250000X-0.475000X0.250000X-0.475000X0.250000X0.475000X-0.250000X0.475000X0*%
%TD*%
%TA.AperFunction,SMDPad,CuDef*%
%ADD21RoundRect,0.250000X0.250000X0.475000X-0.250000X0.475000X-0.250000X-0.475000X0.250000X-0.475000X0*%
%TD*%
%TA.AperFunction,SMDPad,CuDef*%
%ADD22RoundRect,0.218750X0.112544X-0.317568X0.331294X0.061318X-0.112544X0.317568X-0.331294X-0.061318X0*%
%TD*%
%TA.AperFunction,SMDPad,CuDef*%
%ADD23R,1.143000X1.143000*%
%TD*%
%TA.AperFunction,SMDPad,CuDef*%
%ADD24R,1.905000X4.191000*%
%TD*%
%TA.AperFunction,SMDPad,CuDef*%
%ADD25R,4.191000X1.905000*%
%TD*%
%TA.AperFunction,SMDPad,CuDef*%
%ADD26RoundRect,0.250000X0.452332X0.258461X-0.002332X0.520961X-0.452332X-0.258461X0.002332X-0.520961X0*%
%TD*%
%TA.AperFunction,ComponentPad*%
%ADD27O,1.700000X1.950000*%
%TD*%
%TA.AperFunction,ComponentPad*%
%ADD28RoundRect,0.250000X-0.600000X-0.725000X0.600000X-0.725000X0.600000X0.725000X-0.600000X0.725000X0*%
%TD*%
%TA.AperFunction,ComponentPad*%
%ADD29C,3.500000*%
%TD*%
%TA.AperFunction,ComponentPad*%
%ADD30C,1.500000*%
%TD*%
%TA.AperFunction,ComponentPad*%
%ADD31R,1.500000X1.500000*%
%TD*%
%TA.AperFunction,ComponentPad*%
%ADD32C,6.000000*%
%TD*%
%TA.AperFunction,ComponentPad*%
%ADD33RoundRect,1.500000X1.500000X1.500000X-1.500000X1.500000X-1.500000X-1.500000X1.500000X-1.500000X0*%
%TD*%
%TA.AperFunction,SMDPad,CuDef*%
%ADD34RoundRect,0.218750X-0.256250X0.218750X-0.256250X-0.218750X0.256250X-0.218750X0.256250X0.218750X0*%
%TD*%
%TA.AperFunction,ViaPad*%
%ADD35C,0.600000*%
%TD*%
%TA.AperFunction,ViaPad*%
%ADD36C,1.200000*%
%TD*%
%TA.AperFunction,Conductor*%
%ADD37C,0.635000*%
%TD*%
%TA.AperFunction,Conductor*%
%ADD38C,0.600000*%
%TD*%
%TA.AperFunction,Conductor*%
%ADD39C,1.270000*%
%TD*%
G04 APERTURE END LIST*
D10*
%TO.P,H1,1*%
%TO.N,N/C*%
X1410000Y62230000D03*
X2112944Y63927056D03*
X2112944Y60532944D03*
X3810000Y64630000D03*
D11*
X3810000Y62230000D03*
D10*
X3810000Y59830000D03*
X5507056Y63927056D03*
X5507056Y60532944D03*
X6210000Y62230000D03*
%TD*%
%TO.P,H2,1*%
%TO.N,N/C*%
X38875000Y62230000D03*
X39577944Y63927056D03*
X39577944Y60532944D03*
X41275000Y64630000D03*
D11*
X41275000Y62230000D03*
D10*
X41275000Y59830000D03*
X42972056Y63927056D03*
X42972056Y60532944D03*
X43675000Y62230000D03*
%TD*%
%TO.P,H3,1*%
%TO.N,N/C*%
X38875000Y3810000D03*
X39577944Y5507056D03*
X39577944Y2112944D03*
X41275000Y6210000D03*
D11*
X41275000Y3810000D03*
D10*
X41275000Y1410000D03*
X42972056Y5507056D03*
X42972056Y2112944D03*
X43675000Y3810000D03*
%TD*%
%TO.P,H4,1*%
%TO.N,N/C*%
X1490944Y3856056D03*
X2193888Y5553112D03*
X2193888Y2159000D03*
X3890944Y6256056D03*
D11*
X3890944Y3856056D03*
D10*
X3890944Y1456056D03*
X5588000Y5553112D03*
X5588000Y2159000D03*
X6290944Y3856056D03*
%TD*%
D12*
%TO.P,F1,2*%
%TO.N,+BATT*%
X6272000Y54618000D03*
X2872000Y54618000D03*
%TO.P,F1,1*%
%TO.N,Battery*%
X6272000Y41148000D03*
X2872000Y41148000D03*
%TD*%
D13*
%TO.P,R9,2*%
%TO.N,Net-(R10-Pad1)*%
X23170318Y39600500D03*
%TO.P,R9,1*%
%TO.N,+5VP*%
X23170318Y41425500D03*
%TD*%
%TO.P,R2,2*%
%TO.N,Net-(R2-Pad2)*%
X22606000Y9374500D03*
%TO.P,R2,1*%
%TO.N,Net-(R1-Pad2)*%
X22606000Y11199500D03*
%TD*%
D14*
%TO.P,R1,2*%
%TO.N,Net-(R1-Pad2)*%
X20447000Y11303000D03*
%TO.P,R1,1*%
%TO.N,Net-(MD1-TRIM)*%
X18622000Y11303000D03*
%TD*%
D15*
%TO.P,R7,2*%
%TO.N,Net-(R7-Pad2)*%
X25400000Y34948500D03*
%TO.P,R7,1*%
%TO.N,Net-(R6-Pad2)*%
X25400000Y33123500D03*
%TD*%
D16*
%TO.P,J4,S1,SHIELD*%
%TO.N,unconnected-(J4-SHIELD-PadS1)_1*%
X41969000Y17909000D03*
D17*
%TO.N,unconnected-(J4-SHIELD-PadS1)*%
X37789000Y17909000D03*
D16*
%TO.N,unconnected-(J4-SHIELD-PadS1)_0*%
X41969000Y9269000D03*
D17*
%TO.N,unconnected-(J4-SHIELD-PadS1)_2*%
X37789000Y9269000D03*
D18*
%TO.P,J4,B12,GND*%
%TO.N,GND*%
X37214000Y10389000D03*
%TO.P,J4,B9,VBUS*%
%TO.N,+5V*%
X37214000Y11189000D03*
D19*
%TO.P,J4,B8,SBU2*%
%TO.N,unconnected-(J4-SBU2-PadB8)*%
X37214000Y11839000D03*
%TO.P,J4,B7,D-*%
%TO.N,unconnected-(J4-D--PadB7)*%
X37214000Y12839000D03*
%TO.P,J4,B6,D+*%
%TO.N,unconnected-(J4-D+-PadB6)*%
X37214000Y14339000D03*
%TO.P,J4,B5,CC2*%
%TO.N,unconnected-(J4-CC2-PadB5)*%
X37214000Y15339000D03*
D18*
%TO.P,J4,B4,VBUS*%
%TO.N,+5V*%
X37214000Y15989000D03*
%TO.P,J4,B1,GND*%
%TO.N,GND*%
X37214000Y16789000D03*
%TO.P,J4,A12,GND*%
X37214000Y16789000D03*
%TO.P,J4,A9,VBUS*%
%TO.N,+5V*%
X37214000Y15989000D03*
D19*
%TO.P,J4,A8,SBU1*%
%TO.N,unconnected-(J4-SBU1-PadA8)*%
X37214000Y14839000D03*
%TO.P,J4,A7,D-*%
%TO.N,unconnected-(J4-D--PadA7)*%
X37214000Y13839000D03*
%TO.P,J4,A6,D+*%
%TO.N,unconnected-(J4-D+-PadA6)*%
X37214000Y13339000D03*
%TO.P,J4,A5,CC1*%
%TO.N,unconnected-(J4-CC1-PadA5)*%
X37214000Y12339000D03*
D18*
%TO.P,J4,A4,VBUS*%
%TO.N,+5V*%
X37214000Y11189000D03*
%TO.P,J4,A1,GND*%
%TO.N,GND*%
X37214000Y10389000D03*
%TD*%
D20*
%TO.P,C1,2*%
%TO.N,GND*%
X14920000Y27305000D03*
%TO.P,C1,1*%
%TO.N,Battery*%
X13020000Y27305000D03*
%TD*%
D21*
%TO.P,C10,2*%
%TO.N,GND*%
X17917518Y44825482D03*
%TO.P,C10,1*%
%TO.N,+5VP*%
X19817518Y44825482D03*
%TD*%
D13*
%TO.P,R10,2*%
%TO.N,GND*%
X25654000Y37822500D03*
%TO.P,R10,1*%
%TO.N,Net-(R10-Pad1)*%
X25654000Y39647500D03*
%TD*%
D22*
%TO.P,D1,2,A*%
%TO.N,+5V*%
X32651751Y13762996D03*
%TO.P,D1,1,K*%
%TO.N,Net-(D1-K)*%
X31864249Y12399004D03*
%TD*%
D23*
%TO.P,MD2,12,4_NC*%
%TO.N,unconnected-(MD2-4_NC-Pad12)*%
X17531518Y32125482D03*
%TO.P,MD2,11,3_NC*%
%TO.N,unconnected-(MD2-3_NC-Pad11)*%
X19817518Y34411482D03*
%TO.P,MD2,10,POWER_GOOD_OUT*%
%TO.N,unconnected-(MD2-POWER_GOOD_OUT-Pad10)*%
X10673518Y34411482D03*
%TO.P,MD2,9,2_NC*%
%TO.N,unconnected-(MD2-2_NC-Pad9)*%
X10673518Y32125482D03*
%TO.P,MD2,8,1_NC*%
%TO.N,unconnected-(MD2-1_NC-Pad8)*%
X12959518Y32125482D03*
%TO.P,MD2,7,2_GROUND*%
%TO.N,GND*%
X15245518Y32125482D03*
%TO.P,MD2,6,TRIM*%
%TO.N,Net-(MD2-TRIM)*%
X19817518Y32125482D03*
%TO.P,MD2,5,SENSE*%
%TO.N,+5VP*%
X19817518Y36697482D03*
D24*
%TO.P,MD2,4,VOUT*%
X19817518Y40126482D03*
D25*
%TO.P,MD2,3,1_GROUND*%
%TO.N,GND*%
X16388518Y41269482D03*
%TO.P,MD2,2,VIN*%
%TO.N,Battery*%
X11816518Y41269482D03*
D23*
%TO.P,MD2,1,~{ON}/OFF_CONTROL*%
%TO.N,GND*%
X10673518Y36697482D03*
%TD*%
D26*
%TO.P,R11,2*%
%TO.N,GND*%
X28546752Y13537250D03*
%TO.P,R11,1*%
%TO.N,Net-(D1-K)*%
X30127248Y12624750D03*
%TD*%
D27*
%TO.P,J3,2,Pin_2*%
%TO.N,+BATT*%
X30739518Y59938482D03*
D28*
%TO.P,J3,1,Pin_1*%
%TO.N,GND*%
X28239518Y59938482D03*
%TD*%
D21*
%TO.P,C5,2*%
%TO.N,GND*%
X17846000Y27305000D03*
%TO.P,C5,1*%
%TO.N,+5V*%
X19746000Y27305000D03*
%TD*%
D29*
%TO.P,J2,9,Shield*%
%TO.N,unconnected-(J2-Shield-Pad9)_2*%
X29293518Y52863482D03*
%TO.N,unconnected-(J2-Shield-Pad9)_0*%
X29293518Y39723482D03*
%TO.N,unconnected-(J2-Shield-Pad9)_1*%
X34973518Y52863482D03*
%TO.N,unconnected-(J2-Shield-Pad9)*%
X34973518Y39723482D03*
D30*
%TO.P,J2,8,GND2*%
%TO.N,GND*%
X29643518Y49793482D03*
%TO.P,J2,7,D2+*%
%TO.N,unconnected-(J2-D2+-Pad7)*%
X29643518Y47293482D03*
%TO.P,J2,6,D2-*%
%TO.N,unconnected-(J2-D2--Pad6)*%
X29643518Y45293482D03*
%TO.P,J2,5,VBUS2*%
%TO.N,+5VP*%
X29643518Y42793482D03*
%TO.P,J2,4,GND1*%
%TO.N,GND*%
X32263518Y49793482D03*
%TO.P,J2,3,D1+*%
%TO.N,unconnected-(J2-D1+-Pad3)*%
X32263518Y47293482D03*
%TO.P,J2,2,D1-*%
%TO.N,unconnected-(J2-D1--Pad2)*%
X32263518Y45293482D03*
D31*
%TO.P,J2,1,VBUS1*%
%TO.N,+5VP*%
X32263518Y42793482D03*
%TD*%
D23*
%TO.P,MD1,12,4_NC*%
%TO.N,unconnected-(MD1-4_NC-Pad12)*%
X17526000Y14605000D03*
%TO.P,MD1,11,3_NC*%
%TO.N,unconnected-(MD1-3_NC-Pad11)*%
X19812000Y16891000D03*
%TO.P,MD1,10,POWER_GOOD_OUT*%
%TO.N,unconnected-(MD1-POWER_GOOD_OUT-Pad10)*%
X10668000Y16891000D03*
%TO.P,MD1,9,2_NC*%
%TO.N,unconnected-(MD1-2_NC-Pad9)*%
X10668000Y14605000D03*
%TO.P,MD1,8,1_NC*%
%TO.N,unconnected-(MD1-1_NC-Pad8)*%
X12954000Y14605000D03*
%TO.P,MD1,7,2_GROUND*%
%TO.N,GND*%
X15240000Y14605000D03*
%TO.P,MD1,6,TRIM*%
%TO.N,Net-(MD1-TRIM)*%
X19812000Y14605000D03*
%TO.P,MD1,5,SENSE*%
%TO.N,+5V*%
X19812000Y19177000D03*
D24*
%TO.P,MD1,4,VOUT*%
X19812000Y22606000D03*
D25*
%TO.P,MD1,3,1_GROUND*%
%TO.N,GND*%
X16383000Y23749000D03*
%TO.P,MD1,2,VIN*%
%TO.N,Battery*%
X11811000Y23749000D03*
D23*
%TO.P,MD1,1,~{ON}/OFF_CONTROL*%
%TO.N,GND*%
X10668000Y19177000D03*
%TD*%
D15*
%TO.P,R4,2*%
%TO.N,Net-(R4-Pad2)*%
X23876000Y27201500D03*
%TO.P,R4,1*%
%TO.N,+5V*%
X23876000Y25376500D03*
%TD*%
%TO.P,R5,2*%
%TO.N,GND*%
X25908000Y28876000D03*
%TO.P,R5,1*%
%TO.N,Net-(R4-Pad2)*%
X25908000Y27051000D03*
%TD*%
D32*
%TO.P,J1,2,Pin_2*%
%TO.N,+BATT*%
X12959518Y54477482D03*
D33*
%TO.P,J1,1,Pin_1*%
%TO.N,GND*%
X20159518Y54477482D03*
%TD*%
D34*
%TO.P,D2,2,A*%
%TO.N,+5VP*%
X24638000Y43281500D03*
%TO.P,D2,1,K*%
%TO.N,Net-(D2-K)*%
X24638000Y44856500D03*
%TD*%
D15*
%TO.P,R3,2*%
%TO.N,GND*%
X24638000Y11199500D03*
%TO.P,R3,1*%
%TO.N,Net-(R2-Pad2)*%
X24638000Y9374500D03*
%TD*%
%TO.P,R6,2*%
%TO.N,Net-(R6-Pad2)*%
X23368000Y32027500D03*
%TO.P,R6,1*%
%TO.N,Net-(MD2-TRIM)*%
X23368000Y30202500D03*
%TD*%
%TO.P,R8,2*%
%TO.N,GND*%
X23368000Y36345500D03*
%TO.P,R8,1*%
%TO.N,Net-(R7-Pad2)*%
X23368000Y34520500D03*
%TD*%
%TO.P,R12,2*%
%TO.N,GND*%
X26670000Y46632500D03*
%TO.P,R12,1*%
%TO.N,Net-(D2-K)*%
X26670000Y44807500D03*
%TD*%
D29*
%TO.P,J5,9,Shield*%
%TO.N,unconnected-(J5-Shield-Pad9)*%
X29210000Y34671000D03*
%TO.N,unconnected-(J5-Shield-Pad9)_0*%
X29210000Y21531000D03*
%TO.N,unconnected-(J5-Shield-Pad9)_2*%
X34890000Y34671000D03*
%TO.N,unconnected-(J5-Shield-Pad9)_1*%
X34890000Y21531000D03*
D30*
%TO.P,J5,8,GND2*%
%TO.N,GND*%
X29560000Y31601000D03*
%TO.P,J5,7,D2+*%
%TO.N,unconnected-(J5-D2+-Pad7)*%
X29560000Y29101000D03*
%TO.P,J5,6,D2-*%
%TO.N,unconnected-(J5-D2--Pad6)*%
X29560000Y27101000D03*
%TO.P,J5,5,VBUS2*%
%TO.N,+5V*%
X29560000Y24601000D03*
%TO.P,J5,4,GND1*%
%TO.N,GND*%
X32180000Y31601000D03*
%TO.P,J5,3,D1+*%
%TO.N,unconnected-(J5-D1+-Pad3)*%
X32180000Y29101000D03*
%TO.P,J5,2,D1-*%
%TO.N,unconnected-(J5-D1--Pad2)*%
X32180000Y27101000D03*
D31*
%TO.P,J5,1,VBUS1*%
%TO.N,+5V*%
X32180000Y24601000D03*
%TD*%
D20*
%TO.P,C2,2*%
%TO.N,GND*%
X15179518Y44825482D03*
%TO.P,C2,1*%
%TO.N,Battery*%
X13279518Y44825482D03*
%TD*%
D35*
%TO.N,GND*%
X15494000Y9271000D03*
X18034000Y9271000D03*
X20574000Y9271000D03*
%TO.N,+5VP*%
X32258000Y41021000D03*
X27051000Y41275000D03*
X27305000Y43307000D03*
%TO.N,GND*%
X17653000Y34925000D03*
X17658518Y39364482D03*
D36*
X40899518Y16129000D03*
D35*
X17526000Y20193000D03*
D36*
X39248518Y11303000D03*
D35*
X27686000Y9779000D03*
X20325518Y28823482D03*
X17785518Y28823482D03*
X22606000Y16891000D03*
D36*
X39223118Y16129000D03*
D35*
X27686000Y11811000D03*
D36*
X40899518Y11303000D03*
D35*
X22606000Y14351000D03*
D36*
X31755518Y9011482D03*
D35*
X25146000Y14351000D03*
D36*
X42677518Y11303000D03*
D35*
X17658518Y36316482D03*
D36*
X35311518Y9011482D03*
X42677518Y16129000D03*
X33533518Y9011482D03*
D35*
X17526000Y21717000D03*
X17526000Y18669000D03*
X17526000Y17145000D03*
X17658518Y37840482D03*
%TO.N,Battery*%
X12954000Y21463000D03*
X9398000Y21463000D03*
X13081000Y28823482D03*
X9144000Y27559000D03*
X11176000Y39243000D03*
X9398000Y39243000D03*
X12954000Y39243000D03*
X11176000Y21463000D03*
X9144000Y26289000D03*
D36*
%TO.N,+5V*%
X35306000Y12319000D03*
D35*
X22606000Y25019000D03*
X25146000Y22479000D03*
X32766000Y17399000D03*
X25146000Y19939000D03*
X22606000Y22479000D03*
X30226000Y17399000D03*
X22606000Y19939000D03*
X25146000Y25019000D03*
X27686000Y17399000D03*
X30226000Y14859000D03*
D36*
X35311518Y14726482D03*
D35*
X32766000Y14859000D03*
%TD*%
D37*
%TO.N,Net-(R2-Pad2)*%
X22606000Y9374500D02*
X24638000Y9374500D01*
%TO.N,Net-(R1-Pad2)*%
X20756500Y10993500D02*
X22606000Y10993500D01*
X20447000Y11303000D02*
X20756500Y10993500D01*
%TO.N,Net-(D1-K)*%
X30352994Y12399004D02*
X30127248Y12624750D01*
X31864249Y12399004D02*
X30352994Y12399004D01*
D38*
%TO.N,Net-(D2-K)*%
X26621000Y44856500D02*
X24638000Y44856500D01*
X26670000Y44807500D02*
X26621000Y44856500D01*
D39*
%TO.N,GND*%
X17526000Y18669000D02*
X17526000Y18732500D01*
X17526000Y21717000D02*
X17526000Y22606000D01*
D38*
X37214000Y16789000D02*
X38563118Y16789000D01*
D37*
X15179518Y42478482D02*
X16388518Y41269482D01*
X10673518Y36697482D02*
X15245518Y32125482D01*
X15245518Y32125482D02*
X15245518Y32252482D01*
D38*
X37214000Y10389000D02*
X36689036Y10389000D01*
D39*
X17526000Y17145000D02*
X17526000Y17272000D01*
X16388518Y41269482D02*
X17658518Y39999482D01*
X17526000Y18732500D02*
X17526000Y20193000D01*
X17526000Y17081500D02*
X17526000Y17145000D01*
X17526000Y17272000D02*
X17526000Y18669000D01*
D37*
X15240000Y14605000D02*
X15240000Y14795500D01*
D38*
X36689036Y10389000D02*
X35311518Y9011482D01*
D39*
X17658518Y36189482D02*
X17658518Y34792482D01*
X20159518Y54477482D02*
X22778518Y54477482D01*
X22778518Y54477482D02*
X28239518Y59938482D01*
D38*
X37214000Y10389000D02*
X38334518Y10389000D01*
D39*
X17658518Y39999482D02*
X17658518Y39745482D01*
X17658518Y37713482D02*
X17658518Y36189482D01*
D38*
X38334518Y10389000D02*
X39248518Y11303000D01*
X31755518Y9011482D02*
X35311518Y9011482D01*
D39*
X17526000Y18732500D02*
X17526000Y18732500D01*
D37*
X15179518Y44825482D02*
X15179518Y42478482D01*
X10668000Y19177000D02*
X15240000Y14605000D01*
D39*
X17658518Y39364482D02*
X17658518Y37713482D01*
X17658518Y39745482D02*
X17658518Y39364482D01*
D38*
X38563118Y16789000D02*
X39223118Y16129000D01*
D39*
X17526000Y20193000D02*
X17526000Y21717000D01*
X17526000Y22606000D02*
X16383000Y23749000D01*
D37*
%TO.N,Net-(MD1-TRIM)*%
X18622000Y13415000D02*
X19812000Y14605000D01*
X18622000Y11303000D02*
X18622000Y13415000D01*
%TO.N,Net-(R4-Pad2)*%
X24026500Y27051000D02*
X23876000Y27201500D01*
X25908000Y27051000D02*
X24026500Y27051000D01*
D39*
%TO.N,+BATT*%
X30739518Y60700482D02*
X30739518Y59938482D01*
X13837482Y54477482D02*
X21330482Y61970482D01*
X21330482Y61970482D02*
X29469518Y61970482D01*
X12915518Y54477482D02*
X13837482Y54477482D01*
X29469518Y61970482D02*
X30739518Y60700482D01*
D37*
%TO.N,Net-(MD2-TRIM)*%
X21740500Y30202500D02*
X23368000Y30202500D01*
X19817518Y32125482D02*
X21740500Y30202500D01*
%TO.N,Net-(R6-Pad2)*%
X25400000Y33123500D02*
X24464000Y33123500D01*
X24464000Y33123500D02*
X23368000Y32027500D01*
%TO.N,Net-(R7-Pad2)*%
X23796000Y34948500D02*
X25400000Y34948500D01*
X23368000Y34520500D02*
X23796000Y34948500D01*
%TO.N,Net-(R10-Pad1)*%
X23170318Y39600500D02*
X23217318Y39647500D01*
X23217318Y39647500D02*
X25654000Y39647500D01*
%TO.N,+5V*%
X19812000Y19177000D02*
X19812000Y22606000D01*
D39*
X19812000Y23580000D02*
X19812000Y22606000D01*
D37*
X19812000Y27239000D02*
X19746000Y27305000D01*
%TO.N,+5VP*%
X19817518Y36697482D02*
X19817518Y40126482D01*
%TD*%
%TA.AperFunction,Conductor*%
%TO.N,GND*%
G36*
X36673046Y10395291D02*
G01*
X36686431Y10391402D01*
X36717074Y10388991D01*
X36782362Y10364109D01*
X36823834Y10307879D01*
X36828323Y10238153D01*
X36794402Y10177070D01*
X36770062Y10159151D01*
X36770152Y10159017D01*
X36767230Y10157066D01*
X36765814Y10156022D01*
X36765091Y10155636D01*
X36696640Y10109898D01*
X36629962Y10089020D01*
X36627749Y10089000D01*
X36445924Y10089000D01*
X36378885Y10108685D01*
X36333130Y10161489D01*
X36323186Y10230647D01*
X36352211Y10294203D01*
X36410989Y10331977D01*
X36425361Y10335283D01*
X36425792Y10335356D01*
X36425794Y10335357D01*
X36425799Y10335357D01*
X36493699Y10351829D01*
X36592372Y10391332D01*
X36661923Y10397972D01*
X36673046Y10395291D01*
G37*
%TD.AperFunction*%
%TA.AperFunction,Conductor*%
G36*
X44398544Y58400315D02*
G01*
X44444299Y58347511D01*
X44455504Y58295990D01*
X44452860Y33948319D01*
X44450013Y7743965D01*
X44430321Y7676927D01*
X44377512Y7631178D01*
X44326036Y7619978D01*
X14734838Y7614505D01*
X14667795Y7634177D01*
X14622030Y7686973D01*
X14610815Y7738801D01*
X14624375Y13409797D01*
X14644220Y13476789D01*
X14697133Y13522417D01*
X14748375Y13533500D01*
X14840000Y13533500D01*
X14840000Y15676500D01*
X15640000Y15676500D01*
X15640000Y13533500D01*
X15859328Y13533500D01*
X15859344Y13533501D01*
X15918872Y13539902D01*
X15918879Y13539904D01*
X16053586Y13590146D01*
X16053593Y13590150D01*
X16168687Y13676310D01*
X16168690Y13676313D01*
X16254850Y13791407D01*
X16254855Y13791416D01*
X16266551Y13822774D01*
X16308421Y13878708D01*
X16373885Y13903126D01*
X16442158Y13888275D01*
X16491564Y13838870D01*
X16498915Y13822776D01*
X16510703Y13791170D01*
X16510706Y13791165D01*
X16596952Y13675956D01*
X16596955Y13675953D01*
X16712164Y13589707D01*
X16712171Y13589703D01*
X16847017Y13539409D01*
X16847016Y13539409D01*
X16853944Y13538665D01*
X16906627Y13533000D01*
X17680000Y13533001D01*
X17747039Y13513317D01*
X17792794Y13460513D01*
X17804000Y13409001D01*
X17804000Y12310230D01*
X17784315Y12243191D01*
X17767681Y12222549D01*
X17766789Y12221658D01*
X17674687Y12072337D01*
X17674685Y12072332D01*
X17656084Y12016197D01*
X17619501Y11905797D01*
X17619501Y11905796D01*
X17619500Y11905796D01*
X17609000Y11803017D01*
X17609000Y10802999D01*
X17609001Y10802981D01*
X17619500Y10700204D01*
X17619501Y10700201D01*
X17646851Y10617666D01*
X17674686Y10533666D01*
X17766788Y10384344D01*
X17890844Y10260288D01*
X18040166Y10168186D01*
X18206703Y10113001D01*
X18309491Y10102500D01*
X18934508Y10102501D01*
X18934516Y10102502D01*
X18934519Y10102502D01*
X19006920Y10109898D01*
X19037297Y10113001D01*
X19203834Y10168186D01*
X19353156Y10260288D01*
X19446819Y10353951D01*
X19508142Y10387436D01*
X19577834Y10382452D01*
X19622181Y10353951D01*
X19715844Y10260288D01*
X19865166Y10168186D01*
X20031703Y10113001D01*
X20134491Y10102500D01*
X20759508Y10102501D01*
X20759516Y10102502D01*
X20759519Y10102502D01*
X20831920Y10109898D01*
X20862297Y10113001D01*
X21028834Y10168186D01*
X21028835Y10168187D01*
X21031911Y10169206D01*
X21070915Y10175500D01*
X21384194Y10175500D01*
X21451233Y10155815D01*
X21496988Y10103011D01*
X21506932Y10033853D01*
X21489733Y9986404D01*
X21471189Y9956341D01*
X21471186Y9956334D01*
X21416001Y9789797D01*
X21416001Y9789796D01*
X21416000Y9789796D01*
X21405500Y9687017D01*
X21405500Y9061999D01*
X21405501Y9061981D01*
X21416000Y8959204D01*
X21416001Y8959201D01*
X21470382Y8795093D01*
X21471186Y8792666D01*
X21563288Y8643344D01*
X21687344Y8519288D01*
X21836666Y8427186D01*
X22003203Y8372001D01*
X22105991Y8361500D01*
X23106008Y8361501D01*
X23106016Y8361502D01*
X23106019Y8361502D01*
X23162302Y8367252D01*
X23208797Y8372001D01*
X23375334Y8427186D01*
X23524656Y8519288D01*
X23525549Y8520181D01*
X23526312Y8520598D01*
X23530319Y8523766D01*
X23530860Y8523082D01*
X23586872Y8553666D01*
X23613230Y8556500D01*
X23630770Y8556500D01*
X23697809Y8536815D01*
X23718451Y8520181D01*
X23719344Y8519288D01*
X23868666Y8427186D01*
X24035203Y8372001D01*
X24137991Y8361500D01*
X25138008Y8361501D01*
X25138016Y8361502D01*
X25138019Y8361502D01*
X25194302Y8367252D01*
X25240797Y8372001D01*
X25407334Y8427186D01*
X25556656Y8519288D01*
X25680712Y8643344D01*
X25772814Y8792666D01*
X25827999Y8959203D01*
X25838500Y9061991D01*
X25838499Y9687008D01*
X25832787Y9742921D01*
X25827999Y9789797D01*
X25827998Y9789800D01*
X25812209Y9837448D01*
X25772814Y9956334D01*
X25680712Y10105656D01*
X25586695Y10199673D01*
X25553210Y10260996D01*
X25558194Y10330688D01*
X25586695Y10375036D01*
X25680317Y10468658D01*
X25772356Y10617876D01*
X25772358Y10617881D01*
X25827505Y10784303D01*
X25829058Y10799500D01*
X24362000Y10799500D01*
X24294961Y10819185D01*
X24249206Y10871989D01*
X24238000Y10923500D01*
X24238000Y11599500D01*
X25038000Y11599500D01*
X25829058Y11599500D01*
X25829058Y11599501D01*
X25827505Y11614698D01*
X25772358Y11781120D01*
X25772356Y11781125D01*
X25680315Y11930346D01*
X25556345Y12054316D01*
X25407124Y12146357D01*
X25407119Y12146359D01*
X25240697Y12201506D01*
X25240690Y12201507D01*
X25137986Y12212000D01*
X25038000Y12212000D01*
X25038000Y11599500D01*
X24238000Y11599500D01*
X24238000Y12212001D01*
X24138028Y12212000D01*
X24138012Y12211999D01*
X24035302Y12201506D01*
X23868880Y12146359D01*
X23868875Y12146357D01*
X23719653Y12054316D01*
X23710031Y12044693D01*
X23648707Y12011210D01*
X23579015Y12016197D01*
X23534672Y12044696D01*
X23524657Y12054711D01*
X23524656Y12054712D01*
X23387346Y12139405D01*
X23375336Y12146813D01*
X23375331Y12146815D01*
X23349532Y12155364D01*
X23208797Y12201999D01*
X23208795Y12202000D01*
X23106010Y12212500D01*
X22105998Y12212500D01*
X22105980Y12212499D01*
X22003203Y12202000D01*
X22003200Y12201999D01*
X21836668Y12146815D01*
X21836663Y12146813D01*
X21687345Y12054713D01*
X21613785Y11981153D01*
X21552461Y11947669D01*
X21482770Y11952654D01*
X21426836Y11994525D01*
X21408398Y12029830D01*
X21403472Y12044696D01*
X21394314Y12072334D01*
X21302212Y12221656D01*
X21178156Y12345712D01*
X21028834Y12437814D01*
X20862297Y12492999D01*
X20862295Y12493000D01*
X20759510Y12503500D01*
X20134498Y12503500D01*
X20134480Y12503499D01*
X20031703Y12493000D01*
X20031700Y12492999D01*
X19865168Y12437815D01*
X19865163Y12437813D01*
X19715842Y12345711D01*
X19651681Y12281549D01*
X19590358Y12248064D01*
X19520666Y12253048D01*
X19464733Y12294920D01*
X19440316Y12360384D01*
X19440000Y12369230D01*
X19440000Y13024812D01*
X19459685Y13091851D01*
X19476315Y13112489D01*
X19708428Y13344603D01*
X27342187Y13344603D01*
X27347286Y13169350D01*
X27392662Y13000004D01*
X27475875Y12845675D01*
X27592424Y12714710D01*
X27592427Y12714707D01*
X27604813Y12705764D01*
X28000341Y13390840D01*
X28000341Y13390841D01*
X27469901Y13697091D01*
X27419915Y13610511D01*
X27419912Y13610505D01*
X27377641Y13516304D01*
X27342187Y13344603D01*
X19708428Y13344603D01*
X19860508Y13496683D01*
X19921831Y13530167D01*
X19948189Y13533001D01*
X20431371Y13533001D01*
X20431372Y13533001D01*
X20490983Y13539409D01*
X20625831Y13589704D01*
X20741046Y13675954D01*
X20827296Y13791169D01*
X20877591Y13926017D01*
X20884000Y13985627D01*
X20883999Y15224372D01*
X20877591Y15283983D01*
X20875127Y15290588D01*
X20827297Y15418829D01*
X20827293Y15418836D01*
X20741047Y15534045D01*
X20741044Y15534048D01*
X20625835Y15620294D01*
X20625826Y15620299D01*
X20594940Y15631818D01*
X20539006Y15673688D01*
X20514588Y15739152D01*
X20529439Y15807425D01*
X20578844Y15856831D01*
X20594940Y15864182D01*
X20625826Y15875702D01*
X20625826Y15875703D01*
X20625831Y15875704D01*
X20741046Y15961954D01*
X20827296Y16077169D01*
X20877591Y16212017D01*
X20884000Y16271627D01*
X20883999Y17510372D01*
X20877591Y17569983D01*
X20859993Y17617165D01*
X20827297Y17704829D01*
X20827293Y17704836D01*
X20741047Y17820045D01*
X20741044Y17820048D01*
X20625835Y17906294D01*
X20625826Y17906299D01*
X20594940Y17917818D01*
X20539006Y17959688D01*
X20514588Y18025152D01*
X20529439Y18093425D01*
X20578844Y18142831D01*
X20594940Y18150182D01*
X20625826Y18161702D01*
X20625826Y18161703D01*
X20625831Y18161704D01*
X20741046Y18247954D01*
X20827296Y18363169D01*
X20877591Y18498017D01*
X20884000Y18557627D01*
X20883999Y18886505D01*
X20903683Y18953542D01*
X20956487Y18999297D01*
X21025646Y19009241D01*
X21069834Y18993984D01*
X27857068Y15089000D01*
X28157025Y14916422D01*
X28205317Y14865928D01*
X28218643Y14797341D01*
X28192773Y14732437D01*
X28154038Y14699798D01*
X28111312Y14676761D01*
X28111312Y14676760D01*
X27980338Y14560205D01*
X27919896Y14476504D01*
X27869901Y14389911D01*
X28400342Y14083660D01*
X28985774Y13745660D01*
X29033990Y13695093D01*
X29047213Y13626486D01*
X29031161Y13576273D01*
X28297632Y12305765D01*
X28297632Y12305764D01*
X28311567Y12299511D01*
X28311568Y12299510D01*
X28483270Y12264057D01*
X28658520Y12269155D01*
X28786411Y12303424D01*
X28856260Y12301761D01*
X28914123Y12262599D01*
X28938280Y12215742D01*
X28972690Y12087317D01*
X29055959Y11932886D01*
X29172585Y11801834D01*
X29172589Y11801830D01*
X29256357Y11741341D01*
X29797638Y11428833D01*
X29891906Y11386532D01*
X30063724Y11351055D01*
X30239092Y11356157D01*
X30408555Y11401565D01*
X30562979Y11484830D01*
X30562980Y11484831D01*
X30562982Y11484832D01*
X30635801Y11549635D01*
X30698967Y11579498D01*
X30718235Y11581004D01*
X31371841Y11581004D01*
X31433840Y11564392D01*
X31658671Y11434585D01*
X31749016Y11394045D01*
X31913679Y11360046D01*
X32081745Y11364936D01*
X32244152Y11408453D01*
X32392146Y11488251D01*
X32517749Y11600027D01*
X32575720Y11680308D01*
X32814522Y12093926D01*
X32865089Y12142141D01*
X32933696Y12155364D01*
X32983743Y12139406D01*
X34853767Y11063502D01*
X35998594Y10404834D01*
X35998593Y10404834D01*
X35998598Y10404832D01*
X36108628Y10357860D01*
X36108630Y10357860D01*
X36108631Y10357859D01*
X36164553Y10341483D01*
X36164557Y10341482D01*
X36164559Y10341482D01*
X36164565Y10341480D01*
X36201454Y10335291D01*
X36264312Y10304784D01*
X36300698Y10245137D01*
X36299061Y10175286D01*
X36259919Y10117410D01*
X36195701Y10089882D01*
X36180935Y10089000D01*
X36155704Y10089000D01*
X36187718Y9978802D01*
X36271314Y9837448D01*
X36271321Y9837439D01*
X36297728Y9811032D01*
X36331213Y9749709D01*
X36326229Y9680017D01*
X36324609Y9675900D01*
X36276949Y9560835D01*
X36276947Y9560830D01*
X36238500Y9367544D01*
X36238500Y9367541D01*
X36238500Y9170459D01*
X36238500Y9170457D01*
X36238499Y9170457D01*
X36276947Y8977171D01*
X36276950Y8977161D01*
X36352364Y8795093D01*
X36352371Y8795080D01*
X36461860Y8631219D01*
X36461863Y8631215D01*
X36601214Y8491864D01*
X36601218Y8491861D01*
X36765079Y8382372D01*
X36765092Y8382365D01*
X36947160Y8306951D01*
X36947165Y8306949D01*
X36947169Y8306949D01*
X36947170Y8306948D01*
X37140456Y8268500D01*
X37140459Y8268500D01*
X38437543Y8268500D01*
X38567582Y8294368D01*
X38630835Y8306949D01*
X38812914Y8382368D01*
X38976782Y8491861D01*
X39116139Y8631218D01*
X39225632Y8795086D01*
X39301051Y8977165D01*
X39339500Y9170457D01*
X40568499Y9170457D01*
X40606947Y8977171D01*
X40606950Y8977161D01*
X40682364Y8795093D01*
X40682371Y8795080D01*
X40791860Y8631219D01*
X40791863Y8631215D01*
X40931214Y8491864D01*
X40931218Y8491861D01*
X41095079Y8382372D01*
X41095092Y8382365D01*
X41277160Y8306951D01*
X41277165Y8306949D01*
X41277169Y8306949D01*
X41277170Y8306948D01*
X41470456Y8268500D01*
X41470459Y8268500D01*
X42467543Y8268500D01*
X42597582Y8294368D01*
X42660835Y8306949D01*
X42842914Y8382368D01*
X43006782Y8491861D01*
X43146139Y8631218D01*
X43255632Y8795086D01*
X43331051Y8977165D01*
X43369500Y9170459D01*
X43369500Y9367541D01*
X43369500Y9367544D01*
X43331052Y9560830D01*
X43331051Y9560831D01*
X43331051Y9560835D01*
X43281685Y9680017D01*
X43255635Y9742908D01*
X43255628Y9742921D01*
X43146139Y9906782D01*
X43146136Y9906786D01*
X43006785Y10046137D01*
X43006781Y10046140D01*
X42842920Y10155629D01*
X42842907Y10155636D01*
X42660839Y10231050D01*
X42660829Y10231053D01*
X42467543Y10269500D01*
X42467541Y10269500D01*
X41470459Y10269500D01*
X41470457Y10269500D01*
X41277170Y10231053D01*
X41277160Y10231050D01*
X41095092Y10155636D01*
X41095079Y10155629D01*
X40931218Y10046140D01*
X40931214Y10046137D01*
X40791863Y9906786D01*
X40791860Y9906782D01*
X40682371Y9742921D01*
X40682364Y9742908D01*
X40606950Y9560840D01*
X40606947Y9560830D01*
X40568500Y9367544D01*
X40568500Y9367541D01*
X40568500Y9170459D01*
X40568500Y9170457D01*
X40568499Y9170457D01*
X39339500Y9170457D01*
X39339500Y9170459D01*
X39339500Y9367541D01*
X39339500Y9367544D01*
X39301052Y9560830D01*
X39301051Y9560831D01*
X39301051Y9560835D01*
X39251685Y9680017D01*
X39225635Y9742908D01*
X39225628Y9742921D01*
X39116139Y9906782D01*
X39116136Y9906786D01*
X38976785Y10046137D01*
X38976781Y10046140D01*
X38812920Y10155629D01*
X38812907Y10155636D01*
X38630839Y10231050D01*
X38630829Y10231053D01*
X38437543Y10269500D01*
X38437541Y10269500D01*
X38315324Y10269500D01*
X38248285Y10289185D01*
X38202530Y10341989D01*
X38192586Y10411147D01*
X38221611Y10474703D01*
X38248284Y10497815D01*
X38304065Y10533664D01*
X38358543Y10568675D01*
X38411347Y10614430D01*
X38505567Y10723164D01*
X38565338Y10854041D01*
X38585023Y10921080D01*
X38585024Y10921084D01*
X38605500Y11063500D01*
X38605500Y11392588D01*
X38604444Y11401567D01*
X38602193Y11420716D01*
X38591716Y11509831D01*
X38578375Y11565783D01*
X38560422Y11614797D01*
X38537772Y11676635D01*
X38537770Y11676637D01*
X38537770Y11676639D01*
X38455234Y11794492D01*
X38407417Y11845436D01*
X38330276Y11907088D01*
X38290198Y11964318D01*
X38284754Y11987767D01*
X38283864Y11994525D01*
X38274687Y12064236D01*
X38274686Y12064237D01*
X38273626Y12072295D01*
X38276689Y12072699D01*
X38276689Y12105302D01*
X38273626Y12105705D01*
X38276663Y12128777D01*
X38289500Y12226280D01*
X38289500Y12451720D01*
X38274687Y12564236D01*
X38274686Y12564237D01*
X38273626Y12572295D01*
X38276689Y12572699D01*
X38276689Y12605302D01*
X38273626Y12605705D01*
X38285807Y12698230D01*
X38289500Y12726280D01*
X38289500Y12951720D01*
X38274687Y13064236D01*
X38274686Y13064237D01*
X38273626Y13072295D01*
X38276689Y13072699D01*
X38276689Y13105302D01*
X38273626Y13105705D01*
X38282005Y13169350D01*
X38289500Y13226280D01*
X38289500Y13451720D01*
X38274687Y13564236D01*
X38274686Y13564237D01*
X38273626Y13572295D01*
X38276689Y13572699D01*
X38276689Y13605302D01*
X38273626Y13605705D01*
X38282874Y13675954D01*
X38289500Y13726280D01*
X38289500Y13951720D01*
X38274687Y14064236D01*
X38274686Y14064237D01*
X38273626Y14072295D01*
X38276689Y14072699D01*
X38276689Y14105302D01*
X38273626Y14105705D01*
X38274687Y14113764D01*
X38289500Y14226280D01*
X38289500Y14451720D01*
X38274687Y14564236D01*
X38274686Y14564237D01*
X38273626Y14572295D01*
X38276689Y14572699D01*
X38276689Y14605302D01*
X38273626Y14605705D01*
X38274687Y14613764D01*
X38289500Y14726280D01*
X38289500Y14951720D01*
X38274687Y15064236D01*
X38274686Y15064237D01*
X38273626Y15072295D01*
X38276689Y15072699D01*
X38276689Y15105302D01*
X38273626Y15105705D01*
X38284859Y15191029D01*
X38313125Y15254926D01*
X38340757Y15279159D01*
X38358543Y15290588D01*
X38411347Y15336343D01*
X38505567Y15445077D01*
X38565338Y15575954D01*
X38585023Y15642993D01*
X38585024Y15642997D01*
X38605500Y15785413D01*
X38605500Y15817384D01*
X38605379Y15819001D01*
X38599875Y15892577D01*
X38599872Y15892603D01*
X38599872Y15892606D01*
X38594380Y15929102D01*
X38577616Y16002666D01*
X38577614Y16002671D01*
X38516131Y16132742D01*
X38506045Y16147990D01*
X38477584Y16191021D01*
X38381947Y16298504D01*
X38381940Y16298510D01*
X38311032Y16358340D01*
X38272489Y16416617D01*
X38271571Y16486480D01*
X38271920Y16487705D01*
X38272296Y16489000D01*
X38258059Y16489000D01*
X38191020Y16508685D01*
X38160079Y16537000D01*
X38157077Y16540870D01*
X38040870Y16657077D01*
X38040858Y16657086D01*
X38005886Y16677768D01*
X37958202Y16728836D01*
X37945698Y16797578D01*
X37972343Y16862168D01*
X38029678Y16902098D01*
X38069006Y16908500D01*
X38437543Y16908500D01*
X38567582Y16934368D01*
X38630835Y16946949D01*
X38812914Y17022368D01*
X38976782Y17131861D01*
X39116139Y17271218D01*
X39225632Y17435086D01*
X39301051Y17617165D01*
X39339500Y17810457D01*
X40568499Y17810457D01*
X40606947Y17617171D01*
X40606950Y17617161D01*
X40682364Y17435093D01*
X40682371Y17435080D01*
X40791860Y17271219D01*
X40791863Y17271215D01*
X40931214Y17131864D01*
X40931218Y17131861D01*
X41095079Y17022372D01*
X41095092Y17022365D01*
X41277160Y16946951D01*
X41277165Y16946949D01*
X41277169Y16946949D01*
X41277170Y16946948D01*
X41470456Y16908500D01*
X41470459Y16908500D01*
X42467543Y16908500D01*
X42597582Y16934368D01*
X42660835Y16946949D01*
X42842914Y17022368D01*
X43006782Y17131861D01*
X43146139Y17271218D01*
X43255632Y17435086D01*
X43331051Y17617165D01*
X43369500Y17810459D01*
X43369500Y18007541D01*
X43369500Y18007544D01*
X43331052Y18200830D01*
X43331051Y18200831D01*
X43331051Y18200835D01*
X43304897Y18263978D01*
X43255635Y18382908D01*
X43255628Y18382921D01*
X43146139Y18546782D01*
X43146136Y18546786D01*
X43006785Y18686137D01*
X43006781Y18686140D01*
X42842920Y18795629D01*
X42842907Y18795636D01*
X42660839Y18871050D01*
X42660829Y18871053D01*
X42467543Y18909500D01*
X42467541Y18909500D01*
X41470459Y18909500D01*
X41470457Y18909500D01*
X41277170Y18871053D01*
X41277160Y18871050D01*
X41095092Y18795636D01*
X41095079Y18795629D01*
X40931218Y18686140D01*
X40931214Y18686137D01*
X40791863Y18546786D01*
X40791860Y18546782D01*
X40682371Y18382921D01*
X40682364Y18382908D01*
X40606950Y18200840D01*
X40606947Y18200830D01*
X40568500Y18007544D01*
X40568500Y18007541D01*
X40568500Y17810459D01*
X40568500Y17810457D01*
X40568499Y17810457D01*
X39339500Y17810457D01*
X39339500Y17810459D01*
X39339500Y18007541D01*
X39339500Y18007544D01*
X39301052Y18200830D01*
X39301051Y18200831D01*
X39301051Y18200835D01*
X39274897Y18263978D01*
X39225635Y18382908D01*
X39225628Y18382921D01*
X39116139Y18546782D01*
X39116136Y18546786D01*
X38976785Y18686137D01*
X38976781Y18686140D01*
X38812920Y18795629D01*
X38812907Y18795636D01*
X38630839Y18871050D01*
X38630829Y18871053D01*
X38437543Y18909500D01*
X38437541Y18909500D01*
X37140459Y18909500D01*
X37140457Y18909500D01*
X36947170Y18871053D01*
X36947160Y18871050D01*
X36765092Y18795636D01*
X36765079Y18795629D01*
X36601218Y18686140D01*
X36601214Y18686137D01*
X36461863Y18546786D01*
X36461860Y18546782D01*
X36352371Y18382921D01*
X36352364Y18382908D01*
X36303103Y18263978D01*
X36259262Y18209574D01*
X36192968Y18187509D01*
X36125269Y18204788D01*
X36108578Y18216658D01*
X35091210Y19075063D01*
X35052666Y19133339D01*
X35051748Y19203203D01*
X35088747Y19262473D01*
X35151915Y19292330D01*
X35163046Y19293568D01*
X35184380Y19294966D01*
X35473722Y19352519D01*
X35753077Y19447348D01*
X36017665Y19577828D01*
X36262957Y19741727D01*
X36484758Y19936242D01*
X36679273Y20158043D01*
X36843172Y20403335D01*
X36973652Y20667923D01*
X37068481Y20947278D01*
X37126034Y21236620D01*
X37131059Y21313288D01*
X37145329Y21530993D01*
X37145329Y21531008D01*
X37126035Y21825364D01*
X37126034Y21825380D01*
X37068481Y22114722D01*
X36973652Y22394077D01*
X36843172Y22658664D01*
X36679273Y22903957D01*
X36636655Y22952553D01*
X36484758Y23125759D01*
X36262955Y23320275D01*
X36017667Y23484171D01*
X36017660Y23484175D01*
X35753080Y23614651D01*
X35473730Y23709479D01*
X35473724Y23709481D01*
X35473722Y23709481D01*
X35184380Y23767034D01*
X35184373Y23767035D01*
X35184363Y23767036D01*
X34890007Y23786329D01*
X34889993Y23786329D01*
X34595636Y23767036D01*
X34595624Y23767035D01*
X34595620Y23767034D01*
X34595612Y23767033D01*
X34595609Y23767032D01*
X34306283Y23709482D01*
X34306269Y23709479D01*
X34026919Y23614651D01*
X33762334Y23484172D01*
X33517041Y23320272D01*
X33295241Y23125759D01*
X33234728Y23056756D01*
X33175726Y23019332D01*
X33105858Y23019748D01*
X33047305Y23057872D01*
X33018659Y23121599D01*
X33017500Y23138515D01*
X33017500Y23263361D01*
X33037185Y23330400D01*
X33089989Y23376155D01*
X33098168Y23379543D01*
X33172326Y23407202D01*
X33172326Y23407203D01*
X33172331Y23407204D01*
X33287546Y23493454D01*
X33373796Y23608669D01*
X33424091Y23743517D01*
X33430500Y23803127D01*
X33430499Y25398872D01*
X33424091Y25458483D01*
X33373796Y25593331D01*
X33373795Y25593332D01*
X33373793Y25593336D01*
X33287547Y25708545D01*
X33287544Y25708548D01*
X33172335Y25794794D01*
X33172328Y25794798D01*
X33098167Y25822458D01*
X33042233Y25864329D01*
X33017816Y25929794D01*
X33017500Y25938640D01*
X33017500Y25991539D01*
X33017499Y25991554D01*
X33004665Y26088479D01*
X33015379Y26157522D01*
X33039907Y26192434D01*
X33141598Y26294123D01*
X33267102Y26473361D01*
X33359575Y26671670D01*
X33416207Y26883023D01*
X33435277Y27101000D01*
X33416207Y27318977D01*
X33359575Y27530330D01*
X33267102Y27728638D01*
X33267100Y27728641D01*
X33267099Y27728643D01*
X33141597Y27907879D01*
X33036156Y28013320D01*
X33002671Y28074643D01*
X33007655Y28144335D01*
X33036152Y28188678D01*
X33141598Y28294123D01*
X33267102Y28473361D01*
X33359575Y28671670D01*
X33416207Y28883023D01*
X33435277Y29101000D01*
X33416207Y29318977D01*
X33373704Y29477599D01*
X33359577Y29530323D01*
X33359576Y29530326D01*
X33359575Y29530330D01*
X33267102Y29728638D01*
X33267100Y29728641D01*
X33267099Y29728643D01*
X33141599Y29907876D01*
X33141596Y29907879D01*
X32986877Y30062598D01*
X32807639Y30188102D01*
X32807640Y30188102D01*
X32807638Y30188103D01*
X32698714Y30238895D01*
X32646275Y30285068D01*
X32627123Y30352261D01*
X32647339Y30419142D01*
X32698715Y30463659D01*
X32734820Y30480495D01*
X32180001Y31035315D01*
X32180000Y31035315D01*
X31625178Y30480495D01*
X31661284Y30463659D01*
X31713724Y30417487D01*
X31732876Y30350294D01*
X31712661Y30283412D01*
X31661286Y30238895D01*
X31552358Y30188100D01*
X31552357Y30188100D01*
X31373121Y30062598D01*
X31218402Y29907879D01*
X31092900Y29728643D01*
X31092898Y29728639D01*
X31000426Y29530332D01*
X31000423Y29530326D01*
X30989775Y29490584D01*
X30953410Y29430924D01*
X30890563Y29400395D01*
X30821187Y29408690D01*
X30767310Y29453175D01*
X30750225Y29490584D01*
X30739576Y29530326D01*
X30739575Y29530330D01*
X30647102Y29728638D01*
X30647100Y29728641D01*
X30647099Y29728643D01*
X30521599Y29907876D01*
X30521596Y29907879D01*
X30366877Y30062598D01*
X30187639Y30188102D01*
X30187640Y30188102D01*
X30187638Y30188103D01*
X30078714Y30238895D01*
X30026275Y30285068D01*
X30007123Y30352261D01*
X30027339Y30419142D01*
X30078715Y30463659D01*
X30114820Y30480495D01*
X29560001Y31035315D01*
X29560000Y31035315D01*
X29005178Y30480495D01*
X29041284Y30463659D01*
X29093724Y30417487D01*
X29112876Y30350294D01*
X29092661Y30283412D01*
X29041286Y30238895D01*
X28932358Y30188100D01*
X28932357Y30188100D01*
X28753121Y30062598D01*
X28598402Y29907879D01*
X28472900Y29728643D01*
X28472898Y29728639D01*
X28380426Y29530332D01*
X28380422Y29530323D01*
X28323793Y29318980D01*
X28323793Y29318976D01*
X28304723Y29101003D01*
X28304723Y29100998D01*
X28323793Y28883025D01*
X28323793Y28883021D01*
X28380422Y28671678D01*
X28380424Y28671674D01*
X28380425Y28671670D01*
X28426661Y28572516D01*
X28472897Y28473362D01*
X28481691Y28460803D01*
X28598402Y28294123D01*
X28598405Y28294120D01*
X28598406Y28294119D01*
X28621982Y28270543D01*
X28655467Y28209220D01*
X28650483Y28139528D01*
X28608611Y28083595D01*
X28543147Y28059178D01*
X28516655Y28060124D01*
X28486219Y28064500D01*
X28486218Y28064500D01*
X27122743Y28064500D01*
X27055704Y28084185D01*
X27009949Y28136989D01*
X27000005Y28206147D01*
X27017204Y28253596D01*
X27042354Y28294372D01*
X27042358Y28294381D01*
X27097505Y28460803D01*
X27099058Y28476000D01*
X24716942Y28476000D01*
X24718494Y28460803D01*
X24765990Y28317471D01*
X24768392Y28247643D01*
X24732660Y28187601D01*
X24670140Y28156408D01*
X24609280Y28160761D01*
X24528895Y28187398D01*
X24478797Y28203999D01*
X24478795Y28204000D01*
X24376010Y28214500D01*
X23375998Y28214500D01*
X23375980Y28214499D01*
X23273203Y28204000D01*
X23273200Y28203999D01*
X23106668Y28148815D01*
X23106659Y28148810D01*
X22976377Y28068453D01*
X22908984Y28050013D01*
X22893635Y28051254D01*
X22801501Y28064500D01*
X22801500Y28064500D01*
X20771507Y28064500D01*
X20704468Y28084185D01*
X20665968Y28123403D01*
X20588712Y28248656D01*
X20464656Y28372712D01*
X20315334Y28464814D01*
X20148797Y28519999D01*
X20148795Y28520000D01*
X20046010Y28530500D01*
X19445998Y28530500D01*
X19445980Y28530499D01*
X19343203Y28520000D01*
X19343200Y28519999D01*
X19176668Y28464815D01*
X19176663Y28464813D01*
X19027342Y28372711D01*
X18903288Y28248657D01*
X18903283Y28248651D01*
X18901241Y28245339D01*
X18899247Y28243547D01*
X18898807Y28242989D01*
X18898711Y28243065D01*
X18849291Y28198617D01*
X18780328Y28187398D01*
X18716247Y28215245D01*
X18690168Y28245344D01*
X18688319Y28248341D01*
X18688316Y28248345D01*
X18564345Y28372316D01*
X18415124Y28464357D01*
X18415119Y28464359D01*
X18248695Y28519506D01*
X18246000Y28519782D01*
X18246000Y26090220D01*
X18248694Y26090495D01*
X18248701Y26090496D01*
X18415119Y26145642D01*
X18415124Y26145644D01*
X18564345Y26237685D01*
X18688318Y26361658D01*
X18690165Y26364652D01*
X18691969Y26366276D01*
X18692798Y26367323D01*
X18692976Y26367182D01*
X18742110Y26411379D01*
X18811073Y26422604D01*
X18875156Y26394764D01*
X18901243Y26364659D01*
X18903288Y26361344D01*
X18903289Y26361343D01*
X19021699Y26242933D01*
X19055184Y26181610D01*
X19058018Y26155252D01*
X19058018Y25326000D01*
X19038333Y25258961D01*
X18985529Y25213206D01*
X18934019Y25202000D01*
X18811630Y25202000D01*
X18811623Y25201999D01*
X18752018Y25195592D01*
X18711616Y25180523D01*
X18641924Y25175540D01*
X18624952Y25180524D01*
X18585880Y25195097D01*
X18585872Y25195099D01*
X18526344Y25201500D01*
X16783000Y25201500D01*
X16783000Y22296500D01*
X18235001Y22296500D01*
X18302040Y22276815D01*
X18347795Y22224011D01*
X18359001Y22172500D01*
X18359001Y20462624D01*
X18365408Y20403017D01*
X18415702Y20268172D01*
X18415706Y20268165D01*
X18501952Y20152956D01*
X18501955Y20152953D01*
X18617164Y20066707D01*
X18617173Y20066702D01*
X18683438Y20041987D01*
X18739372Y20000116D01*
X18763790Y19934652D01*
X18756289Y19882474D01*
X18746408Y19855983D01*
X18740001Y19796384D01*
X18740000Y19796365D01*
X18740000Y18557630D01*
X18740001Y18557624D01*
X18746408Y18498017D01*
X18796702Y18363172D01*
X18796706Y18363165D01*
X18882952Y18247956D01*
X18882955Y18247953D01*
X18998164Y18161707D01*
X18998171Y18161703D01*
X19029060Y18150182D01*
X19084994Y18108311D01*
X19109411Y18042847D01*
X19094559Y17974574D01*
X19045154Y17925168D01*
X19029060Y17917818D01*
X18998171Y17906298D01*
X18998164Y17906294D01*
X18882955Y17820048D01*
X18882952Y17820045D01*
X18796706Y17704836D01*
X18796702Y17704829D01*
X18746408Y17569983D01*
X18740001Y17510384D01*
X18740001Y17510377D01*
X18740000Y17510365D01*
X18740000Y16271630D01*
X18740001Y16271624D01*
X18746408Y16212017D01*
X18796702Y16077172D01*
X18796706Y16077165D01*
X18882952Y15961956D01*
X18882955Y15961953D01*
X18998164Y15875707D01*
X18998171Y15875703D01*
X19029060Y15864182D01*
X19084994Y15822311D01*
X19109411Y15756847D01*
X19094559Y15688574D01*
X19045154Y15639168D01*
X19029060Y15631818D01*
X18998171Y15620298D01*
X18998164Y15620294D01*
X18882955Y15534048D01*
X18882952Y15534045D01*
X18796706Y15418836D01*
X18796702Y15418829D01*
X18785182Y15387940D01*
X18743311Y15332006D01*
X18677847Y15307589D01*
X18609574Y15322441D01*
X18560168Y15371846D01*
X18552818Y15387940D01*
X18541297Y15418829D01*
X18541293Y15418836D01*
X18455047Y15534045D01*
X18455044Y15534048D01*
X18339835Y15620294D01*
X18339828Y15620298D01*
X18204982Y15670592D01*
X18204983Y15670592D01*
X18145383Y15676999D01*
X18145381Y15677000D01*
X18145373Y15677000D01*
X18145364Y15677000D01*
X16906629Y15677000D01*
X16906623Y15676999D01*
X16847016Y15670592D01*
X16712171Y15620298D01*
X16712164Y15620294D01*
X16596955Y15534048D01*
X16596952Y15534045D01*
X16510706Y15418836D01*
X16510701Y15418826D01*
X16498914Y15387224D01*
X16457042Y15331291D01*
X16391578Y15306875D01*
X16323305Y15321727D01*
X16273900Y15371133D01*
X16266551Y15387226D01*
X16254854Y15418587D01*
X16254850Y15418594D01*
X16168690Y15533688D01*
X16168687Y15533691D01*
X16053593Y15619851D01*
X16053586Y15619855D01*
X15918879Y15670097D01*
X15918872Y15670099D01*
X15859344Y15676500D01*
X15640000Y15676500D01*
X14840000Y15676500D01*
X14754092Y15676500D01*
X14687053Y15696185D01*
X14641298Y15748989D01*
X14630092Y15800796D01*
X14630132Y15817389D01*
X14645328Y22172799D01*
X14665173Y22239789D01*
X14718086Y22285417D01*
X14769328Y22296500D01*
X15983000Y22296500D01*
X15983000Y25201500D01*
X14776868Y25201500D01*
X14709829Y25221185D01*
X14664074Y25273989D01*
X14652868Y25325796D01*
X14653325Y25517380D01*
X14654695Y26090220D01*
X15320000Y26090220D01*
X15322694Y26090495D01*
X15322701Y26090496D01*
X15489119Y26145642D01*
X15489124Y26145644D01*
X15638345Y26237685D01*
X15762315Y26361655D01*
X15854356Y26510876D01*
X15854358Y26510881D01*
X15909505Y26677303D01*
X15909506Y26677310D01*
X15919999Y26780014D01*
X16846001Y26780014D01*
X16856494Y26677303D01*
X16911641Y26510881D01*
X16911643Y26510876D01*
X17003684Y26361655D01*
X17127654Y26237685D01*
X17276875Y26145644D01*
X17276880Y26145642D01*
X17443298Y26090496D01*
X17443305Y26090495D01*
X17446000Y26090220D01*
X17446000Y26905000D01*
X16846001Y26905000D01*
X16846001Y26780014D01*
X15919999Y26780014D01*
X15920000Y26780027D01*
X15920000Y26905000D01*
X15320000Y26905000D01*
X15320000Y26090220D01*
X14654695Y26090220D01*
X14658556Y27705000D01*
X15320000Y27705000D01*
X15919999Y27705000D01*
X15919999Y27829972D01*
X15919998Y27829987D01*
X16846000Y27829987D01*
X16846000Y27705000D01*
X17446000Y27705000D01*
X17446000Y28519782D01*
X17445999Y28519782D01*
X17443305Y28519506D01*
X17443303Y28519506D01*
X17276880Y28464359D01*
X17276875Y28464357D01*
X17127654Y28372316D01*
X17003684Y28248346D01*
X16911643Y28099125D01*
X16911641Y28099120D01*
X16856494Y27932698D01*
X16856493Y27932691D01*
X16846000Y27829987D01*
X15919998Y27829987D01*
X15909505Y27932698D01*
X15854358Y28099120D01*
X15854356Y28099125D01*
X15762315Y28248346D01*
X15638345Y28372316D01*
X15489124Y28464357D01*
X15489119Y28464359D01*
X15322695Y28519506D01*
X15320000Y28519782D01*
X15320000Y27705000D01*
X14658556Y27705000D01*
X14666269Y30930279D01*
X14686114Y30997271D01*
X14739027Y31042899D01*
X14790269Y31053982D01*
X14845518Y31053982D01*
X14845518Y33196982D01*
X15645518Y33196982D01*
X15645518Y31053982D01*
X15864846Y31053982D01*
X15864862Y31053983D01*
X15924390Y31060384D01*
X15924397Y31060386D01*
X16059104Y31110628D01*
X16059111Y31110632D01*
X16174205Y31196792D01*
X16174208Y31196795D01*
X16260368Y31311889D01*
X16260373Y31311898D01*
X16272069Y31343256D01*
X16313939Y31399190D01*
X16379403Y31423608D01*
X16447676Y31408757D01*
X16497082Y31359352D01*
X16504433Y31343258D01*
X16516221Y31311652D01*
X16516224Y31311647D01*
X16602470Y31196438D01*
X16602473Y31196435D01*
X16717682Y31110189D01*
X16717689Y31110185D01*
X16852535Y31059891D01*
X16852534Y31059891D01*
X16859462Y31059147D01*
X16912145Y31053482D01*
X18150890Y31053483D01*
X18210501Y31059891D01*
X18345349Y31110186D01*
X18460564Y31196436D01*
X18546814Y31311651D01*
X18558336Y31342542D01*
X18600206Y31398476D01*
X18665670Y31422894D01*
X18733943Y31408043D01*
X18783349Y31358638D01*
X18790700Y31342542D01*
X18802219Y31311656D01*
X18802224Y31311647D01*
X18888470Y31196438D01*
X18888473Y31196435D01*
X19003682Y31110189D01*
X19003689Y31110185D01*
X19027871Y31101166D01*
X19138535Y31059891D01*
X19198145Y31053482D01*
X19681328Y31053483D01*
X19748367Y31033799D01*
X19769009Y31017164D01*
X21219051Y29567121D01*
X21219054Y29567118D01*
X21333596Y29490584D01*
X21353031Y29477598D01*
X21368130Y29471344D01*
X21501898Y29415935D01*
X21659929Y29384501D01*
X21659933Y29384500D01*
X21659934Y29384500D01*
X21821065Y29384500D01*
X22360770Y29384500D01*
X22427809Y29364815D01*
X22448451Y29348181D01*
X22449344Y29347288D01*
X22598666Y29255186D01*
X22765203Y29200001D01*
X22867991Y29189500D01*
X23868008Y29189501D01*
X23868016Y29189502D01*
X23868019Y29189502D01*
X23924302Y29195252D01*
X23970797Y29200001D01*
X24137334Y29255186D01*
X24171081Y29276001D01*
X24716941Y29276001D01*
X24716942Y29276000D01*
X25508000Y29276000D01*
X26308000Y29276000D01*
X27099058Y29276000D01*
X27099058Y29276001D01*
X27097505Y29291198D01*
X27042358Y29457620D01*
X27042356Y29457625D01*
X26950315Y29606846D01*
X26826345Y29730816D01*
X26677124Y29822857D01*
X26677119Y29822859D01*
X26510697Y29878006D01*
X26510690Y29878007D01*
X26407986Y29888500D01*
X26308000Y29888500D01*
X26308000Y29276000D01*
X25508000Y29276000D01*
X25508000Y29888501D01*
X25408028Y29888500D01*
X25408012Y29888499D01*
X25305302Y29878006D01*
X25138880Y29822859D01*
X25138875Y29822857D01*
X24989654Y29730816D01*
X24865684Y29606846D01*
X24773643Y29457625D01*
X24773641Y29457620D01*
X24718494Y29291198D01*
X24716941Y29276001D01*
X24171081Y29276001D01*
X24286656Y29347288D01*
X24410712Y29471344D01*
X24502814Y29620666D01*
X24557999Y29787203D01*
X24568500Y29889991D01*
X24568499Y30515008D01*
X24557999Y30617797D01*
X24502814Y30784334D01*
X24410712Y30933656D01*
X24317049Y31027319D01*
X24283564Y31088642D01*
X24288548Y31158334D01*
X24317049Y31202681D01*
X24347277Y31232909D01*
X24410712Y31296344D01*
X24502814Y31445666D01*
X24557999Y31612203D01*
X24568500Y31714991D01*
X24568499Y32019813D01*
X24588183Y32086851D01*
X24604813Y32107488D01*
X24608767Y32111442D01*
X24670088Y32144925D01*
X24735446Y32141466D01*
X24797203Y32121001D01*
X24899991Y32110500D01*
X25900008Y32110501D01*
X25900016Y32110502D01*
X25900019Y32110502D01*
X25956302Y32116252D01*
X26002797Y32121001D01*
X26169334Y32176186D01*
X26318656Y32268288D01*
X26442712Y32392344D01*
X26534814Y32541666D01*
X26589999Y32708203D01*
X26600500Y32810991D01*
X26600499Y33436008D01*
X26595756Y33482435D01*
X26589999Y33538797D01*
X26589998Y33538800D01*
X26588494Y33543340D01*
X26534814Y33705334D01*
X26442712Y33854656D01*
X26349049Y33948319D01*
X26315564Y34009642D01*
X26320548Y34079334D01*
X26349049Y34123681D01*
X26442712Y34217344D01*
X26534814Y34366666D01*
X26589999Y34533203D01*
X26600500Y34635991D01*
X26600500Y34671008D01*
X26954671Y34671008D01*
X26954671Y34670993D01*
X26973964Y34376637D01*
X26973965Y34376627D01*
X26973966Y34376620D01*
X27027953Y34105204D01*
X27031518Y34087284D01*
X27031521Y34087270D01*
X27126349Y33807920D01*
X27256825Y33543340D01*
X27256829Y33543333D01*
X27420725Y33298045D01*
X27615241Y33076242D01*
X27837044Y32881726D01*
X28041880Y32744859D01*
X28082335Y32717828D01*
X28346923Y32587348D01*
X28459447Y32549151D01*
X28495604Y32536877D01*
X28552758Y32496688D01*
X28579111Y32431979D01*
X28566296Y32363294D01*
X28557320Y32348335D01*
X28473336Y32228392D01*
X28473333Y32228388D01*
X28380898Y32030160D01*
X28380894Y32030151D01*
X28324289Y31818895D01*
X28324287Y31818885D01*
X28305225Y31601001D01*
X28305225Y31601000D01*
X28324287Y31383116D01*
X28324289Y31383106D01*
X28380894Y31171850D01*
X28380898Y31171841D01*
X28439494Y31046181D01*
X29116517Y31723205D01*
X29100000Y31661560D01*
X29100000Y31540440D01*
X29131349Y31423447D01*
X29191909Y31318554D01*
X29277554Y31232909D01*
X29382447Y31172349D01*
X29499440Y31141000D01*
X29620560Y31141000D01*
X29737553Y31172349D01*
X29842446Y31232909D01*
X29928091Y31318554D01*
X29988651Y31423447D01*
X30020000Y31540440D01*
X30020000Y31601000D01*
X30125685Y31601000D01*
X30680505Y31046180D01*
X30739102Y31171841D01*
X30739105Y31171850D01*
X30750225Y31213350D01*
X30786589Y31273010D01*
X30849436Y31303540D01*
X30918812Y31295246D01*
X30972690Y31250761D01*
X30989775Y31213350D01*
X31000894Y31171850D01*
X31000898Y31171841D01*
X31059494Y31046181D01*
X31614314Y31601000D01*
X31553754Y31661560D01*
X31720000Y31661560D01*
X31720000Y31540440D01*
X31751349Y31423447D01*
X31811909Y31318554D01*
X31897554Y31232909D01*
X32002447Y31172349D01*
X32119440Y31141000D01*
X32240560Y31141000D01*
X32357553Y31172349D01*
X32462446Y31232909D01*
X32548091Y31318554D01*
X32608651Y31423447D01*
X32640000Y31540440D01*
X32640000Y31601000D01*
X32745685Y31601000D01*
X33300505Y31046180D01*
X33359102Y31171841D01*
X33359105Y31171850D01*
X33415710Y31383106D01*
X33415712Y31383116D01*
X33434775Y31601000D01*
X33434775Y31601001D01*
X33415712Y31818885D01*
X33415710Y31818895D01*
X33359105Y32030151D01*
X33359102Y32030160D01*
X33300505Y32155821D01*
X32745685Y31601000D01*
X32640000Y31601000D01*
X32640000Y31661560D01*
X32608651Y31778553D01*
X32548091Y31883446D01*
X32462446Y31969091D01*
X32357553Y32029651D01*
X32240560Y32061000D01*
X32119440Y32061000D01*
X32002447Y32029651D01*
X31897554Y31969091D01*
X31811909Y31883446D01*
X31751349Y31778553D01*
X31720000Y31661560D01*
X31553754Y31661560D01*
X31059494Y32155820D01*
X31000898Y32030160D01*
X31000894Y32030151D01*
X30989775Y31988651D01*
X30953410Y31928990D01*
X30890563Y31898461D01*
X30821188Y31906756D01*
X30767310Y31951241D01*
X30750225Y31988651D01*
X30739105Y32030151D01*
X30739102Y32030160D01*
X30680505Y32155821D01*
X30125685Y31601000D01*
X30020000Y31601000D01*
X30020000Y31661560D01*
X29988651Y31778553D01*
X29928091Y31883446D01*
X29842446Y31969091D01*
X29737553Y32029651D01*
X29620560Y32061000D01*
X29499440Y32061000D01*
X29437795Y32044483D01*
X29559999Y32166685D01*
X29912723Y32519412D01*
X29960541Y32549148D01*
X30073077Y32587348D01*
X30337665Y32717828D01*
X30343170Y32721506D01*
X31625180Y32721506D01*
X32180000Y32166686D01*
X32734819Y32721506D01*
X32609159Y32780102D01*
X32609150Y32780106D01*
X32397894Y32836711D01*
X32397884Y32836713D01*
X32180001Y32855775D01*
X32179999Y32855775D01*
X31962115Y32836713D01*
X31962105Y32836711D01*
X31750849Y32780106D01*
X31750840Y32780102D01*
X31625180Y32721506D01*
X30343170Y32721506D01*
X30582957Y32881727D01*
X30804758Y33076242D01*
X30999273Y33298043D01*
X31163172Y33543335D01*
X31293652Y33807923D01*
X31388481Y34087278D01*
X31446034Y34376620D01*
X31463034Y34635984D01*
X31465329Y34670993D01*
X31465329Y34671008D01*
X32634671Y34671008D01*
X32634671Y34670993D01*
X32653964Y34376637D01*
X32653965Y34376627D01*
X32653966Y34376620D01*
X32707953Y34105204D01*
X32711518Y34087284D01*
X32711521Y34087270D01*
X32806349Y33807920D01*
X32936825Y33543340D01*
X32936829Y33543333D01*
X33100725Y33298045D01*
X33295241Y33076242D01*
X33517044Y32881726D01*
X33721880Y32744859D01*
X33762335Y32717828D01*
X34026923Y32587348D01*
X34306278Y32492519D01*
X34595620Y32434966D01*
X34623888Y32433114D01*
X34889993Y32415671D01*
X34890000Y32415671D01*
X34890007Y32415671D01*
X35138808Y32431979D01*
X35184380Y32434966D01*
X35473722Y32492519D01*
X35753077Y32587348D01*
X36017665Y32717828D01*
X36262957Y32881727D01*
X36484758Y33076242D01*
X36679273Y33298043D01*
X36843172Y33543335D01*
X36973652Y33807923D01*
X37068481Y34087278D01*
X37126034Y34376620D01*
X37143034Y34635984D01*
X37145329Y34670993D01*
X37145329Y34671008D01*
X37126035Y34965364D01*
X37126034Y34965380D01*
X37068481Y35254722D01*
X36973652Y35534077D01*
X36843172Y35798664D01*
X36679273Y36043957D01*
X36636655Y36092553D01*
X36484758Y36265759D01*
X36262955Y36460275D01*
X36017667Y36624171D01*
X36017660Y36624175D01*
X35753080Y36754651D01*
X35473730Y36849479D01*
X35473724Y36849481D01*
X35473722Y36849481D01*
X35184380Y36907034D01*
X35184373Y36907035D01*
X35184363Y36907036D01*
X34890007Y36926329D01*
X34889993Y36926329D01*
X34595636Y36907036D01*
X34595624Y36907035D01*
X34595620Y36907034D01*
X34595612Y36907033D01*
X34595609Y36907032D01*
X34306283Y36849482D01*
X34306269Y36849479D01*
X34026919Y36754651D01*
X33762334Y36624172D01*
X33517041Y36460272D01*
X33295241Y36265759D01*
X33100728Y36043959D01*
X32936828Y35798666D01*
X32806349Y35534081D01*
X32711521Y35254731D01*
X32711518Y35254717D01*
X32653968Y34965391D01*
X32653964Y34965364D01*
X32634671Y34671008D01*
X31465329Y34671008D01*
X31446035Y34965364D01*
X31446034Y34965380D01*
X31388481Y35254722D01*
X31293652Y35534077D01*
X31163172Y35798664D01*
X30999273Y36043957D01*
X30956655Y36092553D01*
X30804758Y36265759D01*
X30582955Y36460275D01*
X30337667Y36624171D01*
X30337660Y36624175D01*
X30073080Y36754651D01*
X29793730Y36849479D01*
X29793724Y36849481D01*
X29793722Y36849481D01*
X29504380Y36907034D01*
X29504373Y36907035D01*
X29504363Y36907036D01*
X29210007Y36926329D01*
X29209993Y36926329D01*
X28915636Y36907036D01*
X28915624Y36907035D01*
X28915620Y36907034D01*
X28915612Y36907033D01*
X28915609Y36907032D01*
X28626283Y36849482D01*
X28626269Y36849479D01*
X28346919Y36754651D01*
X28082334Y36624172D01*
X27837041Y36460272D01*
X27615241Y36265759D01*
X27420728Y36043959D01*
X27256828Y35798666D01*
X27126349Y35534081D01*
X27031521Y35254731D01*
X27031518Y35254717D01*
X26973968Y34965391D01*
X26973964Y34965364D01*
X26954671Y34671008D01*
X26600500Y34671008D01*
X26600499Y35261008D01*
X26589999Y35363797D01*
X26534814Y35530334D01*
X26442712Y35679656D01*
X26318656Y35803712D01*
X26189060Y35883647D01*
X26169336Y35895813D01*
X26169331Y35895815D01*
X26113109Y35914445D01*
X26002797Y35950999D01*
X26002795Y35951000D01*
X25900010Y35961500D01*
X24899998Y35961500D01*
X24899980Y35961499D01*
X24797203Y35951000D01*
X24797200Y35950999D01*
X24686890Y35914445D01*
X24617062Y35912043D01*
X24560843Y35945500D01*
X22176942Y35945500D01*
X22178494Y35930303D01*
X22233641Y35763881D01*
X22233643Y35763876D01*
X22325684Y35614655D01*
X22419304Y35521035D01*
X22452789Y35459712D01*
X22447805Y35390020D01*
X22419305Y35345673D01*
X22325287Y35251655D01*
X22233187Y35102337D01*
X22233185Y35102332D01*
X22205349Y35018330D01*
X22178001Y34935797D01*
X22178001Y34935796D01*
X22178000Y34935796D01*
X22167500Y34833017D01*
X22167500Y34207999D01*
X22167501Y34207981D01*
X22178000Y34105204D01*
X22178001Y34105201D01*
X22209667Y34009642D01*
X22233186Y33938666D01*
X22325288Y33789344D01*
X22449344Y33665288D01*
X22598666Y33573186D01*
X22765203Y33518001D01*
X22867991Y33507500D01*
X23391811Y33507501D01*
X23458849Y33487817D01*
X23504604Y33435013D01*
X23514548Y33365854D01*
X23485523Y33302298D01*
X23479491Y33295820D01*
X23260490Y33076819D01*
X23199167Y33043334D01*
X23172809Y33040500D01*
X22867999Y33040500D01*
X22867980Y33040499D01*
X22765203Y33030000D01*
X22765200Y33029999D01*
X22598668Y32974815D01*
X22598663Y32974813D01*
X22449342Y32882711D01*
X22325289Y32758658D01*
X22233187Y32609337D01*
X22233185Y32609332D01*
X22213243Y32549151D01*
X22178001Y32442797D01*
X22178001Y32442796D01*
X22178000Y32442796D01*
X22167500Y32340017D01*
X22167500Y31714999D01*
X22167501Y31714981D01*
X22178000Y31612204D01*
X22178001Y31612201D01*
X22233185Y31445669D01*
X22233187Y31445664D01*
X22256392Y31408043D01*
X22320849Y31303540D01*
X22325289Y31296343D01*
X22389451Y31232181D01*
X22422936Y31170858D01*
X22417952Y31101166D01*
X22376080Y31045233D01*
X22310616Y31020816D01*
X22301770Y31020500D01*
X22130689Y31020500D01*
X22063650Y31040185D01*
X22043008Y31056819D01*
X20925836Y32173991D01*
X20892351Y32235314D01*
X20889517Y32261672D01*
X20889517Y32744853D01*
X20889516Y32744859D01*
X20885727Y32780106D01*
X20883109Y32804465D01*
X20871081Y32836713D01*
X20832815Y32939311D01*
X20832811Y32939318D01*
X20746565Y33054527D01*
X20746562Y33054530D01*
X20631353Y33140776D01*
X20631344Y33140781D01*
X20600458Y33152300D01*
X20544524Y33194170D01*
X20520106Y33259634D01*
X20534957Y33327907D01*
X20584362Y33377313D01*
X20600458Y33384664D01*
X20631344Y33396184D01*
X20631344Y33396185D01*
X20631349Y33396186D01*
X20746564Y33482436D01*
X20832814Y33597651D01*
X20883109Y33732499D01*
X20889518Y33792109D01*
X20889517Y35030854D01*
X20883109Y35090465D01*
X20878682Y35102334D01*
X20832815Y35225311D01*
X20832811Y35225318D01*
X20746565Y35340527D01*
X20746562Y35340530D01*
X20631353Y35426776D01*
X20631344Y35426781D01*
X20600458Y35438300D01*
X20544524Y35480170D01*
X20520106Y35545634D01*
X20534957Y35613907D01*
X20584362Y35663313D01*
X20600458Y35670664D01*
X20631344Y35682184D01*
X20631344Y35682185D01*
X20631349Y35682186D01*
X20746564Y35768436D01*
X20832814Y35883651D01*
X20883109Y36018499D01*
X20889518Y36078109D01*
X20889517Y36745501D01*
X22176941Y36745501D01*
X22176942Y36745500D01*
X22968000Y36745500D01*
X22968000Y37358000D01*
X23768000Y37358000D01*
X23768000Y36745500D01*
X24559058Y36745500D01*
X24559058Y36745501D01*
X24557505Y36760696D01*
X24531207Y36840059D01*
X24528805Y36909888D01*
X24564536Y36969930D01*
X24627057Y37001123D01*
X24696516Y36993563D01*
X24729476Y36971508D01*
X24729993Y36972161D01*
X24735653Y36967685D01*
X24884875Y36875644D01*
X24884880Y36875642D01*
X25051302Y36820495D01*
X25051309Y36820494D01*
X25154019Y36810001D01*
X26054000Y36810001D01*
X26153972Y36810001D01*
X26153986Y36810002D01*
X26256697Y36820495D01*
X26423119Y36875642D01*
X26423124Y36875644D01*
X26572345Y36967685D01*
X26696315Y37091655D01*
X26788356Y37240876D01*
X26788358Y37240881D01*
X26843505Y37407303D01*
X26845058Y37422500D01*
X26054000Y37422500D01*
X26054000Y36810001D01*
X25154019Y36810001D01*
X25254000Y36810002D01*
X25254000Y37422500D01*
X24462942Y37422500D01*
X24464494Y37407303D01*
X24490792Y37327941D01*
X24493194Y37258113D01*
X24457462Y37198071D01*
X24394942Y37166878D01*
X24325482Y37174439D01*
X24292523Y37196493D01*
X24292007Y37195839D01*
X24286346Y37200316D01*
X24137124Y37292357D01*
X24137119Y37292359D01*
X23970697Y37347506D01*
X23970690Y37347507D01*
X23867986Y37358000D01*
X23768000Y37358000D01*
X22968000Y37358000D01*
X22968000Y37358001D01*
X22868028Y37358000D01*
X22868012Y37357999D01*
X22765302Y37347506D01*
X22598880Y37292359D01*
X22598875Y37292357D01*
X22449654Y37200316D01*
X22325684Y37076346D01*
X22233643Y36927125D01*
X22233641Y36927120D01*
X22178494Y36760698D01*
X22176941Y36745501D01*
X20889517Y36745501D01*
X20889517Y37316854D01*
X20883109Y37376465D01*
X20873230Y37402953D01*
X20868245Y37472644D01*
X20901729Y37533968D01*
X20946079Y37562469D01*
X21012344Y37587184D01*
X21012344Y37587185D01*
X21012349Y37587186D01*
X21127564Y37673436D01*
X21213814Y37788651D01*
X21264109Y37923499D01*
X21270518Y37983109D01*
X21270517Y39878893D01*
X21290202Y39945931D01*
X21343005Y39991686D01*
X21394469Y40002892D01*
X21845772Y40003058D01*
X21912819Y39983398D01*
X21958593Y39930611D01*
X21969818Y39879058D01*
X21969818Y39287999D01*
X21969819Y39287981D01*
X21980318Y39185204D01*
X21980319Y39185201D01*
X21995375Y39139766D01*
X22035504Y39018666D01*
X22127606Y38869344D01*
X22251662Y38745288D01*
X22400984Y38653186D01*
X22567521Y38598001D01*
X22670309Y38587500D01*
X23670326Y38587501D01*
X23670334Y38587502D01*
X23670337Y38587502D01*
X23751715Y38595815D01*
X23773115Y38598001D01*
X23939652Y38653186D01*
X24088974Y38745288D01*
X24136867Y38793181D01*
X24198190Y38826666D01*
X24224548Y38829500D01*
X24588477Y38829500D01*
X24655516Y38809815D01*
X24701271Y38757011D01*
X24711215Y38687853D01*
X24682190Y38624297D01*
X24676158Y38617819D01*
X24611684Y38553346D01*
X24519643Y38404125D01*
X24519641Y38404120D01*
X24464494Y38237698D01*
X24462941Y38222501D01*
X24462942Y38222500D01*
X26845058Y38222500D01*
X26845058Y38222501D01*
X26843505Y38237698D01*
X26788358Y38404120D01*
X26788356Y38404125D01*
X26696315Y38553346D01*
X26602695Y38646966D01*
X26569210Y38708289D01*
X26574194Y38777981D01*
X26602691Y38822324D01*
X26696712Y38916344D01*
X26788814Y39065666D01*
X26843999Y39232203D01*
X26845821Y39250040D01*
X26872216Y39314731D01*
X26929396Y39354883D01*
X26999207Y39357747D01*
X27059484Y39322414D01*
X27090796Y39261629D01*
X27115036Y39139766D01*
X27115039Y39139752D01*
X27209867Y38860402D01*
X27340343Y38595822D01*
X27340347Y38595815D01*
X27504243Y38350527D01*
X27698759Y38128724D01*
X27920562Y37934208D01*
X28138399Y37788654D01*
X28165853Y37770310D01*
X28430441Y37639830D01*
X28709796Y37545001D01*
X28999138Y37487448D01*
X29027406Y37485596D01*
X29293511Y37468153D01*
X29293518Y37468153D01*
X29293525Y37468153D01*
X29529193Y37483601D01*
X29587898Y37487448D01*
X29877240Y37545001D01*
X30156595Y37639830D01*
X30421183Y37770310D01*
X30666475Y37934209D01*
X30888276Y38128724D01*
X31082791Y38350525D01*
X31246690Y38595817D01*
X31377170Y38860405D01*
X31471999Y39139760D01*
X31529552Y39429102D01*
X31546848Y39692982D01*
X31548847Y39723475D01*
X31548847Y39723489D01*
X31538944Y39874563D01*
X31554201Y39942747D01*
X31603899Y39991857D01*
X31662631Y40006674D01*
X32604335Y40007022D01*
X32671380Y39987362D01*
X32717154Y39934575D01*
X32728114Y39874913D01*
X32718190Y39723489D01*
X32718189Y39723476D01*
X32718189Y39723475D01*
X32737482Y39429119D01*
X32737483Y39429109D01*
X32737484Y39429102D01*
X32773101Y39250039D01*
X32795036Y39139766D01*
X32795039Y39139752D01*
X32889867Y38860402D01*
X33020343Y38595822D01*
X33020347Y38595815D01*
X33184243Y38350527D01*
X33378759Y38128724D01*
X33600562Y37934208D01*
X33818399Y37788654D01*
X33845853Y37770310D01*
X34110441Y37639830D01*
X34389796Y37545001D01*
X34679138Y37487448D01*
X34707406Y37485596D01*
X34973511Y37468153D01*
X34973518Y37468153D01*
X34973525Y37468153D01*
X35209193Y37483601D01*
X35267898Y37487448D01*
X35557240Y37545001D01*
X35836595Y37639830D01*
X36101183Y37770310D01*
X36346475Y37934209D01*
X36568276Y38128724D01*
X36762791Y38350525D01*
X36926690Y38595817D01*
X37057170Y38860405D01*
X37151999Y39139760D01*
X37209552Y39429102D01*
X37226848Y39692982D01*
X37228847Y39723475D01*
X37228847Y39723490D01*
X37210519Y40003107D01*
X37209552Y40017862D01*
X37151999Y40307204D01*
X37057170Y40586559D01*
X36926690Y40851146D01*
X36762791Y41096439D01*
X36720173Y41145035D01*
X36568276Y41318241D01*
X36346473Y41512757D01*
X36101185Y41676653D01*
X36101178Y41676657D01*
X35836598Y41807133D01*
X35557248Y41901961D01*
X35557242Y41901963D01*
X35557240Y41901963D01*
X35267898Y41959516D01*
X35267891Y41959517D01*
X35267881Y41959518D01*
X34973525Y41978811D01*
X34973511Y41978811D01*
X34679154Y41959518D01*
X34679138Y41959516D01*
X34564930Y41936799D01*
X34495339Y41943028D01*
X34440162Y41985891D01*
X34416918Y42051781D01*
X34416740Y42058597D01*
X34417047Y42269855D01*
X34419836Y44192615D01*
X34408381Y44300354D01*
X34397194Y44352004D01*
X34363048Y44454818D01*
X34285305Y44575887D01*
X34239570Y44628708D01*
X34239567Y44628711D01*
X34130864Y44722973D01*
X34130863Y44722974D01*
X34130860Y44722976D01*
X34000013Y44782790D01*
X34000010Y44782791D01*
X33932972Y44802502D01*
X33790573Y44823028D01*
X33593646Y44823101D01*
X33526614Y44842811D01*
X33480878Y44895632D01*
X33470961Y44964794D01*
X33473914Y44979180D01*
X33499725Y45075505D01*
X33518795Y45293482D01*
X33499725Y45511459D01*
X33443093Y45722812D01*
X33350620Y45921120D01*
X33350618Y45921123D01*
X33350617Y45921125D01*
X33225115Y46100361D01*
X33119674Y46205802D01*
X33086189Y46267125D01*
X33091173Y46336817D01*
X33119670Y46381160D01*
X33225116Y46486605D01*
X33350620Y46665843D01*
X33443093Y46864152D01*
X33499725Y47075505D01*
X33518795Y47293482D01*
X33499725Y47511459D01*
X33443093Y47722812D01*
X33350620Y47921120D01*
X33350618Y47921123D01*
X33350617Y47921125D01*
X33225117Y48100358D01*
X33225114Y48100361D01*
X33070395Y48255080D01*
X32891157Y48380584D01*
X32891158Y48380584D01*
X32891156Y48380585D01*
X32782232Y48431377D01*
X32729793Y48477550D01*
X32710641Y48544743D01*
X32730857Y48611624D01*
X32782233Y48656141D01*
X32818338Y48672977D01*
X32263519Y49227797D01*
X32263518Y49227797D01*
X31708696Y48672977D01*
X31744802Y48656141D01*
X31797242Y48609969D01*
X31816394Y48542776D01*
X31796179Y48475894D01*
X31744804Y48431377D01*
X31635876Y48380582D01*
X31635875Y48380582D01*
X31456639Y48255080D01*
X31301920Y48100361D01*
X31176418Y47921125D01*
X31176416Y47921121D01*
X31083944Y47722814D01*
X31083941Y47722808D01*
X31073293Y47683066D01*
X31036928Y47623406D01*
X30974081Y47592877D01*
X30904705Y47601172D01*
X30850828Y47645657D01*
X30833743Y47683066D01*
X30823094Y47722808D01*
X30823093Y47722812D01*
X30730620Y47921120D01*
X30730618Y47921123D01*
X30730617Y47921125D01*
X30605117Y48100358D01*
X30605114Y48100361D01*
X30450395Y48255080D01*
X30271157Y48380584D01*
X30271158Y48380584D01*
X30271156Y48380585D01*
X30162232Y48431377D01*
X30109793Y48477550D01*
X30090641Y48544743D01*
X30110857Y48611624D01*
X30162233Y48656141D01*
X30198338Y48672977D01*
X29643519Y49227797D01*
X29643518Y49227797D01*
X29088696Y48672977D01*
X29124802Y48656141D01*
X29177242Y48609969D01*
X29196394Y48542776D01*
X29176179Y48475894D01*
X29124804Y48431377D01*
X29015876Y48380582D01*
X29015875Y48380582D01*
X28836639Y48255080D01*
X28681920Y48100361D01*
X28556418Y47921125D01*
X28556416Y47921121D01*
X28463944Y47722814D01*
X28463940Y47722805D01*
X28407311Y47511462D01*
X28407311Y47511458D01*
X28388241Y47293485D01*
X28388241Y47293480D01*
X28407311Y47075507D01*
X28407311Y47075503D01*
X28463940Y46864160D01*
X28463942Y46864156D01*
X28463943Y46864152D01*
X28510179Y46764998D01*
X28556415Y46665844D01*
X28556416Y46665843D01*
X28681920Y46486605D01*
X28681924Y46486601D01*
X28787361Y46381164D01*
X28820846Y46319841D01*
X28815862Y46250149D01*
X28787362Y46205802D01*
X28681918Y46100358D01*
X28556418Y45921125D01*
X28556416Y45921121D01*
X28463944Y45722814D01*
X28463940Y45722805D01*
X28407311Y45511462D01*
X28407311Y45511458D01*
X28388241Y45293485D01*
X28388241Y45293480D01*
X28407311Y45075507D01*
X28407311Y45075503D01*
X28432596Y44981139D01*
X28430933Y44911289D01*
X28391770Y44853427D01*
X28327542Y44825923D01*
X28312775Y44825046D01*
X27994453Y44825164D01*
X27927421Y44844873D01*
X27881686Y44897694D01*
X27870499Y44949164D01*
X27870499Y45120002D01*
X27870498Y45120019D01*
X27859999Y45222797D01*
X27859998Y45222800D01*
X27836575Y45293485D01*
X27804814Y45389334D01*
X27712712Y45538656D01*
X27618695Y45632673D01*
X27585210Y45693996D01*
X27590194Y45763688D01*
X27618695Y45808036D01*
X27712317Y45901658D01*
X27804356Y46050876D01*
X27804358Y46050881D01*
X27859505Y46217303D01*
X27861058Y46232500D01*
X25478942Y46232500D01*
X25480494Y46217303D01*
X25535641Y46050881D01*
X25535643Y46050876D01*
X25627684Y45901655D01*
X25660658Y45868681D01*
X25694143Y45807358D01*
X25689159Y45737666D01*
X25647287Y45681733D01*
X25581823Y45657316D01*
X25572977Y45657000D01*
X25356315Y45657000D01*
X25291218Y45675462D01*
X25200289Y45731548D01*
X25200288Y45731549D01*
X25103953Y45763471D01*
X25040685Y45784436D01*
X25040683Y45784437D01*
X24942181Y45794500D01*
X24942174Y45794500D01*
X24333826Y45794500D01*
X24333818Y45794500D01*
X24235316Y45784437D01*
X24235315Y45784436D01*
X24172047Y45763471D01*
X24075715Y45731550D01*
X24075704Y45731545D01*
X23932612Y45643284D01*
X23932608Y45643281D01*
X23813719Y45524392D01*
X23813716Y45524388D01*
X23725455Y45381296D01*
X23725450Y45381285D01*
X23715246Y45350491D01*
X23672564Y45221685D01*
X23672564Y45221684D01*
X23672563Y45221684D01*
X23662500Y45123182D01*
X23662500Y44950804D01*
X23642815Y44883765D01*
X23590011Y44838010D01*
X23538454Y44826804D01*
X20941971Y44827760D01*
X20874939Y44847469D01*
X20829204Y44900290D01*
X20818017Y44951760D01*
X20818017Y45350484D01*
X20818016Y45350501D01*
X20807517Y45453279D01*
X20807516Y45453282D01*
X20788237Y45511462D01*
X20752332Y45619816D01*
X20660230Y45769138D01*
X20536174Y45893194D01*
X20386852Y45985296D01*
X20220315Y46040481D01*
X20220313Y46040482D01*
X20117528Y46050982D01*
X19517516Y46050982D01*
X19517498Y46050981D01*
X19414721Y46040482D01*
X19414718Y46040481D01*
X19248186Y45985297D01*
X19248181Y45985295D01*
X19098860Y45893193D01*
X18974806Y45769139D01*
X18974801Y45769133D01*
X18972759Y45765821D01*
X18970765Y45764029D01*
X18970325Y45763471D01*
X18970229Y45763547D01*
X18920809Y45719099D01*
X18851846Y45707880D01*
X18787765Y45735727D01*
X18761686Y45765826D01*
X18759837Y45768823D01*
X18759834Y45768827D01*
X18635863Y45892798D01*
X18486642Y45984839D01*
X18486637Y45984841D01*
X18320213Y46039988D01*
X18317518Y46040264D01*
X18317518Y43610701D01*
X18330001Y43599426D01*
X18355122Y43594753D01*
X18406001Y43546866D01*
X18423018Y43484171D01*
X18423018Y42845982D01*
X18403333Y42778943D01*
X18350529Y42733188D01*
X18299018Y42721982D01*
X16788518Y42721982D01*
X16788518Y39816982D01*
X18240519Y39816982D01*
X18307558Y39797297D01*
X18353313Y39744493D01*
X18364519Y39692982D01*
X18364519Y37983106D01*
X18370926Y37923499D01*
X18421220Y37788654D01*
X18421224Y37788647D01*
X18507470Y37673438D01*
X18507473Y37673435D01*
X18622682Y37587189D01*
X18622691Y37587184D01*
X18688956Y37562469D01*
X18744890Y37520598D01*
X18769308Y37455134D01*
X18761807Y37402956D01*
X18751926Y37376465D01*
X18748813Y37347506D01*
X18745519Y37316859D01*
X18745518Y37316847D01*
X18745518Y36078112D01*
X18745519Y36078106D01*
X18751926Y36018499D01*
X18802220Y35883654D01*
X18802224Y35883647D01*
X18888470Y35768438D01*
X18888473Y35768435D01*
X19003682Y35682189D01*
X19003689Y35682185D01*
X19034578Y35670664D01*
X19090512Y35628793D01*
X19114929Y35563329D01*
X19100077Y35495056D01*
X19050672Y35445650D01*
X19034578Y35438300D01*
X19003689Y35426780D01*
X19003682Y35426776D01*
X18888473Y35340530D01*
X18888470Y35340527D01*
X18802224Y35225318D01*
X18802220Y35225311D01*
X18751926Y35090465D01*
X18745519Y35030866D01*
X18745519Y35030859D01*
X18745518Y35030847D01*
X18745518Y33792112D01*
X18745519Y33792106D01*
X18751926Y33732499D01*
X18802220Y33597654D01*
X18802224Y33597647D01*
X18888470Y33482438D01*
X18888473Y33482435D01*
X19003682Y33396189D01*
X19003689Y33396185D01*
X19034578Y33384664D01*
X19090512Y33342793D01*
X19114929Y33277329D01*
X19100077Y33209056D01*
X19050672Y33159650D01*
X19034578Y33152300D01*
X19003689Y33140780D01*
X19003682Y33140776D01*
X18888473Y33054530D01*
X18888470Y33054527D01*
X18802224Y32939318D01*
X18802220Y32939311D01*
X18790700Y32908422D01*
X18748829Y32852488D01*
X18683365Y32828071D01*
X18615092Y32842923D01*
X18565686Y32892328D01*
X18558336Y32908422D01*
X18546815Y32939311D01*
X18546811Y32939318D01*
X18460565Y33054527D01*
X18460562Y33054530D01*
X18345353Y33140776D01*
X18345346Y33140780D01*
X18210500Y33191074D01*
X18210501Y33191074D01*
X18150901Y33197481D01*
X18150899Y33197482D01*
X18150891Y33197482D01*
X18150882Y33197482D01*
X16912147Y33197482D01*
X16912141Y33197481D01*
X16852534Y33191074D01*
X16717689Y33140780D01*
X16717682Y33140776D01*
X16602473Y33054530D01*
X16602470Y33054527D01*
X16516224Y32939318D01*
X16516219Y32939308D01*
X16504432Y32907706D01*
X16462560Y32851773D01*
X16397096Y32827357D01*
X16328823Y32842209D01*
X16279418Y32891615D01*
X16272069Y32907708D01*
X16260372Y32939069D01*
X16260368Y32939076D01*
X16174208Y33054170D01*
X16174205Y33054173D01*
X16059111Y33140333D01*
X16059104Y33140337D01*
X15924397Y33190579D01*
X15924390Y33190581D01*
X15864862Y33196982D01*
X15645518Y33196982D01*
X14845518Y33196982D01*
X14795986Y33196982D01*
X14728947Y33216667D01*
X14683192Y33269471D01*
X14671986Y33321278D01*
X14677470Y35614655D01*
X14687222Y39693279D01*
X14707067Y39760271D01*
X14759980Y39805899D01*
X14811222Y39816982D01*
X15988518Y39816982D01*
X15988518Y42721982D01*
X14818761Y42721982D01*
X14751722Y42741667D01*
X14705967Y42794471D01*
X14694761Y42846278D01*
X14696281Y43482200D01*
X14716126Y43549189D01*
X14741259Y43570862D01*
X14738631Y43573772D01*
X14779518Y43610701D01*
X14779518Y43610702D01*
X15579518Y43610702D01*
X15582212Y43610977D01*
X15582219Y43610978D01*
X15748637Y43666124D01*
X15748642Y43666126D01*
X15897863Y43758167D01*
X16021833Y43882137D01*
X16113874Y44031358D01*
X16113876Y44031363D01*
X16169023Y44197785D01*
X16169024Y44197792D01*
X16179517Y44300496D01*
X16917519Y44300496D01*
X16928012Y44197785D01*
X16983159Y44031363D01*
X16983161Y44031358D01*
X17075202Y43882137D01*
X17199172Y43758167D01*
X17348393Y43666126D01*
X17348398Y43666124D01*
X17514816Y43610978D01*
X17514823Y43610977D01*
X17517518Y43610702D01*
X17517518Y44425482D01*
X16917519Y44425482D01*
X16917519Y44300496D01*
X16179517Y44300496D01*
X16179518Y44300509D01*
X16179518Y44425482D01*
X15579518Y44425482D01*
X15579518Y43610702D01*
X14779518Y43610702D01*
X14779518Y45225482D01*
X15579518Y45225482D01*
X16179517Y45225482D01*
X16179517Y45350454D01*
X16179516Y45350469D01*
X16917518Y45350469D01*
X16917518Y45225482D01*
X17517518Y45225482D01*
X17517518Y46040264D01*
X17517517Y46040264D01*
X17514823Y46039988D01*
X17514821Y46039988D01*
X17348398Y45984841D01*
X17348393Y45984839D01*
X17199172Y45892798D01*
X17075202Y45768828D01*
X16983161Y45619607D01*
X16983159Y45619602D01*
X16928012Y45453180D01*
X16928011Y45453173D01*
X16917518Y45350469D01*
X16179516Y45350469D01*
X16169023Y45453180D01*
X16113876Y45619602D01*
X16113874Y45619607D01*
X16021833Y45768828D01*
X15897863Y45892798D01*
X15748642Y45984839D01*
X15748637Y45984841D01*
X15582213Y46039988D01*
X15579518Y46040264D01*
X15579518Y45225482D01*
X14779518Y45225482D01*
X14779518Y46040264D01*
X14743598Y46072694D01*
X14707030Y46132230D01*
X14702696Y46165015D01*
X14704770Y47032501D01*
X25478941Y47032501D01*
X25478942Y47032500D01*
X26270000Y47032500D01*
X27070000Y47032500D01*
X27861058Y47032500D01*
X27861058Y47032501D01*
X27859505Y47047698D01*
X27804358Y47214120D01*
X27804356Y47214125D01*
X27712315Y47363346D01*
X27588345Y47487316D01*
X27439124Y47579357D01*
X27439119Y47579359D01*
X27272697Y47634506D01*
X27272690Y47634507D01*
X27169986Y47645000D01*
X27070000Y47645000D01*
X27070000Y47032500D01*
X26270000Y47032500D01*
X26270000Y47645001D01*
X26170028Y47645000D01*
X26170012Y47644999D01*
X26067302Y47634506D01*
X25900880Y47579359D01*
X25900875Y47579357D01*
X25751654Y47487316D01*
X25627684Y47363346D01*
X25535643Y47214125D01*
X25535641Y47214120D01*
X25480494Y47047698D01*
X25478941Y47032501D01*
X14704770Y47032501D01*
X14715158Y51376718D01*
X14735002Y51443704D01*
X14771617Y51480406D01*
X15019884Y51641631D01*
X15305024Y51872533D01*
X15564467Y52131976D01*
X15795369Y52417116D01*
X15995200Y52724830D01*
X16161773Y53051746D01*
X16293260Y53394283D01*
X16388223Y53748688D01*
X16413045Y53905409D01*
X16442974Y53968543D01*
X16502286Y54005474D01*
X16572148Y54004476D01*
X16630381Y53965866D01*
X16658495Y53901903D01*
X16659518Y53886010D01*
X16659518Y52906046D01*
X16674818Y52692120D01*
X16735627Y52412587D01*
X16835609Y52144524D01*
X16972709Y51893444D01*
X16972710Y51893443D01*
X17144157Y51664417D01*
X17144167Y51664405D01*
X17346440Y51462132D01*
X17346452Y51462122D01*
X17575478Y51290675D01*
X17575479Y51290674D01*
X17826560Y51153574D01*
X17826559Y51153574D01*
X18094622Y51053592D01*
X18374155Y50992783D01*
X18588081Y50977483D01*
X18588084Y50977482D01*
X19759518Y50977482D01*
X19759518Y52260728D01*
X20012045Y52227482D01*
X20306991Y52227482D01*
X20559518Y52260728D01*
X20559518Y50977482D01*
X21730952Y50977482D01*
X21730954Y50977483D01*
X21944880Y50992783D01*
X22224413Y51053592D01*
X22492476Y51153574D01*
X22743556Y51290674D01*
X22743557Y51290675D01*
X22972583Y51462122D01*
X22972595Y51462132D01*
X23174868Y51664405D01*
X23174878Y51664417D01*
X23346325Y51893443D01*
X23346326Y51893444D01*
X23483426Y52144524D01*
X23583408Y52412587D01*
X23644217Y52692120D01*
X23656473Y52863490D01*
X27038189Y52863490D01*
X27038189Y52863475D01*
X27057482Y52569119D01*
X27057483Y52569109D01*
X27057484Y52569102D01*
X27057486Y52569092D01*
X27115036Y52279766D01*
X27115039Y52279752D01*
X27209867Y52000402D01*
X27340343Y51735822D01*
X27340347Y51735815D01*
X27504243Y51490527D01*
X27698759Y51268724D01*
X27920562Y51074208D01*
X28065323Y50977482D01*
X28165853Y50910310D01*
X28430441Y50779830D01*
X28542965Y50741633D01*
X28579122Y50729359D01*
X28636276Y50689170D01*
X28662629Y50624461D01*
X28649814Y50555776D01*
X28640838Y50540817D01*
X28556854Y50420874D01*
X28556851Y50420870D01*
X28464416Y50222642D01*
X28464412Y50222633D01*
X28407807Y50011377D01*
X28407805Y50011367D01*
X28388743Y49793483D01*
X28388743Y49793482D01*
X28407805Y49575598D01*
X28407807Y49575588D01*
X28464412Y49364332D01*
X28464416Y49364323D01*
X28523012Y49238663D01*
X29200035Y49915687D01*
X29183518Y49854042D01*
X29183518Y49732922D01*
X29214867Y49615929D01*
X29275427Y49511036D01*
X29361072Y49425391D01*
X29465965Y49364831D01*
X29582958Y49333482D01*
X29704078Y49333482D01*
X29821071Y49364831D01*
X29925964Y49425391D01*
X30011609Y49511036D01*
X30072169Y49615929D01*
X30103518Y49732922D01*
X30103518Y49793482D01*
X30209203Y49793482D01*
X30764023Y49238662D01*
X30822620Y49364323D01*
X30822623Y49364332D01*
X30833743Y49405832D01*
X30870107Y49465492D01*
X30932954Y49496022D01*
X31002330Y49487728D01*
X31056208Y49443243D01*
X31073293Y49405832D01*
X31084412Y49364332D01*
X31084416Y49364323D01*
X31143012Y49238663D01*
X31697832Y49793482D01*
X31637272Y49854042D01*
X31803518Y49854042D01*
X31803518Y49732922D01*
X31834867Y49615929D01*
X31895427Y49511036D01*
X31981072Y49425391D01*
X32085965Y49364831D01*
X32202958Y49333482D01*
X32324078Y49333482D01*
X32441071Y49364831D01*
X32545964Y49425391D01*
X32631609Y49511036D01*
X32692169Y49615929D01*
X32723518Y49732922D01*
X32723518Y49793482D01*
X32829203Y49793482D01*
X33384023Y49238662D01*
X33442620Y49364323D01*
X33442623Y49364332D01*
X33499228Y49575588D01*
X33499230Y49575598D01*
X33518293Y49793482D01*
X33518293Y49793483D01*
X33499230Y50011367D01*
X33499228Y50011377D01*
X33442623Y50222633D01*
X33442620Y50222642D01*
X33384023Y50348303D01*
X32829203Y49793482D01*
X32723518Y49793482D01*
X32723518Y49854042D01*
X32692169Y49971035D01*
X32631609Y50075928D01*
X32545964Y50161573D01*
X32441071Y50222133D01*
X32324078Y50253482D01*
X32202958Y50253482D01*
X32085965Y50222133D01*
X31981072Y50161573D01*
X31895427Y50075928D01*
X31834867Y49971035D01*
X31803518Y49854042D01*
X31637272Y49854042D01*
X31143012Y50348302D01*
X31084416Y50222642D01*
X31084412Y50222633D01*
X31073293Y50181133D01*
X31036928Y50121472D01*
X30974081Y50090943D01*
X30904706Y50099238D01*
X30850828Y50143723D01*
X30833743Y50181133D01*
X30822623Y50222633D01*
X30822620Y50222642D01*
X30764023Y50348303D01*
X30209203Y49793482D01*
X30103518Y49793482D01*
X30103518Y49854042D01*
X30072169Y49971035D01*
X30011609Y50075928D01*
X29925964Y50161573D01*
X29821071Y50222133D01*
X29704078Y50253482D01*
X29582958Y50253482D01*
X29521313Y50236965D01*
X29643517Y50359167D01*
X29996241Y50711894D01*
X30044059Y50741630D01*
X30156595Y50779830D01*
X30421183Y50910310D01*
X30426688Y50913988D01*
X31708698Y50913988D01*
X32263518Y50359168D01*
X32818337Y50913988D01*
X32692677Y50972584D01*
X32692668Y50972588D01*
X32481412Y51029193D01*
X32481402Y51029195D01*
X32263519Y51048257D01*
X32263517Y51048257D01*
X32045633Y51029195D01*
X32045623Y51029193D01*
X31834367Y50972588D01*
X31834358Y50972584D01*
X31708698Y50913988D01*
X30426688Y50913988D01*
X30666475Y51074209D01*
X30888276Y51268724D01*
X31082791Y51490525D01*
X31246690Y51735817D01*
X31377170Y52000405D01*
X31471999Y52279760D01*
X31529552Y52569102D01*
X31539759Y52724830D01*
X31548847Y52863475D01*
X31548847Y52863490D01*
X32718189Y52863490D01*
X32718189Y52863475D01*
X32737482Y52569119D01*
X32737483Y52569109D01*
X32737484Y52569102D01*
X32737486Y52569092D01*
X32795036Y52279766D01*
X32795039Y52279752D01*
X32889867Y52000402D01*
X33020343Y51735822D01*
X33020347Y51735815D01*
X33184243Y51490527D01*
X33378759Y51268724D01*
X33600562Y51074208D01*
X33745323Y50977482D01*
X33845853Y50910310D01*
X34110441Y50779830D01*
X34389796Y50685001D01*
X34679138Y50627448D01*
X34707406Y50625596D01*
X34973511Y50608153D01*
X34973518Y50608153D01*
X34973525Y50608153D01*
X35222326Y50624461D01*
X35267898Y50627448D01*
X35557240Y50685001D01*
X35836595Y50779830D01*
X36101183Y50910310D01*
X36346475Y51074209D01*
X36568276Y51268724D01*
X36762791Y51490525D01*
X36926690Y51735817D01*
X37057170Y52000405D01*
X37151999Y52279760D01*
X37209552Y52569102D01*
X37219759Y52724830D01*
X37228847Y52863475D01*
X37228847Y52863490D01*
X37209553Y53157846D01*
X37209552Y53157862D01*
X37151999Y53447204D01*
X37057170Y53726559D01*
X36926690Y53991146D01*
X36917116Y54005474D01*
X36846554Y54111078D01*
X36762791Y54236439D01*
X36680732Y54330009D01*
X36568276Y54458241D01*
X36346473Y54652757D01*
X36101185Y54816653D01*
X36101178Y54816657D01*
X35836598Y54947133D01*
X35557248Y55041961D01*
X35557242Y55041963D01*
X35557240Y55041963D01*
X35267898Y55099516D01*
X35267891Y55099517D01*
X35267881Y55099518D01*
X34973525Y55118811D01*
X34973511Y55118811D01*
X34679154Y55099518D01*
X34679142Y55099517D01*
X34679138Y55099516D01*
X34679130Y55099515D01*
X34679127Y55099514D01*
X34389801Y55041964D01*
X34389787Y55041961D01*
X34110437Y54947133D01*
X33845852Y54816654D01*
X33600559Y54652754D01*
X33378759Y54458241D01*
X33184246Y54236441D01*
X33020346Y53991148D01*
X32889867Y53726563D01*
X32795039Y53447213D01*
X32795036Y53447199D01*
X32737486Y53157873D01*
X32737482Y53157846D01*
X32718189Y52863490D01*
X31548847Y52863490D01*
X31529553Y53157846D01*
X31529552Y53157862D01*
X31471999Y53447204D01*
X31377170Y53726559D01*
X31246690Y53991146D01*
X31237116Y54005474D01*
X31166554Y54111078D01*
X31082791Y54236439D01*
X31000732Y54330009D01*
X30888276Y54458241D01*
X30666473Y54652757D01*
X30421185Y54816653D01*
X30421178Y54816657D01*
X30156598Y54947133D01*
X29877248Y55041961D01*
X29877242Y55041963D01*
X29877240Y55041963D01*
X29587898Y55099516D01*
X29587891Y55099517D01*
X29587881Y55099518D01*
X29293525Y55118811D01*
X29293511Y55118811D01*
X28999154Y55099518D01*
X28999142Y55099517D01*
X28999138Y55099516D01*
X28999130Y55099515D01*
X28999127Y55099514D01*
X28709801Y55041964D01*
X28709787Y55041961D01*
X28430437Y54947133D01*
X28165852Y54816654D01*
X27920559Y54652754D01*
X27698759Y54458241D01*
X27504246Y54236441D01*
X27340346Y53991148D01*
X27209867Y53726563D01*
X27115039Y53447213D01*
X27115036Y53447199D01*
X27057486Y53157873D01*
X27057482Y53157846D01*
X27038189Y52863490D01*
X23656473Y52863490D01*
X23659517Y52906046D01*
X23659518Y52906048D01*
X23659518Y54077482D01*
X22376272Y54077482D01*
X22409518Y54330009D01*
X22409518Y54624955D01*
X22376272Y54877482D01*
X23659518Y54877482D01*
X23659518Y56048916D01*
X23659517Y56048919D01*
X23644217Y56262845D01*
X23583408Y56542378D01*
X23483426Y56810441D01*
X23346326Y57061521D01*
X23346325Y57061522D01*
X23174878Y57290548D01*
X23174868Y57290560D01*
X22972595Y57492833D01*
X22972583Y57492843D01*
X22743557Y57664290D01*
X22743556Y57664291D01*
X22492475Y57801391D01*
X22492476Y57801391D01*
X22224413Y57901373D01*
X21944880Y57962182D01*
X21730954Y57977482D01*
X20559518Y57977482D01*
X20559518Y56694237D01*
X20306991Y56727482D01*
X20012045Y56727482D01*
X19759518Y56694237D01*
X19759518Y57977482D01*
X19242683Y57977482D01*
X19175644Y57997167D01*
X19129889Y58049971D01*
X19119945Y58119129D01*
X19148970Y58182685D01*
X19155002Y58189163D01*
X19349520Y58383681D01*
X19410843Y58417166D01*
X19437201Y58420000D01*
X44331505Y58420000D01*
X44398544Y58400315D01*
G37*
%TD.AperFunction*%
%TD*%
%TA.AperFunction,Conductor*%
%TO.N,+5V*%
G36*
X22868539Y27539315D02*
G01*
X22914294Y27486511D01*
X22925500Y27435000D01*
X22925500Y26891130D01*
X22925501Y26891124D01*
X22931908Y26831517D01*
X22982202Y26696672D01*
X22982206Y26696665D01*
X23068452Y26581456D01*
X23068455Y26581453D01*
X23183664Y26495207D01*
X23183671Y26495203D01*
X23318517Y26444909D01*
X23318516Y26444909D01*
X23325444Y26444165D01*
X23378127Y26438500D01*
X24373872Y26438501D01*
X24433483Y26444909D01*
X24514649Y26475182D01*
X24557982Y26483000D01*
X24999423Y26483000D01*
X25066462Y26463315D01*
X25098692Y26433308D01*
X25100452Y26430956D01*
X25100453Y26430955D01*
X25100454Y26430954D01*
X25100457Y26430952D01*
X25215664Y26344707D01*
X25215671Y26344703D01*
X25350517Y26294409D01*
X25350516Y26294409D01*
X25357444Y26293665D01*
X25410127Y26288000D01*
X26405872Y26288001D01*
X26465483Y26294409D01*
X26600331Y26344704D01*
X26715546Y26430954D01*
X26801796Y26546169D01*
X26852091Y26681017D01*
X26858500Y26740627D01*
X26858499Y27361372D01*
X26852091Y27420983D01*
X26852009Y27421747D01*
X26864416Y27490506D01*
X26912027Y27541643D01*
X26975299Y27559000D01*
X28486218Y27559000D01*
X28553257Y27539315D01*
X28599012Y27486511D01*
X28608956Y27417353D01*
X28604879Y27399005D01*
X28573975Y27297131D01*
X28554659Y27101000D01*
X28573975Y26904871D01*
X28631188Y26716267D01*
X28724086Y26542468D01*
X28724090Y26542461D01*
X28849116Y26390117D01*
X29001460Y26265091D01*
X29001467Y26265087D01*
X29175266Y26172189D01*
X29175269Y26172189D01*
X29175273Y26172186D01*
X29363868Y26114976D01*
X29560000Y26095659D01*
X29756132Y26114976D01*
X29944727Y26172186D01*
X30118538Y26265090D01*
X30270883Y26390117D01*
X30395910Y26542462D01*
X30478333Y26696665D01*
X30488811Y26716267D01*
X30488811Y26716268D01*
X30488814Y26716273D01*
X30546024Y26904868D01*
X30565341Y27101000D01*
X30546024Y27297132D01*
X30515121Y27399005D01*
X30514498Y27468872D01*
X30551746Y27527985D01*
X30615040Y27557575D01*
X30633782Y27559000D01*
X31106218Y27559000D01*
X31173257Y27539315D01*
X31219012Y27486511D01*
X31228956Y27417353D01*
X31224879Y27399005D01*
X31193975Y27297131D01*
X31174659Y27101000D01*
X31193975Y26904871D01*
X31251188Y26716267D01*
X31344086Y26542468D01*
X31344090Y26542461D01*
X31469116Y26390117D01*
X31621460Y26265091D01*
X31621467Y26265087D01*
X31795266Y26172189D01*
X31795269Y26172189D01*
X31795273Y26172186D01*
X31983868Y26114976D01*
X32180000Y26095659D01*
X32375846Y26114948D01*
X32444492Y26101929D01*
X32495202Y26053864D01*
X32512000Y25991545D01*
X32512000Y22735466D01*
X32492315Y22668427D01*
X32439511Y22622672D01*
X32388053Y22611466D01*
X30962684Y22610859D01*
X30895636Y22630515D01*
X30863364Y22660549D01*
X30725745Y22844388D01*
X30725729Y22844406D01*
X30523405Y23046730D01*
X30523387Y23046746D01*
X30294317Y23218225D01*
X30294309Y23218230D01*
X30043166Y23355365D01*
X30043167Y23355365D01*
X29935915Y23395368D01*
X29775046Y23455369D01*
X29775043Y23455370D01*
X29775037Y23455372D01*
X29495433Y23516196D01*
X29210001Y23536610D01*
X29209999Y23536610D01*
X28924566Y23516196D01*
X28644962Y23455372D01*
X28376833Y23355365D01*
X28125690Y23218230D01*
X28125682Y23218225D01*
X27896612Y23046746D01*
X27896594Y23046730D01*
X27694270Y22844406D01*
X27694254Y22844388D01*
X27522775Y22615318D01*
X27522770Y22615310D01*
X27519537Y22609391D01*
X19563518Y22606000D01*
X19563518Y27435000D01*
X19583203Y27502039D01*
X19636007Y27547794D01*
X19687518Y27559000D01*
X22801500Y27559000D01*
X22868539Y27539315D01*
G37*
%TD.AperFunction*%
%TD*%
%TA.AperFunction,Conductor*%
%TO.N,+5VP*%
G36*
X23662743Y44321257D02*
G01*
X23729771Y44301549D01*
X23768231Y44262355D01*
X23813716Y44188613D01*
X23813719Y44188609D01*
X23932608Y44069720D01*
X23932612Y44069717D01*
X24075704Y43981456D01*
X24075707Y43981455D01*
X24075713Y43981451D01*
X24235315Y43928564D01*
X24333826Y43918500D01*
X24333831Y43918500D01*
X24942169Y43918500D01*
X24942174Y43918500D01*
X25040685Y43928564D01*
X25200287Y43981451D01*
X25291218Y44037538D01*
X25356315Y44056000D01*
X25596270Y44056000D01*
X25663309Y44036315D01*
X25683951Y44019681D01*
X25751344Y43952288D01*
X25900666Y43860186D01*
X26067203Y43805001D01*
X26169991Y43794500D01*
X27170008Y43794501D01*
X27170016Y43794502D01*
X27170019Y43794502D01*
X27226302Y43800252D01*
X27272797Y43805001D01*
X27439334Y43860186D01*
X27588656Y43952288D01*
X27712712Y44076344D01*
X27804814Y44225666D01*
X27807804Y44234690D01*
X27847573Y44292134D01*
X27912088Y44318960D01*
X27925523Y44319688D01*
X28815480Y44319360D01*
X28882507Y44299652D01*
X28886524Y44296955D01*
X29015879Y44206380D01*
X29214188Y44113907D01*
X29425541Y44057275D01*
X29608444Y44041274D01*
X29643516Y44038205D01*
X29643518Y44038205D01*
X29643520Y44038205D01*
X29671772Y44040677D01*
X29861495Y44057275D01*
X30072848Y44113907D01*
X30271157Y44206380D01*
X30399612Y44296326D01*
X30465817Y44318653D01*
X30470732Y44318751D01*
X31436856Y44318395D01*
X31503886Y44298686D01*
X31507918Y44295980D01*
X31635879Y44206380D01*
X31834188Y44113907D01*
X32045541Y44057275D01*
X32228444Y44041274D01*
X32263516Y44038205D01*
X32263518Y44038205D01*
X32263520Y44038205D01*
X32291772Y44040677D01*
X32481495Y44057275D01*
X32692848Y44113907D01*
X32891157Y44206380D01*
X33018235Y44295362D01*
X33084440Y44317689D01*
X33089345Y44317786D01*
X33790383Y44317528D01*
X33857415Y44297819D01*
X33903150Y44244998D01*
X33914337Y44193348D01*
X33910845Y41785588D01*
X33891063Y41718577D01*
X33848847Y41678382D01*
X33845846Y41676650D01*
X33600562Y41512757D01*
X33378759Y41318241D01*
X33184246Y41096441D01*
X33020346Y40851148D01*
X32935109Y40678305D01*
X32889866Y40586559D01*
X32889864Y40586556D01*
X32888071Y40582918D01*
X32886554Y40583666D01*
X32847012Y40534674D01*
X32780701Y40512660D01*
X32776416Y40512584D01*
X31490908Y40512110D01*
X31423861Y40531770D01*
X31379345Y40583106D01*
X31378966Y40582918D01*
X31378250Y40584368D01*
X31378087Y40584557D01*
X31377552Y40585785D01*
X31246689Y40851148D01*
X31191560Y40933653D01*
X31082791Y41096439D01*
X31040173Y41145035D01*
X30888276Y41318241D01*
X30666473Y41512757D01*
X30421185Y41676653D01*
X30421178Y41676657D01*
X30156598Y41807133D01*
X29877248Y41901961D01*
X29877242Y41901963D01*
X29877240Y41901963D01*
X29587898Y41959516D01*
X29587891Y41959517D01*
X29587881Y41959518D01*
X29293525Y41978811D01*
X29293511Y41978811D01*
X28999154Y41959518D01*
X28999142Y41959517D01*
X28999138Y41959516D01*
X28999130Y41959515D01*
X28999127Y41959514D01*
X28709801Y41901964D01*
X28709787Y41901961D01*
X28430437Y41807133D01*
X28165852Y41676654D01*
X27920559Y41512754D01*
X27698759Y41318241D01*
X27504246Y41096441D01*
X27340346Y40851148D01*
X27208070Y40582918D01*
X27207121Y40583386D01*
X27166220Y40532633D01*
X27099925Y40510570D01*
X27095549Y40510491D01*
X26595554Y40510307D01*
X26530413Y40528768D01*
X26439963Y40584557D01*
X26423336Y40594813D01*
X26423331Y40594815D01*
X26398630Y40603000D01*
X26256797Y40649999D01*
X26256795Y40650000D01*
X26154010Y40660500D01*
X25153998Y40660500D01*
X25153980Y40660499D01*
X25051203Y40650000D01*
X25051200Y40649999D01*
X24884666Y40594814D01*
X24884663Y40594813D01*
X24776458Y40528074D01*
X24711410Y40509614D01*
X24037201Y40509364D01*
X23972058Y40527826D01*
X23939660Y40547810D01*
X23939654Y40547813D01*
X23939652Y40547814D01*
X23773115Y40602999D01*
X23773113Y40603000D01*
X23670328Y40613500D01*
X22670316Y40613500D01*
X22670298Y40613499D01*
X22567521Y40603000D01*
X22567518Y40602999D01*
X22400981Y40547813D01*
X22367539Y40527186D01*
X22302490Y40508726D01*
X19108563Y40507549D01*
X19041516Y40527209D01*
X18995742Y40579996D01*
X18984517Y40631546D01*
X18984517Y42269854D01*
X18978109Y42329465D01*
X18936336Y42441465D01*
X18928518Y42484798D01*
X18928518Y44198955D01*
X18948203Y44265994D01*
X19001007Y44311749D01*
X19052560Y44322955D01*
X23662743Y44321257D01*
G37*
%TD.AperFunction*%
%TD*%
%TA.AperFunction,Conductor*%
%TO.N,Battery*%
G36*
X12222557Y45440797D02*
G01*
X12268312Y45387993D01*
X12279518Y45336482D01*
X12279518Y45225482D01*
X13555518Y45225482D01*
X13622557Y45205797D01*
X13668312Y45152993D01*
X13679518Y45101482D01*
X13679518Y43610702D01*
X13682212Y43610977D01*
X13682219Y43610978D01*
X13806996Y43652325D01*
X13876824Y43654727D01*
X13936866Y43618995D01*
X13968059Y43556475D01*
X13970000Y43534619D01*
X13970000Y42845982D01*
X13950315Y42778943D01*
X13897511Y42733188D01*
X13846000Y42721982D01*
X12216518Y42721982D01*
X12216518Y39816982D01*
X13846000Y39816982D01*
X13913039Y39797297D01*
X13958794Y39744493D01*
X13970000Y39692982D01*
X13970000Y34857189D01*
X13950315Y34790150D01*
X13897511Y34744395D01*
X13828353Y34734451D01*
X13764797Y34763476D01*
X13758319Y34769508D01*
X11781836Y36745991D01*
X11748351Y36807314D01*
X11745517Y36833672D01*
X11745517Y37316853D01*
X11745516Y37316859D01*
X11745515Y37316866D01*
X11739109Y37376465D01*
X11688814Y37511313D01*
X11688813Y37511314D01*
X11688811Y37511318D01*
X11602565Y37626527D01*
X11602562Y37626530D01*
X11487353Y37712776D01*
X11487346Y37712780D01*
X11352500Y37763074D01*
X11352501Y37763074D01*
X11292901Y37769481D01*
X11292899Y37769482D01*
X11292891Y37769482D01*
X11292882Y37769482D01*
X10054147Y37769482D01*
X10054141Y37769481D01*
X9994534Y37763074D01*
X9859689Y37712780D01*
X9859682Y37712776D01*
X9744473Y37626530D01*
X9744470Y37626527D01*
X9658224Y37511318D01*
X9658220Y37511311D01*
X9607926Y37376465D01*
X9601519Y37316866D01*
X9601519Y37316859D01*
X9601518Y37316847D01*
X9601518Y36078112D01*
X9601519Y36078106D01*
X9607926Y36018499D01*
X9658220Y35883654D01*
X9658224Y35883647D01*
X9744470Y35768438D01*
X9744473Y35768435D01*
X9859682Y35682189D01*
X9859689Y35682185D01*
X9890578Y35670664D01*
X9946512Y35628793D01*
X9970929Y35563329D01*
X9956077Y35495056D01*
X9906672Y35445650D01*
X9890578Y35438300D01*
X9859689Y35426780D01*
X9859682Y35426776D01*
X9744473Y35340530D01*
X9744470Y35340527D01*
X9658224Y35225318D01*
X9658220Y35225311D01*
X9607926Y35090465D01*
X9601519Y35030866D01*
X9601518Y35030847D01*
X9601518Y33792112D01*
X9601519Y33792106D01*
X9607926Y33732499D01*
X9658220Y33597654D01*
X9658224Y33597647D01*
X9744470Y33482438D01*
X9744473Y33482435D01*
X9859682Y33396189D01*
X9859689Y33396185D01*
X9890578Y33384664D01*
X9946512Y33342793D01*
X9970929Y33277329D01*
X9956077Y33209056D01*
X9906672Y33159650D01*
X9890578Y33152300D01*
X9859689Y33140780D01*
X9859682Y33140776D01*
X9744473Y33054530D01*
X9744470Y33054527D01*
X9658224Y32939318D01*
X9658220Y32939311D01*
X9607926Y32804465D01*
X9601519Y32744866D01*
X9601518Y32744847D01*
X9601518Y31506112D01*
X9601519Y31506106D01*
X9607926Y31446499D01*
X9658220Y31311654D01*
X9658224Y31311647D01*
X9744470Y31196438D01*
X9744473Y31196435D01*
X9859682Y31110189D01*
X9859689Y31110185D01*
X9994535Y31059891D01*
X9994534Y31059891D01*
X10001462Y31059147D01*
X10054145Y31053482D01*
X11292890Y31053483D01*
X11352501Y31059891D01*
X11487349Y31110186D01*
X11602564Y31196436D01*
X11688814Y31311651D01*
X11700336Y31342542D01*
X11742206Y31398476D01*
X11807670Y31422894D01*
X11875943Y31408043D01*
X11925349Y31358638D01*
X11932700Y31342542D01*
X11944219Y31311656D01*
X11944224Y31311647D01*
X12030470Y31196438D01*
X12030473Y31196435D01*
X12145682Y31110189D01*
X12145689Y31110185D01*
X12280535Y31059891D01*
X12280534Y31059891D01*
X12287462Y31059147D01*
X12340145Y31053482D01*
X13578890Y31053483D01*
X13638501Y31059891D01*
X13773349Y31110186D01*
X13773352Y31110189D01*
X13781132Y31114436D01*
X13782026Y31112798D01*
X13837144Y31133360D01*
X13905418Y31118514D01*
X13954828Y31069112D01*
X13970000Y31009677D01*
X13970000Y28440023D01*
X13950315Y28372984D01*
X13897511Y28327229D01*
X13828353Y28317285D01*
X13764797Y28346310D01*
X13758319Y28352342D01*
X13738345Y28372316D01*
X13589124Y28464357D01*
X13589119Y28464359D01*
X13422695Y28519506D01*
X13420000Y28519782D01*
X13420000Y26090220D01*
X13422694Y26090495D01*
X13422701Y26090496D01*
X13589119Y26145642D01*
X13589124Y26145644D01*
X13738345Y26237685D01*
X13758319Y26257658D01*
X13819642Y26291143D01*
X13889334Y26286159D01*
X13945267Y26244287D01*
X13969684Y26178823D01*
X13970000Y26169977D01*
X13970000Y25325500D01*
X13950315Y25258461D01*
X13897511Y25212706D01*
X13846000Y25201500D01*
X12211000Y25201500D01*
X12211000Y22296500D01*
X13846000Y22296500D01*
X13913039Y22276815D01*
X13958794Y22224011D01*
X13970000Y22172500D01*
X13970000Y20443893D01*
X13950315Y20376854D01*
X13897511Y20331099D01*
X13846108Y20319893D01*
X7749626Y20314590D01*
X7682569Y20334216D01*
X7636768Y20386980D01*
X7625518Y20438590D01*
X7625518Y22748656D01*
X9215500Y22748656D01*
X9221901Y22689128D01*
X9221903Y22689121D01*
X9272145Y22554414D01*
X9272149Y22554407D01*
X9358309Y22439313D01*
X9358312Y22439310D01*
X9473406Y22353150D01*
X9473413Y22353146D01*
X9608120Y22302904D01*
X9608127Y22302902D01*
X9667655Y22296501D01*
X9667672Y22296500D01*
X11411000Y22296500D01*
X11411000Y23349000D01*
X9215500Y23349000D01*
X9215500Y22748656D01*
X7625518Y22748656D01*
X7625518Y24749345D01*
X9215500Y24749345D01*
X9215500Y24149000D01*
X11411000Y24149000D01*
X11411000Y25201500D01*
X9667655Y25201500D01*
X9608127Y25195099D01*
X9608120Y25195097D01*
X9473413Y25144855D01*
X9473406Y25144851D01*
X9358312Y25058691D01*
X9358309Y25058688D01*
X9272149Y24943594D01*
X9272145Y24943587D01*
X9221903Y24808880D01*
X9221901Y24808873D01*
X9215500Y24749345D01*
X7625518Y24749345D01*
X7625518Y26780014D01*
X12020001Y26780014D01*
X12030494Y26677303D01*
X12085641Y26510881D01*
X12085643Y26510876D01*
X12177684Y26361655D01*
X12301654Y26237685D01*
X12450875Y26145644D01*
X12450880Y26145642D01*
X12617298Y26090496D01*
X12617305Y26090495D01*
X12620000Y26090220D01*
X12620000Y26905000D01*
X12020001Y26905000D01*
X12020001Y26780014D01*
X7625518Y26780014D01*
X7625518Y27829987D01*
X12020000Y27829987D01*
X12020000Y27705000D01*
X12620000Y27705000D01*
X12620000Y28519782D01*
X12619999Y28519782D01*
X12617305Y28519506D01*
X12617303Y28519506D01*
X12450880Y28464359D01*
X12450875Y28464357D01*
X12301654Y28372316D01*
X12177684Y28248346D01*
X12085643Y28099125D01*
X12085641Y28099120D01*
X12030494Y27932698D01*
X12030493Y27932691D01*
X12020000Y27829987D01*
X7625518Y27829987D01*
X7625518Y38735000D01*
X1394102Y38735000D01*
X1327063Y38754685D01*
X1281308Y38807489D01*
X1270102Y38859102D01*
X1270616Y39485976D01*
X1271153Y40140512D01*
X1290892Y40207531D01*
X1343733Y40253243D01*
X1411338Y40263345D01*
X1420459Y40262145D01*
X2097802Y40939488D01*
X2102743Y40914649D01*
X2163049Y40769058D01*
X2250599Y40638030D01*
X2362030Y40526599D01*
X2493058Y40439049D01*
X2638649Y40378743D01*
X2663487Y40373803D01*
X1984948Y39695265D01*
X2019616Y39671629D01*
X2019622Y39671626D01*
X2249176Y39561079D01*
X2249174Y39561079D01*
X2492652Y39485976D01*
X2492658Y39485974D01*
X2744595Y39448001D01*
X2744604Y39448000D01*
X2999396Y39448000D01*
X2999404Y39448001D01*
X3251341Y39485974D01*
X3251347Y39485976D01*
X3494824Y39561079D01*
X3724372Y39671623D01*
X3724396Y39671636D01*
X3759049Y39695263D01*
X3759049Y39695265D01*
X3080513Y40373803D01*
X3105351Y40378743D01*
X3250942Y40439049D01*
X3381970Y40526599D01*
X3493401Y40638030D01*
X3580951Y40769058D01*
X3641257Y40914649D01*
X3646197Y40939488D01*
X4323540Y40262144D01*
X4323541Y40262144D01*
X4407941Y40408329D01*
X4456572Y40532237D01*
X4499387Y40587451D01*
X4565257Y40610752D01*
X4633268Y40594741D01*
X4681827Y40544504D01*
X4687428Y40532237D01*
X4736058Y40408329D01*
X4820458Y40262145D01*
X4820459Y40262144D01*
X5497802Y40939488D01*
X5502743Y40914649D01*
X5563049Y40769058D01*
X5650599Y40638030D01*
X5762030Y40526599D01*
X5893058Y40439049D01*
X6038649Y40378743D01*
X6063487Y40373803D01*
X5384948Y39695265D01*
X5419616Y39671629D01*
X5419622Y39671626D01*
X5649176Y39561079D01*
X5649174Y39561079D01*
X5892652Y39485976D01*
X5892658Y39485974D01*
X6144595Y39448001D01*
X6144604Y39448000D01*
X6399396Y39448000D01*
X6399404Y39448001D01*
X6651341Y39485974D01*
X6651347Y39485976D01*
X6894824Y39561079D01*
X7124372Y39671623D01*
X7124396Y39671636D01*
X7159049Y39695263D01*
X7159049Y39695265D01*
X6480513Y40373803D01*
X6505351Y40378743D01*
X6650942Y40439049D01*
X6781970Y40526599D01*
X6893401Y40638030D01*
X6980951Y40769058D01*
X7041257Y40914649D01*
X7046197Y40939487D01*
X7723540Y40262144D01*
X7723541Y40262144D01*
X7727579Y40269138D01*
X9221018Y40269138D01*
X9227419Y40209610D01*
X9227421Y40209603D01*
X9277663Y40074896D01*
X9277667Y40074889D01*
X9363827Y39959795D01*
X9363830Y39959792D01*
X9478924Y39873632D01*
X9478931Y39873628D01*
X9613638Y39823386D01*
X9613645Y39823384D01*
X9673173Y39816983D01*
X9673190Y39816982D01*
X11416518Y39816982D01*
X11416518Y40869482D01*
X9221018Y40869482D01*
X9221018Y40269138D01*
X7727579Y40269138D01*
X7807941Y40408329D01*
X7901026Y40645506D01*
X7901031Y40645523D01*
X7957726Y40893921D01*
X7976767Y41147996D01*
X7976767Y41148005D01*
X7957726Y41402080D01*
X7901031Y41650478D01*
X7901026Y41650495D01*
X7807941Y41887672D01*
X7807942Y41887672D01*
X7723540Y42033858D01*
X7046197Y41356514D01*
X7041257Y41381351D01*
X6980951Y41526942D01*
X6893401Y41657970D01*
X6781970Y41769401D01*
X6650942Y41856951D01*
X6505351Y41917257D01*
X6480512Y41922198D01*
X6828140Y42269827D01*
X9221018Y42269827D01*
X9221018Y41669482D01*
X11416518Y41669482D01*
X11416518Y42721982D01*
X9673173Y42721982D01*
X9613645Y42715581D01*
X9613638Y42715579D01*
X9478931Y42665337D01*
X9478924Y42665333D01*
X9363830Y42579173D01*
X9363827Y42579170D01*
X9277667Y42464076D01*
X9277663Y42464069D01*
X9227421Y42329362D01*
X9227419Y42329355D01*
X9221018Y42269827D01*
X6828140Y42269827D01*
X7159050Y42600737D01*
X7124384Y42624372D01*
X7124376Y42624377D01*
X6894823Y42734922D01*
X6894825Y42734922D01*
X6651347Y42810025D01*
X6651341Y42810027D01*
X6399404Y42848000D01*
X6144595Y42848000D01*
X5892658Y42810027D01*
X5892652Y42810025D01*
X5649178Y42734923D01*
X5419620Y42624374D01*
X5384948Y42600737D01*
X6063488Y41922198D01*
X6038649Y41917257D01*
X5893058Y41856951D01*
X5762030Y41769401D01*
X5650599Y41657970D01*
X5563049Y41526942D01*
X5502743Y41381351D01*
X5497802Y41356513D01*
X4820458Y42033857D01*
X4736058Y41887672D01*
X4687428Y41763764D01*
X4644612Y41708550D01*
X4578742Y41685249D01*
X4510732Y41701260D01*
X4462173Y41751498D01*
X4456572Y41763764D01*
X4407941Y41887672D01*
X4407942Y41887672D01*
X4323540Y42033858D01*
X3646197Y41356514D01*
X3641257Y41381351D01*
X3580951Y41526942D01*
X3493401Y41657970D01*
X3381970Y41769401D01*
X3250942Y41856951D01*
X3105351Y41917257D01*
X3080512Y41922198D01*
X3759050Y42600737D01*
X3724384Y42624372D01*
X3724376Y42624377D01*
X3494823Y42734922D01*
X3494825Y42734922D01*
X3251347Y42810025D01*
X3251341Y42810027D01*
X2999404Y42848000D01*
X2744595Y42848000D01*
X2492658Y42810027D01*
X2492652Y42810025D01*
X2249178Y42734923D01*
X2019620Y42624374D01*
X1984948Y42600737D01*
X2663488Y41922198D01*
X2638649Y41917257D01*
X2493058Y41856951D01*
X2362030Y41769401D01*
X2250599Y41657970D01*
X2163049Y41526942D01*
X2102743Y41381351D01*
X2097802Y41356513D01*
X1420458Y42033858D01*
X1412992Y42032874D01*
X1343956Y42043639D01*
X1291700Y42090019D01*
X1272806Y42155913D01*
X1274566Y44300496D01*
X12279519Y44300496D01*
X12290012Y44197785D01*
X12345159Y44031363D01*
X12345161Y44031358D01*
X12437202Y43882137D01*
X12561172Y43758167D01*
X12710393Y43666126D01*
X12710398Y43666124D01*
X12876816Y43610978D01*
X12876823Y43610977D01*
X12879518Y43610702D01*
X12879518Y44425482D01*
X12279519Y44425482D01*
X12279519Y44300496D01*
X1274566Y44300496D01*
X1275416Y45336586D01*
X1295156Y45403607D01*
X1347997Y45449319D01*
X1399416Y45460482D01*
X12155518Y45460482D01*
X12222557Y45440797D01*
G37*
%TD.AperFunction*%
%TD*%
%TA.AperFunction,Conductor*%
%TO.N,+5V*%
G36*
X27522775Y22615318D02*
G01*
X27522770Y22615310D01*
X27385635Y22364167D01*
X27285628Y22096038D01*
X27224804Y21816434D01*
X27204390Y21531002D01*
X27204390Y21530999D01*
X27224804Y21245567D01*
X27285628Y20965963D01*
X27385635Y20697834D01*
X27522770Y20446691D01*
X27522775Y20446683D01*
X27694254Y20217613D01*
X27694270Y20217595D01*
X27896594Y20015271D01*
X27896612Y20015255D01*
X28125682Y19843776D01*
X28125690Y19843771D01*
X28376833Y19706636D01*
X28376832Y19706636D01*
X28376836Y19706635D01*
X28376839Y19706633D01*
X28644954Y19606631D01*
X28644960Y19606630D01*
X28644962Y19606629D01*
X28924566Y19545805D01*
X28924568Y19545805D01*
X28924572Y19545804D01*
X29178220Y19527663D01*
X29209999Y19525390D01*
X29210000Y19525390D01*
X29210001Y19525390D01*
X29238595Y19527436D01*
X29495428Y19545804D01*
X29775046Y19606631D01*
X30043161Y19706633D01*
X30294315Y19843774D01*
X30523395Y20015261D01*
X30725739Y20217605D01*
X30897226Y20446685D01*
X31034367Y20697839D01*
X31134369Y20965954D01*
X31195196Y21245572D01*
X31208524Y21431932D01*
X31232941Y21497394D01*
X31288874Y21539266D01*
X31358566Y21544250D01*
X31412168Y21517858D01*
X33773612Y19525390D01*
X36414498Y17297142D01*
X36453042Y17238866D01*
X36453960Y17169002D01*
X36445019Y17146075D01*
X36403352Y17064302D01*
X36388500Y16970525D01*
X36388500Y16607483D01*
X36399292Y16539343D01*
X36403354Y16513696D01*
X36460950Y16400658D01*
X36460952Y16400656D01*
X36460954Y16400653D01*
X36550652Y16310955D01*
X36550654Y16310954D01*
X36550658Y16310950D01*
X36663696Y16253354D01*
X36663698Y16253353D01*
X36757475Y16238501D01*
X36757481Y16238500D01*
X37127082Y16238501D01*
X37127092Y16238500D01*
X37141525Y16238500D01*
X37623862Y16238500D01*
X37690901Y16218815D01*
X37703824Y16209274D01*
X38055964Y15912155D01*
X38094508Y15853880D01*
X38100000Y15817384D01*
X38100000Y15785413D01*
X38080315Y15718374D01*
X38027511Y15672619D01*
X37958353Y15662675D01*
X37913528Y15680415D01*
X37913411Y15680162D01*
X37909170Y15682140D01*
X37904876Y15683839D01*
X37903580Y15684746D01*
X37903579Y15684747D01*
X37799545Y15733259D01*
X37799543Y15733260D01*
X37799544Y15733260D01*
X37752139Y15739500D01*
X36675867Y15739500D01*
X36660839Y15737522D01*
X36628455Y15733259D01*
X36628453Y15733258D01*
X36628451Y15733258D01*
X36524420Y15684747D01*
X36443253Y15603580D01*
X36394740Y15499544D01*
X36388500Y15452141D01*
X36388500Y15225869D01*
X36388501Y15225862D01*
X36394741Y15178455D01*
X36412018Y15141404D01*
X36422509Y15072327D01*
X36412018Y15036598D01*
X36394742Y14999549D01*
X36394740Y14999542D01*
X36388500Y14952141D01*
X36388500Y14725869D01*
X36388501Y14725862D01*
X36394741Y14678455D01*
X36412018Y14641404D01*
X36422509Y14572327D01*
X36412018Y14536598D01*
X36394742Y14499549D01*
X36394740Y14499542D01*
X36388500Y14452141D01*
X36388500Y14225869D01*
X36388501Y14225862D01*
X36394741Y14178455D01*
X36412018Y14141404D01*
X36422509Y14072327D01*
X36412018Y14036598D01*
X36394742Y13999549D01*
X36394740Y13999542D01*
X36388500Y13952141D01*
X36388500Y13725869D01*
X36388501Y13725862D01*
X36394741Y13678455D01*
X36412018Y13641404D01*
X36422509Y13572327D01*
X36412018Y13536598D01*
X36394742Y13499549D01*
X36394740Y13499542D01*
X36388500Y13452141D01*
X36388500Y13225869D01*
X36388501Y13225862D01*
X36394741Y13178455D01*
X36412018Y13141404D01*
X36422509Y13072327D01*
X36412018Y13036598D01*
X36394742Y12999549D01*
X36394740Y12999542D01*
X36388500Y12952141D01*
X36388500Y12725869D01*
X36388501Y12725862D01*
X36394741Y12678455D01*
X36412018Y12641404D01*
X36422509Y12572327D01*
X36412018Y12536598D01*
X36394742Y12499549D01*
X36394740Y12499542D01*
X36388500Y12452141D01*
X36388500Y12225869D01*
X36388501Y12225862D01*
X36394741Y12178455D01*
X36412018Y12141404D01*
X36422509Y12072327D01*
X36412018Y12036598D01*
X36394742Y11999549D01*
X36394740Y11999542D01*
X36388500Y11952141D01*
X36388500Y11725868D01*
X36388501Y11725862D01*
X36394741Y11678455D01*
X36394742Y11678453D01*
X36394742Y11678452D01*
X36424157Y11615372D01*
X36443253Y11574421D01*
X36524421Y11493253D01*
X36628455Y11444741D01*
X36675861Y11438500D01*
X37752138Y11438501D01*
X37799545Y11444741D01*
X37903579Y11493253D01*
X37903586Y11493261D01*
X37904869Y11494158D01*
X37907219Y11494951D01*
X37913411Y11497838D01*
X37913732Y11497148D01*
X37971074Y11516490D01*
X38038842Y11499484D01*
X38086659Y11448540D01*
X38100000Y11392588D01*
X38100000Y11063500D01*
X38080315Y10996461D01*
X38027511Y10950706D01*
X37976000Y10939500D01*
X36616561Y10939500D01*
X36561126Y10924647D01*
X36561126Y10924646D01*
X36476551Y10901984D01*
X36476549Y10901984D01*
X36476549Y10901983D01*
X36374525Y10843080D01*
X36306625Y10826608D01*
X36250688Y10842988D01*
X19620162Y20411236D01*
X19571870Y20461730D01*
X19558000Y20518716D01*
X19558000Y22676120D01*
X19563518Y22694913D01*
X19563518Y22733000D01*
X27610871Y22733000D01*
X27522775Y22615318D01*
G37*
%TD.AperFunction*%
%TD*%
%TA.AperFunction,Conductor*%
%TO.N,+BATT*%
G36*
X13913039Y58400315D02*
G01*
X13958794Y58347511D01*
X13970000Y58296000D01*
X13970000Y57991791D01*
X13950315Y57924752D01*
X13897511Y57878997D01*
X13828353Y57869053D01*
X13813907Y57872016D01*
X13688209Y57905697D01*
X13688202Y57905698D01*
X13325871Y57963085D01*
X12959519Y57982285D01*
X12959517Y57982285D01*
X12593164Y57963085D01*
X12230833Y57905698D01*
X12230831Y57905698D01*
X11876466Y57810746D01*
X11533982Y57679278D01*
X11207112Y57512728D01*
X10899448Y57312929D01*
X10783581Y57219103D01*
X11674878Y56327807D01*
X11472807Y56172751D01*
X11264249Y55964193D01*
X11109193Y55762123D01*
X10217897Y56653419D01*
X10124071Y56537552D01*
X9924272Y56229888D01*
X9757722Y55903018D01*
X9626254Y55560534D01*
X9531302Y55206169D01*
X9531302Y55206167D01*
X9473915Y54843836D01*
X9454715Y54477483D01*
X9454715Y54477482D01*
X9473915Y54111129D01*
X9531302Y53748798D01*
X9531302Y53748796D01*
X9626254Y53394431D01*
X9757722Y53051947D01*
X9924272Y52725076D01*
X10124071Y52417412D01*
X10217897Y52301548D01*
X11109193Y53192844D01*
X11264249Y52990771D01*
X11472807Y52782213D01*
X11674877Y52627159D01*
X10783582Y51735863D01*
X10899453Y51642032D01*
X11207111Y51442237D01*
X11533982Y51275687D01*
X11876466Y51144219D01*
X12230832Y51049267D01*
X12593164Y50991880D01*
X12959517Y50972679D01*
X12959519Y50972679D01*
X13325871Y50991880D01*
X13688202Y51049267D01*
X13688204Y51049267D01*
X13813906Y51082949D01*
X13883756Y51081286D01*
X13941618Y51042124D01*
X13969123Y50977896D01*
X13970000Y50963174D01*
X13970000Y50543000D01*
X13950315Y50475961D01*
X13897511Y50430206D01*
X13846000Y50419000D01*
X1521000Y50419000D01*
X1453961Y50438685D01*
X1408206Y50491489D01*
X1397000Y50543000D01*
X1397000Y53652691D01*
X1400332Y53652691D01*
X1397613Y53677982D01*
X1428887Y53740462D01*
X1431962Y53743648D01*
X2097802Y54409489D01*
X2102743Y54384649D01*
X2163049Y54239058D01*
X2250599Y54108030D01*
X2362030Y53996599D01*
X2493058Y53909049D01*
X2638649Y53848743D01*
X2663487Y53843803D01*
X1984948Y53165265D01*
X2019616Y53141629D01*
X2019622Y53141626D01*
X2249176Y53031079D01*
X2249174Y53031079D01*
X2492652Y52955976D01*
X2492658Y52955974D01*
X2744595Y52918001D01*
X2744604Y52918000D01*
X2999396Y52918000D01*
X2999404Y52918001D01*
X3251341Y52955974D01*
X3251347Y52955976D01*
X3494824Y53031079D01*
X3724372Y53141623D01*
X3724396Y53141636D01*
X3759049Y53165263D01*
X3759049Y53165265D01*
X3080513Y53843803D01*
X3105351Y53848743D01*
X3250942Y53909049D01*
X3381970Y53996599D01*
X3493401Y54108030D01*
X3580951Y54239058D01*
X3641257Y54384649D01*
X3646197Y54409488D01*
X4323540Y53732144D01*
X4323541Y53732144D01*
X4407941Y53878329D01*
X4456572Y54002237D01*
X4499387Y54057451D01*
X4565257Y54080752D01*
X4633268Y54064741D01*
X4681827Y54014504D01*
X4687428Y54002237D01*
X4736058Y53878329D01*
X4820458Y53732145D01*
X4820459Y53732144D01*
X5497802Y54409488D01*
X5502743Y54384649D01*
X5563049Y54239058D01*
X5650599Y54108030D01*
X5762030Y53996599D01*
X5893058Y53909049D01*
X6038649Y53848743D01*
X6063487Y53843803D01*
X5384948Y53165265D01*
X5419616Y53141629D01*
X5419622Y53141626D01*
X5649176Y53031079D01*
X5649174Y53031079D01*
X5892652Y52955976D01*
X5892658Y52955974D01*
X6144595Y52918001D01*
X6144604Y52918000D01*
X6399396Y52918000D01*
X6399404Y52918001D01*
X6651341Y52955974D01*
X6651347Y52955976D01*
X6894824Y53031079D01*
X7124372Y53141623D01*
X7124396Y53141636D01*
X7159049Y53165263D01*
X7159049Y53165265D01*
X6480513Y53843803D01*
X6505351Y53848743D01*
X6650942Y53909049D01*
X6781970Y53996599D01*
X6893401Y54108030D01*
X6980951Y54239058D01*
X7041257Y54384649D01*
X7046197Y54409487D01*
X7723540Y53732144D01*
X7723541Y53732144D01*
X7807941Y53878329D01*
X7901026Y54115506D01*
X7901031Y54115523D01*
X7957726Y54363921D01*
X7976767Y54617996D01*
X7976767Y54618005D01*
X7957726Y54872080D01*
X7901031Y55120478D01*
X7901026Y55120495D01*
X7807941Y55357672D01*
X7807942Y55357672D01*
X7723540Y55503858D01*
X7046197Y54826514D01*
X7041257Y54851351D01*
X6980951Y54996942D01*
X6893401Y55127970D01*
X6781970Y55239401D01*
X6650942Y55326951D01*
X6505351Y55387257D01*
X6480512Y55392198D01*
X7159050Y56070737D01*
X7124384Y56094372D01*
X7124376Y56094377D01*
X6894823Y56204922D01*
X6894825Y56204922D01*
X6651347Y56280025D01*
X6651341Y56280027D01*
X6399404Y56318000D01*
X6144595Y56318000D01*
X5892658Y56280027D01*
X5892652Y56280025D01*
X5649178Y56204923D01*
X5419620Y56094374D01*
X5384948Y56070737D01*
X6063488Y55392198D01*
X6038649Y55387257D01*
X5893058Y55326951D01*
X5762030Y55239401D01*
X5650599Y55127970D01*
X5563049Y54996942D01*
X5502743Y54851351D01*
X5497802Y54826513D01*
X4820458Y55503857D01*
X4736058Y55357672D01*
X4687428Y55233764D01*
X4644612Y55178550D01*
X4578742Y55155249D01*
X4510732Y55171260D01*
X4462173Y55221498D01*
X4456572Y55233764D01*
X4407941Y55357672D01*
X4407942Y55357672D01*
X4323540Y55503858D01*
X3646197Y54826514D01*
X3641257Y54851351D01*
X3580951Y54996942D01*
X3493401Y55127970D01*
X3381970Y55239401D01*
X3250942Y55326951D01*
X3105351Y55387257D01*
X3080512Y55392198D01*
X3759050Y56070737D01*
X3724384Y56094372D01*
X3724376Y56094377D01*
X3494823Y56204922D01*
X3494825Y56204922D01*
X3251347Y56280025D01*
X3251341Y56280027D01*
X2999404Y56318000D01*
X2744595Y56318000D01*
X2492658Y56280027D01*
X2492652Y56280025D01*
X2249178Y56204923D01*
X2019620Y56094374D01*
X1984948Y56070737D01*
X2663488Y55392198D01*
X2638649Y55387257D01*
X2493058Y55326951D01*
X2362030Y55239401D01*
X2250599Y55127970D01*
X2163049Y54996942D01*
X2102743Y54851351D01*
X2097802Y54826513D01*
X1431962Y55492353D01*
X1398477Y55553676D01*
X1400596Y55583309D01*
X1397000Y55583309D01*
X1397000Y58296000D01*
X1416685Y58363039D01*
X1469489Y58408794D01*
X1521000Y58420000D01*
X13846000Y58420000D01*
X13913039Y58400315D01*
G37*
%TD.AperFunction*%
%TD*%
M02*
