%TF.GenerationSoftware,KiCad,Pcbnew,8.0.3*%
%TF.CreationDate,2024-06-18T09:05:38+09:00*%
%TF.ProjectId,USB_power,5553425f-706f-4776-9572-2e6b69636164,rev?*%
%TF.SameCoordinates,PX79d7e50PY830c570*%
%TF.FileFunction,Copper,L1,Top*%
%TF.FilePolarity,Positive*%
%FSLAX46Y46*%
G04 Gerber Fmt 4.6, Leading zero omitted, Abs format (unit mm)*
G04 Created by KiCad (PCBNEW 8.0.3) date 2024-06-18 09:05:38*
%MOMM*%
%LPD*%
G01*
G04 APERTURE LIST*
G04 Aperture macros list*
%AMRoundRect*
0 Rectangle with rounded corners*
0 $1 Rounding radius*
0 $2 $3 $4 $5 $6 $7 $8 $9 X,Y pos of 4 corners*
0 Add a 4 corners polygon primitive as box body*
4,1,4,$2,$3,$4,$5,$6,$7,$8,$9,$2,$3,0*
0 Add four circle primitives for the rounded corners*
1,1,$1+$1,$2,$3*
1,1,$1+$1,$4,$5*
1,1,$1+$1,$6,$7*
1,1,$1+$1,$8,$9*
0 Add four rect primitives between the rounded corners*
20,1,$1+$1,$2,$3,$4,$5,0*
20,1,$1+$1,$4,$5,$6,$7,0*
20,1,$1+$1,$6,$7,$8,$9,0*
20,1,$1+$1,$8,$9,$2,$3,0*%
G04 Aperture macros list end*
%TA.AperFunction,SMDPad,CuDef*%
%ADD10RoundRect,0.250000X-0.450000X0.262500X-0.450000X-0.262500X0.450000X-0.262500X0.450000X0.262500X0*%
%TD*%
%TA.AperFunction,SMDPad,CuDef*%
%ADD11RoundRect,0.250000X-0.262500X-0.450000X0.262500X-0.450000X0.262500X0.450000X-0.262500X0.450000X0*%
%TD*%
%TA.AperFunction,ComponentPad*%
%ADD12R,1.524000X1.524000*%
%TD*%
%TA.AperFunction,ComponentPad*%
%ADD13C,1.524000*%
%TD*%
%TA.AperFunction,ComponentPad*%
%ADD14C,3.500000*%
%TD*%
%TA.AperFunction,SMDPad,CuDef*%
%ADD15RoundRect,0.250000X0.450000X-0.262500X0.450000X0.262500X-0.450000X0.262500X-0.450000X-0.262500X0*%
%TD*%
%TA.AperFunction,SMDPad,CuDef*%
%ADD16RoundRect,0.150000X0.425000X-0.150000X0.425000X0.150000X-0.425000X0.150000X-0.425000X-0.150000X0*%
%TD*%
%TA.AperFunction,SMDPad,CuDef*%
%ADD17RoundRect,0.075000X0.500000X-0.075000X0.500000X0.075000X-0.500000X0.075000X-0.500000X-0.075000X0*%
%TD*%
%TA.AperFunction,ComponentPad*%
%ADD18O,2.100000X1.000000*%
%TD*%
%TA.AperFunction,ComponentPad*%
%ADD19O,1.800000X1.000000*%
%TD*%
%TA.AperFunction,SMDPad,CuDef*%
%ADD20RoundRect,0.250000X-0.250000X-0.475000X0.250000X-0.475000X0.250000X0.475000X-0.250000X0.475000X0*%
%TD*%
%TA.AperFunction,SMDPad,CuDef*%
%ADD21RoundRect,0.250000X0.250000X0.475000X-0.250000X0.475000X-0.250000X-0.475000X0.250000X-0.475000X0*%
%TD*%
%TA.AperFunction,SMDPad,CuDef*%
%ADD22RoundRect,0.218750X0.112544X-0.317568X0.331294X0.061318X-0.112544X0.317568X-0.331294X-0.061318X0*%
%TD*%
%TA.AperFunction,SMDPad,CuDef*%
%ADD23R,1.143000X1.143000*%
%TD*%
%TA.AperFunction,SMDPad,CuDef*%
%ADD24R,4.191000X1.905000*%
%TD*%
%TA.AperFunction,SMDPad,CuDef*%
%ADD25R,1.905000X4.191000*%
%TD*%
%TA.AperFunction,SMDPad,CuDef*%
%ADD26RoundRect,0.250000X-0.258461X0.452332X-0.520961X-0.002332X0.258461X-0.452332X0.520961X0.002332X0*%
%TD*%
%TA.AperFunction,ComponentPad*%
%ADD27RoundRect,0.250000X-0.600000X-0.725000X0.600000X-0.725000X0.600000X0.725000X-0.600000X0.725000X0*%
%TD*%
%TA.AperFunction,ComponentPad*%
%ADD28O,1.700000X1.950000*%
%TD*%
%TA.AperFunction,ComponentPad*%
%ADD29R,1.500000X1.500000*%
%TD*%
%TA.AperFunction,ComponentPad*%
%ADD30C,1.500000*%
%TD*%
%TA.AperFunction,ComponentPad*%
%ADD31RoundRect,1.500000X1.500000X1.500000X-1.500000X1.500000X-1.500000X-1.500000X1.500000X-1.500000X0*%
%TD*%
%TA.AperFunction,ComponentPad*%
%ADD32C,6.000000*%
%TD*%
%TA.AperFunction,SMDPad,CuDef*%
%ADD33RoundRect,0.218750X-0.256250X0.218750X-0.256250X-0.218750X0.256250X-0.218750X0.256250X0.218750X0*%
%TD*%
%TA.AperFunction,ViaPad*%
%ADD34C,0.600000*%
%TD*%
%TA.AperFunction,ViaPad*%
%ADD35C,1.200000*%
%TD*%
%TA.AperFunction,Conductor*%
%ADD36C,0.600000*%
%TD*%
%TA.AperFunction,Conductor*%
%ADD37C,0.635000*%
%TD*%
%TA.AperFunction,Conductor*%
%ADD38C,1.270000*%
%TD*%
G04 APERTURE END LIST*
D10*
%TO.P,R9,1*%
%TO.N,+5VP*%
X21138318Y40536500D03*
%TO.P,R9,2*%
%TO.N,Net-(R10-Pad1)*%
X21138318Y38711500D03*
%TD*%
D11*
%TO.P,R2,1*%
%TO.N,Net-(R1-Pad2)*%
X18391500Y8890000D03*
%TO.P,R2,2*%
%TO.N,Net-(R2-Pad2)*%
X20216500Y8890000D03*
%TD*%
%TO.P,R1,1*%
%TO.N,Net-(MD1-TRIM)*%
X16590000Y10922000D03*
%TO.P,R1,2*%
%TO.N,Net-(R1-Pad2)*%
X18415000Y10922000D03*
%TD*%
D12*
%TO.P,J5,1,VBUS*%
%TO.N,+5V*%
X29457018Y24378482D03*
D13*
%TO.P,J5,2,D-*%
%TO.N,unconnected-(J5-D--Pad2)*%
X29457018Y26878482D03*
%TO.P,J5,3,D+*%
%TO.N,unconnected-(J5-D+-Pad3)*%
X29457018Y28878482D03*
%TO.P,J5,4,GND*%
%TO.N,GND*%
X29457018Y31378482D03*
D14*
%TO.P,J5,5,Shield*%
%TO.N,unconnected-(J5-Shield-Pad5)_0*%
X32167018Y21308482D03*
%TO.N,unconnected-(J5-Shield-Pad5)*%
X32167018Y34448482D03*
%TD*%
D15*
%TO.P,R7,1*%
%TO.N,Net-(R6-Pad2)*%
X23368000Y32742500D03*
%TO.P,R7,2*%
%TO.N,Net-(R7-Pad2)*%
X23368000Y34567500D03*
%TD*%
D16*
%TO.P,J4,A1,GND*%
%TO.N,GND*%
X35187518Y9494482D03*
%TO.P,J4,A4,VBUS*%
%TO.N,+5V*%
X35187518Y10294482D03*
D17*
%TO.P,J4,A5,CC1*%
%TO.N,unconnected-(J4-CC1-PadA5)*%
X35187518Y11444482D03*
%TO.P,J4,A6,D+*%
%TO.N,unconnected-(J4-D+-PadA6)*%
X35187518Y12444482D03*
%TO.P,J4,A7,D-*%
%TO.N,unconnected-(J4-D--PadA7)*%
X35187518Y12944482D03*
%TO.P,J4,A8,SBU1*%
%TO.N,unconnected-(J4-SBU1-PadA8)*%
X35187518Y13944482D03*
D16*
%TO.P,J4,A9,VBUS*%
%TO.N,+5V*%
X35187518Y15094482D03*
%TO.P,J4,A12,GND*%
%TO.N,GND*%
X35187518Y15894482D03*
%TO.P,J4,B1,GND*%
X35187518Y15894482D03*
%TO.P,J4,B4,VBUS*%
%TO.N,+5V*%
X35187518Y15094482D03*
D17*
%TO.P,J4,B5,CC2*%
%TO.N,unconnected-(J4-CC2-PadB5)*%
X35187518Y14444482D03*
%TO.P,J4,B6,D+*%
%TO.N,unconnected-(J4-D+-PadB6)*%
X35187518Y13444482D03*
%TO.P,J4,B7,D-*%
%TO.N,unconnected-(J4-D--PadB7)*%
X35187518Y11944482D03*
%TO.P,J4,B8,SBU2*%
%TO.N,unconnected-(J4-SBU2-PadB8)*%
X35187518Y10944482D03*
D16*
%TO.P,J4,B9,VBUS*%
%TO.N,+5V*%
X35187518Y10294482D03*
%TO.P,J4,B12,GND*%
%TO.N,GND*%
X35187518Y9494482D03*
D18*
%TO.P,J4,S1,SHIELD*%
%TO.N,unconnected-(J4-SHIELD-PadS1)_2*%
X35762518Y8374482D03*
D19*
%TO.N,unconnected-(J4-SHIELD-PadS1)_0*%
X39942518Y8374482D03*
D18*
%TO.N,unconnected-(J4-SHIELD-PadS1)*%
X35762518Y17014482D03*
D19*
%TO.N,unconnected-(J4-SHIELD-PadS1)_1*%
X39942518Y17014482D03*
%TD*%
D20*
%TO.P,C1,1*%
%TO.N,+BATT*%
X10988000Y26924000D03*
%TO.P,C1,2*%
%TO.N,GND*%
X12888000Y26924000D03*
%TD*%
D21*
%TO.P,C10,1*%
%TO.N,+5VP*%
X17785518Y44444482D03*
%TO.P,C10,2*%
%TO.N,GND*%
X15885518Y44444482D03*
%TD*%
D10*
%TO.P,R10,1*%
%TO.N,Net-(R10-Pad1)*%
X23170318Y38709600D03*
%TO.P,R10,2*%
%TO.N,GND*%
X23170318Y36884600D03*
%TD*%
D22*
%TO.P,D1,1,K*%
%TO.N,Net-(D1-K)*%
X29578249Y11510004D03*
%TO.P,D1,2,A*%
%TO.N,+5V*%
X30365751Y12873996D03*
%TD*%
D23*
%TO.P,MD2,1,~{ON}/OFF_CONTROL*%
%TO.N,GND*%
X8641518Y36316482D03*
D24*
%TO.P,MD2,2,VIN*%
%TO.N,+BATT*%
X9784518Y40888482D03*
%TO.P,MD2,3,1_GROUND*%
%TO.N,GND*%
X14356518Y40888482D03*
D25*
%TO.P,MD2,4,VOUT*%
%TO.N,+5VP*%
X17785518Y39745482D03*
D23*
%TO.P,MD2,5,SENSE*%
X17785518Y36316482D03*
%TO.P,MD2,6,TRIM*%
%TO.N,Net-(MD2-TRIM)*%
X17785518Y31744482D03*
%TO.P,MD2,7,2_GROUND*%
%TO.N,GND*%
X13213518Y31744482D03*
%TO.P,MD2,8,1_NC*%
%TO.N,unconnected-(MD2-1_NC-Pad8)*%
X10927518Y31744482D03*
%TO.P,MD2,9,2_NC*%
%TO.N,unconnected-(MD2-2_NC-Pad9)*%
X8641518Y31744482D03*
%TO.P,MD2,10,POWER_GOOD_OUT*%
%TO.N,unconnected-(MD2-POWER_GOOD_OUT-Pad10)*%
X8641518Y34030482D03*
%TO.P,MD2,11,3_NC*%
%TO.N,unconnected-(MD2-3_NC-Pad11)*%
X17785518Y34030482D03*
%TO.P,MD2,12,4_NC*%
%TO.N,unconnected-(MD2-4_NC-Pad12)*%
X15499518Y31744482D03*
%TD*%
D26*
%TO.P,R11,1*%
%TO.N,Net-(D1-K)*%
X28142250Y12474248D03*
%TO.P,R11,2*%
%TO.N,GND*%
X27229750Y10893752D03*
%TD*%
D27*
%TO.P,J3,1,Pin_1*%
%TO.N,GND*%
X26207518Y59557482D03*
D28*
%TO.P,J3,2,Pin_2*%
%TO.N,+BATT*%
X28707518Y59557482D03*
%TD*%
D21*
%TO.P,C5,1*%
%TO.N,+5V*%
X17714000Y26924000D03*
%TO.P,C5,2*%
%TO.N,GND*%
X15814000Y26924000D03*
%TD*%
D29*
%TO.P,J2,1,VBUS1*%
%TO.N,+5VP*%
X30231518Y42412482D03*
D30*
%TO.P,J2,2,D1-*%
%TO.N,unconnected-(J2-D1--Pad2)*%
X30231518Y44912482D03*
%TO.P,J2,3,D1+*%
%TO.N,unconnected-(J2-D1+-Pad3)*%
X30231518Y46912482D03*
%TO.P,J2,4,GND1*%
%TO.N,GND*%
X30231518Y49412482D03*
%TO.P,J2,5,VBUS2*%
%TO.N,+5VP*%
X27611518Y42412482D03*
%TO.P,J2,6,D2-*%
%TO.N,unconnected-(J2-D2--Pad6)*%
X27611518Y44912482D03*
%TO.P,J2,7,D2+*%
%TO.N,unconnected-(J2-D2+-Pad7)*%
X27611518Y46912482D03*
%TO.P,J2,8,GND2*%
%TO.N,GND*%
X27611518Y49412482D03*
D14*
%TO.P,J2,9,Shield*%
%TO.N,unconnected-(J2-Shield-Pad9)*%
X32941518Y39342482D03*
%TO.N,unconnected-(J2-Shield-Pad9)_1*%
X32941518Y52482482D03*
%TO.N,unconnected-(J2-Shield-Pad9)_0*%
X27261518Y39342482D03*
%TO.N,unconnected-(J2-Shield-Pad9)_2*%
X27261518Y52482482D03*
%TD*%
D23*
%TO.P,MD1,1,~{ON}/OFF_CONTROL*%
%TO.N,GND*%
X8636000Y18796000D03*
D24*
%TO.P,MD1,2,VIN*%
%TO.N,+BATT*%
X9779000Y23368000D03*
%TO.P,MD1,3,1_GROUND*%
%TO.N,GND*%
X14351000Y23368000D03*
D25*
%TO.P,MD1,4,VOUT*%
%TO.N,+5V*%
X17780000Y22225000D03*
D23*
%TO.P,MD1,5,SENSE*%
X17780000Y18796000D03*
%TO.P,MD1,6,TRIM*%
%TO.N,Net-(MD1-TRIM)*%
X17780000Y14224000D03*
%TO.P,MD1,7,2_GROUND*%
%TO.N,GND*%
X13208000Y14224000D03*
%TO.P,MD1,8,1_NC*%
%TO.N,unconnected-(MD1-1_NC-Pad8)*%
X10922000Y14224000D03*
%TO.P,MD1,9,2_NC*%
%TO.N,unconnected-(MD1-2_NC-Pad9)*%
X8636000Y14224000D03*
%TO.P,MD1,10,POWER_GOOD_OUT*%
%TO.N,unconnected-(MD1-POWER_GOOD_OUT-Pad10)*%
X8636000Y16510000D03*
%TO.P,MD1,11,3_NC*%
%TO.N,unconnected-(MD1-3_NC-Pad11)*%
X17780000Y16510000D03*
%TO.P,MD1,12,4_NC*%
%TO.N,unconnected-(MD1-4_NC-Pad12)*%
X15494000Y14224000D03*
%TD*%
D15*
%TO.P,R4,1*%
%TO.N,+5V*%
X24765000Y26519500D03*
%TO.P,R4,2*%
%TO.N,Net-(R4-Pad2)*%
X24765000Y28344500D03*
%TD*%
%TO.P,R5,1*%
%TO.N,Net-(R4-Pad2)*%
X26797000Y28194000D03*
%TO.P,R5,2*%
%TO.N,GND*%
X26797000Y30019000D03*
%TD*%
D31*
%TO.P,J1,1,Pin_1*%
%TO.N,GND*%
X18127518Y54096482D03*
D32*
%TO.P,J1,2,Pin_2*%
%TO.N,+BATT*%
X10927518Y54096482D03*
%TD*%
D33*
%TO.P,D2,1,K*%
%TO.N,Net-(D2-K)*%
X24892000Y44983500D03*
%TO.P,D2,2,A*%
%TO.N,+5VP*%
X24892000Y43408500D03*
%TD*%
D15*
%TO.P,R3,2*%
%TO.N,GND*%
X22098000Y10818500D03*
%TO.P,R3,1*%
%TO.N,Net-(R2-Pad2)*%
X22098000Y8993500D03*
%TD*%
%TO.P,R6,2*%
%TO.N,Net-(R6-Pad2)*%
X21336000Y32916500D03*
%TO.P,R6,1*%
%TO.N,Net-(MD2-TRIM)*%
X21336000Y31091500D03*
%TD*%
D10*
%TO.P,R8,1*%
%TO.N,Net-(R7-Pad2)*%
X25400000Y34585482D03*
%TO.P,R8,2*%
%TO.N,GND*%
X25400000Y32760482D03*
%TD*%
D15*
%TO.P,R12,1*%
%TO.N,Net-(D2-K)*%
X22352000Y44934500D03*
%TO.P,R12,2*%
%TO.N,GND*%
X22352000Y46759500D03*
%TD*%
D20*
%TO.P,C2,1*%
%TO.N,+BATT*%
X11247518Y44444482D03*
%TO.P,C2,2*%
%TO.N,GND*%
X13147518Y44444482D03*
%TD*%
D34*
%TO.N,+BATT*%
X10922000Y38862000D03*
X9144000Y38862000D03*
X7366000Y38862000D03*
%TO.N,GND*%
X25654000Y11430000D03*
X20574000Y11430000D03*
X25654000Y13970000D03*
X23114000Y13970000D03*
X20574000Y13970000D03*
X20574000Y16510000D03*
%TO.N,+BATT*%
X10922000Y21082000D03*
X9144000Y21082000D03*
X7366000Y21082000D03*
X7112000Y25908000D03*
X7112000Y27178000D03*
%TO.N,+5V*%
X30734000Y14478000D03*
X28194000Y14478000D03*
X30734000Y17018000D03*
X28194000Y17018000D03*
X25654000Y17018000D03*
X25654000Y19558000D03*
X23114000Y19558000D03*
X20574000Y19558000D03*
X25654000Y22098000D03*
X23114000Y22098000D03*
X20574000Y22098000D03*
X25654000Y24638000D03*
X23114000Y24638000D03*
X20574000Y24638000D03*
%TO.N,+BATT*%
X9144000Y46228000D03*
X11176000Y46228000D03*
X7112000Y44196000D03*
X11176000Y48006000D03*
X9144000Y48006000D03*
X7112000Y46228000D03*
%TO.N,GND*%
X15626518Y38983482D03*
D35*
X38867518Y15107482D03*
D34*
X15494000Y19812000D03*
D35*
X37216518Y10154482D03*
D34*
X18293518Y28442482D03*
X15753518Y28442482D03*
D35*
X37191118Y15107482D03*
X38867518Y10154482D03*
X29723518Y8630482D03*
X40645518Y10154482D03*
D34*
X15626518Y35935482D03*
D35*
X33279518Y8630482D03*
X40645518Y15107482D03*
X31501518Y8630482D03*
D34*
X15494000Y21336000D03*
X15626518Y37459482D03*
D35*
%TO.N,+5V*%
X33274000Y11938000D03*
X33279518Y14345482D03*
D34*
%TO.N,+BATT*%
X11049000Y28442482D03*
%TO.N,GND*%
X15621000Y34544000D03*
X15494000Y18288000D03*
X15494000Y16764000D03*
%TD*%
D36*
%TO.N,GND*%
X37191118Y15107482D02*
X36404118Y15894482D01*
X36404118Y15894482D02*
X35187518Y15894482D01*
%TO.N,Net-(D1-K)*%
X28142250Y12474248D02*
X29376000Y11240498D01*
X29376000Y11240498D02*
X29376000Y10973756D01*
D37*
%TO.N,Net-(R7-Pad2)*%
X23368000Y34567500D02*
X25382018Y34567500D01*
X25382018Y34567500D02*
X25400000Y34585482D01*
%TO.N,Net-(R6-Pad2)*%
X21510000Y32742500D02*
X21336000Y32916500D01*
%TO.N,GND*%
X25405518Y32760482D02*
X25175018Y32760482D01*
%TO.N,Net-(R6-Pad2)*%
X23368000Y32742500D02*
X21510000Y32742500D01*
%TO.N,Net-(MD2-TRIM)*%
X18438500Y31091500D02*
X21336000Y31091500D01*
X17785518Y31744482D02*
X18438500Y31091500D01*
%TO.N,Net-(R4-Pad2)*%
X24915500Y28194000D02*
X24765000Y28344500D01*
X26797000Y28194000D02*
X24915500Y28194000D01*
%TO.N,Net-(R1-Pad2)*%
X18415000Y10922000D02*
X18415000Y8913500D01*
X18415000Y8913500D02*
X18391500Y8890000D01*
%TO.N,Net-(MD1-TRIM)*%
X16590000Y13034000D02*
X17780000Y14224000D01*
X16590000Y10922000D02*
X16590000Y13034000D01*
%TO.N,Net-(R2-Pad2)*%
X21994500Y8890000D02*
X22098000Y8993500D01*
X20216500Y8890000D02*
X21994500Y8890000D01*
%TO.N,GND*%
X8641518Y36316482D02*
X13213518Y31744482D01*
X8636000Y18796000D02*
X13208000Y14224000D01*
D36*
%TO.N,Net-(D2-K)*%
X22401000Y44983500D02*
X24892000Y44983500D01*
X22352000Y44934500D02*
X22401000Y44983500D01*
%TO.N,GND*%
X36556518Y9494482D02*
X35187518Y9494482D01*
D38*
X15494000Y21336000D02*
X15494000Y22225000D01*
D37*
X13147518Y42097482D02*
X14356518Y40888482D01*
X13213518Y31744482D02*
X13213518Y31871482D01*
D36*
X37191118Y15107482D02*
X37089118Y15005482D01*
D38*
X14356518Y40888482D02*
X15626518Y39618482D01*
D36*
X35187518Y9494482D02*
X34143518Y9494482D01*
X37216518Y10154482D02*
X36556518Y9494482D01*
D37*
X13208000Y14224000D02*
X13208000Y14414500D01*
D38*
X18127518Y54096482D02*
X20746518Y54096482D01*
X20746518Y54096482D02*
X26207518Y59557482D01*
X15626518Y39618482D02*
X15626518Y39364482D01*
X15626518Y37332482D02*
X15626518Y35808482D01*
D36*
X29723518Y8630482D02*
X33279518Y8630482D01*
D37*
X13147518Y44444482D02*
X13147518Y42097482D01*
D38*
X15626518Y38983482D02*
X15626518Y37332482D01*
X15626518Y39364482D02*
X15626518Y38983482D01*
X15494000Y19812000D02*
X15494000Y21336000D01*
X15494000Y22225000D02*
X14351000Y23368000D01*
D36*
X34143518Y9494482D02*
X33279518Y8630482D01*
D38*
%TO.N,+5V*%
X17780000Y23199000D02*
X17780000Y22225000D01*
D37*
X17780000Y26858000D02*
X17714000Y26924000D01*
D38*
%TO.N,+BATT*%
X28707518Y60319482D02*
X28707518Y59557482D01*
X11805482Y54096482D02*
X19298482Y61589482D01*
X19298482Y61589482D02*
X27437518Y61589482D01*
X10883518Y54096482D02*
X11805482Y54096482D01*
X27437518Y61589482D02*
X28707518Y60319482D01*
D37*
%TO.N,Net-(R10-Pad1)*%
X21138318Y38711500D02*
X23168418Y38711500D01*
X23168418Y38711500D02*
X23170318Y38709600D01*
%TO.N,+5VP*%
X17785518Y36316482D02*
X17785518Y39745482D01*
D38*
%TO.N,GND*%
X15626518Y35808482D02*
X15626518Y34411482D01*
X15494000Y18288000D02*
X15494000Y18351500D01*
X15494000Y18351500D02*
X15494000Y19812000D01*
X15494000Y18351500D02*
X15494000Y18351500D01*
X15494000Y16764000D02*
X15494000Y16891000D01*
X15494000Y16891000D02*
X15494000Y18288000D01*
X15494000Y16700500D02*
X15494000Y16764000D01*
D37*
%TO.N,+5V*%
X17780000Y18796000D02*
X17780000Y22225000D01*
%TD*%
%TA.AperFunction,Conductor*%
%TO.N,GND*%
G36*
X41993057Y58019315D02*
G01*
X42038812Y57966511D01*
X42050018Y57915000D01*
X42050018Y7616910D01*
X42030333Y7549871D01*
X41977529Y7504116D01*
X41926041Y7492910D01*
X41175113Y7492771D01*
X41108070Y7512443D01*
X41062305Y7565239D01*
X41052349Y7634395D01*
X41081362Y7697956D01*
X41087410Y7704453D01*
X41119654Y7736697D01*
X41119657Y7736700D01*
X41229150Y7900568D01*
X41304569Y8082647D01*
X41317150Y8145900D01*
X41343018Y8275939D01*
X41343018Y8473026D01*
X41304570Y8666312D01*
X41304569Y8666313D01*
X41304569Y8666317D01*
X41255203Y8785499D01*
X41229153Y8848390D01*
X41229146Y8848403D01*
X41119657Y9012264D01*
X41119654Y9012268D01*
X40980303Y9151619D01*
X40980299Y9151622D01*
X40816438Y9261111D01*
X40816425Y9261118D01*
X40634357Y9336532D01*
X40634347Y9336535D01*
X40441061Y9374982D01*
X40441059Y9374982D01*
X39443977Y9374982D01*
X39443975Y9374982D01*
X39250688Y9336535D01*
X39250678Y9336532D01*
X39068610Y9261118D01*
X39068597Y9261111D01*
X38904736Y9151622D01*
X38904732Y9151619D01*
X38765381Y9012268D01*
X38765378Y9012264D01*
X38655889Y8848403D01*
X38655882Y8848390D01*
X38580468Y8666322D01*
X38580465Y8666312D01*
X38542018Y8473026D01*
X38542018Y8473023D01*
X38542018Y8275941D01*
X38542018Y8275939D01*
X38542017Y8275939D01*
X38580465Y8082653D01*
X38580468Y8082643D01*
X38655882Y7900575D01*
X38655889Y7900562D01*
X38765378Y7736701D01*
X38765381Y7736697D01*
X38798082Y7703996D01*
X38831567Y7642673D01*
X38826583Y7572981D01*
X38784711Y7517048D01*
X38719247Y7492631D01*
X38710424Y7492315D01*
X37144368Y7492026D01*
X37077325Y7511698D01*
X37031560Y7564494D01*
X37021604Y7633650D01*
X37050617Y7697211D01*
X37056665Y7703708D01*
X37089654Y7736697D01*
X37089657Y7736700D01*
X37199150Y7900568D01*
X37274569Y8082647D01*
X37287150Y8145900D01*
X37313018Y8275939D01*
X37313018Y8473026D01*
X37274570Y8666312D01*
X37274569Y8666313D01*
X37274569Y8666317D01*
X37225203Y8785499D01*
X37199153Y8848390D01*
X37199146Y8848403D01*
X37089657Y9012264D01*
X37089654Y9012268D01*
X36950303Y9151619D01*
X36950299Y9151622D01*
X36786438Y9261111D01*
X36786425Y9261118D01*
X36604357Y9336532D01*
X36604347Y9336535D01*
X36411061Y9374982D01*
X36411059Y9374982D01*
X36283324Y9374982D01*
X36216285Y9394667D01*
X36170530Y9447471D01*
X36160586Y9516629D01*
X36189611Y9580185D01*
X36216284Y9603297D01*
X36326543Y9674157D01*
X36379347Y9719912D01*
X36473567Y9828646D01*
X36533338Y9959523D01*
X36553023Y10026562D01*
X36553024Y10026566D01*
X36573500Y10168982D01*
X36573500Y10494206D01*
X36559712Y10611464D01*
X36546368Y10667421D01*
X36505758Y10778280D01*
X36423217Y10896130D01*
X36375398Y10947072D01*
X36375397Y10947073D01*
X36375396Y10947074D01*
X36305017Y11003317D01*
X36264935Y11060546D01*
X36259490Y11084000D01*
X36247144Y11177777D01*
X36250207Y11178181D01*
X36250207Y11210784D01*
X36247144Y11211187D01*
X36248205Y11219246D01*
X36263018Y11331762D01*
X36263018Y11557202D01*
X36248205Y11669718D01*
X36248204Y11669719D01*
X36247144Y11677777D01*
X36250207Y11678181D01*
X36250207Y11710784D01*
X36247144Y11711187D01*
X36251961Y11747777D01*
X36263018Y11831762D01*
X36263018Y12057202D01*
X36248205Y12169718D01*
X36248204Y12169719D01*
X36247144Y12177777D01*
X36250207Y12178181D01*
X36250207Y12210784D01*
X36247144Y12211187D01*
X36250144Y12233976D01*
X36263018Y12331762D01*
X36263018Y12557202D01*
X36248205Y12669718D01*
X36248204Y12669719D01*
X36247144Y12677777D01*
X36250207Y12678181D01*
X36250207Y12710784D01*
X36247144Y12711187D01*
X36259344Y12803858D01*
X36263018Y12831762D01*
X36263018Y13057202D01*
X36248205Y13169718D01*
X36248204Y13169719D01*
X36247144Y13177777D01*
X36250207Y13178181D01*
X36250207Y13210784D01*
X36247144Y13211187D01*
X36248205Y13219246D01*
X36263018Y13331762D01*
X36263018Y13557202D01*
X36248205Y13669718D01*
X36248204Y13669719D01*
X36247144Y13677777D01*
X36250207Y13678181D01*
X36250207Y13710784D01*
X36247144Y13711187D01*
X36248205Y13719246D01*
X36263018Y13831762D01*
X36263018Y14057202D01*
X36248205Y14169718D01*
X36248204Y14169719D01*
X36247144Y14177777D01*
X36250207Y14178181D01*
X36250207Y14210783D01*
X36247144Y14211186D01*
X36248886Y14224425D01*
X36259443Y14304608D01*
X36287708Y14368502D01*
X36315338Y14392734D01*
X36326543Y14399934D01*
X36379347Y14445689D01*
X36473567Y14554423D01*
X36533338Y14685300D01*
X36553023Y14752339D01*
X36553024Y14752343D01*
X36573500Y14894759D01*
X36573500Y15219982D01*
X36561947Y15327438D01*
X36550741Y15378949D01*
X36537145Y15419798D01*
X36516616Y15481480D01*
X36516613Y15481486D01*
X36508116Y15494707D01*
X36438825Y15602525D01*
X36438820Y15602531D01*
X36393076Y15655323D01*
X36393072Y15655326D01*
X36393070Y15655329D01*
X36284336Y15749549D01*
X36284334Y15749550D01*
X36284333Y15749551D01*
X36223817Y15777188D01*
X36171014Y15822944D01*
X36151330Y15889983D01*
X36171015Y15957022D01*
X36223820Y16002777D01*
X36275330Y16013982D01*
X36411061Y16013982D01*
X36541100Y16039850D01*
X36604353Y16052431D01*
X36786432Y16127850D01*
X36950300Y16237343D01*
X37089657Y16376700D01*
X37199150Y16540568D01*
X37274569Y16722647D01*
X37313018Y16915939D01*
X38542017Y16915939D01*
X38580465Y16722653D01*
X38580468Y16722643D01*
X38655882Y16540575D01*
X38655889Y16540562D01*
X38765378Y16376701D01*
X38765381Y16376697D01*
X38904732Y16237346D01*
X38904736Y16237343D01*
X39068597Y16127854D01*
X39068610Y16127847D01*
X39250678Y16052433D01*
X39250683Y16052431D01*
X39250687Y16052431D01*
X39250688Y16052430D01*
X39443974Y16013982D01*
X39443977Y16013982D01*
X40441061Y16013982D01*
X40571100Y16039850D01*
X40634353Y16052431D01*
X40816432Y16127850D01*
X40980300Y16237343D01*
X41119657Y16376700D01*
X41229150Y16540568D01*
X41304569Y16722647D01*
X41343018Y16915941D01*
X41343018Y17113023D01*
X41343018Y17113026D01*
X41304570Y17306312D01*
X41304569Y17306313D01*
X41304569Y17306317D01*
X41297315Y17323831D01*
X41229153Y17488390D01*
X41229146Y17488403D01*
X41119657Y17652264D01*
X41119654Y17652268D01*
X40980303Y17791619D01*
X40980299Y17791622D01*
X40816438Y17901111D01*
X40816425Y17901118D01*
X40634357Y17976532D01*
X40634347Y17976535D01*
X40441061Y18014982D01*
X40441059Y18014982D01*
X39443977Y18014982D01*
X39443975Y18014982D01*
X39250688Y17976535D01*
X39250678Y17976532D01*
X39068610Y17901118D01*
X39068597Y17901111D01*
X38904736Y17791622D01*
X38904732Y17791619D01*
X38765381Y17652268D01*
X38765378Y17652264D01*
X38655889Y17488403D01*
X38655882Y17488390D01*
X38580468Y17306322D01*
X38580465Y17306312D01*
X38542018Y17113026D01*
X38542018Y17113023D01*
X38542018Y16915941D01*
X38542018Y16915939D01*
X38542017Y16915939D01*
X37313018Y16915939D01*
X37313018Y16915941D01*
X37313018Y17113023D01*
X37313018Y17113026D01*
X37274570Y17306312D01*
X37274569Y17306313D01*
X37274569Y17306317D01*
X37267315Y17323831D01*
X37199153Y17488390D01*
X37199146Y17488403D01*
X37089657Y17652264D01*
X37089654Y17652268D01*
X36950303Y17791619D01*
X36950299Y17791622D01*
X36786438Y17901111D01*
X36786425Y17901118D01*
X36604357Y17976532D01*
X36604347Y17976535D01*
X36411061Y18014982D01*
X36411059Y18014982D01*
X35113977Y18014982D01*
X35113975Y18014982D01*
X34920688Y17976535D01*
X34920678Y17976532D01*
X34738610Y17901118D01*
X34738597Y17901111D01*
X34574736Y17791622D01*
X34451214Y17668100D01*
X34389891Y17634616D01*
X34320199Y17639600D01*
X34283570Y17661009D01*
X32770101Y18937998D01*
X32731558Y18996273D01*
X32730640Y19066137D01*
X32767639Y19125407D01*
X32810204Y19150187D01*
X33030095Y19224830D01*
X33294683Y19355310D01*
X33539975Y19519209D01*
X33761776Y19713724D01*
X33956291Y19935525D01*
X34120190Y20180817D01*
X34250670Y20445405D01*
X34345499Y20724760D01*
X34403052Y21014102D01*
X34422347Y21308482D01*
X34422347Y21308490D01*
X34403053Y21602846D01*
X34403052Y21602862D01*
X34345499Y21892204D01*
X34250670Y22171559D01*
X34120190Y22436146D01*
X33956291Y22681439D01*
X33913673Y22730035D01*
X33761776Y22903241D01*
X33539973Y23097757D01*
X33294685Y23261653D01*
X33294678Y23261657D01*
X33030098Y23392133D01*
X32750748Y23486961D01*
X32750742Y23486963D01*
X32750740Y23486963D01*
X32461398Y23544516D01*
X32461391Y23544517D01*
X32461381Y23544518D01*
X32167025Y23563811D01*
X32167011Y23563811D01*
X31872654Y23544518D01*
X31872642Y23544517D01*
X31872638Y23544516D01*
X31872630Y23544515D01*
X31872627Y23544514D01*
X31583301Y23486964D01*
X31583287Y23486961D01*
X31303937Y23392133D01*
X31164344Y23323293D01*
X31095512Y23311297D01*
X31031121Y23338418D01*
X30991615Y23396047D01*
X30985500Y23434505D01*
X30985500Y26182432D01*
X30983683Y26225237D01*
X30981906Y26246145D01*
X30976470Y26288659D01*
X30932255Y26425569D01*
X30932253Y26425575D01*
X30901493Y26488420D01*
X30900754Y26489479D01*
X30820537Y26607243D01*
X30783949Y26637270D01*
X30759208Y26657575D01*
X30719874Y26715321D01*
X30714345Y26764236D01*
X30724341Y26878482D01*
X30724341Y26878485D01*
X30705088Y27098545D01*
X30705088Y27098550D01*
X30647912Y27311932D01*
X30554552Y27512143D01*
X30427844Y27693102D01*
X30427842Y27693105D01*
X30330145Y27790802D01*
X30296660Y27852125D01*
X30301644Y27921817D01*
X30330141Y27966160D01*
X30427844Y28063862D01*
X30554552Y28244820D01*
X30647912Y28445032D01*
X30705088Y28658414D01*
X30724341Y28878482D01*
X30720257Y28925158D01*
X30707091Y29075656D01*
X30705088Y29098550D01*
X30647912Y29311932D01*
X30554552Y29512143D01*
X30427844Y29693102D01*
X30271638Y29849308D01*
X30271634Y29849311D01*
X30271633Y29849312D01*
X30090684Y29976014D01*
X30090681Y29976016D01*
X30090680Y29976016D01*
X30042709Y29998386D01*
X30004126Y30016377D01*
X29951687Y30062550D01*
X29932535Y30129743D01*
X29952751Y30196624D01*
X30004127Y30241142D01*
X30020867Y30248948D01*
X29457019Y30812797D01*
X29457018Y30812797D01*
X28893166Y30248947D01*
X28909909Y30241140D01*
X28962348Y30194968D01*
X28981500Y30127774D01*
X28961284Y30060893D01*
X28909909Y30016376D01*
X28823358Y29976017D01*
X28823356Y29976016D01*
X28642395Y29849307D01*
X28486193Y29693105D01*
X28359484Y29512144D01*
X28359483Y29512142D01*
X28266125Y29311934D01*
X28266122Y29311928D01*
X28208948Y29098553D01*
X28208947Y29098545D01*
X28189695Y28878485D01*
X28189695Y28878480D01*
X28201947Y28738433D01*
X28188180Y28669933D01*
X28145258Y28625627D01*
X28202702Y28599393D01*
X28240476Y28540615D01*
X28241274Y28537773D01*
X28266121Y28445040D01*
X28266123Y28445036D01*
X28266124Y28445032D01*
X28359484Y28244820D01*
X28359486Y28244816D01*
X28486188Y28063867D01*
X28486193Y28063861D01*
X28583891Y27966163D01*
X28617376Y27904840D01*
X28612392Y27835148D01*
X28583892Y27790803D01*
X28535493Y27742403D01*
X28502343Y27709253D01*
X28441019Y27675769D01*
X28397017Y27674197D01*
X28332309Y27683500D01*
X28332306Y27683500D01*
X28114587Y27683500D01*
X28047548Y27703185D01*
X28001793Y27755989D01*
X27991229Y27820102D01*
X27997499Y27881482D01*
X27997500Y27881491D01*
X27997499Y28505681D01*
X28017183Y28572719D01*
X28058438Y28608468D01*
X28005693Y28627193D01*
X27962939Y28682455D01*
X27960713Y28688622D01*
X27937128Y28759797D01*
X27931814Y28775834D01*
X27839712Y28925156D01*
X27745695Y29019173D01*
X27712210Y29080496D01*
X27717194Y29150188D01*
X27745695Y29194536D01*
X27839317Y29288158D01*
X27931356Y29437376D01*
X27931358Y29437381D01*
X27986505Y29603803D01*
X27988058Y29619000D01*
X25605942Y29619000D01*
X25607494Y29603803D01*
X25654990Y29460471D01*
X25657392Y29390643D01*
X25621660Y29330601D01*
X25559140Y29299408D01*
X25498280Y29303761D01*
X25473634Y29311928D01*
X25367797Y29346999D01*
X25367795Y29347000D01*
X25265010Y29357500D01*
X24264998Y29357500D01*
X24264980Y29357499D01*
X24162203Y29347000D01*
X24162200Y29346999D01*
X23995668Y29291815D01*
X23995663Y29291813D01*
X23846342Y29199711D01*
X23722289Y29075658D01*
X23630187Y28926337D01*
X23630185Y28926332D01*
X23614330Y28878485D01*
X23575001Y28759797D01*
X23575001Y28759796D01*
X23575000Y28759796D01*
X23564500Y28657017D01*
X23564500Y28031999D01*
X23564501Y28031981D01*
X23575000Y27929204D01*
X23577448Y27921817D01*
X23602405Y27846504D01*
X23604807Y27776676D01*
X23569076Y27716634D01*
X23506555Y27685441D01*
X23484699Y27683500D01*
X18739507Y27683500D01*
X18672468Y27703185D01*
X18633968Y27742403D01*
X18621470Y27762666D01*
X18556712Y27867656D01*
X18432656Y27991712D01*
X18315682Y28063862D01*
X18283336Y28083813D01*
X18283331Y28083815D01*
X18281862Y28084302D01*
X18116797Y28138999D01*
X18116795Y28139000D01*
X18014010Y28149500D01*
X17413998Y28149500D01*
X17413980Y28149499D01*
X17311203Y28139000D01*
X17311200Y28138999D01*
X17144668Y28083815D01*
X17144663Y28083813D01*
X16995342Y27991711D01*
X16871288Y27867657D01*
X16871283Y27867651D01*
X16869241Y27864339D01*
X16867247Y27862547D01*
X16866807Y27861989D01*
X16866711Y27862065D01*
X16817291Y27817617D01*
X16748328Y27806398D01*
X16684247Y27834245D01*
X16658168Y27864344D01*
X16656319Y27867341D01*
X16656316Y27867345D01*
X16532345Y27991316D01*
X16383124Y28083357D01*
X16383119Y28083359D01*
X16216695Y28138506D01*
X16214000Y28138782D01*
X16214000Y25709220D01*
X16216694Y25709495D01*
X16216701Y25709496D01*
X16383119Y25764642D01*
X16383124Y25764644D01*
X16532345Y25856685D01*
X16656318Y25980658D01*
X16658165Y25983652D01*
X16659969Y25985276D01*
X16660798Y25986323D01*
X16660976Y25986182D01*
X16710110Y26030379D01*
X16779073Y26041604D01*
X16843156Y26013764D01*
X16869243Y25983659D01*
X16871288Y25980344D01*
X16871289Y25980343D01*
X16989699Y25861933D01*
X17023184Y25800610D01*
X17026018Y25774252D01*
X17026018Y24945000D01*
X17006333Y24877961D01*
X16953529Y24832206D01*
X16902019Y24821000D01*
X16779630Y24821000D01*
X16779623Y24820999D01*
X16720018Y24814592D01*
X16679616Y24799523D01*
X16609924Y24794540D01*
X16592952Y24799524D01*
X16553880Y24814097D01*
X16553872Y24814099D01*
X16494344Y24820500D01*
X14751000Y24820500D01*
X14751000Y21915500D01*
X16203001Y21915500D01*
X16270040Y21895815D01*
X16315795Y21843011D01*
X16327001Y21791500D01*
X16327001Y20081624D01*
X16333408Y20022017D01*
X16383702Y19887172D01*
X16383706Y19887165D01*
X16469952Y19771956D01*
X16469955Y19771953D01*
X16585164Y19685707D01*
X16585173Y19685702D01*
X16651438Y19660987D01*
X16707372Y19619116D01*
X16731790Y19553652D01*
X16724289Y19501474D01*
X16714408Y19474983D01*
X16708001Y19415384D01*
X16708000Y19415365D01*
X16708000Y18176630D01*
X16708001Y18176624D01*
X16714408Y18117017D01*
X16764702Y17982172D01*
X16764706Y17982165D01*
X16850952Y17866956D01*
X16850955Y17866953D01*
X16966164Y17780707D01*
X16966171Y17780703D01*
X16997060Y17769182D01*
X17052994Y17727311D01*
X17077411Y17661847D01*
X17062559Y17593574D01*
X17013154Y17544168D01*
X16997060Y17536818D01*
X16966171Y17525298D01*
X16966164Y17525294D01*
X16850955Y17439048D01*
X16850952Y17439045D01*
X16764706Y17323836D01*
X16764702Y17323829D01*
X16714408Y17188983D01*
X16708001Y17129384D01*
X16708001Y17129377D01*
X16708000Y17129365D01*
X16708000Y15890630D01*
X16708001Y15890624D01*
X16714408Y15831017D01*
X16764702Y15696172D01*
X16764706Y15696165D01*
X16850952Y15580956D01*
X16850955Y15580953D01*
X16966164Y15494707D01*
X16966171Y15494703D01*
X16997060Y15483182D01*
X17052994Y15441311D01*
X17077411Y15375847D01*
X17062559Y15307574D01*
X17013154Y15258168D01*
X16997060Y15250818D01*
X16966171Y15239298D01*
X16966164Y15239294D01*
X16850955Y15153048D01*
X16850952Y15153045D01*
X16764706Y15037836D01*
X16764702Y15037829D01*
X16753182Y15006940D01*
X16711311Y14951006D01*
X16645847Y14926589D01*
X16577574Y14941441D01*
X16528168Y14990846D01*
X16520818Y15006940D01*
X16509297Y15037829D01*
X16509293Y15037836D01*
X16423047Y15153045D01*
X16423044Y15153048D01*
X16307835Y15239294D01*
X16307828Y15239298D01*
X16172982Y15289592D01*
X16172983Y15289592D01*
X16113383Y15295999D01*
X16113381Y15296000D01*
X16113373Y15296000D01*
X16113364Y15296000D01*
X14874629Y15296000D01*
X14874623Y15295999D01*
X14815016Y15289592D01*
X14680171Y15239298D01*
X14680164Y15239294D01*
X14564955Y15153048D01*
X14564952Y15153045D01*
X14478706Y15037836D01*
X14478701Y15037826D01*
X14466914Y15006224D01*
X14425042Y14950291D01*
X14359578Y14925875D01*
X14291305Y14940727D01*
X14241900Y14990133D01*
X14234551Y15006226D01*
X14222854Y15037587D01*
X14222850Y15037594D01*
X14136690Y15152688D01*
X14136687Y15152691D01*
X14021593Y15238851D01*
X14021586Y15238855D01*
X13886879Y15289097D01*
X13886872Y15289099D01*
X13827344Y15295500D01*
X13608000Y15295500D01*
X13608000Y13152500D01*
X13827328Y13152500D01*
X13827344Y13152501D01*
X13886872Y13158902D01*
X13886879Y13158904D01*
X14021586Y13209146D01*
X14021593Y13209150D01*
X14136687Y13295310D01*
X14136690Y13295313D01*
X14222850Y13410407D01*
X14222855Y13410416D01*
X14234551Y13441774D01*
X14276421Y13497708D01*
X14341885Y13522126D01*
X14410158Y13507275D01*
X14459564Y13457870D01*
X14466915Y13441776D01*
X14478703Y13410170D01*
X14478706Y13410165D01*
X14564952Y13294956D01*
X14564955Y13294953D01*
X14680164Y13208707D01*
X14680171Y13208703D01*
X14815017Y13158409D01*
X14815016Y13158409D01*
X14821944Y13157665D01*
X14874627Y13152000D01*
X15648000Y13152001D01*
X15715039Y13132317D01*
X15760794Y13079513D01*
X15772000Y13028001D01*
X15772000Y11929230D01*
X15752315Y11862191D01*
X15735681Y11841549D01*
X15734789Y11840658D01*
X15642687Y11691337D01*
X15642685Y11691332D01*
X15636715Y11673316D01*
X15587501Y11524797D01*
X15587501Y11524796D01*
X15587500Y11524796D01*
X15577000Y11422017D01*
X15577000Y10421999D01*
X15577001Y10421981D01*
X15587500Y10319204D01*
X15587501Y10319201D01*
X15635863Y10173257D01*
X15642686Y10152666D01*
X15734788Y10003344D01*
X15858844Y9879288D01*
X16008166Y9787186D01*
X16174703Y9732001D01*
X16277491Y9721500D01*
X16902508Y9721501D01*
X16902516Y9721502D01*
X16902519Y9721502D01*
X16958802Y9727252D01*
X17005297Y9732001D01*
X17171834Y9787186D01*
X17293418Y9862180D01*
X17360809Y9880620D01*
X17427473Y9859698D01*
X17472243Y9806056D01*
X17480904Y9736725D01*
X17464054Y9691546D01*
X17444188Y9659339D01*
X17444186Y9659334D01*
X17389001Y9492797D01*
X17389001Y9492796D01*
X17389000Y9492796D01*
X17378500Y9390017D01*
X17378500Y8389999D01*
X17378501Y8389981D01*
X17389000Y8287204D01*
X17389001Y8287201D01*
X17438346Y8138290D01*
X17444186Y8120666D01*
X17536288Y7971344D01*
X17660344Y7847288D01*
X17809666Y7755186D01*
X17885185Y7730162D01*
X17942628Y7690391D01*
X17969452Y7625876D01*
X17957137Y7557100D01*
X17909595Y7505899D01*
X17846203Y7488457D01*
X12702839Y7487505D01*
X12635796Y7507177D01*
X12590031Y7559973D01*
X12578816Y7611800D01*
X12588589Y11678181D01*
X12591835Y13028798D01*
X12611681Y13095790D01*
X12664595Y13141418D01*
X12715835Y13152500D01*
X12808000Y13152500D01*
X12808000Y15295500D01*
X12721581Y15295500D01*
X12654542Y15315185D01*
X12608787Y15367989D01*
X12597581Y15419798D01*
X12612893Y21791798D01*
X12632739Y21858790D01*
X12685653Y21904418D01*
X12736893Y21915500D01*
X13951000Y21915500D01*
X13951000Y24820500D01*
X12744471Y24820500D01*
X12677432Y24840185D01*
X12631677Y24892989D01*
X12620471Y24944798D01*
X12621081Y25198995D01*
X12622307Y25709220D01*
X13288000Y25709220D01*
X13290694Y25709495D01*
X13290701Y25709496D01*
X13457119Y25764642D01*
X13457124Y25764644D01*
X13606345Y25856685D01*
X13730315Y25980655D01*
X13822356Y26129876D01*
X13822358Y26129881D01*
X13877505Y26296303D01*
X13877506Y26296310D01*
X13887999Y26399014D01*
X14814001Y26399014D01*
X14824494Y26296303D01*
X14879641Y26129881D01*
X14879643Y26129876D01*
X14971684Y25980655D01*
X15095654Y25856685D01*
X15244875Y25764644D01*
X15244880Y25764642D01*
X15411298Y25709496D01*
X15411305Y25709495D01*
X15414000Y25709220D01*
X15414000Y26524000D01*
X14814001Y26524000D01*
X14814001Y26399014D01*
X13887999Y26399014D01*
X13888000Y26399027D01*
X13888000Y26524000D01*
X13288000Y26524000D01*
X13288000Y25709220D01*
X12622307Y25709220D01*
X12626188Y27324000D01*
X13288000Y27324000D01*
X13887999Y27324000D01*
X13887999Y27448972D01*
X13887998Y27448987D01*
X14814000Y27448987D01*
X14814000Y27324000D01*
X15414000Y27324000D01*
X15414000Y28138782D01*
X15413999Y28138782D01*
X15411305Y28138506D01*
X15411303Y28138506D01*
X15244880Y28083359D01*
X15244875Y28083357D01*
X15095654Y27991316D01*
X14971684Y27867346D01*
X14879643Y27718125D01*
X14879641Y27718120D01*
X14824494Y27551698D01*
X14824493Y27551691D01*
X14814000Y27448987D01*
X13887998Y27448987D01*
X13877505Y27551698D01*
X13822358Y27718120D01*
X13822356Y27718125D01*
X13730315Y27867346D01*
X13606345Y27991316D01*
X13457124Y28083357D01*
X13457119Y28083359D01*
X13290695Y28138506D01*
X13288000Y28138782D01*
X13288000Y27324000D01*
X12626188Y27324000D01*
X12633091Y30196624D01*
X12633939Y30549280D01*
X12653785Y30616272D01*
X12706699Y30661900D01*
X12757939Y30672982D01*
X12813518Y30672982D01*
X12813518Y32815982D01*
X13613518Y32815982D01*
X13613518Y30672982D01*
X13832846Y30672982D01*
X13832862Y30672983D01*
X13892390Y30679384D01*
X13892397Y30679386D01*
X14027104Y30729628D01*
X14027111Y30729632D01*
X14142205Y30815792D01*
X14142208Y30815795D01*
X14228368Y30930889D01*
X14228373Y30930898D01*
X14240069Y30962256D01*
X14281939Y31018190D01*
X14347403Y31042608D01*
X14415676Y31027757D01*
X14465082Y30978352D01*
X14472433Y30962258D01*
X14484221Y30930652D01*
X14484224Y30930647D01*
X14570470Y30815438D01*
X14570473Y30815435D01*
X14685682Y30729189D01*
X14685689Y30729185D01*
X14820535Y30678891D01*
X14820534Y30678891D01*
X14827462Y30678147D01*
X14880145Y30672482D01*
X16118890Y30672483D01*
X16178501Y30678891D01*
X16313349Y30729186D01*
X16428564Y30815436D01*
X16514814Y30930651D01*
X16526336Y30961542D01*
X16568206Y31017476D01*
X16633670Y31041894D01*
X16701943Y31027043D01*
X16751349Y30977638D01*
X16758700Y30961542D01*
X16770219Y30930656D01*
X16770224Y30930647D01*
X16856470Y30815438D01*
X16856473Y30815435D01*
X16971682Y30729189D01*
X16971689Y30729185D01*
X17016636Y30712421D01*
X17106535Y30678891D01*
X17166145Y30672482D01*
X17649327Y30672483D01*
X17716366Y30652799D01*
X17737008Y30636164D01*
X17917051Y30456121D01*
X17917055Y30456118D01*
X18051032Y30366597D01*
X18125463Y30335768D01*
X18125464Y30335767D01*
X18125465Y30335767D01*
X18199898Y30304935D01*
X18357929Y30273501D01*
X18357933Y30273500D01*
X18357934Y30273500D01*
X18519066Y30273500D01*
X20328770Y30273500D01*
X20395809Y30253815D01*
X20416451Y30237181D01*
X20417344Y30236288D01*
X20566666Y30144186D01*
X20733203Y30089001D01*
X20835991Y30078500D01*
X21836008Y30078501D01*
X21836016Y30078502D01*
X21836019Y30078502D01*
X21892302Y30084252D01*
X21938797Y30089001D01*
X22105334Y30144186D01*
X22254656Y30236288D01*
X22378712Y30360344D01*
X22414892Y30419001D01*
X25605941Y30419001D01*
X25605942Y30419000D01*
X26397000Y30419000D01*
X27197000Y30419000D01*
X27988058Y30419000D01*
X27988058Y30419001D01*
X27986505Y30434198D01*
X27931358Y30600620D01*
X27931356Y30600625D01*
X27839315Y30749846D01*
X27715345Y30873816D01*
X27566124Y30965857D01*
X27566119Y30965859D01*
X27399697Y31021006D01*
X27399690Y31021007D01*
X27296986Y31031500D01*
X27197000Y31031500D01*
X27197000Y30419000D01*
X26397000Y30419000D01*
X26397000Y31031501D01*
X26297028Y31031500D01*
X26297012Y31031499D01*
X26194302Y31021006D01*
X26027880Y30965859D01*
X26027875Y30965857D01*
X25878654Y30873816D01*
X25754684Y30749846D01*
X25662643Y30600625D01*
X25662641Y30600620D01*
X25607494Y30434198D01*
X25605941Y30419001D01*
X22414892Y30419001D01*
X22470814Y30509666D01*
X22525999Y30676203D01*
X22536500Y30778991D01*
X22536499Y31378483D01*
X28190197Y31378483D01*
X28190197Y31378482D01*
X28209442Y31158506D01*
X28209444Y31158496D01*
X28266593Y30945212D01*
X28266598Y30945198D01*
X28327481Y30814632D01*
X28327482Y30814632D01*
X28891333Y31378482D01*
X28891333Y31378483D01*
X28830774Y31439042D01*
X28997018Y31439042D01*
X28997018Y31317922D01*
X29028367Y31200929D01*
X29088927Y31096036D01*
X29174572Y31010391D01*
X29279465Y30949831D01*
X29396458Y30918482D01*
X29517578Y30918482D01*
X29634571Y30949831D01*
X29739464Y31010391D01*
X29825109Y31096036D01*
X29885669Y31200929D01*
X29917018Y31317922D01*
X29917018Y31378483D01*
X30022703Y31378483D01*
X30022703Y31378482D01*
X30586552Y30814633D01*
X30647438Y30945203D01*
X30647442Y30945212D01*
X30704591Y31158496D01*
X30704593Y31158506D01*
X30723839Y31378482D01*
X30723839Y31378483D01*
X30704593Y31598459D01*
X30704591Y31598469D01*
X30647442Y31811753D01*
X30647438Y31811762D01*
X30586552Y31942333D01*
X30022703Y31378483D01*
X29917018Y31378483D01*
X29917018Y31439042D01*
X29885669Y31556035D01*
X29825109Y31660928D01*
X29739464Y31746573D01*
X29634571Y31807133D01*
X29517578Y31838482D01*
X29396458Y31838482D01*
X29279465Y31807133D01*
X29174572Y31746573D01*
X29088927Y31660928D01*
X29028367Y31556035D01*
X28997018Y31439042D01*
X28830774Y31439042D01*
X28327481Y31942334D01*
X28266594Y31811755D01*
X28209444Y31598469D01*
X28209442Y31598459D01*
X28190197Y31378483D01*
X22536499Y31378483D01*
X22536499Y31404008D01*
X22525999Y31506797D01*
X22487347Y31623439D01*
X22484946Y31693262D01*
X22520677Y31753305D01*
X22583197Y31784498D01*
X22644056Y31780146D01*
X22765203Y31740001D01*
X22867991Y31729500D01*
X23868008Y31729501D01*
X23868016Y31729502D01*
X23868019Y31729502D01*
X23924302Y31735252D01*
X23970797Y31740001D01*
X24137334Y31795186D01*
X24286656Y31887288D01*
X24305663Y31906296D01*
X24366981Y31939780D01*
X24436673Y31934799D01*
X24475671Y31909737D01*
X24475993Y31910143D01*
X24480133Y31906869D01*
X24481025Y31906296D01*
X24481654Y31905667D01*
X24630875Y31813626D01*
X24630880Y31813624D01*
X24797302Y31758477D01*
X24797309Y31758476D01*
X24900019Y31747983D01*
X25800000Y31747983D01*
X25899972Y31747983D01*
X25899986Y31747984D01*
X26002697Y31758477D01*
X26169119Y31813624D01*
X26169124Y31813626D01*
X26318345Y31905667D01*
X26442315Y32029637D01*
X26534356Y32178858D01*
X26534358Y32178863D01*
X26589505Y32345285D01*
X26591058Y32360482D01*
X25800000Y32360482D01*
X25800000Y31747983D01*
X24900019Y31747983D01*
X25000000Y31747984D01*
X25000000Y32508019D01*
X28893166Y32508019D01*
X29457018Y31944167D01*
X29457019Y31944167D01*
X30020868Y32508018D01*
X30020868Y32508019D01*
X29890302Y32568902D01*
X29890288Y32568907D01*
X29677004Y32626056D01*
X29676994Y32626058D01*
X29457019Y32645303D01*
X29457017Y32645303D01*
X29237041Y32626058D01*
X29237031Y32626056D01*
X29023745Y32568906D01*
X28893166Y32508019D01*
X25000000Y32508019D01*
X25000000Y33036482D01*
X25019685Y33103521D01*
X25072489Y33149276D01*
X25124000Y33160482D01*
X26591058Y33160482D01*
X26591058Y33160483D01*
X26589505Y33175680D01*
X26534358Y33342102D01*
X26534356Y33342107D01*
X26442315Y33491328D01*
X26348695Y33584948D01*
X26315210Y33646271D01*
X26320194Y33715963D01*
X26348691Y33760306D01*
X26442712Y33854326D01*
X26534814Y34003648D01*
X26589999Y34170185D01*
X26600500Y34272973D01*
X26600500Y34448490D01*
X29911689Y34448490D01*
X29911689Y34448475D01*
X29930982Y34154119D01*
X29930983Y34154109D01*
X29930984Y34154102D01*
X29980394Y33905696D01*
X29988536Y33864766D01*
X29988539Y33864752D01*
X30083367Y33585402D01*
X30213843Y33320822D01*
X30213847Y33320815D01*
X30377743Y33075527D01*
X30572259Y32853724D01*
X30794062Y32659208D01*
X31039350Y32495312D01*
X31039353Y32495310D01*
X31303941Y32364830D01*
X31583296Y32270001D01*
X31872638Y32212448D01*
X31900906Y32210596D01*
X32167011Y32193153D01*
X32167018Y32193153D01*
X32167025Y32193153D01*
X32402693Y32208601D01*
X32461398Y32212448D01*
X32750740Y32270001D01*
X33030095Y32364830D01*
X33294683Y32495310D01*
X33539975Y32659209D01*
X33761776Y32853724D01*
X33956291Y33075525D01*
X34120190Y33320817D01*
X34250670Y33585405D01*
X34345499Y33864760D01*
X34403052Y34154102D01*
X34422347Y34448482D01*
X34422347Y34448490D01*
X34403053Y34742846D01*
X34403052Y34742862D01*
X34345499Y35032204D01*
X34250670Y35311559D01*
X34120190Y35576146D01*
X34117281Y35580499D01*
X34039359Y35697118D01*
X33956291Y35821439D01*
X33854294Y35937744D01*
X33761776Y36043241D01*
X33539973Y36237757D01*
X33294685Y36401653D01*
X33294678Y36401657D01*
X33030098Y36532133D01*
X32750748Y36626961D01*
X32750742Y36626963D01*
X32750740Y36626963D01*
X32461398Y36684516D01*
X32461391Y36684517D01*
X32461381Y36684518D01*
X32167025Y36703811D01*
X32167011Y36703811D01*
X31872654Y36684518D01*
X31872642Y36684517D01*
X31872638Y36684516D01*
X31872630Y36684515D01*
X31872627Y36684514D01*
X31583301Y36626964D01*
X31583287Y36626961D01*
X31303937Y36532133D01*
X31039352Y36401654D01*
X30794059Y36237754D01*
X30572259Y36043241D01*
X30377746Y35821441D01*
X30213846Y35576148D01*
X30083367Y35311563D01*
X29988539Y35032213D01*
X29988536Y35032199D01*
X29930986Y34742873D01*
X29930982Y34742846D01*
X29911689Y34448490D01*
X26600500Y34448490D01*
X26600499Y34897990D01*
X26589999Y35000779D01*
X26534814Y35167316D01*
X26442712Y35316638D01*
X26318656Y35440694D01*
X26169334Y35532796D01*
X26002797Y35587981D01*
X26002795Y35587982D01*
X25900010Y35598482D01*
X24899998Y35598482D01*
X24899980Y35598481D01*
X24797203Y35587982D01*
X24797200Y35587981D01*
X24630668Y35532797D01*
X24630663Y35532795D01*
X24481342Y35440693D01*
X24462690Y35422040D01*
X24401367Y35388555D01*
X24331675Y35393539D01*
X24292632Y35418631D01*
X24292319Y35418234D01*
X24288277Y35421430D01*
X24287328Y35422040D01*
X24286657Y35422711D01*
X24286656Y35422712D01*
X24157060Y35502647D01*
X24137336Y35514813D01*
X24137331Y35514815D01*
X24135862Y35515302D01*
X23970797Y35569999D01*
X23970795Y35570000D01*
X23868010Y35580500D01*
X22867998Y35580500D01*
X22867980Y35580499D01*
X22765203Y35570000D01*
X22765200Y35569999D01*
X22598668Y35514815D01*
X22598663Y35514813D01*
X22449342Y35422711D01*
X22325289Y35298658D01*
X22233187Y35149337D01*
X22233186Y35149334D01*
X22178001Y34982797D01*
X22178001Y34982796D01*
X22178000Y34982796D01*
X22167500Y34880017D01*
X22167500Y34254999D01*
X22167501Y34254981D01*
X22178000Y34152204D01*
X22178001Y34152201D01*
X22216651Y34035566D01*
X22219053Y33965738D01*
X22183321Y33905696D01*
X22120801Y33874503D01*
X22059942Y33878856D01*
X21938799Y33918999D01*
X21938795Y33919000D01*
X21836010Y33929500D01*
X20835998Y33929500D01*
X20835980Y33929499D01*
X20733203Y33919000D01*
X20733200Y33918999D01*
X20566668Y33863815D01*
X20566663Y33863813D01*
X20417342Y33771711D01*
X20293289Y33647658D01*
X20201187Y33498337D01*
X20201185Y33498332D01*
X20173349Y33414330D01*
X20146001Y33331797D01*
X20146001Y33331796D01*
X20146000Y33331796D01*
X20135500Y33229017D01*
X20135500Y32603999D01*
X20135501Y32603981D01*
X20146000Y32501204D01*
X20146001Y32501201D01*
X20191512Y32363859D01*
X20201186Y32334666D01*
X20288471Y32193153D01*
X20293289Y32185343D01*
X20357451Y32121181D01*
X20390936Y32059858D01*
X20385952Y31990166D01*
X20344080Y31934233D01*
X20278616Y31909816D01*
X20269770Y31909500D01*
X18981517Y31909500D01*
X18914478Y31929185D01*
X18868723Y31981989D01*
X18857517Y32033500D01*
X18857517Y32363853D01*
X18857516Y32363859D01*
X18857411Y32364832D01*
X18851109Y32423465D01*
X18837031Y32461209D01*
X18800815Y32558311D01*
X18800811Y32558318D01*
X18714565Y32673527D01*
X18714562Y32673530D01*
X18599353Y32759776D01*
X18599344Y32759781D01*
X18568458Y32771300D01*
X18512524Y32813170D01*
X18488106Y32878634D01*
X18502957Y32946907D01*
X18552362Y32996313D01*
X18568458Y33003664D01*
X18599344Y33015184D01*
X18599344Y33015185D01*
X18599349Y33015186D01*
X18714564Y33101436D01*
X18800814Y33216651D01*
X18851109Y33351499D01*
X18857518Y33411109D01*
X18857517Y34649854D01*
X18851109Y34709465D01*
X18800814Y34844313D01*
X18800813Y34844314D01*
X18800811Y34844318D01*
X18714565Y34959527D01*
X18714562Y34959530D01*
X18599353Y35045776D01*
X18599344Y35045781D01*
X18568458Y35057300D01*
X18512524Y35099170D01*
X18488106Y35164634D01*
X18502957Y35232907D01*
X18552362Y35282313D01*
X18568458Y35289664D01*
X18599344Y35301184D01*
X18599344Y35301185D01*
X18599349Y35301186D01*
X18714564Y35387436D01*
X18800814Y35502651D01*
X18851109Y35637499D01*
X18857518Y35697109D01*
X18857517Y36484600D01*
X21979260Y36484600D01*
X21980812Y36469403D01*
X22035959Y36302981D01*
X22035961Y36302976D01*
X22128002Y36153755D01*
X22251972Y36029785D01*
X22401193Y35937744D01*
X22401198Y35937742D01*
X22567620Y35882595D01*
X22567627Y35882594D01*
X22670337Y35872101D01*
X23570318Y35872101D01*
X23670290Y35872101D01*
X23670304Y35872102D01*
X23773015Y35882595D01*
X23939437Y35937742D01*
X23939442Y35937744D01*
X24088663Y36029785D01*
X24212633Y36153755D01*
X24304674Y36302976D01*
X24304676Y36302981D01*
X24359823Y36469403D01*
X24361376Y36484600D01*
X23570318Y36484600D01*
X23570318Y35872101D01*
X22670337Y35872101D01*
X22770318Y35872102D01*
X22770318Y36484600D01*
X21979260Y36484600D01*
X18857517Y36484600D01*
X18857517Y36935854D01*
X18851109Y36995465D01*
X18841230Y37021953D01*
X18836245Y37091644D01*
X18869729Y37152968D01*
X18914079Y37181469D01*
X18980344Y37206184D01*
X18980344Y37206185D01*
X18980349Y37206186D01*
X19095564Y37292436D01*
X19181814Y37407651D01*
X19232109Y37542499D01*
X19238518Y37602109D01*
X19238517Y39497893D01*
X19258202Y39564931D01*
X19311005Y39610686D01*
X19362469Y39621892D01*
X19984082Y39622121D01*
X20051127Y39602461D01*
X20096901Y39549674D01*
X20106870Y39480519D01*
X20089665Y39433025D01*
X20003507Y39293341D01*
X20003503Y39293332D01*
X19975667Y39209330D01*
X19948319Y39126797D01*
X19948319Y39126796D01*
X19948318Y39126796D01*
X19937818Y39024017D01*
X19937818Y38398999D01*
X19937819Y38398981D01*
X19948318Y38296204D01*
X19948319Y38296201D01*
X19975288Y38214815D01*
X20003504Y38129666D01*
X20095606Y37980344D01*
X20219662Y37856288D01*
X20368984Y37764186D01*
X20535521Y37709001D01*
X20638309Y37698500D01*
X21638326Y37698501D01*
X21638334Y37698502D01*
X21638337Y37698502D01*
X21694620Y37704252D01*
X21741115Y37709001D01*
X21907652Y37764186D01*
X21968817Y37801913D01*
X22036206Y37820353D01*
X22102870Y37799431D01*
X22147640Y37745790D01*
X22156302Y37676459D01*
X22131183Y37619469D01*
X22128004Y37615449D01*
X22035961Y37466225D01*
X22035959Y37466220D01*
X21980812Y37299798D01*
X21979259Y37284601D01*
X21979260Y37284600D01*
X24361376Y37284600D01*
X24361376Y37284601D01*
X24359823Y37299798D01*
X24304676Y37466220D01*
X24304674Y37466225D01*
X24212633Y37615446D01*
X24119013Y37709066D01*
X24085528Y37770389D01*
X24090512Y37840081D01*
X24119009Y37884424D01*
X24213030Y37978444D01*
X24305132Y38127766D01*
X24360317Y38294303D01*
X24370818Y38397091D01*
X24370817Y39022108D01*
X24360317Y39124897D01*
X24305132Y39291434D01*
X24303961Y39293332D01*
X24216813Y39434623D01*
X24198373Y39502015D01*
X24219296Y39568678D01*
X24272938Y39613448D01*
X24322301Y39623719D01*
X24892198Y39623929D01*
X24959243Y39604269D01*
X25005017Y39551482D01*
X25015976Y39491820D01*
X25006190Y39342489D01*
X25006189Y39342475D01*
X25025482Y39048119D01*
X25025483Y39048109D01*
X25025484Y39048102D01*
X25025486Y39048092D01*
X25083036Y38758766D01*
X25083039Y38758752D01*
X25177867Y38479402D01*
X25308343Y38214822D01*
X25308347Y38214815D01*
X25472243Y37969527D01*
X25666759Y37747724D01*
X25888562Y37553208D01*
X26018749Y37466220D01*
X26133853Y37389310D01*
X26398441Y37258830D01*
X26677796Y37164001D01*
X26967138Y37106448D01*
X26995406Y37104596D01*
X27261511Y37087153D01*
X27261518Y37087153D01*
X27261525Y37087153D01*
X27497193Y37102601D01*
X27555898Y37106448D01*
X27845240Y37164001D01*
X28124595Y37258830D01*
X28389183Y37389310D01*
X28634475Y37553209D01*
X28856276Y37747724D01*
X29050791Y37969525D01*
X29214690Y38214817D01*
X29345170Y38479405D01*
X29439999Y38758760D01*
X29497552Y39048102D01*
X29501399Y39106807D01*
X29516847Y39342475D01*
X29516847Y39342489D01*
X29506944Y39493563D01*
X29522201Y39561747D01*
X29571899Y39610857D01*
X29630631Y39625674D01*
X30572335Y39626022D01*
X30639380Y39606362D01*
X30685154Y39553575D01*
X30696114Y39493913D01*
X30686190Y39342489D01*
X30686189Y39342476D01*
X30686189Y39342475D01*
X30705482Y39048119D01*
X30705483Y39048109D01*
X30705484Y39048102D01*
X30705486Y39048092D01*
X30763036Y38758766D01*
X30763039Y38758752D01*
X30857867Y38479402D01*
X30988343Y38214822D01*
X30988347Y38214815D01*
X31152243Y37969527D01*
X31346759Y37747724D01*
X31568562Y37553208D01*
X31698749Y37466220D01*
X31813853Y37389310D01*
X32078441Y37258830D01*
X32357796Y37164001D01*
X32647138Y37106448D01*
X32675406Y37104596D01*
X32941511Y37087153D01*
X32941518Y37087153D01*
X32941525Y37087153D01*
X33177193Y37102601D01*
X33235898Y37106448D01*
X33525240Y37164001D01*
X33804595Y37258830D01*
X34069183Y37389310D01*
X34314475Y37553209D01*
X34536276Y37747724D01*
X34730791Y37969525D01*
X34894690Y38214817D01*
X35025170Y38479405D01*
X35119999Y38758760D01*
X35177552Y39048102D01*
X35181399Y39106807D01*
X35196847Y39342475D01*
X35196847Y39342490D01*
X35178397Y39623977D01*
X35177552Y39636862D01*
X35119999Y39926204D01*
X35025170Y40205559D01*
X34894690Y40470146D01*
X34730791Y40715439D01*
X34688173Y40764035D01*
X34536276Y40937241D01*
X34314473Y41131757D01*
X34069185Y41295653D01*
X34069178Y41295657D01*
X33804598Y41426133D01*
X33525248Y41520961D01*
X33525242Y41520963D01*
X33525240Y41520963D01*
X33235898Y41578516D01*
X33235891Y41578517D01*
X33235881Y41578518D01*
X32941525Y41597811D01*
X32941511Y41597811D01*
X32647154Y41578518D01*
X32647141Y41578517D01*
X32647138Y41578516D01*
X32647132Y41578515D01*
X32647126Y41578514D01*
X32533009Y41555815D01*
X32463417Y41562042D01*
X32408240Y41604906D01*
X32384996Y41670796D01*
X32384818Y41677618D01*
X32385135Y41888855D01*
X32387830Y43684584D01*
X32376378Y43792336D01*
X32365191Y43843992D01*
X32331042Y43946818D01*
X32253299Y44067887D01*
X32207564Y44120708D01*
X32207561Y44120711D01*
X32098858Y44214973D01*
X32098857Y44214974D01*
X32098854Y44214976D01*
X31968007Y44274790D01*
X31968004Y44274791D01*
X31900966Y44294502D01*
X31758567Y44315028D01*
X31526976Y44315114D01*
X31459944Y44334824D01*
X31414208Y44387645D01*
X31404291Y44456807D01*
X31410505Y44481539D01*
X31411088Y44483143D01*
X31411093Y44483152D01*
X31467725Y44694505D01*
X31486795Y44912482D01*
X31467725Y45130459D01*
X31411093Y45341812D01*
X31318620Y45540120D01*
X31318618Y45540123D01*
X31318617Y45540125D01*
X31193115Y45719361D01*
X31087674Y45824802D01*
X31054189Y45886125D01*
X31059173Y45955817D01*
X31087670Y46000160D01*
X31193116Y46105605D01*
X31318620Y46284843D01*
X31411093Y46483152D01*
X31467725Y46694505D01*
X31486795Y46912482D01*
X31467725Y47130459D01*
X31421743Y47302066D01*
X31411095Y47341805D01*
X31411094Y47341808D01*
X31411093Y47341812D01*
X31318620Y47540120D01*
X31318618Y47540123D01*
X31318617Y47540125D01*
X31193117Y47719358D01*
X31140474Y47772001D01*
X31038395Y47874080D01*
X30859157Y47999584D01*
X30859158Y47999584D01*
X30859156Y47999585D01*
X30750232Y48050377D01*
X30697793Y48096550D01*
X30678641Y48163743D01*
X30698857Y48230624D01*
X30750233Y48275141D01*
X30786338Y48291977D01*
X30231519Y48846797D01*
X30231518Y48846797D01*
X29676696Y48291977D01*
X29712802Y48275141D01*
X29765242Y48228969D01*
X29784394Y48161776D01*
X29764179Y48094894D01*
X29712804Y48050377D01*
X29603876Y47999582D01*
X29603875Y47999582D01*
X29424639Y47874080D01*
X29269920Y47719361D01*
X29144418Y47540125D01*
X29144416Y47540121D01*
X29051944Y47341814D01*
X29051941Y47341808D01*
X29041293Y47302066D01*
X29004928Y47242406D01*
X28942081Y47211877D01*
X28872705Y47220172D01*
X28818828Y47264657D01*
X28801743Y47302066D01*
X28791094Y47341808D01*
X28791093Y47341812D01*
X28698620Y47540120D01*
X28698618Y47540123D01*
X28698617Y47540125D01*
X28573117Y47719358D01*
X28520474Y47772001D01*
X28418395Y47874080D01*
X28239157Y47999584D01*
X28239158Y47999584D01*
X28239156Y47999585D01*
X28130232Y48050377D01*
X28077793Y48096550D01*
X28058641Y48163743D01*
X28078857Y48230624D01*
X28130233Y48275141D01*
X28166338Y48291977D01*
X27611519Y48846797D01*
X27611518Y48846797D01*
X27056696Y48291977D01*
X27092802Y48275141D01*
X27145242Y48228969D01*
X27164394Y48161776D01*
X27144179Y48094894D01*
X27092804Y48050377D01*
X26983876Y47999582D01*
X26983875Y47999582D01*
X26804639Y47874080D01*
X26649920Y47719361D01*
X26524418Y47540125D01*
X26524416Y47540121D01*
X26431944Y47341814D01*
X26431940Y47341805D01*
X26375311Y47130462D01*
X26375311Y47130458D01*
X26356241Y46912485D01*
X26356241Y46912480D01*
X26375311Y46694507D01*
X26375311Y46694503D01*
X26431940Y46483160D01*
X26431942Y46483156D01*
X26431943Y46483152D01*
X26478179Y46383998D01*
X26524415Y46284844D01*
X26524416Y46284843D01*
X26649920Y46105605D01*
X26649924Y46105601D01*
X26755361Y46000164D01*
X26788846Y45938841D01*
X26783862Y45869149D01*
X26755362Y45824802D01*
X26649918Y45719358D01*
X26524418Y45540125D01*
X26524416Y45540121D01*
X26451163Y45383029D01*
X26435148Y45348684D01*
X26431944Y45341814D01*
X26431940Y45341805D01*
X26375311Y45130462D01*
X26375311Y45130458D01*
X26356241Y44912485D01*
X26356241Y44912480D01*
X26375311Y44694507D01*
X26375311Y44694503D01*
X26433344Y44477922D01*
X26432205Y44477617D01*
X26436270Y44413723D01*
X26402304Y44352665D01*
X26340720Y44319663D01*
X26315269Y44317033D01*
X25929321Y44317175D01*
X25862289Y44336884D01*
X25816554Y44389705D01*
X25806636Y44458867D01*
X25811657Y44480165D01*
X25857436Y44618315D01*
X25867500Y44716826D01*
X25867500Y45250174D01*
X25857436Y45348685D01*
X25804549Y45508287D01*
X25804545Y45508293D01*
X25804544Y45508296D01*
X25716283Y45651388D01*
X25716280Y45651392D01*
X25597391Y45770281D01*
X25597387Y45770284D01*
X25454295Y45858545D01*
X25454289Y45858548D01*
X25454287Y45858549D01*
X25294685Y45911436D01*
X25294683Y45911437D01*
X25196181Y45921500D01*
X25196174Y45921500D01*
X24587826Y45921500D01*
X24587818Y45921500D01*
X24489316Y45911437D01*
X24489315Y45911436D01*
X24329711Y45858549D01*
X24329710Y45858548D01*
X24238782Y45802462D01*
X24173685Y45784000D01*
X23449023Y45784000D01*
X23381984Y45803685D01*
X23336229Y45856489D01*
X23326285Y45925647D01*
X23355310Y45989203D01*
X23361342Y45995681D01*
X23394315Y46028655D01*
X23486356Y46177876D01*
X23486358Y46177881D01*
X23541505Y46344303D01*
X23543058Y46359500D01*
X21160942Y46359500D01*
X21162494Y46344303D01*
X21217641Y46177881D01*
X21217643Y46177876D01*
X21309684Y46028655D01*
X21403304Y45935035D01*
X21436789Y45873712D01*
X21431805Y45804020D01*
X21403305Y45759673D01*
X21309287Y45665655D01*
X21217187Y45516337D01*
X21217185Y45516332D01*
X21215683Y45511798D01*
X21162001Y45349797D01*
X21162001Y45349796D01*
X21162000Y45349796D01*
X21151500Y45247017D01*
X21151500Y44621999D01*
X21151501Y44621981D01*
X21162000Y44519204D01*
X21162002Y44519197D01*
X21174337Y44481972D01*
X21176738Y44412143D01*
X21141006Y44352102D01*
X21078485Y44320910D01*
X21056585Y44318969D01*
X18909971Y44319760D01*
X18842939Y44339469D01*
X18797204Y44392290D01*
X18786017Y44443760D01*
X18786017Y44969484D01*
X18786016Y44969501D01*
X18775517Y45072279D01*
X18775516Y45072282D01*
X18756237Y45130462D01*
X18720332Y45238816D01*
X18628230Y45388138D01*
X18504174Y45512194D01*
X18354852Y45604296D01*
X18188315Y45659481D01*
X18188313Y45659482D01*
X18085528Y45669982D01*
X17485516Y45669982D01*
X17485498Y45669981D01*
X17382721Y45659482D01*
X17382718Y45659481D01*
X17216186Y45604297D01*
X17216181Y45604295D01*
X17066860Y45512193D01*
X16942806Y45388139D01*
X16942801Y45388133D01*
X16940759Y45384821D01*
X16938765Y45383029D01*
X16938325Y45382471D01*
X16938229Y45382547D01*
X16888809Y45338099D01*
X16819846Y45326880D01*
X16755765Y45354727D01*
X16729686Y45384826D01*
X16727837Y45387823D01*
X16727834Y45387827D01*
X16603863Y45511798D01*
X16454642Y45603839D01*
X16454637Y45603841D01*
X16288213Y45658988D01*
X16285518Y45659264D01*
X16285518Y43229701D01*
X16298001Y43218426D01*
X16323122Y43213753D01*
X16374001Y43165866D01*
X16391018Y43103171D01*
X16391018Y42464982D01*
X16371333Y42397943D01*
X16318529Y42352188D01*
X16267018Y42340982D01*
X14756518Y42340982D01*
X14756518Y39435982D01*
X16208519Y39435982D01*
X16275558Y39416297D01*
X16321313Y39363493D01*
X16332519Y39311982D01*
X16332519Y37602106D01*
X16338926Y37542499D01*
X16389220Y37407654D01*
X16389224Y37407647D01*
X16475470Y37292438D01*
X16475473Y37292435D01*
X16590682Y37206189D01*
X16590691Y37206184D01*
X16656956Y37181469D01*
X16712890Y37139598D01*
X16737308Y37074134D01*
X16729807Y37021956D01*
X16719926Y36995465D01*
X16713519Y36935866D01*
X16713519Y36935859D01*
X16713518Y36935847D01*
X16713518Y35697112D01*
X16713519Y35697106D01*
X16719926Y35637499D01*
X16770220Y35502654D01*
X16770224Y35502647D01*
X16856470Y35387438D01*
X16856473Y35387435D01*
X16971682Y35301189D01*
X16971689Y35301185D01*
X17002578Y35289664D01*
X17058512Y35247793D01*
X17082929Y35182329D01*
X17068077Y35114056D01*
X17018672Y35064650D01*
X17002578Y35057300D01*
X16971689Y35045780D01*
X16971682Y35045776D01*
X16856473Y34959530D01*
X16856470Y34959527D01*
X16770224Y34844318D01*
X16770220Y34844311D01*
X16719926Y34709465D01*
X16713519Y34649866D01*
X16713519Y34649859D01*
X16713518Y34649847D01*
X16713518Y33411112D01*
X16713519Y33411106D01*
X16719926Y33351499D01*
X16770220Y33216654D01*
X16770224Y33216647D01*
X16856470Y33101438D01*
X16856473Y33101435D01*
X16971682Y33015189D01*
X16971689Y33015185D01*
X17002578Y33003664D01*
X17058512Y32961793D01*
X17082929Y32896329D01*
X17068077Y32828056D01*
X17018672Y32778650D01*
X17002578Y32771300D01*
X16971689Y32759780D01*
X16971682Y32759776D01*
X16856473Y32673530D01*
X16856470Y32673527D01*
X16770224Y32558318D01*
X16770220Y32558311D01*
X16758700Y32527422D01*
X16716829Y32471488D01*
X16651365Y32447071D01*
X16583092Y32461923D01*
X16533686Y32511328D01*
X16526336Y32527422D01*
X16514815Y32558311D01*
X16514811Y32558318D01*
X16428565Y32673527D01*
X16428562Y32673530D01*
X16313353Y32759776D01*
X16313346Y32759780D01*
X16178500Y32810074D01*
X16178501Y32810074D01*
X16118901Y32816481D01*
X16118899Y32816482D01*
X16118891Y32816482D01*
X16118882Y32816482D01*
X14880147Y32816482D01*
X14880141Y32816481D01*
X14820534Y32810074D01*
X14685689Y32759780D01*
X14685682Y32759776D01*
X14570473Y32673530D01*
X14570470Y32673527D01*
X14484224Y32558318D01*
X14484219Y32558308D01*
X14472432Y32526706D01*
X14430560Y32470773D01*
X14365096Y32446357D01*
X14296823Y32461209D01*
X14247418Y32510615D01*
X14240069Y32526708D01*
X14228372Y32558069D01*
X14228368Y32558076D01*
X14142208Y32673170D01*
X14142205Y32673173D01*
X14027111Y32759333D01*
X14027104Y32759337D01*
X13892397Y32809579D01*
X13892390Y32809581D01*
X13832862Y32815982D01*
X13613518Y32815982D01*
X12813518Y32815982D01*
X12763685Y32815982D01*
X12696646Y32835667D01*
X12650891Y32888471D01*
X12639685Y32940280D01*
X12654947Y39291441D01*
X12654997Y39312281D01*
X12674843Y39379272D01*
X12727757Y39424900D01*
X12778997Y39435982D01*
X13956518Y39435982D01*
X13956518Y42340982D01*
X12786575Y42340982D01*
X12719536Y42360667D01*
X12673781Y42413471D01*
X12662575Y42465280D01*
X12663061Y42668108D01*
X12664102Y43101222D01*
X12683947Y43168208D01*
X12709171Y43189960D01*
X12706631Y43192772D01*
X12747518Y43229701D01*
X12747518Y43229702D01*
X13547518Y43229702D01*
X13550212Y43229977D01*
X13550219Y43229978D01*
X13716637Y43285124D01*
X13716642Y43285126D01*
X13865863Y43377167D01*
X13989833Y43501137D01*
X14081874Y43650358D01*
X14081876Y43650363D01*
X14137023Y43816785D01*
X14137024Y43816792D01*
X14147517Y43919496D01*
X14885519Y43919496D01*
X14896012Y43816785D01*
X14951159Y43650363D01*
X14951161Y43650358D01*
X15043202Y43501137D01*
X15167172Y43377167D01*
X15316393Y43285126D01*
X15316398Y43285124D01*
X15482816Y43229978D01*
X15482823Y43229977D01*
X15485518Y43229702D01*
X15485518Y44044482D01*
X14885519Y44044482D01*
X14885519Y43919496D01*
X14147517Y43919496D01*
X14147518Y43919509D01*
X14147518Y44044482D01*
X13547518Y44044482D01*
X13547518Y43229702D01*
X12747518Y43229702D01*
X12747518Y44844482D01*
X13547518Y44844482D01*
X14147517Y44844482D01*
X14147517Y44969454D01*
X14147516Y44969469D01*
X14885518Y44969469D01*
X14885518Y44844482D01*
X15485518Y44844482D01*
X15485518Y45659264D01*
X15485517Y45659264D01*
X15482823Y45658988D01*
X15482821Y45658988D01*
X15316398Y45603841D01*
X15316393Y45603839D01*
X15167172Y45511798D01*
X15043202Y45387828D01*
X14951161Y45238607D01*
X14951159Y45238602D01*
X14896012Y45072180D01*
X14896011Y45072173D01*
X14885518Y44969469D01*
X14147516Y44969469D01*
X14137023Y45072180D01*
X14081876Y45238602D01*
X14081874Y45238607D01*
X13989833Y45387828D01*
X13865863Y45511798D01*
X13716642Y45603839D01*
X13716637Y45603841D01*
X13550213Y45658988D01*
X13547518Y45659264D01*
X13547518Y44844482D01*
X12747518Y44844482D01*
X12747518Y45659264D01*
X12711452Y45691826D01*
X12674884Y45751363D01*
X12670549Y45784155D01*
X12673854Y47159501D01*
X21160941Y47159501D01*
X21160942Y47159500D01*
X21952000Y47159500D01*
X22752000Y47159500D01*
X23543058Y47159500D01*
X23543058Y47159501D01*
X23541505Y47174698D01*
X23486358Y47341120D01*
X23486356Y47341125D01*
X23394315Y47490346D01*
X23270345Y47614316D01*
X23121124Y47706357D01*
X23121119Y47706359D01*
X22954697Y47761506D01*
X22954690Y47761507D01*
X22851986Y47772000D01*
X22752000Y47772000D01*
X22752000Y47159500D01*
X21952000Y47159500D01*
X21952000Y47772001D01*
X21852028Y47772000D01*
X21852012Y47771999D01*
X21749302Y47761506D01*
X21582880Y47706359D01*
X21582875Y47706357D01*
X21433654Y47614316D01*
X21309684Y47490346D01*
X21217643Y47341125D01*
X21217641Y47341120D01*
X21162494Y47174698D01*
X21160941Y47159501D01*
X12673854Y47159501D01*
X12683073Y50995665D01*
X12702918Y51062650D01*
X12739531Y51099350D01*
X12987884Y51260631D01*
X13273024Y51491533D01*
X13532467Y51750976D01*
X13763369Y52036116D01*
X13963200Y52343830D01*
X14129773Y52670746D01*
X14261260Y53013283D01*
X14356223Y53367688D01*
X14381045Y53524409D01*
X14410974Y53587543D01*
X14470286Y53624474D01*
X14540148Y53623476D01*
X14598381Y53584866D01*
X14626495Y53520903D01*
X14627518Y53505010D01*
X14627518Y52525046D01*
X14642818Y52311120D01*
X14703627Y52031587D01*
X14803609Y51763524D01*
X14940709Y51512444D01*
X14940710Y51512443D01*
X15112157Y51283417D01*
X15112167Y51283405D01*
X15314440Y51081132D01*
X15314452Y51081122D01*
X15543478Y50909675D01*
X15543479Y50909674D01*
X15794560Y50772574D01*
X15794559Y50772574D01*
X16062622Y50672592D01*
X16342155Y50611783D01*
X16556081Y50596483D01*
X16556084Y50596482D01*
X17727518Y50596482D01*
X17727518Y51879728D01*
X17980045Y51846482D01*
X18274991Y51846482D01*
X18527518Y51879728D01*
X18527518Y50596482D01*
X19698952Y50596482D01*
X19698954Y50596483D01*
X19912880Y50611783D01*
X20192413Y50672592D01*
X20460476Y50772574D01*
X20711556Y50909674D01*
X20711557Y50909675D01*
X20940583Y51081122D01*
X20940595Y51081132D01*
X21142868Y51283405D01*
X21142878Y51283417D01*
X21314325Y51512443D01*
X21314326Y51512444D01*
X21451426Y51763524D01*
X21551408Y52031587D01*
X21612217Y52311120D01*
X21624473Y52482490D01*
X25006189Y52482490D01*
X25006189Y52482475D01*
X25025482Y52188119D01*
X25025483Y52188109D01*
X25025484Y52188102D01*
X25025486Y52188092D01*
X25083036Y51898766D01*
X25083039Y51898752D01*
X25177867Y51619402D01*
X25308343Y51354822D01*
X25308347Y51354815D01*
X25472243Y51109527D01*
X25666759Y50887724D01*
X25888562Y50693208D01*
X26033323Y50596482D01*
X26133853Y50529310D01*
X26398441Y50398830D01*
X26510965Y50360633D01*
X26547122Y50348359D01*
X26604276Y50308170D01*
X26630629Y50243461D01*
X26617814Y50174776D01*
X26608838Y50159817D01*
X26524854Y50039874D01*
X26524851Y50039870D01*
X26432416Y49841642D01*
X26432412Y49841633D01*
X26375807Y49630377D01*
X26375805Y49630367D01*
X26356743Y49412483D01*
X26356743Y49412482D01*
X26375805Y49194598D01*
X26375807Y49194588D01*
X26432412Y48983332D01*
X26432416Y48983323D01*
X26491012Y48857663D01*
X27168035Y49534687D01*
X27151518Y49473042D01*
X27151518Y49351922D01*
X27182867Y49234929D01*
X27243427Y49130036D01*
X27329072Y49044391D01*
X27433965Y48983831D01*
X27550958Y48952482D01*
X27672078Y48952482D01*
X27789071Y48983831D01*
X27893964Y49044391D01*
X27979609Y49130036D01*
X28040169Y49234929D01*
X28071518Y49351922D01*
X28071518Y49412482D01*
X28177203Y49412482D01*
X28732023Y48857662D01*
X28790620Y48983323D01*
X28790623Y48983332D01*
X28801743Y49024832D01*
X28838107Y49084492D01*
X28900954Y49115022D01*
X28970330Y49106728D01*
X29024208Y49062243D01*
X29041293Y49024832D01*
X29052412Y48983332D01*
X29052416Y48983323D01*
X29111012Y48857663D01*
X29665832Y49412482D01*
X29605272Y49473042D01*
X29771518Y49473042D01*
X29771518Y49351922D01*
X29802867Y49234929D01*
X29863427Y49130036D01*
X29949072Y49044391D01*
X30053965Y48983831D01*
X30170958Y48952482D01*
X30292078Y48952482D01*
X30409071Y48983831D01*
X30513964Y49044391D01*
X30599609Y49130036D01*
X30660169Y49234929D01*
X30691518Y49351922D01*
X30691518Y49412482D01*
X30797203Y49412482D01*
X31352023Y48857662D01*
X31410620Y48983323D01*
X31410623Y48983332D01*
X31467228Y49194588D01*
X31467230Y49194598D01*
X31486293Y49412482D01*
X31486293Y49412483D01*
X31467230Y49630367D01*
X31467228Y49630377D01*
X31410623Y49841633D01*
X31410620Y49841642D01*
X31352023Y49967303D01*
X30797203Y49412482D01*
X30691518Y49412482D01*
X30691518Y49473042D01*
X30660169Y49590035D01*
X30599609Y49694928D01*
X30513964Y49780573D01*
X30409071Y49841133D01*
X30292078Y49872482D01*
X30170958Y49872482D01*
X30053965Y49841133D01*
X29949072Y49780573D01*
X29863427Y49694928D01*
X29802867Y49590035D01*
X29771518Y49473042D01*
X29605272Y49473042D01*
X29111012Y49967302D01*
X29052416Y49841642D01*
X29052412Y49841633D01*
X29041293Y49800133D01*
X29004928Y49740472D01*
X28942081Y49709943D01*
X28872706Y49718238D01*
X28818828Y49762723D01*
X28801743Y49800133D01*
X28790623Y49841633D01*
X28790620Y49841642D01*
X28732023Y49967303D01*
X28177203Y49412482D01*
X28071518Y49412482D01*
X28071518Y49473042D01*
X28040169Y49590035D01*
X27979609Y49694928D01*
X27893964Y49780573D01*
X27789071Y49841133D01*
X27672078Y49872482D01*
X27550958Y49872482D01*
X27489313Y49855965D01*
X27611517Y49978167D01*
X27964241Y50330894D01*
X28012059Y50360630D01*
X28124595Y50398830D01*
X28389183Y50529310D01*
X28394688Y50532988D01*
X29676698Y50532988D01*
X30231518Y49978168D01*
X30786337Y50532988D01*
X30660677Y50591584D01*
X30660668Y50591588D01*
X30449412Y50648193D01*
X30449402Y50648195D01*
X30231519Y50667257D01*
X30231517Y50667257D01*
X30013633Y50648195D01*
X30013623Y50648193D01*
X29802367Y50591588D01*
X29802358Y50591584D01*
X29676698Y50532988D01*
X28394688Y50532988D01*
X28634475Y50693209D01*
X28856276Y50887724D01*
X29050791Y51109525D01*
X29214690Y51354817D01*
X29345170Y51619405D01*
X29439999Y51898760D01*
X29497552Y52188102D01*
X29507759Y52343830D01*
X29516847Y52482475D01*
X29516847Y52482490D01*
X30686189Y52482490D01*
X30686189Y52482475D01*
X30705482Y52188119D01*
X30705483Y52188109D01*
X30705484Y52188102D01*
X30705486Y52188092D01*
X30763036Y51898766D01*
X30763039Y51898752D01*
X30857867Y51619402D01*
X30988343Y51354822D01*
X30988347Y51354815D01*
X31152243Y51109527D01*
X31346759Y50887724D01*
X31568562Y50693208D01*
X31713323Y50596482D01*
X31813853Y50529310D01*
X32078441Y50398830D01*
X32357796Y50304001D01*
X32647138Y50246448D01*
X32675406Y50244596D01*
X32941511Y50227153D01*
X32941518Y50227153D01*
X32941525Y50227153D01*
X33190326Y50243461D01*
X33235898Y50246448D01*
X33525240Y50304001D01*
X33804595Y50398830D01*
X34069183Y50529310D01*
X34314475Y50693209D01*
X34536276Y50887724D01*
X34730791Y51109525D01*
X34894690Y51354817D01*
X35025170Y51619405D01*
X35119999Y51898760D01*
X35177552Y52188102D01*
X35187759Y52343830D01*
X35196847Y52482475D01*
X35196847Y52482490D01*
X35177553Y52776846D01*
X35177552Y52776862D01*
X35119999Y53066204D01*
X35025170Y53345559D01*
X34894690Y53610146D01*
X34885116Y53624474D01*
X34814554Y53730078D01*
X34730791Y53855439D01*
X34648732Y53949009D01*
X34536276Y54077241D01*
X34314473Y54271757D01*
X34069185Y54435653D01*
X34069178Y54435657D01*
X33804598Y54566133D01*
X33525248Y54660961D01*
X33525242Y54660963D01*
X33525240Y54660963D01*
X33235898Y54718516D01*
X33235891Y54718517D01*
X33235881Y54718518D01*
X32941525Y54737811D01*
X32941511Y54737811D01*
X32647154Y54718518D01*
X32647142Y54718517D01*
X32647138Y54718516D01*
X32647130Y54718515D01*
X32647127Y54718514D01*
X32357801Y54660964D01*
X32357787Y54660961D01*
X32078437Y54566133D01*
X31813852Y54435654D01*
X31568559Y54271754D01*
X31346759Y54077241D01*
X31152246Y53855441D01*
X30988346Y53610148D01*
X30857867Y53345563D01*
X30763039Y53066213D01*
X30763036Y53066199D01*
X30705486Y52776873D01*
X30705482Y52776846D01*
X30686189Y52482490D01*
X29516847Y52482490D01*
X29497553Y52776846D01*
X29497552Y52776862D01*
X29439999Y53066204D01*
X29345170Y53345559D01*
X29214690Y53610146D01*
X29205116Y53624474D01*
X29134554Y53730078D01*
X29050791Y53855439D01*
X28968732Y53949009D01*
X28856276Y54077241D01*
X28634473Y54271757D01*
X28389185Y54435653D01*
X28389178Y54435657D01*
X28124598Y54566133D01*
X27845248Y54660961D01*
X27845242Y54660963D01*
X27845240Y54660963D01*
X27555898Y54718516D01*
X27555891Y54718517D01*
X27555881Y54718518D01*
X27261525Y54737811D01*
X27261511Y54737811D01*
X26967154Y54718518D01*
X26967142Y54718517D01*
X26967138Y54718516D01*
X26967130Y54718515D01*
X26967127Y54718514D01*
X26677801Y54660964D01*
X26677787Y54660961D01*
X26398437Y54566133D01*
X26133852Y54435654D01*
X25888559Y54271754D01*
X25666759Y54077241D01*
X25472246Y53855441D01*
X25308346Y53610148D01*
X25177867Y53345563D01*
X25083039Y53066213D01*
X25083036Y53066199D01*
X25025486Y52776873D01*
X25025482Y52776846D01*
X25006189Y52482490D01*
X21624473Y52482490D01*
X21627517Y52525046D01*
X21627518Y52525048D01*
X21627518Y53696482D01*
X20344272Y53696482D01*
X20377518Y53949009D01*
X20377518Y54243955D01*
X20344272Y54496482D01*
X21627518Y54496482D01*
X21627518Y55667916D01*
X21627517Y55667919D01*
X21612217Y55881845D01*
X21551408Y56161378D01*
X21451426Y56429441D01*
X21314326Y56680521D01*
X21314325Y56680522D01*
X21142878Y56909548D01*
X21142868Y56909560D01*
X20940595Y57111833D01*
X20940583Y57111843D01*
X20711557Y57283290D01*
X20711556Y57283291D01*
X20460475Y57420391D01*
X20460476Y57420391D01*
X20192413Y57520373D01*
X19912880Y57581182D01*
X19698954Y57596482D01*
X18527518Y57596482D01*
X18527518Y56313237D01*
X18274991Y56346482D01*
X17980045Y56346482D01*
X17727518Y56313237D01*
X17727518Y57596482D01*
X17210683Y57596482D01*
X17143644Y57616167D01*
X17097889Y57668971D01*
X17087945Y57738129D01*
X17116970Y57801685D01*
X17123002Y57808163D01*
X17317520Y58002681D01*
X17378843Y58036166D01*
X17405201Y58039000D01*
X41926018Y58039000D01*
X41993057Y58019315D01*
G37*
%TD.AperFunction*%
%TA.AperFunction,Conductor*%
G36*
X19037834Y18612984D02*
G01*
X27461454Y13766518D01*
X27509745Y13716025D01*
X27523071Y13647438D01*
X27497201Y13582534D01*
X27458473Y13549898D01*
X27450388Y13545539D01*
X27450387Y13545538D01*
X27319333Y13428911D01*
X27319329Y13428907D01*
X27258840Y13345139D01*
X26946335Y12803862D01*
X26946325Y12803842D01*
X26904032Y12709591D01*
X26868554Y12537775D01*
X26873656Y12362404D01*
X26908069Y12233976D01*
X26906406Y12164127D01*
X26867243Y12106264D01*
X26820388Y12082108D01*
X26692502Y12047842D01*
X26538177Y11964630D01*
X26407203Y11848073D01*
X26398262Y11835693D01*
X27083340Y11440162D01*
X28461235Y10644634D01*
X28513663Y10661582D01*
X28514697Y10658382D01*
X28551853Y10669564D01*
X28619024Y10650332D01*
X28663426Y10599782D01*
X28663736Y10599947D01*
X28664442Y10598626D01*
X28665134Y10597838D01*
X28666385Y10594991D01*
X28666609Y10594571D01*
X28754210Y10463468D01*
X28754213Y10463464D01*
X28865707Y10351970D01*
X28865711Y10351967D01*
X28996814Y10264366D01*
X28996827Y10264359D01*
X29111400Y10216902D01*
X29142503Y10204019D01*
X29286817Y10175313D01*
X29297153Y10173257D01*
X29297156Y10173256D01*
X29297158Y10173256D01*
X29454844Y10173256D01*
X29454845Y10173257D01*
X29609497Y10204019D01*
X29755179Y10264362D01*
X29886289Y10351967D01*
X29997789Y10463467D01*
X30061465Y10558768D01*
X30100689Y10594443D01*
X30100225Y10595105D01*
X30105407Y10598735D01*
X30105728Y10599026D01*
X30106146Y10599251D01*
X30231749Y10711027D01*
X30289720Y10791308D01*
X30556394Y11253200D01*
X30596934Y11343545D01*
X30630933Y11508208D01*
X30626043Y11676274D01*
X30617978Y11706373D01*
X30619639Y11776221D01*
X30658801Y11834084D01*
X30723028Y11861590D01*
X30791931Y11850005D01*
X30799590Y11845947D01*
X34078384Y9959517D01*
X34078614Y9959385D01*
X34126906Y9908891D01*
X34140232Y9840304D01*
X34135853Y9817312D01*
X34129220Y9794483D01*
X34129221Y9794482D01*
X34143459Y9794482D01*
X34210498Y9774797D01*
X34241439Y9746482D01*
X34244440Y9742613D01*
X34360647Y9626406D01*
X34360651Y9626403D01*
X34360653Y9626401D01*
X34502120Y9542738D01*
X34543742Y9530646D01*
X34659944Y9496885D01*
X34659947Y9496885D01*
X34659949Y9496884D01*
X34690592Y9494473D01*
X34755880Y9469591D01*
X34797352Y9413361D01*
X34801841Y9343635D01*
X34767920Y9282552D01*
X34743580Y9264633D01*
X34743670Y9264499D01*
X34740748Y9262548D01*
X34739332Y9261504D01*
X34738609Y9261118D01*
X34670158Y9215380D01*
X34603480Y9194502D01*
X34601267Y9194482D01*
X34129222Y9194482D01*
X34161236Y9084284D01*
X34244832Y8942930D01*
X34244839Y8942921D01*
X34271246Y8916514D01*
X34304731Y8855191D01*
X34299747Y8785499D01*
X34298127Y8781382D01*
X34250467Y8666317D01*
X34250465Y8666312D01*
X34212018Y8473026D01*
X34212018Y8473023D01*
X34212018Y8275941D01*
X34212018Y8275939D01*
X34212017Y8275939D01*
X34250465Y8082653D01*
X34250468Y8082643D01*
X34325882Y7900575D01*
X34325889Y7900562D01*
X34435378Y7736701D01*
X34435381Y7736697D01*
X34468883Y7703195D01*
X34502368Y7641872D01*
X34497384Y7572180D01*
X34455512Y7516247D01*
X34390048Y7491830D01*
X34381225Y7491514D01*
X20763471Y7488996D01*
X20696428Y7508668D01*
X20650663Y7561464D01*
X20640707Y7630620D01*
X20669720Y7694181D01*
X20724441Y7730701D01*
X20798334Y7755186D01*
X20947656Y7847288D01*
X21071712Y7971344D01*
X21097465Y8013098D01*
X21149413Y8059821D01*
X21203004Y8072000D01*
X21251648Y8072000D01*
X21316743Y8053540D01*
X21328666Y8046186D01*
X21495203Y7991001D01*
X21597991Y7980500D01*
X22598008Y7980501D01*
X22598016Y7980502D01*
X22598019Y7980502D01*
X22654302Y7986252D01*
X22700797Y7991001D01*
X22867334Y8046186D01*
X23016656Y8138288D01*
X23140712Y8262344D01*
X23232814Y8411666D01*
X23287999Y8578203D01*
X23298500Y8680991D01*
X23298499Y9306008D01*
X23294655Y9343635D01*
X23287999Y9408797D01*
X23287998Y9408800D01*
X23259771Y9493982D01*
X23232814Y9575334D01*
X23140712Y9724656D01*
X23048465Y9816903D01*
X27069910Y9816903D01*
X27069910Y9816902D01*
X27156481Y9766921D01*
X27156510Y9766906D01*
X27250696Y9724642D01*
X27250695Y9724642D01*
X27422398Y9689189D01*
X27597650Y9694287D01*
X27766996Y9739663D01*
X27921325Y9822876D01*
X28052290Y9939425D01*
X28052293Y9939428D01*
X28061236Y9951814D01*
X27376160Y10347342D01*
X27376159Y10347342D01*
X27069910Y9816903D01*
X23048465Y9816903D01*
X23046695Y9818673D01*
X23013210Y9879996D01*
X23018194Y9949688D01*
X23046695Y9994036D01*
X23140317Y10087658D01*
X23232356Y10236876D01*
X23232358Y10236881D01*
X23287505Y10403303D01*
X23289058Y10418500D01*
X20906942Y10418500D01*
X20908494Y10403303D01*
X20963641Y10236881D01*
X20963645Y10236872D01*
X21001615Y10175313D01*
X21020055Y10107921D01*
X20999132Y10041257D01*
X20945490Y9996488D01*
X20876159Y9987827D01*
X20830981Y10004678D01*
X20798334Y10024814D01*
X20631797Y10079999D01*
X20631795Y10080000D01*
X20529010Y10090500D01*
X19903998Y10090500D01*
X19903980Y10090499D01*
X19801203Y10080000D01*
X19801200Y10079999D01*
X19634668Y10024815D01*
X19634659Y10024811D01*
X19513081Y9949821D01*
X19445689Y9931381D01*
X19379025Y9952304D01*
X19334256Y10005946D01*
X19325595Y10075277D01*
X19342445Y10120454D01*
X19362314Y10152666D01*
X19417499Y10319203D01*
X19428000Y10421991D01*
X19427999Y10957234D01*
X25956555Y10957234D01*
X25961654Y10781982D01*
X26007030Y10612636D01*
X26090242Y10458310D01*
X26206795Y10327339D01*
X26290507Y10266890D01*
X26377089Y10216902D01*
X26377090Y10216902D01*
X26683339Y10747342D01*
X26683339Y10747343D01*
X25998263Y11142872D01*
X25992010Y11128937D01*
X25956555Y10957234D01*
X19427999Y10957234D01*
X19427999Y11218501D01*
X20906941Y11218501D01*
X20906942Y11218500D01*
X21698000Y11218500D01*
X22498000Y11218500D01*
X23289058Y11218500D01*
X23289058Y11218501D01*
X23287505Y11233698D01*
X23232358Y11400120D01*
X23232356Y11400125D01*
X23140315Y11549346D01*
X23016345Y11673316D01*
X22867124Y11765357D01*
X22867119Y11765359D01*
X22700697Y11820506D01*
X22700690Y11820507D01*
X22597986Y11831000D01*
X22498000Y11831000D01*
X22498000Y11218500D01*
X21698000Y11218500D01*
X21698000Y11831001D01*
X21598028Y11831000D01*
X21598012Y11830999D01*
X21495302Y11820506D01*
X21328880Y11765359D01*
X21328875Y11765357D01*
X21179654Y11673316D01*
X21055684Y11549346D01*
X20963643Y11400125D01*
X20963641Y11400120D01*
X20908494Y11233698D01*
X20906941Y11218501D01*
X19427999Y11218501D01*
X19427999Y11422008D01*
X19417499Y11524797D01*
X19362314Y11691334D01*
X19270212Y11840656D01*
X19146156Y11964712D01*
X19053388Y12021931D01*
X18996836Y12056813D01*
X18996831Y12056815D01*
X18995362Y12057302D01*
X18830297Y12111999D01*
X18830295Y12112000D01*
X18727510Y12122500D01*
X18102498Y12122500D01*
X18102480Y12122499D01*
X17999703Y12112000D01*
X17999700Y12111999D01*
X17833168Y12056815D01*
X17833163Y12056813D01*
X17683842Y11964711D01*
X17619681Y11900549D01*
X17558358Y11867064D01*
X17488666Y11872048D01*
X17432733Y11913920D01*
X17408316Y11979384D01*
X17408000Y11988230D01*
X17408000Y12643812D01*
X17427685Y12710851D01*
X17444315Y12731489D01*
X17828508Y13115683D01*
X17889831Y13149167D01*
X17916189Y13152001D01*
X18399371Y13152001D01*
X18399372Y13152001D01*
X18458983Y13158409D01*
X18593831Y13208704D01*
X18709046Y13294954D01*
X18795296Y13410169D01*
X18845591Y13545017D01*
X18852000Y13604627D01*
X18851999Y14843372D01*
X18845591Y14902983D01*
X18831513Y14940727D01*
X18795297Y15037829D01*
X18795293Y15037836D01*
X18709047Y15153045D01*
X18709044Y15153048D01*
X18593835Y15239294D01*
X18593826Y15239299D01*
X18562940Y15250818D01*
X18507006Y15292688D01*
X18482588Y15358152D01*
X18497439Y15426425D01*
X18546844Y15475831D01*
X18562940Y15483182D01*
X18593826Y15494702D01*
X18593826Y15494703D01*
X18593831Y15494704D01*
X18709046Y15580954D01*
X18795296Y15696169D01*
X18845591Y15831017D01*
X18852000Y15890627D01*
X18851999Y17129372D01*
X18845591Y17188983D01*
X18801828Y17306317D01*
X18795297Y17323829D01*
X18795293Y17323836D01*
X18709047Y17439045D01*
X18709044Y17439048D01*
X18593835Y17525294D01*
X18593826Y17525299D01*
X18562940Y17536818D01*
X18507006Y17578688D01*
X18482588Y17644152D01*
X18497439Y17712425D01*
X18546844Y17761831D01*
X18562940Y17769182D01*
X18593826Y17780702D01*
X18593826Y17780703D01*
X18593831Y17780704D01*
X18709046Y17866954D01*
X18795296Y17982169D01*
X18845591Y18117017D01*
X18852000Y18176627D01*
X18851999Y18505505D01*
X18871683Y18572542D01*
X18924487Y18618297D01*
X18993646Y18628241D01*
X19037834Y18612984D01*
G37*
%TD.AperFunction*%
%TD*%
%TA.AperFunction,Conductor*%
%TO.N,+5V*%
G36*
X28399345Y27158315D02*
G01*
X28445100Y27105511D01*
X28455709Y27041846D01*
X28439619Y26878482D01*
X28459167Y26680001D01*
X28517066Y26489134D01*
X28611078Y26313251D01*
X28611083Y26313244D01*
X28737607Y26159072D01*
X28844893Y26071026D01*
X28891781Y26032546D01*
X28891784Y26032545D01*
X28891786Y26032543D01*
X29067669Y25938531D01*
X29067672Y25938531D01*
X29067676Y25938528D01*
X29258533Y25880632D01*
X29457018Y25861083D01*
X29655503Y25880632D01*
X29846360Y25938528D01*
X30022255Y26032546D01*
X30176428Y26159072D01*
X30260146Y26261083D01*
X30317892Y26300418D01*
X30387737Y26302289D01*
X30447505Y26266102D01*
X30478221Y26203346D01*
X30480000Y26182419D01*
X30480000Y22424828D01*
X30464831Y22365399D01*
X30426400Y22295021D01*
X30376994Y22245617D01*
X30317622Y22230450D01*
X28085187Y22229498D01*
X17531518Y22225000D01*
X17531518Y27054000D01*
X17551203Y27121039D01*
X17604007Y27166794D01*
X17655518Y27178000D01*
X28332306Y27178000D01*
X28399345Y27158315D01*
G37*
%TD.AperFunction*%
%TD*%
%TA.AperFunction,Conductor*%
%TO.N,+5VP*%
G36*
X26986667Y43811285D02*
G01*
X27039016Y43799670D01*
X27182188Y43732907D01*
X27393541Y43676275D01*
X27576444Y43660274D01*
X27611516Y43657205D01*
X27611518Y43657205D01*
X27611520Y43657205D01*
X27639772Y43659677D01*
X27829495Y43676275D01*
X28040848Y43732907D01*
X28183033Y43799210D01*
X28235473Y43810825D01*
X29608739Y43810320D01*
X29661085Y43798705D01*
X29802188Y43732907D01*
X30013541Y43676275D01*
X30196444Y43660274D01*
X30231516Y43657205D01*
X30231518Y43657205D01*
X30231520Y43657205D01*
X30259772Y43659677D01*
X30449495Y43676275D01*
X30660848Y43732907D01*
X30800967Y43798246D01*
X30853406Y43809861D01*
X31758377Y43809528D01*
X31825409Y43789819D01*
X31871144Y43736998D01*
X31882331Y43685342D01*
X31878909Y41404620D01*
X31859124Y41337610D01*
X31816919Y41297425D01*
X31813862Y41295661D01*
X31568559Y41131754D01*
X31346759Y40937241D01*
X31152246Y40715441D01*
X30988346Y40470148D01*
X30903109Y40297305D01*
X30857866Y40205559D01*
X30857864Y40205556D01*
X30856071Y40201918D01*
X30854554Y40202666D01*
X30815012Y40153674D01*
X30748701Y40131660D01*
X30744416Y40131584D01*
X29458908Y40131110D01*
X29391861Y40150770D01*
X29347345Y40202106D01*
X29346966Y40201918D01*
X29346250Y40203368D01*
X29346087Y40203557D01*
X29345552Y40204785D01*
X29214689Y40470148D01*
X29159560Y40552653D01*
X29050791Y40715439D01*
X29008173Y40764035D01*
X28856276Y40937241D01*
X28634473Y41131757D01*
X28389185Y41295653D01*
X28389178Y41295657D01*
X28124598Y41426133D01*
X27845248Y41520961D01*
X27845242Y41520963D01*
X27845240Y41520963D01*
X27555898Y41578516D01*
X27555891Y41578517D01*
X27555881Y41578518D01*
X27261525Y41597811D01*
X27261511Y41597811D01*
X26967154Y41578518D01*
X26967142Y41578517D01*
X26967138Y41578516D01*
X26967130Y41578515D01*
X26967127Y41578514D01*
X26677801Y41520964D01*
X26677787Y41520961D01*
X26398437Y41426133D01*
X26133852Y41295654D01*
X25888559Y41131754D01*
X25666759Y40937241D01*
X25472246Y40715441D01*
X25308346Y40470148D01*
X25176070Y40201918D01*
X25175121Y40202386D01*
X25134220Y40151633D01*
X25067925Y40129570D01*
X25063549Y40129491D01*
X17076563Y40126549D01*
X17009516Y40146209D01*
X16963742Y40198996D01*
X16952517Y40250546D01*
X16952517Y41888854D01*
X16946109Y41948465D01*
X16904336Y42060465D01*
X16896518Y42103798D01*
X16896518Y43690955D01*
X16916203Y43757994D01*
X16969007Y43803749D01*
X17020560Y43814955D01*
X26986667Y43811285D01*
G37*
%TD.AperFunction*%
%TD*%
%TA.AperFunction,Conductor*%
%TO.N,+BATT*%
G36*
X11881039Y58013797D02*
G01*
X11926794Y57960993D01*
X11938000Y57909482D01*
X11938000Y57610791D01*
X11918315Y57543752D01*
X11865511Y57497997D01*
X11796353Y57488053D01*
X11781907Y57491016D01*
X11656209Y57524697D01*
X11656202Y57524698D01*
X11293871Y57582085D01*
X10927519Y57601285D01*
X10927517Y57601285D01*
X10561164Y57582085D01*
X10198833Y57524698D01*
X10198831Y57524698D01*
X9844466Y57429746D01*
X9501982Y57298278D01*
X9175112Y57131728D01*
X8867448Y56931929D01*
X8751581Y56838103D01*
X9642878Y55946807D01*
X9440807Y55791751D01*
X9232249Y55583193D01*
X9077193Y55381123D01*
X8185897Y56272419D01*
X8092071Y56156552D01*
X7892272Y55848888D01*
X7725722Y55522018D01*
X7594254Y55179534D01*
X7499302Y54825169D01*
X7499302Y54825167D01*
X7441915Y54462836D01*
X7422715Y54096483D01*
X7422715Y54096482D01*
X7441915Y53730129D01*
X7499302Y53367798D01*
X7499302Y53367796D01*
X7594254Y53013431D01*
X7725722Y52670947D01*
X7892272Y52344076D01*
X8092071Y52036412D01*
X8185897Y51920548D01*
X9077193Y52811844D01*
X9232249Y52609771D01*
X9440807Y52401213D01*
X9642877Y52246159D01*
X8751582Y51354863D01*
X8867453Y51261032D01*
X9175111Y51061237D01*
X9501982Y50894687D01*
X9844466Y50763219D01*
X10198832Y50668267D01*
X10561164Y50610880D01*
X10927517Y50591679D01*
X10927519Y50591679D01*
X11293871Y50610880D01*
X11656202Y50668267D01*
X11656204Y50668267D01*
X11781906Y50701949D01*
X11851756Y50700286D01*
X11909618Y50661124D01*
X11937123Y50596896D01*
X11938000Y50582174D01*
X11938000Y45735345D01*
X11918315Y45668306D01*
X11865511Y45622551D01*
X11796353Y45612607D01*
X11774996Y45617639D01*
X11650213Y45658988D01*
X11647518Y45659264D01*
X11647518Y43229702D01*
X11650212Y43229977D01*
X11650219Y43229978D01*
X11774996Y43271325D01*
X11844824Y43273727D01*
X11904866Y43237995D01*
X11936059Y43175475D01*
X11938000Y43153619D01*
X11938000Y42464982D01*
X11918315Y42397943D01*
X11865511Y42352188D01*
X11814000Y42340982D01*
X10184518Y42340982D01*
X10184518Y39435982D01*
X11814000Y39435982D01*
X11881039Y39416297D01*
X11926794Y39363493D01*
X11938000Y39311982D01*
X11938000Y34476189D01*
X11918315Y34409150D01*
X11865511Y34363395D01*
X11796353Y34353451D01*
X11732797Y34382476D01*
X11726319Y34388508D01*
X9749836Y36364991D01*
X9716351Y36426314D01*
X9713517Y36452672D01*
X9713517Y36935853D01*
X9713516Y36935859D01*
X9713515Y36935866D01*
X9707109Y36995465D01*
X9656814Y37130313D01*
X9656813Y37130314D01*
X9656811Y37130318D01*
X9570565Y37245527D01*
X9570562Y37245530D01*
X9455353Y37331776D01*
X9455346Y37331780D01*
X9320500Y37382074D01*
X9320501Y37382074D01*
X9260901Y37388481D01*
X9260899Y37388482D01*
X9260891Y37388482D01*
X9260882Y37388482D01*
X8022147Y37388482D01*
X8022141Y37388481D01*
X7962534Y37382074D01*
X7827689Y37331780D01*
X7827682Y37331776D01*
X7712473Y37245530D01*
X7712470Y37245527D01*
X7626224Y37130318D01*
X7626220Y37130311D01*
X7575926Y36995465D01*
X7569519Y36935866D01*
X7569519Y36935859D01*
X7569518Y36935847D01*
X7569518Y35697112D01*
X7569519Y35697106D01*
X7575926Y35637499D01*
X7626220Y35502654D01*
X7626224Y35502647D01*
X7712470Y35387438D01*
X7712473Y35387435D01*
X7827682Y35301189D01*
X7827689Y35301185D01*
X7858578Y35289664D01*
X7914512Y35247793D01*
X7938929Y35182329D01*
X7924077Y35114056D01*
X7874672Y35064650D01*
X7858578Y35057300D01*
X7827689Y35045780D01*
X7827682Y35045776D01*
X7712473Y34959530D01*
X7712470Y34959527D01*
X7626224Y34844318D01*
X7626220Y34844311D01*
X7575926Y34709465D01*
X7569519Y34649866D01*
X7569518Y34649847D01*
X7569518Y33411112D01*
X7569519Y33411106D01*
X7575926Y33351499D01*
X7626220Y33216654D01*
X7626224Y33216647D01*
X7712470Y33101438D01*
X7712473Y33101435D01*
X7827682Y33015189D01*
X7827689Y33015185D01*
X7858578Y33003664D01*
X7914512Y32961793D01*
X7938929Y32896329D01*
X7924077Y32828056D01*
X7874672Y32778650D01*
X7858578Y32771300D01*
X7827689Y32759780D01*
X7827682Y32759776D01*
X7712473Y32673530D01*
X7712470Y32673527D01*
X7626224Y32558318D01*
X7626220Y32558311D01*
X7575926Y32423465D01*
X7569519Y32363866D01*
X7569518Y32363847D01*
X7569518Y31125112D01*
X7569519Y31125106D01*
X7575926Y31065499D01*
X7626220Y30930654D01*
X7626224Y30930647D01*
X7712470Y30815438D01*
X7712473Y30815435D01*
X7827682Y30729189D01*
X7827689Y30729185D01*
X7962535Y30678891D01*
X7962534Y30678891D01*
X7969462Y30678147D01*
X8022145Y30672482D01*
X9260890Y30672483D01*
X9320501Y30678891D01*
X9455349Y30729186D01*
X9570564Y30815436D01*
X9656814Y30930651D01*
X9668336Y30961542D01*
X9710206Y31017476D01*
X9775670Y31041894D01*
X9843943Y31027043D01*
X9893349Y30977638D01*
X9900700Y30961542D01*
X9912219Y30930656D01*
X9912224Y30930647D01*
X9998470Y30815438D01*
X9998473Y30815435D01*
X10113682Y30729189D01*
X10113689Y30729185D01*
X10248535Y30678891D01*
X10248534Y30678891D01*
X10255462Y30678147D01*
X10308145Y30672482D01*
X11546890Y30672483D01*
X11606501Y30678891D01*
X11741349Y30729186D01*
X11741352Y30729189D01*
X11749132Y30733436D01*
X11750026Y30731798D01*
X11805144Y30752360D01*
X11873418Y30737514D01*
X11922828Y30688112D01*
X11938000Y30628677D01*
X11938000Y28059023D01*
X11918315Y27991984D01*
X11865511Y27946229D01*
X11796353Y27936285D01*
X11732797Y27965310D01*
X11726319Y27971342D01*
X11706345Y27991316D01*
X11557124Y28083357D01*
X11557119Y28083359D01*
X11390695Y28138506D01*
X11388000Y28138782D01*
X11388000Y25709220D01*
X11390694Y25709495D01*
X11390701Y25709496D01*
X11557119Y25764642D01*
X11557124Y25764644D01*
X11706345Y25856685D01*
X11726319Y25876658D01*
X11787642Y25910143D01*
X11857334Y25905159D01*
X11913267Y25863287D01*
X11937684Y25797823D01*
X11938000Y25788977D01*
X11938000Y24944500D01*
X11918315Y24877461D01*
X11865511Y24831706D01*
X11814000Y24820500D01*
X10179000Y24820500D01*
X10179000Y21915500D01*
X11814000Y21915500D01*
X11881039Y21895815D01*
X11926794Y21843011D01*
X11938000Y21791500D01*
X11938000Y20062893D01*
X11918315Y19995854D01*
X11865511Y19950099D01*
X11814108Y19938893D01*
X5717626Y19933590D01*
X5650569Y19953216D01*
X5604768Y20005980D01*
X5593518Y20057590D01*
X5593518Y22367656D01*
X7183500Y22367656D01*
X7189901Y22308128D01*
X7189903Y22308121D01*
X7240145Y22173414D01*
X7240149Y22173407D01*
X7326309Y22058313D01*
X7326312Y22058310D01*
X7441406Y21972150D01*
X7441413Y21972146D01*
X7576120Y21921904D01*
X7576127Y21921902D01*
X7635655Y21915501D01*
X7635672Y21915500D01*
X9379000Y21915500D01*
X9379000Y22968000D01*
X7183500Y22968000D01*
X7183500Y22367656D01*
X5593518Y22367656D01*
X5593518Y24368345D01*
X7183500Y24368345D01*
X7183500Y23768000D01*
X9379000Y23768000D01*
X9379000Y24820500D01*
X7635655Y24820500D01*
X7576127Y24814099D01*
X7576120Y24814097D01*
X7441413Y24763855D01*
X7441406Y24763851D01*
X7326312Y24677691D01*
X7326309Y24677688D01*
X7240149Y24562594D01*
X7240145Y24562587D01*
X7189903Y24427880D01*
X7189901Y24427873D01*
X7183500Y24368345D01*
X5593518Y24368345D01*
X5593518Y26399014D01*
X9988001Y26399014D01*
X9998494Y26296303D01*
X10053641Y26129881D01*
X10053643Y26129876D01*
X10145684Y25980655D01*
X10269654Y25856685D01*
X10418875Y25764644D01*
X10418880Y25764642D01*
X10585298Y25709496D01*
X10585305Y25709495D01*
X10588000Y25709220D01*
X10588000Y26524000D01*
X9988001Y26524000D01*
X9988001Y26399014D01*
X5593518Y26399014D01*
X5593518Y27448987D01*
X9988000Y27448987D01*
X9988000Y27324000D01*
X10588000Y27324000D01*
X10588000Y28138782D01*
X10587999Y28138782D01*
X10585305Y28138506D01*
X10585303Y28138506D01*
X10418880Y28083359D01*
X10418875Y28083357D01*
X10269654Y27991316D01*
X10145684Y27867346D01*
X10053643Y27718125D01*
X10053641Y27718120D01*
X9998494Y27551698D01*
X9998493Y27551691D01*
X9988000Y27448987D01*
X5593518Y27448987D01*
X5593518Y39888138D01*
X7189018Y39888138D01*
X7195419Y39828610D01*
X7195421Y39828603D01*
X7245663Y39693896D01*
X7245667Y39693889D01*
X7331827Y39578795D01*
X7331830Y39578792D01*
X7446924Y39492632D01*
X7446931Y39492628D01*
X7581638Y39442386D01*
X7581645Y39442384D01*
X7641173Y39435983D01*
X7641190Y39435982D01*
X9384518Y39435982D01*
X9384518Y40488482D01*
X7189018Y40488482D01*
X7189018Y39888138D01*
X5593518Y39888138D01*
X5593518Y41888827D01*
X7189018Y41888827D01*
X7189018Y41288482D01*
X9384518Y41288482D01*
X9384518Y42340982D01*
X7641173Y42340982D01*
X7581645Y42334581D01*
X7581638Y42334579D01*
X7446931Y42284337D01*
X7446924Y42284333D01*
X7331830Y42198173D01*
X7331827Y42198170D01*
X7245667Y42083076D01*
X7245663Y42083069D01*
X7195421Y41948362D01*
X7195419Y41948355D01*
X7189018Y41888827D01*
X5593518Y41888827D01*
X5593518Y43919496D01*
X10247519Y43919496D01*
X10258012Y43816785D01*
X10313159Y43650363D01*
X10313161Y43650358D01*
X10405202Y43501137D01*
X10529172Y43377167D01*
X10678393Y43285126D01*
X10678398Y43285124D01*
X10844816Y43229978D01*
X10844823Y43229977D01*
X10847518Y43229702D01*
X10847518Y44044482D01*
X10247519Y44044482D01*
X10247519Y43919496D01*
X5593518Y43919496D01*
X5593518Y44969469D01*
X10247518Y44969469D01*
X10247518Y44844482D01*
X10847518Y44844482D01*
X10847518Y45659264D01*
X10847517Y45659264D01*
X10844823Y45658988D01*
X10844821Y45658988D01*
X10678398Y45603841D01*
X10678393Y45603839D01*
X10529172Y45511798D01*
X10405202Y45387828D01*
X10313161Y45238607D01*
X10313159Y45238602D01*
X10258012Y45072180D01*
X10258011Y45072173D01*
X10247518Y44969469D01*
X5593518Y44969469D01*
X5593518Y57909482D01*
X5613203Y57976521D01*
X5666007Y58022276D01*
X5717518Y58033482D01*
X11814000Y58033482D01*
X11881039Y58013797D01*
G37*
%TD.AperFunction*%
%TD*%
%TA.AperFunction,Conductor*%
%TO.N,+5V*%
G36*
X28085187Y22229499D02*
G01*
X28085187Y22229498D01*
X28731929Y21683810D01*
X30499696Y20192256D01*
X30518991Y20171804D01*
X30567566Y20106914D01*
X30651272Y19995095D01*
X30651288Y19995077D01*
X30853612Y19792753D01*
X30853630Y19792737D01*
X31082700Y19621258D01*
X31082703Y19621256D01*
X31333857Y19484115D01*
X31333859Y19484115D01*
X31337385Y19482189D01*
X31357917Y19468132D01*
X34450934Y16858399D01*
X34489478Y16800124D01*
X34489632Y16799620D01*
X34490858Y16795575D01*
X34490860Y16795569D01*
X34490862Y16795564D01*
X34490863Y16795561D01*
X34547430Y16658994D01*
X34547440Y16658976D01*
X34606790Y16570152D01*
X34627668Y16503475D01*
X34609183Y16436095D01*
X34559985Y16390778D01*
X34524175Y16372532D01*
X34524170Y16372528D01*
X34434472Y16282830D01*
X34434469Y16282825D01*
X34376870Y16169784D01*
X34362018Y16076007D01*
X34362018Y15712965D01*
X34372810Y15644825D01*
X34376872Y15619178D01*
X34434468Y15506140D01*
X34434470Y15506138D01*
X34434472Y15506135D01*
X34524170Y15416437D01*
X34524172Y15416436D01*
X34524176Y15416432D01*
X34637214Y15358836D01*
X34637216Y15358835D01*
X34730993Y15343983D01*
X34730999Y15343982D01*
X35100600Y15343983D01*
X35100610Y15343982D01*
X35115043Y15343982D01*
X35944000Y15343982D01*
X36011039Y15324297D01*
X36056794Y15271493D01*
X36068000Y15219982D01*
X36068000Y14894759D01*
X36048315Y14827720D01*
X35995511Y14781965D01*
X35926353Y14772021D01*
X35887707Y14787314D01*
X35886929Y14785644D01*
X35877097Y14790229D01*
X35773063Y14838741D01*
X35773061Y14838742D01*
X35773062Y14838742D01*
X35725657Y14844982D01*
X34649385Y14844982D01*
X34634357Y14843004D01*
X34601973Y14838741D01*
X34601971Y14838740D01*
X34601969Y14838740D01*
X34497938Y14790229D01*
X34416771Y14709062D01*
X34368258Y14605026D01*
X34362018Y14557623D01*
X34362018Y14331351D01*
X34362019Y14331344D01*
X34368259Y14283937D01*
X34385536Y14246886D01*
X34396027Y14177809D01*
X34385536Y14142080D01*
X34368260Y14105031D01*
X34368258Y14105024D01*
X34362018Y14057623D01*
X34362018Y13831351D01*
X34362019Y13831344D01*
X34368259Y13783937D01*
X34385536Y13746886D01*
X34396027Y13677809D01*
X34385536Y13642080D01*
X34368260Y13605031D01*
X34368258Y13605024D01*
X34362018Y13557623D01*
X34362018Y13331351D01*
X34362019Y13331344D01*
X34368259Y13283937D01*
X34385536Y13246886D01*
X34396027Y13177809D01*
X34385536Y13142080D01*
X34368260Y13105031D01*
X34368258Y13105024D01*
X34362018Y13057623D01*
X34362018Y12831351D01*
X34362019Y12831344D01*
X34368259Y12783937D01*
X34385536Y12746886D01*
X34396027Y12677809D01*
X34385536Y12642080D01*
X34368260Y12605031D01*
X34368258Y12605024D01*
X34362018Y12557623D01*
X34362018Y12331351D01*
X34362019Y12331344D01*
X34368259Y12283937D01*
X34385536Y12246886D01*
X34396027Y12177809D01*
X34385536Y12142080D01*
X34368260Y12105031D01*
X34368258Y12105024D01*
X34362018Y12057623D01*
X34362018Y11831351D01*
X34362019Y11831344D01*
X34368259Y11783937D01*
X34385536Y11746886D01*
X34396027Y11677809D01*
X34385536Y11642080D01*
X34368260Y11605031D01*
X34368258Y11605024D01*
X34362018Y11557623D01*
X34362018Y11331351D01*
X34362019Y11331344D01*
X34368259Y11283937D01*
X34385536Y11246886D01*
X34396027Y11177809D01*
X34385536Y11142080D01*
X34368260Y11105031D01*
X34368258Y11105024D01*
X34362018Y11057623D01*
X34362018Y10831350D01*
X34362019Y10831344D01*
X34368259Y10783937D01*
X34416771Y10679903D01*
X34497939Y10598735D01*
X34601973Y10550223D01*
X34649379Y10543982D01*
X35725656Y10543983D01*
X35773063Y10550223D01*
X35877097Y10598735D01*
X35877097Y10598736D01*
X35886929Y10603320D01*
X35888058Y10600899D01*
X35939068Y10618108D01*
X36006837Y10601105D01*
X36054656Y10550163D01*
X36068000Y10494206D01*
X36068000Y10168982D01*
X36048315Y10101943D01*
X35995511Y10056188D01*
X35944000Y10044982D01*
X34976609Y10044982D01*
X34914771Y10061502D01*
X17588162Y20030236D01*
X17539870Y20080730D01*
X17526000Y20137716D01*
X17526000Y22295120D01*
X17531518Y22313913D01*
X17531518Y22352000D01*
X27940000Y22352000D01*
X28085187Y22229499D01*
G37*
%TD.AperFunction*%
%TD*%
M02*
