M48
; DRILL file {KiCad 8.0.3} date 2024-06-19T09:11:06+0900
; FORMAT={-:-/ absolute / metric / decimal}
; #@! TF.CreationDate,2024-06-19T09:11:06+09:00
; #@! TF.GenerationSoftware,Kicad,Pcbnew,8.0.3
; #@! TF.FileFunction,MixedPlating,1,2
FMAT,2
METRIC
; #@! TA.AperFunction,Plated,PTH,ViaDrill
T1C0.300
; #@! TA.AperFunction,Plated,PTH,ComponentDrill
T2C0.500
; #@! TA.AperFunction,Plated,PTH,ComponentDrill
T3C0.600
; #@! TA.AperFunction,Plated,PTH,ViaDrill
T4C0.800
; #@! TA.AperFunction,Plated,PTH,ComponentDrill
T5C0.920
; #@! TA.AperFunction,Plated,PTH,ComponentDrill
T6C0.950
; #@! TA.AperFunction,Plated,PTH,ComponentDrill
T7C1.600
; #@! TA.AperFunction,Plated,PTH,ComponentDrill
T8C2.300
; #@! TA.AperFunction,Plated,PTH,ComponentDrill
T9C3.200
; #@! TA.AperFunction,Plated,PTH,ComponentDrill
T10C4.500
%
G90
G05
T1
X9.144Y27.559
X9.144Y26.289
X9.398Y39.243
X9.398Y21.463
X11.176Y39.243
X11.176Y21.463
X12.954Y39.243
X12.954Y21.463
X13.081Y28.823
X15.494Y9.271
X17.526Y21.717
X17.526Y20.193
X17.526Y18.669
X17.526Y17.145
X17.653Y34.925
X17.659Y39.364
X17.659Y37.84
X17.659Y36.316
X17.786Y28.823
X18.034Y9.271
X20.326Y28.823
X20.574Y9.271
X22.606Y25.019
X22.606Y22.479
X22.606Y19.939
X22.606Y16.891
X22.606Y14.351
X25.146Y25.019
X25.146Y22.479
X25.146Y19.939
X25.146Y14.351
X27.051Y41.275
X27.305Y43.307
X27.686Y17.399
X27.686Y11.811
X27.686Y9.779
X30.226Y17.399
X30.226Y14.859
X32.258Y41.021
X32.766Y17.399
X32.766Y14.859
T2
X1.41Y62.23
X1.491Y3.856
X2.113Y63.927
X2.113Y60.533
X2.194Y5.553
X2.194Y2.159
X3.81Y64.63
X3.81Y59.83
X3.891Y6.256
X3.891Y1.456
X5.507Y63.927
X5.507Y60.533
X5.588Y5.553
X5.588Y2.159
X6.21Y62.23
X6.291Y3.856
X38.875Y62.23
X38.875Y3.81
X39.578Y63.927
X39.578Y60.533
X39.578Y5.507
X39.578Y2.113
X41.275Y64.63
X41.275Y59.83
X41.275Y6.21
X41.275Y1.41
X42.972Y63.927
X42.972Y60.533
X42.972Y5.507
X42.972Y2.113
X43.675Y62.23
X43.675Y3.81
T4
X31.756Y9.011
X33.534Y9.011
X35.306Y12.319
X35.312Y14.726
X35.312Y9.011
X39.223Y16.129
X39.249Y11.303
X40.9Y16.129
X40.9Y11.303
X42.678Y16.129
X42.678Y11.303
T5
X29.56Y31.601
X29.56Y29.101
X29.56Y27.101
X29.56Y24.601
X29.644Y49.793
X29.644Y47.293
X29.644Y45.293
X29.644Y42.793
X32.18Y31.601
X32.18Y29.101
X32.18Y27.101
X32.18Y24.601
X32.264Y49.793
X32.264Y47.293
X32.264Y45.293
X32.264Y42.793
T6
X28.24Y59.938
X30.74Y59.938
T7
X2.872Y54.618
X2.872Y41.148
X6.272Y54.618
X6.272Y41.148
T8
X29.21Y34.671
X29.21Y21.531
X29.294Y52.863
X29.294Y39.723
X34.89Y34.671
X34.89Y21.531
X34.974Y52.863
X34.974Y39.723
T9
X3.81Y62.23
X3.891Y3.856
X41.275Y62.23
X41.275Y3.81
T10
X12.96Y54.477
X20.16Y54.477
T3
G00X37.239Y17.909
M15
G01X38.339Y17.909
M16
G05
G00X37.239Y9.269
M15
G01X38.339Y9.269
M16
G05
G00X41.569Y17.909
M15
G01X42.369Y17.909
M16
G05
G00X41.569Y9.269
M15
G01X42.369Y9.269
M16
G05
M30
